<svg xmlns="http://www.w3.org/2000/svg" width="20.48" height="20.48" fill-rule="evenodd" clip-rule="evenodd" image-rendering="optimizeQuality" shape-rendering="geometricPrecision" text-rendering="geometricPrecision" viewBox="0 0 213.33 213.33" id="Cascade">
  <path fill-rule="nonzero" d="m116.94 83.83 37.34-25.18c.06-.04.11-.08.17-.12l6.54-4.41c.93-.62 1.63-1.4 2.1-2.28.46-.87.71-1.9.71-3.02s-.24-2.14-.71-3.02c-.47-.88-1.18-1.65-2.1-2.27l-44.05-29.7c-3.18-2.15-6.73-3.22-10.27-3.22-3.54 0-7.09 1.07-10.27 3.22l-44.05 29.7c-.93.62-1.63 1.39-2.1 2.27-.46.88-.71 1.9-.71 3.02s.24 2.15.71 3.02c.47.88 1.18 1.65 2.1 2.28l6.54 4.41c.06.04.11.08.17.12L96.4 83.83c3.18 2.14 6.73 3.22 10.27 3.22 3.54 0 7.09-1.07 10.27-3.22zm-59.59 72-5 3.37c-.93.62-1.63 1.4-2.1 2.28-.46.87-.71 1.9-.71 3.02s.24 2.14.71 3.02c.47.88 1.18 1.65 2.1 2.28l44.05 29.7c3.18 2.15 6.73 3.22 10.27 3.22 3.54 0 7.09-1.07 10.27-3.22l44.05-29.7c.93-.63 1.63-1.4 2.1-2.28.46-.88.71-1.9.71-3.02s-.24-2.15-.71-3.02c-.47-.88-1.18-1.65-2.1-2.28l-5-3.37-33.5 22.59c-4.87 3.28-10.34 4.93-15.82 4.93s-10.95-1.64-15.82-4.93l-33.5-22.59zm107.51-5.98 1.68 1.13c2.3 1.55 4.09 3.54 5.32 5.85 1.23 2.31 1.87 4.91 1.87 7.68 0 2.76-.64 5.36-1.87 7.67-1.23 2.31-3.02 4.3-5.32 5.85l-44.05 29.7c-4.87 3.28-10.34 4.93-15.82 4.93s-10.95-1.64-15.82-4.93l-44.05-29.7c-2.3-1.55-4.09-3.54-5.32-5.85-1.23-2.31-1.87-4.91-1.87-7.67 0-2.77.64-5.37 1.87-7.68 1.23-2.31 3.02-4.3 5.32-5.85l1.68-1.13-1.68-1.13c-2.3-1.55-4.09-3.54-5.32-5.85-1.23-2.31-1.87-4.91-1.87-7.67 0-2.77.64-5.37 1.87-7.68 1.23-2.31 3.02-4.3 5.32-5.85l1.68-1.13-1.68-1.13c-2.3-1.55-4.09-3.54-5.32-5.85-1.23-2.31-1.87-4.91-1.87-7.67 0-2.77.64-5.37 1.87-7.68 1.23-2.31 3.02-4.3 5.32-5.85l1.68-1.13-1.68-1.13c-2.3-1.55-4.09-3.54-5.32-5.84-1.23-2.31-1.87-4.91-1.87-7.68 0-2.77.64-5.37 1.87-7.68 1.23-2.31 3.02-4.3 5.32-5.84l.53-.35-.53-.35c-2.3-1.55-4.09-3.54-5.32-5.85-1.23-2.31-1.87-4.91-1.87-7.68 0-2.76.64-5.36 1.87-7.67 1.23-2.31 3.02-4.3 5.32-5.85l44.05-29.7C95.72 2.33 101.19.68 106.67.68s10.95 1.64 15.82 4.93l44.05 29.7c2.3 1.55 4.09 3.54 5.32 5.85 1.23 2.31 1.87 4.91 1.87 7.67 0 2.77-.64 5.37-1.87 7.68-1.23 2.31-3.02 4.3-5.32 5.85l-.53.35.53.35c2.3 1.55 4.09 3.54 5.32 5.84 1.23 2.31 1.87 4.91 1.87 7.68 0 2.77-.64 5.36-1.87 7.68-1.23 2.31-3.02 4.3-5.32 5.84l-1.68 1.13 1.68 1.13c2.3 1.55 4.09 3.54 5.32 5.85 1.23 2.31 1.87 4.91 1.87 7.68 0 2.77-.64 5.36-1.87 7.67-1.23 2.31-3.02 4.3-5.32 5.85l-1.68 1.13 1.68 1.13c2.3 1.55 4.09 3.54 5.32 5.85 1.23 2.31 1.87 4.91 1.87 7.68 0 2.77-.64 5.36-1.87 7.67-1.23 2.31-3.02 4.3-5.32 5.85l-1.68 1.13zM57.35 126.53l-5 3.37c-.93.62-1.63 1.4-2.1 2.28-.46.87-.71 1.9-.71 3.02s.24 2.14.71 3.02c.47.88 1.18 1.65 2.1 2.28l44.05 29.7c3.18 2.15 6.73 3.22 10.27 3.22 3.54 0 7.09-1.07 10.27-3.22l44.05-29.7c.93-.63 1.63-1.4 2.1-2.28.46-.88.71-1.9.71-3.02s-.24-2.15-.71-3.02c-.47-.88-1.18-1.65-2.1-2.28l-5-3.37-33.5 22.59c-4.87 3.28-10.34 4.93-15.82 4.93s-10.95-1.64-15.82-4.93l-33.5-22.59zm0-29.3-5 3.37c-.93.62-1.63 1.4-2.1 2.28-.46.87-.71 1.9-.71 3.02s.24 2.14.71 3.02c.47.88 1.18 1.65 2.1 2.28l44.05 29.7c3.18 2.15 6.73 3.22 10.27 3.22 3.54 0 7.09-1.07 10.27-3.22l44.05-29.7c.93-.63 1.63-1.4 2.1-2.28.46-.88.71-1.9.71-3.02s-.24-2.15-.71-3.02c-.47-.88-1.18-1.65-2.1-2.28l-5-3.37-33.5 22.59c-4.87 3.28-10.34 4.93-15.82 4.93s-10.95-1.64-15.82-4.93l-33.5-22.59zM56.2 68.71l-3.85 2.59c-.93.62-1.63 1.4-2.1 2.28-.46.87-.71 1.9-.71 3.02s.24 2.14.71 3.02c.47.88 1.18 1.65 2.1 2.28l44.05 29.7c3.18 2.15 6.73 3.22 10.27 3.22 3.54 0 7.09-1.07 10.27-3.22l44.05-29.7c.93-.63 1.63-1.4 2.1-2.28.46-.88.71-1.9.71-3.02s-.24-2.15-.71-3.02c-.47-.88-1.18-1.65-2.1-2.28l-3.85-2.59-34.65 23.36c-4.87 3.28-10.34 4.93-15.82 4.93s-10.95-1.64-15.82-4.93L56.2 68.71z" fill="#850000" class="color000000 svgShape"></path>
</svg>
