<svg xmlns="http://www.w3.org/2000/svg" width="20.48" height="20.48" fill-rule="evenodd" clip-rule="evenodd" image-rendering="optimizeQuality" shape-rendering="geometricPrecision" text-rendering="geometricPrecision" viewBox="0 0 213.33 213.33" id="Check">
  <path d="m117.62 13.56 13.91 16.61 21.01-5.27c4.25-1.06 8.33-.27 11.87 2.3 3.54 2.57 5.56 6.21 5.85 10.58l1.48 21.61 20.09 8.09c4.06 1.64 6.9 4.68 8.25 8.84 1.35 4.17.84 8.29-1.48 12l-11.5 18.35 11.5 18.35c2.32 3.71 2.83 7.83 1.48 12-1.35 4.16-4.19 7.2-8.25 8.84l-20.09 8.09-1.48 21.61c-.3 4.37-2.31 8-5.85 10.58-3.54 2.57-7.62 3.36-11.87 2.3l-21.01-5.27-13.91 16.61c-2.81 3.36-6.57 5.12-10.95 5.12-4.38 0-8.15-1.76-10.95-5.12l-13.91-16.61-21.01 5.27c-4.25 1.06-8.33.27-11.87-2.3-3.54-2.57-5.56-6.21-5.85-10.58l-1.48-21.61-20.09-8.09c-4.06-1.64-6.9-4.68-8.25-8.84-1.35-4.17-.84-8.29 1.48-12l11.5-18.35-11.5-18.35c-2.32-3.71-2.83-7.83-1.48-12 1.35-4.16 4.19-7.2 8.25-8.84l20.09-8.09 1.48-21.61c.3-4.37 2.31-8 5.85-10.58 3.54-2.57 7.62-3.36 11.87-2.3l21.01 5.27 13.91-16.61c2.81-3.36 6.57-5.12 10.95-5.12 4.38 0 8.15 1.76 10.95 5.12zM93.65 117.77l47.43-47.43 14.04 14.04-61.46 61.46-35.43-35.43 14.04-14.04 21.39 21.39z" fill="#850000" class="color000000 svgShape"></path>
</svg>
