<?xml version="1.0" encoding="UTF-8"?><svg id="Camada_2" xmlns="http://www.w3.org/2000/svg" viewBox="0 0 468.77 175.12"><defs><style>.cls-1,.cls-2,.cls-3{fill:#fff;}.cls-1,.cls-3{font-family:PFBeauSansPro-BoldItalic, 'PF BeauSans Pro';font-size:90.47px;font-style:italic;font-weight:700;}.cls-4{fill:#e4262a;}.cls-4,.cls-2{stroke-width:0px;}.cls-5{letter-spacing:-.08em;}.cls-6{letter-spacing:-.05em;}.cls-3{letter-spacing:-.04em;}.cls-7{letter-spacing:-.03em;}</style></defs><g id="Camada_1-2"><path class="cls-4" d="M454.02,116.54h-97.79v11.1h82.92c7.67,0,13.44-3.93,15.9-9.88.22-.53-.39-1.22-1.03-1.22Z"/><path class="cls-4" d="M441.56,133.08h-85.33v11.02h70.48c7.64,0,13.4-3.9,15.87-9.82.22-.53-.38-1.21-1.02-1.21Z"/><path class="cls-4" d="M468.1,89.01l-17.51-70.23c-.2-.81-1.03-1.48-1.85-1.48h-92.52l-4.61,11.05h90.33l15.13,60.7c1,4.06-.33,7.6-3.15,9.49l-15.76-63.22c-.2-.82-1.03-1.48-1.84-1.48h-84.71l-2.82,11.1h80.75l13.73,55.06h-5.52l-12.37-49.62h-73.39l-1.15,11.03h66.27l9.62,38.59h-70.51v11.05h95.32c4.02,0,7.51-1.09,10.28-2.97,2.86-1.94,4.96-4.73,6.06-8.08,1.05-3.24,1.21-6.99.21-10.99Z"/><path class="cls-4" d="M14.75,44.87h97.79v-11.1H29.62c-7.67,0-13.44,3.93-15.9,9.88-.22.53.39,1.22,1.03,1.22Z"/><path class="cls-4" d="M27.21,28.32h85.33l9.67-11.02H42.06c-7.64,0-13.4,3.9-15.87,9.82-.22.53.38,1.21,1.02,1.21Z"/><path class="cls-4" d="M.67,72.4l17.51,70.23c.2.81,1.03,1.48,1.85,1.48h85.82v-11.05H26.82l-15.13-60.7c-1-4.06.33-7.6,3.15-9.49l15.76,63.22c.2.82,1.03,1.48,1.84,1.48h76.59l1.15-11.1H39.22l-13.73-55.06h5.52l12.37,49.62h68.08l.77-11.03h-60.57l-9.62-38.59h70.51v-11.05H17.22c-4.02,0-7.51,1.09-10.28,2.97-2.86,1.94-4.96,4.73-6.06,8.08-1.05,3.24-1.21,6.99-.21,10.99Z"/><text class="cls-1" transform="translate(101.38 76.99)"><tspan class="cls-5" x="0" y="0">F</tspan><tspan class="cls-6" x="44.24" y="0">AT</tspan><tspan class="cls-7" x="142.13" y="0">OS</tspan></text><text class="cls-3" transform="translate(90.09 152.23)"><tspan x="0" y="0">DADOS</tspan></text><path class="cls-4" d="M225.29,104.11c-9.77,0-15.65-5.25-15.65-14.39,0-9.95,7.24-17.91,15.47-22.71-2.17-3.17-3.71-7.24-3.71-11.49,0-11.13,8.32-16.92,18-16.92,8.69,0,14.75,4.89,14.75,12.85,0,9.5-7.24,14.75-13.12,18.46,1.72,2.9,3.08,4.7,4.52,6.88,3.98-5.43,9.05-9.95,15.47-11.67,1.9-.63,2.9-.81,4.61-.9.81,0,1.18.36,1.18,1l1.09,7.51c.09.81-.36,1.36-1.36,1.54-7.51,1.45-11.58,5.88-14.75,11.31,1.54,2.17,4.34,6.06,6.79,9.41,1.45,1.99,2.99,4.07,4.52,6.15.63.72.27,1.9-1.18,1.9h-9.59c-1.72,0-2.71-.27-3.53-1.36l-1.9-2.44c-1-1.36-2.17-2.8-2.62-3.53-4.98,4.8-10.77,8.41-19,8.41ZM238.22,86.92c-2.53-3.89-4.98-7.51-7.42-11.4-4.7,2.8-8.96,6.79-8.96,11.94,0,2.99,1.72,5.25,6.06,5.25,3.53,0,7.78-2.62,10.31-5.79ZM233.16,55.08c0,2.44,1.27,4.7,2.62,6.79,3.35-2.08,6.69-4.52,6.69-8.41,0-2.17-1.27-4.16-3.8-4.16-3.35,0-5.52,2.44-5.52,5.79Z"/><path class="cls-2" d="M305.39,37.91c0,22.89-11.22,40.08-31.94,40.08-15.92,0-23.43-8.96-23.43-24.88,0-24.97,13.03-40.44,31.66-40.44,15.83,0,23.7,9.77,23.7,25.24ZM263.86,52.2c0,8.41,2.99,13.39,11.04,13.39,11.58,0,16.74-13.66,16.74-26.96,0-7.87-2.71-13.66-11.13-13.66-11.22,0-16.65,13.75-16.65,27.23Z"/></g></svg>