<?xml version="1.0" encoding="UTF-8"?><svg id="Camada_2" xmlns="http://www.w3.org/2000/svg" viewBox="0 0 246.83 164.59"><defs><style>.cls-1{fill:#7a1213;stroke-width:0px;}</style></defs><g id="Camada_1-2"><path class="cls-1" d="M98.88,52.84l-.95-.19.47-15.29c.04-1.25-.95-2.31-2.21-2.35l-17.46-.54c-.3,0-.6.04-.88.15s-.53.26-.75.47c-.44.41-.7.99-.71,1.59-.13,4.04-1.83,7.8-4.79,10.58-1.46,1.37-3.14,2.43-4.98,3.14s-3.86,1.06-5.88.99c-4.04-.13-7.8-1.83-10.58-4.8-2.79-2.97-4.25-6.83-4.13-10.86.02-.6-.2-1.18-.62-1.62-.41-.44-.99-.7-1.59-.71l-17.46-.54c-.3,0-.6.04-.88.15s-.53.26-.75.47c-.44.41-.7.99-.71,1.59l-1.65,53.27-1.94-2.51c-3.54-4.59-9.39-6.33-14.56-4.35-.13.05-.27.1-.4.16-1.09.46-1.65,1.7-1.27,2.82,1.92,5.7,4.01,10.73,5.7,14.79,4.89,11.76,7.84,18.86,3.38,27.91l-.5,1.02-1.28-.63c-.54-.27-1.16-.31-1.74-.12l-.08.03c-.54.21-.98.6-1.23,1.12L.24,145.22c-.27.54-.31,1.16-.12,1.74.19.56.61,1.04,1.15,1.3l32.57,16.08c.57.28,1.22.31,1.82.08.53-.2.97-.6,1.22-1.12l8.22-16.66c.27-.54.31-1.16.12-1.74-.19-.56-.61-1.04-1.15-1.3l-1.22-.6.27-.92c1.82-6.28,5.04-8.52,9.13-11.36,4.92-3.42,11.04-7.67,16.01-20.15l.02-.04.95-1.92,24.67.76c.3,0,.6-.04.88-.15.86-.33,1.43-1.14,1.46-2.06l.47-15.29.96-.13c1.51-.2,3-.58,4.42-1.13h0c2.39-.92,4.56-2.29,6.46-4.07,3.85-3.62,6.06-8.51,6.23-13.76.3-9.7-6.38-18.11-15.9-19.98ZM33.81,159.26l-28.49-14.06,6.21-12.58,28.49,14.06-6.21,12.58ZM64.16,108.62s-.07.16-.09.2c-4.48,11.28-9.53,14.79-14.43,18.18-4.2,2.92-8.16,5.67-10.53,12.72l-.42,1.23-21.83-10.78.5-1.02c5.37-10.94,1.57-20.1-3.26-31.69-1.24-2.97-2.78-6.66-4.26-10.69l-.63-1.72,1.82.2c2.87.31,5.41,2.17,6.82,4.97l1.73,3.45c1.07,2.13,3.2,3.43,5.58,3.39.74-.01,1.46-.15,2.14-.41,1.48-.57,2.67-1.69,3.35-3.15l.62-1.34,12.98-26.29c.32-.64.87-1.14,1.55-1.4l.11-.04c.43-.14,1.28-.32,2.21.14.92.46,1.3,1.24,1.44,1.66.14.43.32,1.28-.14,2.2l-9.61,19.46c-.56,1.12-.09,2.49,1.03,3.05.58.28,1.22.31,1.82.08.53-.2.97-.6,1.22-1.12l12.55-25.42c.32-.64.87-1.14,1.55-1.4l.11-.04c.74-.25,1.52-.2,2.21.14.92.46,1.3,1.24,1.44,1.66.14.43.32,1.28-.14,2.2l-1.96,3.96-10.59,21.45c-.56,1.12-.09,2.49,1.03,3.05.57.28,1.22.31,1.82.08.53-.2.97-.6,1.22-1.12l10.6-21.46c.32-.64.87-1.13,1.55-1.39.75-.29,1.6-.26,2.32.09,1.4.69,2,2.46,1.31,3.87l-3.86,7.81c-.03.06-.05.11-.08.16l-6.65,13.47c-.56,1.12-.09,2.49,1.03,3.05.58.28,1.22.31,1.82.08.53-.21.97-.6,1.22-1.12l6.67-13.52c.32-.64.87-1.14,1.55-1.41.76-.29,1.6-.26,2.31.1,1.4.69,2,2.46,1.31,3.86l-10.11,20.53ZM110.23,72.68c-.13,4.04-1.83,7.8-4.79,10.58-1.46,1.37-3.14,2.43-4.98,3.14s-3.86,1.06-5.89.99c-.31,0-.61.04-.89.15-.86.33-1.43,1.14-1.46,2.06l-.47,15.19-20.33-.63,6.92-14.01c.88-1.78,1.01-3.8.37-5.68-.64-1.88-1.97-3.4-3.75-4.28-.45-.22-.94-.4-1.44-.53l-1.34-.35.81-1.66c.88-1.78,1.01-3.8.37-5.68-.64-1.88-1.97-3.4-3.75-4.28-.69-.34-1.43-.57-2.19-.68l-.98-.14v-.99c0-.85-.12-1.67-.39-2.44-.64-1.89-1.97-3.41-3.74-4.28-1.78-.88-3.79-1.01-5.68-.37-.1.03-.21.07-.31.11-1.26.49-2.36,1.3-3.18,2.37l-.71.93-.91-.74c-.45-.37-.93-.68-1.41-.92-1.78-.88-3.79-1.01-5.67-.37-.09.03-.18.06-.27.1-1.76.68-3.19,1.97-4.01,3.65l-11.03,22.33-2.16-.54,1.5-48.2,13.02.4.13.96c.54,4.08,2.34,7.84,5.2,10.88,3.62,3.85,8.5,6.06,13.76,6.23,2.64.08,5.22-.35,7.65-1.29s4.56-2.29,6.46-4.08c3.04-2.85,5.07-6.5,5.87-10.54l.19-.95,13.02.4-.47,15.19c-.04,1.25.95,2.3,2.21,2.35,4.05.13,7.81,1.83,10.59,4.79,2.78,2.96,4.24,6.82,4.12,10.87Z"/><path class="cls-1" d="M246.17,91.42l-13.09-13.15c-.52-.52-1.26-.76-1.99-.64-.46.08-.89.3-1.22.63l-.96.96-.78-.55c-5.36-3.76-6.43-7.53-7.8-12.31-1.64-5.76-3.69-12.93-13.89-21.67l-.03-.03-16.06-16.14c-.62-.62-1.35-1.13-2.18-1.51l-.44-.2-6.82-19.4c-.37-1.05-1.43-1.68-2.52-1.49-.13.02-.25.05-.38.1l-14.43,5.07-.46-.85c-4.04-7.36-12.31-11.36-20.59-9.96-1.1.19-2.2.47-3.27.85-9.16,3.22-14.58,12.49-12.9,22.04l.17.95-14.44,5.07c-.57.2-1.03.61-1.3,1.16-.26.55-.3,1.17-.1,1.74l5.79,16.48c.37,1.05,1.43,1.68,2.52,1.49.13-.02.25-.05.38-.1.82-.29,1.66-.51,2.51-.65,7.31-1.24,14.4,2.94,16.86,9.94,1.34,3.82,1.12,7.94-.64,11.61-1.76,3.66-4.83,6.42-8.65,7.76-.57.2-1.03.61-1.3,1.16-.26.55-.3,1.17-.1,1.74l5.79,16.48c.37,1.05,1.43,1.67,2.52,1.49.12-.02.25-.05.38-.1l22-7.74-.06,1.67c-.02.54-.01.98.01,1.41.08,1.18,1.08,2.11,2.26,2.11,5.92.03,11.18-.31,15.82-.61,12.71-.83,20.39-1.33,27.52,5.83l.81.81-1.02,1.01c-.42.42-.67,1.01-.67,1.61,0,.6.24,1.18.66,1.61l13.1,13.16c.52.52,1.27.76,1.99.64.46-.08.89-.3,1.22-.63l25.74-25.63c.42-.42.67-1.01.67-1.6,0-.6-.24-1.19-.66-1.61ZM161.72,85.8l-24.31,8.55-4.32-12.28.85-.46c8.5-4.66,12.34-14.7,9.12-23.86-3.2-9.09-12.41-14.53-21.91-12.92l-1.09.18-4.32-12.28,14.33-5.04c.57-.2,1.03-.61,1.29-1.16.26-.55.3-1.16.09-1.74-2.78-7.9,1.39-16.59,9.29-19.37.82-.29,1.66-.51,2.51-.65,7.31-1.24,14.39,2.95,16.86,9.94.2.57.61,1.03,1.16,1.29.42.2.89.27,1.36.19.13-.02.26-.05.38-.1l14.33-5.04,5.47,15.54-.93.44c-.79.37-1.49.86-2.08,1.44-.37.37-.69.77-.96,1.18l-.77,1.19-1.31-1.33c-1.7-1.71-4.14-2.48-6.52-2.08-1.52.26-2.9.97-3.99,2.06-.55.55-1.01,1.18-1.36,1.85l-.45.88-.94-.33c-.79-.27-1.61-.42-2.43-.42-.43,0-.87.03-1.29.1-1.5.25-2.88.97-3.97,2.06-2.5,2.48-2.9,6.42-.97,9.36l.64.97-.98.62c-.52.32-.95.66-1.32,1.04-1.4,1.4-2.18,3.26-2.19,5.25,0,1.98.76,3.85,2.16,5.26l20.69,20.79s.07.07.1.1l1.04,1c.46.45.61,1.03.41,1.64-.26.81-.87,1.02-1.21,1.08l-3.92.53c-.16.02-.32.05-.48.07-3.12.53-5.84,1.99-7.87,4.22l-.19.21ZM176.52,91.71h0c-3.22.21-7.22.48-11.49.57l-1.83.04.78-1.66c1.17-2.5,3.63-4.29,6.57-4.79.11-.02.23-.04.34-.05l3.82-.52.17-.03c2.32-.39,4.14-1.95,4.85-4.17.74-2.26.12-4.69-1.59-6.34l-1.07-1.02-20.69-20.78c-.72-.73-.83-1.59-.84-2.04,0-.45.11-1.31.84-2.04.42-.42.96-.69,1.55-.79.16-.03.33-.04.5-.04.45,0,1.31.11,2.04.85l15.31,15.39c.52.52,1.27.76,1.99.64.46-.08.89-.3,1.22-.63.43-.43.67-1,.67-1.6,0-.61-.23-1.18-.66-1.61l-15.31-15.39-.26-.26-4.42-4.45c-.53-.53-.83-1.28-.83-2.05,0-.78.3-1.5.84-2.03.42-.42.96-.69,1.55-.79.16-.03.33-.04.5-.04.45,0,1.31.11,2.04.85l20,20.09c.52.52,1.27.76,1.99.64.46-.08.89-.3,1.22-.63.43-.43.67-1,.67-1.6,0-.61-.23-1.18-.66-1.61l-16.88-16.96c-.53-.53-.83-1.28-.83-2.05,0-.78.3-1.5.84-2.03.42-.42.95-.69,1.55-.79.94-.16,1.89.14,2.54.8l6.12,6.15.08.07.05.05,10.63,10.68c.52.52,1.26.76,1.99.64.46-.08.89-.3,1.22-.63.43-.43.67-1,.67-1.6,0-.61-.23-1.18-.66-1.61l-10.63-10.68c-.53-.54-.83-1.28-.83-2.05,0-.78.3-1.5.85-2.03.42-.42.96-.69,1.55-.79.16-.03.33-.04.5-.04.45,0,1.31.11,2.05.85l16.11,16.2s.08.08.13.12c9.25,7.89,10.94,13.82,12.57,19.55,1.34,4.69,2.72,9.54,8.63,14.08l1.03.79-17.25,17.18-.8-.8c-8.63-8.64-18.52-7.99-31.04-7.16ZM218.84,115.45l-9.9-9.94,22.52-22.42,9.89,9.94-22.51,22.41Z"/></g></svg>