<?xml version="1.0" encoding="UTF-8"?><svg id="Camada_2" xmlns="http://www.w3.org/2000/svg" viewBox="0 0 385.47 130.76"><defs><style>.cls-1{fill:#fff;stroke-width:0px;}</style></defs><g id="Camada_1-2"><path class="cls-1" d="M241.19,44.37c-.07-.14-.29-.09-.28.07.06.96.02,1.95-.1,2.96-.73,5.73-4.34,10.77-9.18,13.68-.31.18-.33.6-.08.86l2.93,2.93c.31.31.8.34,1.16.09,4.33-2.93,7.17-7.89,7.17-13.5,0-2.54-.58-4.94-1.62-7.09"/><path class="cls-1" d="M155.81,78.63c0,3.78,1.94,7.11,4.87,9.05.26.17.6-.04.6-.36V19.57c0-.4-.33-.73-.73-.73h-4.01c-.4,0-.73.32-.73.73v59.06Z"/><path class="cls-1" d="M147.7,70.48c0,3.77,1.92,7.08,4.84,9.03.26.17.59-.04.59-.36V19.57c0-.4-.32-.73-.72-.73h-3.98c-.4,0-.73.32-.73.73v50.91Z"/><path class="cls-1" d="M239.47,43.3c0-2.54-.58-4.94-1.62-7.09-.07-.14-.29-.09-.28.07.06.96.02,1.95-.1,2.96-.89,6.95-6,12.89-12.43,15.23-.32.12-.43.52-.19.76l3.01,3.01c.31.31.78.43,1.19.27,6.1-2.36,10.43-8.28,10.43-15.21"/><path class="cls-1" d="M235.04,40.58c.6-1.7.93-3.53.93-5.43,0-.93-.08-1.83-.23-2.72-.33-1.95-1-3.78-1.96-5.43-.56-.98-1.22-1.88-1.97-2.72-2.99-3.33-7.32-5.43-12.15-5.43h-30.49c-.4,0-.73.33-.73.73v56.34h-19.02V19.57c0-.4-.32-.73-.72-.73h-3.99c-.4,0-.73.33-.73.73v67.21c0,1.98.54,3.83,1.47,5.43.96,1.65,2.33,3.02,3.98,3.98,1.6.92,3.45,1.46,5.42,1.46h34.62c.4,0,.73-.33.73-.73v-56.34h18.87c-2.16,3.76-6.72,6.12-11.43,6.69-.28.03-.38.38-.18.58l3.03,3.03c.33.33.8.49,1.27.43,6.17-.79,11.27-5.04,13.28-10.74M169.43,81.34h24.46V24.28h25.78c2.75,0,5.26,1.03,7.17,2.72h-29.54c-.4,0-.73.33-.73.73v56.34h-27.14v-2.72ZM205.48,35.15c-.4,0-.72.32-.72.72v56.34h-29.92c-2,0-3.74-1.1-4.68-2.72h31.16c.4,0,.73-.32.73-.73v-56.34h28.14c.23.87.36,1.78.36,2.72h-25.06Z"/><path class="cls-1" d="M384.86,27.43L360.23.73c-.44-.47-1.03-.73-1.67-.73-.57,0-1.12.21-1.54.6l-13.65,12.6c-.92.85-.98,2.29-.13,3.21l.92,1-.58.76c-3.95,5.21-7.76,6.14-12.59,7.33-5.82,1.42-13.06,3.2-22.18,13.06l-.03.03-5.5,5.07-25.47-4.77c-.14-.03-.28-.04-.42-.04-1.09,0-2.03.78-2.23,1.85l-2.82,15.04-.97-.02c-.15,0-.29,0-.44,0-3.95,0-7.79,1.2-11.11,3.47-4.36,2.99-7.3,7.48-8.26,12.64-.97,5.17.15,10.41,3.14,14.77,2.35,3.45,5.64,6.01,9.52,7.42l.91.33-2.82,15.04c-.23,1.23.58,2.42,1.81,2.65l17.17,3.21c.14.03.28.04.42.04,1.09,0,2.03-.78,2.23-1.85,1.35-7.18,7.62-12.4,14.93-12.4.94,0,1.88.09,2.8.26,3.98.75,7.44,3,9.74,6.35,2.29,3.35,3.15,7.39,2.4,11.38-.23,1.23.58,2.42,1.81,2.65l17.17,3.21c.13.02.27.04.41.04.46,0,.9-.14,1.28-.4.5-.35.84-.86.95-1.46l8.45-45.14,1.51,3.07c2.16,4.39,6.44,7.12,11.18,7.12.14,0,.29,0,.43,0,1.18-.04,2.15-.99,2.2-2.18.26-6.01.1-11.46-.02-15.85-.35-12.73-.56-20.42,6.86-27.27l.84-.77.97,1.05c.43.47,1.03.73,1.67.73.57,0,1.12-.22,1.54-.6l13.65-12.6c.45-.41.71-.97.73-1.58.02-.61-.19-1.19-.6-1.64ZM331.39,120.01l-12.8-2.39.02-.96c.21-9.69-6.57-18.03-16.11-19.82-1.2-.22-2.43-.34-3.64-.34-8.27,0-15.72,5.22-18.54,12.99l-.33.91-12.8-2.39,2.8-14.93c.11-.59-.02-1.21-.36-1.7-.35-.5-.87-.84-1.46-.95-3.96-.74-7.42-3-9.72-6.36-2.3-3.37-3.16-7.41-2.41-11.37.74-3.97,3-7.42,6.36-9.72,2.56-1.75,5.52-2.67,8.57-2.67.93,0,1.87.09,2.79.26.14.02.28.04.42.04.46,0,.91-.14,1.29-.4.5-.35.84-.86.95-1.46l2.8-14.93,19.9,3.73-7.07,6.52c-1.46,1.34-2.3,3.18-2.38,5.17-.08,1.99.62,3.89,1.96,5.34.34.37.72.71,1.15,1.02l1.12.81-1.35,1.26c-1.46,1.35-2.3,3.18-2.38,5.17-.08,1.99.62,3.88,1.96,5.34.52.56,1.13,1.04,1.8,1.42l.86.48-.36.92c-.31.79-.48,1.61-.51,2.42-.08,1.99.62,3.89,1.96,5.34,1.4,1.52,3.39,2.39,5.47,2.39,1.36,0,2.69-.37,3.84-1.07l1-.61.58,1.01c.29.51.62.97.99,1.36,1.4,1.52,3.4,2.39,5.47,2.39,1.88,0,3.67-.7,5.04-1.97l22.17-20.46-9.03,48.23ZM362.98,39.5c-8.94,8.29-8.67,18.2-8.33,30.75.09,3.21.2,7.22.14,11.5l-.03,1.83-1.63-.84c-2.56-1.32-4.28-3.97-4.58-7.09l-.38-3.84c-.23-2.37-1.76-4.35-4-5.17-.7-.26-1.42-.38-2.14-.38-1.58,0-3.09.62-4.25,1.74l-1.06,1.03-21.55,19.88c-.53.49-1.22.75-1.95.75-.81,0-1.58-.33-2.13-.92-.7-.76-.77-1.63-.75-2.07.03-.77.36-1.48.92-2.01l15.95-14.73c.92-.85.98-2.29.13-3.21-.44-.47-1.03-.73-1.67-.73-.57,0-1.12.21-1.54.6l-20.83,19.22c-.53.49-1.22.75-1.96.75-.81,0-1.58-.33-2.12-.92-1.06-1.15-.98-3.02.16-4.08l20.83-19.22c.92-.85.98-2.29.13-3.21-.44-.47-1.03-.73-1.67-.73-.57,0-1.12.21-1.54.6l-17.58,16.22c-.53.49-1.22.75-1.96.75-.81,0-1.58-.33-2.12-.92-1.06-1.15-.98-3.02.16-4.08l6.33-5.84.06-.07s.09-.09.11-.09l11.08-10.22c.45-.41.71-.97.73-1.58.02-.61-.19-1.19-.6-1.64-.44-.47-1.03-.73-1.67-.73-.57,0-1.12.21-1.54.6l-11.08,10.23c-.53.49-1.22.75-1.95.75h-.12c-.45-.02-1.31-.17-2.01-.93-.7-.76-.77-1.63-.75-2.07.02-.45.16-1.31.92-2.01l16.8-15.51s.08-.09.13-.13c8.24-8.95,14.22-10.41,20.01-11.82,4.96-1.22,9.65-2.37,14.4-8.09l.83-1,16.51,17.9-.83.77ZM369.67,38.36l-21.55-23.35,10.31-9.51,21.55,23.35-10.31,9.51Z"/><path class="cls-1" d="M97.54,130.76c-6.96,0-13.47-3.71-17.01-9.67l-.49-.83-14.26,5.55c-.26.1-.54.16-.82.16-.32,0-.63-.07-.92-.19-.55-.24-.99-.7-1.21-1.26l-9.97-25.63-.89.13c-.35.05-.69.07-1.03.07-2.43,0-4.71-1.18-6.09-3.15l-13.11-18.62-.03-.03c-8.58-10.34-9.39-17.75-10.04-23.7-.54-4.93-.96-8.83-5.61-13.44l-.68-.67-1.11.78c-.38.26-.84.41-1.3.41-.13,0-.26-.01-.39-.03-.6-.1-1.12-.44-1.48-.94L.41,24.49c-.72-1.02-.48-2.45.55-3.17L30.67.42c.39-.27.84-.42,1.31-.42.13,0,.26.01.39.03.59.1,1.12.43,1.47.94l10.71,15.18c.72,1.02.48,2.45-.55,3.17l-1.18.82.66.93c5.83,8.26,13.47,9.06,26.15,10.39h.06c4.6.49,9.82,1.04,15.63,2.06,1.14.2,1.94,1.22,1.87,2.38l-.11,1.77,16.84-6.55c.26-.1.54-.15.82-.15.95,0,1.78.57,2.12,1.45l6.33,16.28c.22.56.21,1.18-.04,1.74-.24.55-.7.98-1.26,1.21-3.77,1.47-6.76,4.32-8.39,8.04-1.64,3.72-1.73,7.85-.26,11.62,2.25,5.79,7.95,9.68,14.17,9.68,1.88,0,3.73-.35,5.49-1.03.26-.1.54-.16.82-.16.32,0,.63.06.92.19.55.24.99.7,1.21,1.26l6.33,16.28c.22.57.21,1.18-.04,1.74s-.69.98-1.26,1.2l-14.26,5.55.2.94c2,9.49-3.12,18.94-12.17,22.45-2.29.89-4.69,1.34-7.13,1.34ZM81.23,115.08c.32,0,.63.06.92.19.55.24.99.7,1.21,1.26,2.25,5.79,7.95,9.68,14.17,9.68,1.88,0,3.73-.35,5.49-1.03,7.81-3.04,11.68-11.86,8.65-19.67-.45-1.17.13-2.49,1.3-2.95l14.16-5.51-4.73-12.14-.94.2c-1.32.28-2.68.42-4.03.42h0c-8.09,0-15.5-5.06-18.43-12.58-3.52-9.04-.02-19.2,8.33-24.14l.83-.49-4.71-12.14-20.63,8.02-.14.11c-2.37,1.92-5.44,2.98-8.62,2.98-.17,0-.34,0-.51,0l-3.94-.13c-.35,0-.98.11-1.38.84-.31.59-.26,1.19.12,1.71l.85,1.16s.05.08.08.12l16.88,23.98c1.14,1.62,1.58,3.59,1.24,5.55-.34,1.96-1.42,3.67-3.04,4.81-.45.32-.94.59-1.48.81l-1.07.44.47,1.06c.58,1.32.76,2.79.51,4.24-.34,1.96-1.42,3.67-3.04,4.81-1.26.88-2.73,1.35-4.25,1.35-.42,0-.85-.04-1.3-.11-.8-.14-1.59-.42-2.33-.82l-.86-.47-.59.78c-.48.62-1.03,1.16-1.65,1.6-1.26.88-2.73,1.35-4.27,1.35s-3.2-.54-4.49-1.51l-3.2-2.41,9.46,24.3,14.16-5.51c.26-.1.54-.16.82-.16ZM62.1,94.59c.53.76,1.42,1.22,2.37,1.22.6,0,1.17-.18,1.65-.52,1.3-.91,1.62-2.72.71-4.02l-13.77-19.56c-.35-.5-.49-1.1-.38-1.7.1-.6.43-1.12.93-1.47.39-.27.84-.42,1.31-.42.74,0,1.44.36,1.86.97l13.17,18.7.2.29,2.95,4.18c.53.76,1.42,1.22,2.37,1.22.6,0,1.17-.18,1.65-.52.85-.59,1.1-1.43,1.18-1.87.08-.42.13-1.29-.47-2.15l-16.32-23.18c-.72-1.02-.48-2.45.55-3.17.39-.27.84-.42,1.31-.42.74,0,1.44.36,1.86.97l12.5,17.75c.59.85,1.43,1.1,1.87,1.18.17.03.33.04.5.04.6,0,1.17-.18,1.66-.52.85-.6,1.1-1.43,1.18-1.87.13-.76-.04-1.53-.48-2.15l-16.88-23.98-.87-1.18c-1.42-1.91-1.61-4.41-.5-6.52,1.07-2.03,3.15-3.29,5.45-3.29.07,0,.14,0,.21,0l3.86.13c.12,0,.24,0,.36,0,2.98,0,5.7-1.35,7.27-3.62l1.05-1.51-1.81-.27c-4.05-.6-7.84-1-11.19-1.35l-.22-.02c-12.48-1.31-22.34-2.34-29.39-12.3l-.66-.93-19.91,14.01.88.95c5.05,5.46,5.57,10.26,6.13,15.34.64,5.92,1.31,12.05,9.09,21.39.04.05.08.1.11.14l13.17,18.7c.53.76,1.42,1.22,2.37,1.22.6,0,1.17-.18,1.65-.52,1.3-.92,1.61-2.72.7-4.02l-8.68-12.32c-.72-1.02-.48-2.45.55-3.17.39-.27.84-.42,1.31-.42.74,0,1.44.36,1.86.97l8.76,12.43.03.03,4.99,7.09ZM5.45,23.73l8.07,11.47,25.98-18.29-8.07-11.47L5.45,23.73Z"/></g></svg>