<svg xmlns="http://www.w3.org/2000/svg" enable-background="new 0 0 24 24" viewBox="0 0 24 24" id="Important">
  <path d="M21.5,15.4L16.1,4.5C15.3,3,13.7,2,12,2S8.7,3,7.9,4.5L2.5,15.4c-0.7,1.4-0.6,3.1,0.2,4.4C3.5,21.2,5,22,6.6,22h10.9
		c1.6,0,3-0.8,3.9-2.2C22.2,18.5,22.2,16.8,21.5,15.4z M19.6,18.8c-0.5,0.8-1.3,1.2-2.2,1.2H6.6c-0.9,0-1.7-0.5-2.2-1.2
		s-0.5-1.7-0.1-2.5L9.7,5.4C10.2,4.5,11,4,12,4s1.8,0.5,2.3,1.4l5.4,10.9C20.1,17.1,20.1,18,19.6,18.8z" fill="#850000" class="color000000 svgShape"></path>
  <path d="M12,14.5c0.4,0,0.8-0.3,0.8-0.7l0.5-5.9C13.3,7.4,13,7,12.5,7h-1c-0.5,0-0.8,0.4-0.8,0.9l0.5,5.9
		C11.2,14.2,11.6,14.5,12,14.5z" fill="#850000" class="color000000 svgShape"></path>
  <circle cx="12" cy="16.7" r="1.3" fill="#850000" class="color000000 svgShape"></circle>
</svg>
