<?xml version="1.0" encoding="UTF-8"?><svg id="Camada_2" xmlns="http://www.w3.org/2000/svg" viewBox="0 0 336.39 336.39"><defs><style>.cls-1{fill:#e4262a;}.cls-1,.cls-2,.cls-3{stroke-width:0px;}.cls-2{fill:#fff;}.cls-3{fill:#39b54a;}</style></defs><g id="Camada_1-2"><rect class="cls-1" x="133.9" y="270.05" width="2.49" height="62.3" transform="translate(193.66 626.1) rotate(-166.05)"/><rect class="cls-1" x="116.82" y="264.6" width="2.49" height="62.3" transform="translate(119.77 614.18) rotate(-158.55)"/><rect class="cls-1" x="100.6" y="256.97" width="2.49" height="62.3" transform="translate(51.48 589.52) rotate(-151.05)"/><rect class="cls-1" x="85.51" y="247.28" width="2.49" height="62.3" transform="translate(-8.89 553.92) rotate(-143.55)"/><rect class="cls-1" x="71.82" y="235.71" width="2.49" height="62.3" transform="translate(-59.55 509.67) rotate(-136.05)"/><rect class="cls-1" x="59.76" y="222.45" width="2.49" height="62.3" transform="translate(-99.32 459.33) rotate(-128.55)"/><rect class="cls-1" x="49.53" y="207.72" width="2.49" height="62.3" transform="translate(-127.7 405.56) rotate(-121.05)"/><rect class="cls-1" x="41.31" y="191.79" width="2.49" height="62.3" transform="translate(-144.83 351.01) rotate(-113.55)"/><rect class="cls-1" x="35.24" y="174.93" width="2.49" height="62.3" transform="translate(-151.48 298.09) rotate(-106.05)"/><rect class="cls-1" x="31.42" y="157.41" width="2.49" height="62.3" transform="translate(-148.95 248.88) rotate(-98.55)"/><rect class="cls-1" x="29.92" y="139.55" width="2.49" height="62.3" transform="translate(-138.93 204.97) rotate(-91.05)"/><rect class="cls-1" x="30.77" y="121.64" width="2.49" height="62.3" transform="translate(-123.41 167.42) rotate(-83.55)"/><rect class="cls-1" x="33.94" y="103.99" width="2.49" height="62.3" transform="translate(-104.45 136.7) rotate(-76.05)"/><rect class="cls-1" x="39.39" y="86.92" width="2.49" height="62.3" transform="translate(-84.11 112.7) rotate(-68.55)"/><rect class="cls-1" x="47.03" y="70.7" width="2.49" height="62.3" transform="translate(-64.21 94.78) rotate(-61.05)"/><rect class="cls-1" x="56.71" y="55.61" width="2.49" height="62.3" transform="translate(-46.26 81.83) rotate(-53.55)"/><rect class="cls-1" x="68.29" y="41.92" width="2.49" height="62.3" transform="translate(-31.33 72.41) rotate(-46.05)"/><rect class="cls-1" x="81.55" y="29.86" width="2.49" height="62.3" transform="translate(-19.97 64.88) rotate(-38.55)"/><rect class="cls-1" x="96.27" y="19.63" width="2.49" height="62.3" transform="translate(-12.22 57.56) rotate(-31.05)"/><rect class="cls-1" x="112.2" y="11.4" width="2.49" height="62.3" transform="translate(-7.55 48.86) rotate(-23.55)"/><rect class="cls-1" x="129.07" y="5.33" width="2.49" height="62.3" transform="translate(-5.01 37.44) rotate(-16.05)"/><rect class="cls-1" x="146.58" y="1.52" width="2.49" height="62.3" transform="translate(-3.21 22.33) rotate(-8.55)"/><rect class="cls-1" x="164.45" y=".02" width="2.49" height="62.3" transform="translate(-.54 3.03) rotate(-1.05)"/><rect class="cls-1" x="182.35" y=".86" width="2.49" height="62.3" transform="translate(4.76 -20.44) rotate(6.45)"/><rect class="cls-1" x="200" y="4.04" width="2.49" height="62.3" transform="translate(14.42 -47.49) rotate(13.95)"/><rect class="cls-1" x="217.08" y="9.49" width="2.49" height="62.3" transform="translate(29.99 -77.04) rotate(21.45)"/><rect class="cls-1" x="233.3" y="17.13" width="2.49" height="62.3" transform="translate(52.69 -107.51) rotate(28.95)"/><rect class="cls-1" x="248.38" y="26.81" width="2.49" height="62.3" transform="translate(83.28 -136.98) rotate(36.45)"/><rect class="cls-1" x="262.07" y="38.38" width="2.49" height="62.3" transform="translate(122.02 -163.29) rotate(43.95)"/><rect class="cls-1" x="274.14" y="51.64" width="2.49" height="62.3" transform="translate(168.54 -184.18) rotate(51.45)"/><rect class="cls-1" x="284.37" y="66.37" width="2.49" height="62.3" transform="translate(221.86 -197.48) rotate(58.95)"/><rect class="cls-1" x="292.59" y="82.3" width="2.49" height="62.3" transform="translate(280.45 -201.24) rotate(66.45)"/><rect class="cls-1" x="298.66" y="99.16" width="2.49" height="62.3" transform="translate(342.25 -193.93) rotate(73.95)"/><rect class="cls-1" x="302.48" y="116.68" width="2.49" height="62.3" transform="translate(404.78 -174.49) rotate(81.45)"/><rect class="cls-1" x="303.97" y="134.55" width="2.49" height="62.3" transform="translate(465.32 -142.5) rotate(88.95)"/><rect class="cls-1" x="303.13" y="152.45" width="2.49" height="62.3" transform="translate(521.03 -98.21) rotate(96.45)"/><rect class="cls-1" x="299.95" y="170.1" width="2.49" height="62.3" transform="translate(569.14 -42.54) rotate(103.95)"/><rect class="cls-1" x="294.5" y="187.17" width="2.49" height="62.3" transform="translate(607.11 22.92) rotate(111.45)"/><rect class="cls-1" x="286.87" y="203.39" width="2.49" height="62.3" transform="translate(632.82 95.99) rotate(118.95)"/><rect class="cls-1" x="277.18" y="218.48" width="2.49" height="62.3" transform="translate(644.65 174) rotate(126.45)"/><rect class="cls-1" x="265.61" y="232.17" width="2.49" height="62.3" transform="translate(641.63 253.98) rotate(133.95)"/><rect class="cls-1" x="252.35" y="244.23" width="2.49" height="62.3" transform="translate(623.53 332.74) rotate(141.45)"/><rect class="cls-1" x="237.63" y="254.46" width="2.49" height="62.3" transform="translate(590.82 407.12) rotate(148.95)"/><rect class="cls-1" x="221.7" y="262.69" width="2.49" height="62.3" transform="translate(544.7 474.14) rotate(156.45)"/><rect class="cls-1" x="204.83" y="268.76" width="2.49" height="62.3" transform="translate(487.01 531.17) rotate(163.95)"/><rect class="cls-1" x="187.31" y="272.57" width="2.49" height="62.3" transform="translate(420.15 576.05) rotate(171.45)"/><rect class="cls-1" x="169.45" y="274.07" width="2.49" height="62.3" transform="translate(346.93 607.28) rotate(178.95)"/><rect class="cls-1" x="151.54" y="273.23" width="2.49" height="62.3" transform="translate(270.39 624) rotate(-173.55)"/><path class="cls-1" d="M95.96,158.83c-.5-.39-.61-.72-.11-1.66l2.1-4.42c.44-.88.77-1,1.6-.61,2.65,1.22,6.74,2.6,10.39,2.6,4.98,0,6.25-2.27,6.25-4.31s-1.49-2.98-5.31-4.81c-7.02-3.37-11.22-6.58-11.22-11.94,0-6.85,4.98-11.33,13.99-11.33,4.04,0,8.51.83,11.44,2.43.83.39.94.72.55,1.88l-1.33,4.15c-.44,1.11-.88,1.05-1.71.83-3.15-1.05-6.47-1.77-9.34-1.77-3.48,0-4.75,1.66-4.75,3.48,0,1.49,1.55,2.76,5.69,4.59,6.36,2.82,11.11,5.8,11.11,12.22,0,8.4-6.63,12.16-15.37,12.16-4.7,0-10.28-.94-13.99-3.48Z"/><path class="cls-1" d="M132.89,161.7h-5.47c-.83,0-1.16-.17-1-1l3.76-27.03c.17-.83.44-1,1.27-1h5.47c1.05,0,1.22.17,1.05,1l-3.81,27.03c-.17.83-.22,1-1.27,1ZM139.97,124.44c0,2.93-2.65,5.2-5.2,5.2-2.27,0-3.87-1.6-3.87-3.81,0-2.93,2.43-5.31,5.14-5.31,2.27,0,3.93,1.66,3.93,3.93Z"/><path class="cls-1" d="M150.8,173.92c-3.48,0-7.63-.83-10.23-1.77-1.05-.5-.94-.83-.72-1.44l1.38-4.37c.39-.83.55-.88,1.6-.61,1.93.61,4.92,1.33,7.13,1.33,4.7,0,5.8-1.38,6.52-6.25-1.93.61-4.2.83-6.36.83-7.52,0-10.5-4.64-10.5-11.61,0-10.84,5.36-17.97,16.2-17.97,3.81,0,8.13.55,11.22,2.1.83.5,1.05.88.88,1.71l-3.7,25.82c-1.05,7.24-4.2,12.22-13.43,12.22ZM147.71,149.27c0,3.98,1.93,5.53,5.03,5.53,1.05,0,2.93-.11,4.75-.72l1.99-14.59c-1.27-.44-3.04-.61-3.98-.61-3.98,0-7.79,2.54-7.79,10.39Z"/><path class="cls-1" d="M195.81,133.51c1.27.39,1.22.94,1.05,1.77-1.27,8.4-2.32,15.98-3.26,24.1-.06.5-.33.88-.83,1.05-4.2,1.49-8.57,1.88-11.72,1.88-9.07,0-12.22-4.64-12.22-11.28,0-11.72,5.47-19.02,15.81-19.02,2.6,0,6.91.39,11.17,1.49ZM176.9,150.2c0,3.04,1.38,5.36,5.64,5.36,1.11,0,2.65-.28,3.81-.66.88-7.08,1.11-9.07,2.27-15.7-1.27-.28-3.32-.44-4.37-.44-3.7,0-7.19,3.26-7.35,11.44Z"/><path class="cls-1" d="M105.15,207.74h-5.75c-.83,0-1.27-.28-1.11-1.16l4.86-34.22c.28-2.21,1.05-3.37,3.65-3.37h12.99c7.24,0,10.89,3.76,10.89,9.73,0,5.36-2.76,9.07-7.35,11l-.06.17c3.04.88,3.81,2.82,4.2,5.53l1.33,11.06c.17.72.11,1.27-.77,1.27h-5.8c-.83,0-1.88,0-2.05-1.11l-1-9.79c-.39-3.59-2.05-4.81-5.58-4.81h-5.03l-2.05,14.54c-.17,1.05-.33,1.16-1.38,1.16ZM116.7,185.24c3.48,0,5.53-2.16,5.53-5.25,0-1.77-.88-3.59-4.09-3.59h-7.35l-1.22,8.85h7.13Z"/><path class="cls-1" d="M130.97,197.07c0-12.83,6.58-19.07,15.37-19.07,7.35,0,10.84,3.21,10.84,8.29,0,6.91-4.2,10.23-13.65,10.23-1.38,0-2.82-.06-4.42-.28-.5,3.93.66,4.98,4.81,5.03,1.77,0,4.75-.66,6.69-1.38.88-.28,1.05-.22,1.33.39l1.71,4.37c.28.5.06.94-.61,1.33-2.93,1.77-7.85,2.38-10.78,2.38-7.02,0-11.28-3.7-11.28-11.28ZM139.87,190.6c.83.06,1.66.11,2.38.11,5.69,0,7.19-1,7.19-3.37,0-1.38-.83-2.65-3.54-2.65s-5.31,1.66-6.03,5.92Z"/><path class="cls-1" d="M168.95,219.96c-3.48,0-7.63-.83-10.23-1.77-1.05-.5-.94-.83-.72-1.44l1.38-4.37c.39-.83.55-.88,1.6-.61,1.93.61,4.92,1.33,7.13,1.33,4.7,0,5.8-1.38,6.52-6.25-1.93.61-4.2.83-6.36.83-7.52,0-10.5-4.64-10.5-11.61,0-10.84,5.36-17.97,16.2-17.97,3.81,0,8.13.55,11.22,2.1.83.5,1.05.88.88,1.71l-3.7,25.82c-1.05,7.24-4.2,12.22-13.43,12.22ZM165.85,195.3c0,3.98,1.93,5.53,5.03,5.53,1.05,0,2.93-.11,4.75-.72l1.99-14.59c-1.27-.44-3.04-.61-3.98-.61-3.98,0-7.79,2.54-7.79,10.39Z"/><path class="cls-1" d="M195.15,178.39c4.15-.44,7.96-.55,11.66-.39,1.16,0,1.49.22,1.27,1.38l-.88,4.92c-.17,1.11-.66,1.11-1.6.94-3.1-.44-5.2-.5-7.79-.66l-3.15,22c-.17,1.05-.5,1.16-1.44,1.16h-5.14c-.83,0-1.27-.11-1.11-1.16l3.04-22c.61-4.04,1-5.58,5.14-6.19Z"/><path class="cls-1" d="M232.75,179.55c1.27.39,1.22.94,1.05,1.77-1.27,8.4-2.32,15.98-3.26,24.1-.06.5-.33.88-.83,1.05-4.2,1.49-8.57,1.88-11.72,1.88-9.07,0-12.22-4.64-12.22-11.28,0-11.72,5.47-19.02,15.81-19.02,2.6,0,6.91.39,11.17,1.49ZM213.84,196.24c0,3.04,1.38,5.36,5.64,5.36,1.11,0,2.65-.28,3.81-.66.88-7.08,1.11-9.07,2.27-15.7-1.27-.28-3.32-.44-4.37-.44-3.7,0-7.19,3.26-7.35,11.44Z"/><path class="cls-3" d="M233.58,169.07l-16.64-.28c-7.92-.13-14.16-6.67-13.92-14.59l.49-16.65c.23-7.93,6.85-14.24,14.77-14.11l16.64.28c7.92.13,14.16,6.67,13.92,14.59l-.49,16.65c-.23,7.93-6.85,14.24-14.77,14.11Z"/><path class="cls-2" d="M215.75,142.79c.95.08,1.59.61,2.79,1.6,1.61,1.33,2.5,2.73,3.25,2.47.09-.03.15-.07.19-.11,2.44-2.42,6.26-6.19,10.87-10.54.51-.48,1.53-1.42,2.94-1.47,2.31-.09,5.12,2.18,4.95,4.53-.07.89-.55,1.6-.98,2.06-4.72,4.78-9.45,9.56-14.17,14.34-.69.72-1.97,1.81-3.66,1.88-1.27.06-2.68-.96-5.5-3h0c-4.7-3.76-5.19-4.9-5.38-5.53-.28-.9-.21-1.61-.19-1.81.17-1.45,1.09-2.4,1.5-2.8.46-.46,1.76-1.76,3.4-1.63Z"/></g></svg>