<svg xmlns="http://www.w3.org/2000/svg" viewBox="0 0 64 64" id="step">
  <path d="M32,4A28,28,0,1,0,60,32,28.03146,28.03146,0,0,0,32,4Zm0,54A26,26,0,1,1,58,32,26.02885,26.02885,0,0,1,32,58Z" fill="#850000" class="color000000 svgShape"></path>
  <path d="M34.43 48.29c.24 7.44 11.02 7.44 11.26 0V45.24H34.43zM40.06 22.41a5.62878 5.62878 0 00-4.13 1.73c-2.15 2.18995-2.87 5.97-2.84 8.54.2 3.92 1.78 6.27 1.43 10.56H46.08A38.95937 38.95937 0 0048 32.67C48 26.44 44.88 22.41 40.06 22.41zM18.31 35.96a5.63 5.63 0 1011.26 0V32.91H18.31zM23.94 10.08c-4.82 0-7.94 4.03-7.94 10.26a38.53352 38.53352 0 001.93 10.57H29.48c-.34-4.29 1.23-6.64 1.43-10.56.03-2.57-.69-6.35-2.84-8.54A5.62874 5.62874 0 0023.94 10.08z" fill="#850000" class="color000000 svgShape"></path>
</svg>
