<svg xmlns="http://www.w3.org/2000/svg" viewBox="0 0 31.67 27.56"><defs><style>.cls-1{fill:none;}.cls-2{fill:#0f1314;}</style></defs><g id="Layer_2" data-name="Layer 2"><g id="Capa_1" data-name="Capa 1"><rect class="cls-1" width="31.67" height="27.56"/><path class="cls-2" d="M8,2.2A1.52,1.52,0,0,0,6.52,3.26L.07,24.39A1.48,1.48,0,0,0,.3,25.72a1.48,1.48,0,0,0,1.21.61H4a1.52,1.52,0,0,0,1.46-1.1l1.41-5.1h6.91l1.54,5.13a1.51,1.51,0,0,0,1.45,1.08h2.7a1.51,1.51,0,0,0,1.45-2L14.34,3.26A1.5,1.5,0,0,0,12.9,2.2ZM7.64,16l2.14-8.2a.44.44,0,0,1,.42-.33.45.45,0,0,1,.42.32L13,16Z"/><path class="cls-2" d="M27,6.49v-4a.93.93,0,0,0-.93-.93H24.46a.93.93,0,0,0-.92.93v4H19.79a.92.92,0,0,0-.92.92V8.89a.92.92,0,0,0,.92.92h3.75v4a.92.92,0,0,0,.92.92h1.61a.93.93,0,0,0,.93-.92v-4h3.75a.92.92,0,0,0,.92-.92V7.41a.92.92,0,0,0-.92-.92Z"/></g></g></svg>