<?xml version="1.0" encoding="utf-8"?>
<!-- Generator: Adobe Illustrator 25.1.0, SVG Export Plug-In . SVG Version: 6.00 Build 0)  -->
<svg version="1.1" id="Layer_1" xmlns="http://www.w3.org/2000/svg" xmlns:xlink="http://www.w3.org/1999/xlink" x="0px" y="0px"
	 viewBox="0 0 31.7 27.6" style="enable-background:new 0 0 31.7 27.6;" xml:space="preserve">
<style type="text/css">
	.st0{fill:#0F1314;stroke:#0F1314;stroke-width:0.8;stroke-miterlimit:10;}
</style>
<g>
	<path class="st0" d="M30.5,9.2c0.4,0,0.9-0.4,0.9-0.9c0-0.4-0.4-0.9-0.9-0.9h-5.2c-0.4,0-0.9,0.4-0.9,0.9v12.8
		c0,0.4,0.4,0.9,0.9,0.9c0.4,0,0.9-0.4,0.9-0.9v-5.6h3.8c0.4,0,0.9-0.4,0.9-0.9c0-0.4-0.4-0.9-0.9-0.9h-3.8V9.2
		C26.3,9.2,30.5,9.2,30.5,9.2z"/>
	<path class="st0" d="M12.1,20.7c0,0.4,0.2,1.1,0.9,1.1c0,0,2.7,0,3.6,0c1.8,0,3.1-0.9,4.3-2.2c0.9-1.3,1.6-2.9,1.6-4.9
		c0-4.3-2.2-7-5.8-7H13c-0.4,0-0.9,0.4-0.9,0.9V20.7z M16.4,9.4c3.1,0,4.3,2.7,4.3,5.4c0,3.1-1.6,5.4-4,5.4c-0.7,0-1.8,0-2.7,0
		c0-1.3,0-4,0-5.4c0-1.1,0-3.8,0-5.4H16.4L16.4,9.4z"/>
	<path class="st0" d="M1.8,7.4c-0.4,0-0.9,0.4-0.9,0.9v12.8c0,0.4,0.4,0.9,0.9,0.9s0.9-0.4,0.9-0.9v-4.7c0.9,0,2,0,2.7,0
		c2.5,0,4.5-2,4.5-4.5s-2-4.5-4.5-4.5H1.8L1.8,7.4z M8.1,11.9c0,1.6-1.3,2.7-2.9,2.7c-0.7,0-1.8,0-2.7,0c0-0.9,0-2.2,0-2.7
		c0-0.4,0-1.8,0-2.7h2.7C6.7,9.2,8.1,10.3,8.1,11.9z"/>
</g>
</svg>
