<svg width="40" height="40" viewBox="0 0 40 40" fill="none" xmlns="http://www.w3.org/2000/svg">
<g clip-path="url(#clip0_79_78)">
<path d="M20 0C8.9543 0 0 8.9543 0 20C0 31.0457 8.9543 40 20 40C31.0457 40 40 31.0457 40 20C39.9875 8.95948 31.0405 0.0124914 20 0ZM20 38.6667C9.69068 38.6667 1.33333 30.3093 1.33333 20C1.33333 9.69068 9.69068 1.33333 20 1.33333C30.3093 1.33333 38.6667 9.69068 38.6667 20C38.6549 30.3044 30.3044 38.6549 20 38.6667Z" fill="#323232"/>
<path d="M20 2.66669C10.427 2.66669 2.66663 10.4271 2.66663 20C2.66663 29.573 10.427 37.3334 20 37.3334C29.5729 37.3334 37.3333 29.573 37.3333 20C37.3223 10.4317 29.5683 2.67771 20 2.66669ZM20 36C11.1634 36 3.99996 28.8366 3.99996 20C3.99996 11.1635 11.1634 4.00002 20 4.00002C28.8365 4.00002 36 11.1635 36 20C35.9897 28.8323 28.8323 35.9897 20 36Z" fill="#323232"/>
<path d="M20 14C22.2091 14 24 12.2091 24 10C24 7.79086 22.2091 6 20 6C17.7909 6 16 7.79086 16 10C16.0022 12.2082 17.7918 13.9978 20 14Z" fill="#323232"/>
<path d="M29.2847 14.672H29.2741L22.2741 15.3007C22.0354 15.3225 21.7965 15.3334 21.5574 15.3334H18.4427C18.2041 15.3334 17.9656 15.3227 17.7274 15.3014L10.7154 14.672C9.61413 14.5855 8.65124 15.4081 8.56472 16.5094C8.47819 17.6106 9.30079 18.5735 10.4021 18.66L16.0601 19.1734C16.4034 19.2044 16.6664 19.492 16.6667 19.8367V21.37C16.667 21.7033 16.6045 22.0337 16.4827 22.344L13.2747 30.514C12.8276 31.5243 13.2841 32.7059 14.2944 33.153C15.3047 33.6002 16.4862 33.1437 16.9334 32.1334L19.9907 24.658L23.0767 32.1534C23.5369 33.1383 24.6996 33.5752 25.6946 33.1372C26.6895 32.6992 27.1524 31.5465 26.7367 30.542L23.5174 22.342C23.3959 22.0321 23.3335 21.7022 23.3334 21.3694V19.836C23.3337 19.4913 23.5968 19.2037 23.9401 19.1727L29.5887 18.66C30.6902 18.5761 31.515 17.6151 31.4311 16.5137C31.3471 15.4122 30.3862 14.5881 29.2847 14.672Z" fill="#323232"/>
</g>
<defs>
<clipPath id="clip0_79_78">
<rect width="40" height="40" fill="white"/>
</clipPath>
</defs>
</svg>
