<svg width="40" height="40" viewBox="0 0 40 40" fill="none" xmlns="http://www.w3.org/2000/svg">
<g clip-path="url(#clip0_79_108)">
<path d="M38.2335 14.4116C38.2335 9.699 36.0979 5.84237 32.0576 3.25881C28.8191 1.18776 24.367 0 19.843 0C16.0561 0 12.5348 1.03392 9.92756 2.91146C7.01892 5.00587 5.35686 8.02397 5.12115 11.6393C5.06607 12.483 4.81162 13.0208 4.58716 13.4952C4.46372 13.7561 4.34715 14.0025 4.28676 14.2618C4.11699 14.9909 4.51958 15.6285 4.87474 16.191C5.01545 16.4139 5.14842 16.6244 5.23006 16.8145C5.28647 16.9457 5.27717 17.1002 5.20537 17.228C4.68654 18.1516 4.03981 18.8635 2.97299 19.6846C2.49165 20.0552 1.7643 20.6151 1.76648 21.6261C1.76883 22.6657 2.42337 23.3938 3.71199 23.79C3.96207 23.8669 4.05824 23.9418 4.08793 23.9705C4.05199 24.1666 3.6005 24.6252 3.14752 24.9207C3.08369 24.9621 3.02846 25.0156 2.98502 25.0781C2.72463 25.453 2.5972 26.2181 3.31339 26.7891C3.50862 26.9448 3.66824 27.0868 3.79386 27.2063C3.26479 27.8874 3.40128 28.6445 3.6816 29.0553C3.76574 29.1786 3.89574 29.2655 4.04152 29.2977C4.15129 29.3218 4.48224 29.4186 4.7238 29.5792C4.46942 30.0252 4.0477 30.7732 4.32309 31.9371C4.68739 33.4169 5.81476 34.3216 7.67393 34.6259C8.50605 34.762 9.91788 34.5638 11.5524 34.3343C11.8358 34.2944 12.1235 34.2541 12.4118 34.215C15.256 33.8302 16.6005 36.1206 17.629 38.654C17.9647 39.4811 18.7728 40.0001 19.6338 40.0001C19.8113 40.0001 19.991 39.978 20.1693 39.9321L26.162 38.3874C26.4754 38.3066 27.5808 37.8134 27.5 37.5C27.4193 37.1866 26.1833 37.1717 25.8695 37.2525L19.8768 38.7972C19.3994 38.9204 18.9 38.6691 18.7148 38.213C18.0199 36.5013 16.3925 32.4923 12.2545 33.0536C11.9642 33.0929 11.6747 33.1335 11.3894 33.1736C9.9785 33.3718 8.51981 33.5768 7.86323 33.4693C6.47274 33.2417 5.70944 32.6658 5.46108 31.657C5.30155 31.0165 5.49921 30.5493 5.77093 30.1079C6.07718 29.5604 5.82171 28.9136 5.40944 28.6282C5.13451 28.4378 4.82834 28.3141 4.6045 28.2403C4.59528 28.1015 4.66466 27.9143 4.95927 27.702C5.08779 27.6092 5.17334 27.4686 5.19631 27.3118C5.21936 27.155 5.17787 26.9956 5.08146 26.87C5.08545 26.8336 4.54544 26.2916 3.95973 25.7853C4.4452 25.4404 5.3717 24.6593 5.25139 23.7956C5.20108 23.4342 4.95287 22.9456 4.05652 22.6699C3.07526 22.3682 2.93932 21.9887 2.93846 21.6235C2.93768 21.2511 3.1587 21.0207 3.68792 20.6133C4.52435 19.9693 5.48007 19.1317 6.22711 17.802C6.47641 17.3581 6.50618 16.8161 6.3068 16.3518C6.18859 16.0768 6.02445 15.8168 5.86562 15.5654C5.62171 15.179 5.36944 14.7795 5.42811 14.5276C5.46006 14.3904 5.54647 14.2078 5.64647 13.9964C5.88898 13.4839 6.22102 12.7822 6.29063 11.7156C6.76556 4.43203 13.4394 1.1719 19.843 1.1719C24.1493 1.1719 28.3712 2.29238 31.4263 4.24609C35.1129 6.60363 37.0616 10.1188 37.0616 14.4116C37.0616 19.732 36.3622 21.9118 31.7322 26.1019C30.4009 27.3067 30.5546 30.0509 32.202 34.4914C32.3012 34.7587 32.2832 35.0446 32.1515 35.2967C32.0204 35.5475 31.7972 35.7246 31.5231 35.7952L25.8695 37.2525C25.5561 37.3333 25.3675 37.6528 25.4483 37.9662C25.5291 38.2795 25.8483 38.4685 26.162 38.3874L31.8156 36.9301C32.4065 36.7778 32.9074 36.3803 33.1901 35.8397C33.4734 35.2977 33.5138 34.6578 33.3008 34.0839C31.9204 30.3629 31.6353 27.7703 32.5185 26.9709C37.4074 22.5463 38.2335 19.9543 38.2335 14.4116Z" fill="#323232"/>
<path d="M34.816 12.9445C35.1038 11.8163 34.9349 10.6436 34.3407 9.64237C33.8052 8.73993 32.9817 8.07429 31.9995 7.74124C31.6143 6.1941 30.4112 4.97057 28.8469 4.57158C27.796 4.30368 26.6992 4.43587 25.7529 4.93072C25.066 3.88633 24.0137 3.12983 22.7874 2.81701C21.1788 2.40669 19.4747 2.81998 18.2334 3.89696C17.9738 3.76516 17.7003 3.66234 17.416 3.58984C16.4023 3.33124 15.3457 3.47749 14.4406 4.00157C13.6522 4.45798 13.0549 5.15651 12.7283 5.99441C12.0305 6.11481 11.3673 6.39622 10.7913 6.8188C10.5304 7.01013 10.474 7.37694 10.6655 7.6378C10.8569 7.89874 11.2237 7.95523 11.4844 7.76359C11.993 7.39061 12.592 7.16529 13.2168 7.11193C13.4602 7.09115 13.6652 6.92154 13.7311 6.68638C14.1392 5.23167 15.6624 4.3522 17.1264 4.72541C17.436 4.80439 17.7274 4.93424 17.9926 5.11143C18.2291 5.2694 18.5449 5.23495 18.7415 5.0294C19.7071 4.02055 21.1461 3.60773 22.4977 3.9525C23.5997 4.2336 24.5187 4.98166 25.0191 6.00488C25.0952 6.16051 25.2362 6.2745 25.4044 6.31614C25.5727 6.35801 25.7506 6.32301 25.8906 6.2209C26.6618 5.65886 27.6336 5.47136 28.5572 5.70706C29.7911 6.02176 30.7176 7.03834 30.9177 8.29672C30.9549 8.53024 31.1287 8.7186 31.3586 8.77423L31.3835 8.77985C32.2068 8.99079 32.899 9.50932 33.3328 10.2403C33.7673 10.9723 33.8908 11.8297 33.6803 12.6546C33.4926 13.3908 33.0465 14.0368 32.4242 14.4736C32.1793 14.6454 32.1033 14.9741 32.2476 15.2361C32.7604 16.1662 32.8712 17.2399 32.5599 18.2592C32.4676 18.5612 32.3386 18.8508 32.1765 19.12C32.0095 19.3971 32.0989 19.7572 32.3761 19.9243C32.4707 19.9812 32.5749 20.0083 32.6779 20.0083C32.8765 20.0083 33.0703 19.9072 33.1804 19.7247C33.3919 19.3733 33.5603 18.9955 33.6807 18.6016C34.0363 17.4374 33.9679 16.2183 33.4937 15.1188C34.1383 14.5443 34.6009 13.7877 34.816 12.9445Z" fill="#323232"/>
<path d="M9.005 16.5267C9.53868 17.387 10.3627 18.0151 11.3253 18.2955C12.5008 18.6377 13.755 18.4392 14.7661 17.7503C15.1862 17.4641 15.7411 17.5025 16.0854 17.8412C16.9751 18.7167 18.0878 19.3434 19.3035 19.6534C19.3832 19.6737 19.4646 19.6929 19.5471 19.7107C20.1423 20.5078 20.9907 21.0768 21.9608 21.3241C23.1156 21.6187 24.3461 21.4201 25.3489 20.7954C26.0511 21.4643 26.9219 21.9105 27.8954 22.0959C28.208 22.1554 28.5226 22.1851 28.8363 22.1851C29.5431 22.1851 30.2444 22.0349 30.9031 21.7391C31.1983 21.6065 31.3302 21.2597 31.1976 20.9645C31.065 20.6693 30.718 20.5374 30.423 20.67C29.6925 20.9983 28.8942 21.0933 28.1147 20.9448C27.227 20.7757 26.4508 20.3256 25.8704 19.6434C25.6636 19.4005 25.3011 19.3673 25.0539 19.5688C24.2612 20.215 23.2392 20.441 22.2504 20.1886C21.4815 19.9926 20.8174 19.5203 20.3802 18.859C20.2922 18.7259 20.1538 18.6344 19.9968 18.6057C19.8588 18.5805 19.7228 18.5509 19.593 18.5178C18.5781 18.259 17.6494 17.7361 16.9074 17.0059C16.1654 16.2757 14.9875 16.1816 14.1064 16.7818C13.3855 17.2727 12.4913 17.4146 11.6531 17.1703C10.2457 16.7603 9.34633 15.3106 9.60555 13.8697C9.69899 13.3504 9.92947 12.8676 10.2722 12.4732C10.4196 12.3036 10.4571 12.0645 10.3684 11.8578C10.0696 11.1616 10.0108 10.4052 10.1982 9.67054C10.2781 9.35694 10.0888 9.03787 9.77524 8.95795C9.46165 8.87818 9.14266 9.06732 9.06265 9.38092C8.84046 10.2521 8.87601 11.146 9.16336 11.9871C8.80531 12.4821 8.56147 13.0546 8.45217 13.6621C8.27459 14.6487 8.47092 15.666 9.005 16.5267Z" fill="#323232"/>
<path d="M14.5665 9.46242C14.2737 9.32484 13.9246 9.4507 13.787 9.7436L11.5848 14.4313C11.5823 14.4366 11.58 14.4419 11.5776 14.4472C11.4645 14.7079 11.5195 15.0079 11.7177 15.2114C11.8519 15.3493 12.0321 15.4226 12.2163 15.4226C12.3041 15.4226 12.3928 15.406 12.4779 15.3717C12.4822 15.37 12.4865 15.3681 12.4907 15.3664L17.2526 13.3145C17.5497 13.1865 17.6869 12.8417 17.5588 12.5446C17.4308 12.2473 17.086 12.1102 16.7889 12.2383L15.9739 12.5895L14.4716 11.0427L14.8478 10.242C14.9852 9.94907 14.8594 9.6 14.5665 9.46242ZM14.822 13.0858L13.1791 13.7937L13.9389 12.1764L14.822 13.0858Z" fill="#323232"/>
<path d="M31.0375 15.5888C31.2275 15.1479 31.2344 14.6595 31.0569 14.2135C30.8795 13.7674 30.539 13.4172 30.0982 13.2274L28.6941 12.6224C28.3967 12.4943 28.0521 12.6314 27.9242 12.9287L26.9654 15.1542C26.9653 15.1543 26.9653 15.1544 26.9652 15.1545L25.8416 17.7624C25.78 17.9056 25.7779 18.0674 25.8358 18.212C25.8937 18.3568 26.0069 18.4724 26.1503 18.5335C26.1504 18.5335 27.4439 19.0839 27.7996 19.2372C28.0571 19.3482 28.3253 19.4007 28.5893 19.4007C29.3652 19.4007 30.1052 18.9471 30.4312 18.1905C30.6895 17.5909 30.6309 16.9334 30.3304 16.4055C30.6342 16.2185 30.8859 15.9406 31.0375 15.5888ZM28.7685 13.9306L29.6345 14.3037C29.7879 14.3697 29.9063 14.4915 29.968 14.6467C30.0297 14.8018 30.0274 14.9718 29.9613 15.1251C29.8249 15.4418 29.4563 15.5879 29.1397 15.4519C29.0358 15.4072 28.8393 15.3231 28.6253 15.2318L28.2733 15.0802L28.7685 13.9306ZM29.355 17.7267C29.1738 18.1474 28.6842 18.3422 28.2632 18.161C28.0598 18.0734 27.5507 17.8563 27.1506 17.6858L27.809 16.1577C27.9226 16.2061 28.0431 16.2575 28.1586 16.3068L28.9207 16.6351C29.3415 16.8163 29.5363 17.3061 29.355 17.7267Z" fill="#323232"/>
<path d="M20.4252 11.0787C21.226 10.8741 21.8991 10.3699 22.3207 9.65899C23.1237 8.35725 22.7904 6.28033 21.2656 5.57587C20.9736 5.43587 20.6238 5.55892 20.4839 5.85072C20.3439 6.14244 20.4669 6.49253 20.7587 6.63245C21.5508 6.97706 21.8247 8.24888 21.3127 9.06124C21.0507 9.50289 20.6326 9.81618 20.1352 9.94329C19.1081 10.2054 18.0592 9.58359 17.7969 8.5567C17.7015 8.18341 17.7194 7.79536 17.8487 7.43457C17.9578 7.12996 17.7993 6.79448 17.4947 6.68534C17.1899 6.57612 16.8547 6.73479 16.7454 7.03933C16.5371 7.62106 16.508 8.24607 16.6614 8.84678C17.0989 10.4867 18.7492 11.4954 20.4252 11.0787Z" fill="#323232"/>
<path d="M19.21 15.9855C19.6704 16.77 20.4742 17.1843 21.3802 17.1843C21.9412 17.1843 22.5413 17.0255 23.1235 16.6975C24.7237 15.7959 25.2873 14.2823 24.526 12.9311L23.835 11.7048C23.7586 11.5693 23.6314 11.4696 23.4815 11.4279C23.3318 11.3864 23.1714 11.4059 23.0359 11.4825C23.0359 11.4825 21.3722 12.4241 20.8785 12.7022C20.2766 13.0414 18.7102 13.9315 18.7102 13.9315C18.5751 14.0082 18.476 14.1356 18.4348 14.2854C18.3936 14.4352 18.4135 14.5954 18.4903 14.7305C18.5113 14.7675 19.0072 15.6398 19.21 15.9855ZM21.4538 13.7232C21.7709 13.5445 22.5701 13.0925 23.1022 12.7914L23.505 13.5062C24.0193 14.4191 23.348 15.2258 22.5482 15.6764C21.7399 16.1318 20.7069 16.2207 20.2208 15.3924C20.1229 15.2255 19.9502 14.9244 19.7993 14.6605C20.3104 14.3704 21.0743 13.9371 21.4538 13.7232Z" fill="#323232"/>
<path d="M24.9358 11.0233L26.2792 12.1319C26.3883 12.2219 26.5205 12.2658 26.6519 12.2658C26.8207 12.2658 26.9883 12.1932 27.1041 12.0528C27.3101 11.8033 27.2748 11.4339 27.0251 11.2279L26.1336 10.4922L26.7032 9.80198L27.4956 10.4559C27.6048 10.546 27.7369 10.5899 27.8683 10.5899C28.0371 10.5899 28.2047 10.5172 28.3206 10.3768C28.5265 10.1273 28.4912 9.75791 28.2415 9.55189L27.4491 8.89798L28.0186 8.20773L28.9101 8.94337C29.1596 9.14931 29.5289 9.114 29.735 8.8643C29.941 8.61469 29.9057 8.24539 29.656 8.03937L28.3125 6.93083C28.0631 6.72497 27.6937 6.76028 27.4876 7.0099L24.8567 10.1983C24.6509 10.448 24.6862 10.8173 24.9358 11.0233Z" fill="#323232"/>
</g>
<defs>
<clipPath id="clip0_79_108">
<rect width="40" height="40" fill="white"/>
</clipPath>
</defs>
</svg>
