<svg width="50" height="50" viewBox="0 0 50 50" fill="none" xmlns="http://www.w3.org/2000/svg">
<g clip-path="url(#clip0_88_5)">
<path d="M26.1534 42.5513V48.8038C26.204 49.4672 25.7082 50.0503 25.0405 50.1005C24.3727 50.1508 23.7859 49.6582 23.7353 48.9948C23.7252 48.9244 23.7252 48.8641 23.7353 48.7937V42.5412C23.7859 41.8778 24.3727 41.3852 25.0405 41.4355C25.6374 41.4958 26.1129 41.9582 26.1534 42.5513ZM24.9494 0C24.2817 0 23.7353 0.542823 23.7353 1.20627V7.13711C23.6847 7.80056 24.1805 8.38359 24.8482 8.43386C25.516 8.48412 26.1028 7.99156 26.1534 7.32811C26.1635 7.25774 26.1635 7.19743 26.1534 7.12706V1.20627C26.1534 0.542823 25.6172 0 24.9494 0ZM8.3873 24.8392C8.3873 24.1757 7.84096 23.6329 7.17321 23.6329H1.21409C0.54634 23.5826 -0.0404667 24.0752 -0.0910535 24.7386C-0.14164 25.4021 0.354111 25.9851 1.02186 26.0354C1.09268 26.0454 1.15338 26.0454 1.2242 26.0354H7.19345C7.85108 26.0354 8.3873 25.5026 8.3873 24.8392ZM48.796 23.6329H42.8268C42.159 23.5826 41.5722 24.0752 41.5217 24.7386C41.4711 25.4021 41.9668 25.9851 42.6346 26.0354C42.7054 26.0454 42.7661 26.0454 42.8369 26.0354H48.8062C49.4739 25.9851 49.9697 25.4021 49.9191 24.7386C49.8584 24.1456 49.3828 23.6832 48.796 23.6329ZM11.635 36.6305L7.39579 40.8424C6.96075 41.355 7.03157 42.109 7.53744 42.5412C7.99272 42.9232 8.65035 42.9232 9.10563 42.5412L13.3448 38.3293C13.7798 37.8166 13.7191 37.0627 13.2032 36.6305C12.758 36.2485 12.0902 36.2485 11.635 36.6305ZM37.7782 13.5605C38.102 13.5605 38.4055 13.4298 38.6382 13.2087L42.8774 8.99678C43.3124 8.48412 43.2416 7.7302 42.7357 7.29795C42.2805 6.91596 41.6228 6.91596 41.1675 7.29795L36.9284 11.5099C36.463 11.9823 36.463 12.7463 36.9385 13.2187C37.1611 13.4298 37.4646 13.5605 37.7782 13.5605ZM9.11575 7.29795C8.59976 6.8657 7.83084 6.93607 7.39579 7.43868C7.01133 7.89103 7.01133 8.54443 7.39579 8.99678L11.635 13.2087C12.07 13.7214 12.8288 13.7817 13.3448 13.3494C13.8608 12.9172 13.9215 12.1632 13.4864 11.6506C13.446 11.6003 13.3954 11.5501 13.3448 11.5099L9.11575 7.29795ZM38.6281 36.6305C38.1121 36.1982 37.3533 36.2686 36.9183 36.7712C36.5338 37.2236 36.5338 37.877 36.9183 38.3293L41.1574 42.5412C41.5925 43.0539 42.3513 43.1142 42.8673 42.6819C43.3833 42.2497 43.444 41.4958 43.0089 40.9831C42.9684 40.9329 42.9179 40.8826 42.8673 40.8424L38.6281 36.6305ZM39.5387 24.8291C39.5387 32.7201 33.0737 39.1335 25.1416 39.1335C17.2096 39.1335 10.7345 32.7201 10.7345 24.8291C10.7345 16.9381 17.1995 10.5247 25.1315 10.5247C33.0635 10.5247 39.5387 16.9381 39.5387 24.8291ZM24.8685 12.9272C18.4136 13.0076 13.0312 18.3052 13.0312 24.8291C13.0312 31.353 18.4136 36.6506 24.8685 36.731V12.9272Z" fill="#323232"/>
</g>
<defs>
<clipPath id="clip0_88_5">
<rect width="50" height="50" fill="white"/>
</clipPath>
</defs>
</svg>
