<?xml version="1.0" encoding="UTF-8"?>
<svg id="Camada_2" xmlns="http://www.w3.org/2000/svg" viewBox="0 0 18.53 76.19">
  <defs>
    <style>
      .cls-1 {
        fill: #a0a09f;
      }

      .cls-2 {
        fill: #3a3a3a;
      }
    </style>
  </defs>
  <g id="Camada_1-2" data-name="Camada_1">
    <g>
      <path class="cls-2" d="M15.9,0h2.63v76.19h-2.63c-4.42,0-8-3.58-8-8V8C7.9,3.58,11.48,0,15.9,0Z"/>
      <path class="cls-2" d="M15.52,37.27c0,6.2,1.9,12.04-4.3,12.04S0,44.29,0,38.1s5.02-11.22,11.22-11.22,4.3,4.2,4.3,10.39Z"/>
      <path class="cls-1" d="M12.02,31.25l-8.55,4.94c-.83.48-.83,1.68,0,2.16l8.55,4.94c.83.48,1.87-.12,1.87-1.08v-9.87c0-.96-1.04-1.56-1.87-1.08Z"/>
    </g>
  </g>
</svg>