<svg xmlns="http://www.w3.org/2000/svg" viewBox="0 0 131.73 98.03"><defs><style>.cls-1{opacity:0.2;}.cls-2{fill:#238cc4;}</style></defs><g id="Layer_2" data-name="Layer 2"><g id="Layer_1-2" data-name="Layer 1"><g class="cls-1"><path class="cls-2" d="M125.37,57.18q-6.34-5.32-10.73-5.33.28-2.77,4.31-9a40.79,40.79,0,0,1,9.57-10.44,9.76,9.76,0,0,0-5.41-8q-10.08,3.06-19,11.83A69.3,69.3,0,0,0,90,55.87q-5.19,10.89-5.19,20.82t6.36,15.64Q97.54,98,107.47,98t17.1-8q7.16-8,7.16-17.76T125.37,57.18Z"/><path class="cls-2" d="M73.06,57.18q-6.36-5.32-10.74-5.33.3-2.77,4.31-9a42.17,42.17,0,0,1,9.43-10.44,9.5,9.5,0,0,0-5.41-8Q55.59,29.06,44,45.27T32.36,74.06q0,12.57,6.43,18.27T55.16,98q9.93,0,17.1-8t7.16-17.76Q79.42,62.53,73.06,57.18Z"/></g><path class="cls-2" d="M118.89,41.94q-8.13-6.82-13.73-6.82c.25-2.36,2.09-6.2,5.51-11.49a52.64,52.64,0,0,1,12.24-13.36Q122.34,3.55,116,0,103.11,3.92,91.71,15.13a88.5,88.5,0,0,0-18,25.13q-6.62,13.91-6.63,26.61t8.13,20Q83.31,94.15,96,94.14t21.85-10.27Q127,73.6,127,61.17T118.89,41.94Z"/><path class="cls-2" d="M52,41.94q-8.13-6.82-13.73-6.82c.25-2.36,2.08-6.2,5.51-11.49A54.25,54.25,0,0,1,55.85,10.27,12.15,12.15,0,0,0,48.94,0Q29.7,6,14.84,26.71T0,63.51Q0,79.58,8.22,86.86t20.92,7.28q12.7,0,21.86-10.27t9.15-22.7Q60.15,48.77,52,41.94Z"/></g></g></svg>