<svg width="19" height="19" viewBox="0 0 19 19" fill="none" xmlns="http://www.w3.org/2000/svg">
<g clip-path="url(#clip0_35_170)">
<path d="M14.8834 0H4.11678C3.24235 0 2.53345 0.708898 2.53345 1.58333V17.1C2.53345 18.1494 3.38409 19 4.43345 19H14.8834C15.7579 19 16.4668 18.2911 16.4668 17.4167V1.58333C16.4668 0.708898 15.7579 0 14.8834 0ZM3.16678 1.58333C3.16793 1.18172 3.42146 0.824204 3.80011 0.690333V15.3108C3.56598 15.3929 3.35065 15.5211 3.16678 15.6877V1.58333ZM15.8334 17.4167C15.8334 17.9413 15.4081 18.3667 14.8834 18.3667H4.43345C3.73389 18.3667 3.16678 17.7996 3.16678 17.1C3.16678 16.4004 3.73389 15.8333 4.43345 15.8333H14.8834C15.2263 15.8352 15.5602 15.7239 15.8334 15.5167V17.4167ZM15.8334 14.25C15.8334 14.7747 15.4081 15.2 14.8834 15.2H4.43345V0.633333H14.8834C15.4081 0.633333 15.8334 1.05866 15.8334 1.58333V14.25Z" fill="#323232"/>
<path d="M14.5668 16.7833H4.43343C4.25855 16.7833 4.11676 16.9251 4.11676 17.1C4.11676 17.2749 4.25855 17.4167 4.43343 17.4167H14.5668C14.7416 17.4167 14.8834 17.2749 14.8834 17.1C14.8834 16.9251 14.7416 16.7833 14.5668 16.7833Z" fill="#323232"/>
<path d="M6.24159 9.18336C6.40736 9.2391 6.58691 9.14992 6.64265 8.98414C6.6455 8.97571 6.64795 8.96716 6.65009 8.95853L7.05542 7.60003H8.14475L8.55009 8.95853C8.59189 9.09699 8.72224 9.18954 8.86675 9.18336C8.89715 9.18823 8.92819 9.18823 8.95859 9.18336C9.12844 9.14176 9.23243 8.97033 9.19086 8.80047C9.18876 8.79185 9.18627 8.7833 9.18342 8.77486L7.91675 4.6582C7.86779 4.49028 7.692 4.3939 7.52409 4.44286C7.42026 4.47314 7.33904 4.55437 7.30875 4.6582L6.04209 8.77486C5.98271 8.93937 6.06794 9.12086 6.23244 9.18024C6.23549 9.18131 6.23854 9.18237 6.24159 9.18336ZM7.60009 5.8267L7.95159 6.9667H7.24859L7.60009 5.8267Z" fill="#323232"/>
<path d="M11.4001 5.06668H13.3666L11.1309 8.70202C11.0744 8.79998 11.0744 8.92071 11.1309 9.01868C11.185 9.11756 11.2875 9.18026 11.4001 9.18335H13.9334C14.1083 9.18335 14.2501 9.04156 14.2501 8.86668C14.2501 8.6918 14.1083 8.55002 13.9334 8.55002H11.9669L14.2026 4.91468C14.2592 4.81671 14.2592 4.69599 14.2026 4.59802C14.1486 4.49914 14.046 4.43644 13.9334 4.43335H11.4001C11.2252 4.43335 11.0834 4.57514 11.0834 4.75002C11.0834 4.9249 11.2252 5.06668 11.4001 5.06668Z" fill="#323232"/>
<path d="M9.50014 6.96665H10.7668C10.9417 6.96665 11.0835 6.82486 11.0835 6.64998C11.0835 6.4751 10.9417 6.33331 10.7668 6.33331H9.50014C9.32526 6.33331 9.18347 6.4751 9.18347 6.64998C9.18347 6.82486 9.32526 6.96665 9.50014 6.96665Z" fill="#323232"/>
</g>
<defs>
<clipPath id="clip0_35_170">
<rect width="19" height="19" fill="white"/>
</clipPath>
</defs>
</svg>
