<svg width="37" height="52" viewBox="0 0 37 52" fill="none" xmlns="http://www.w3.org/2000/svg">
<path fill-rule="evenodd" clip-rule="evenodd" d="M22.4416 1.67353C22.4386 1.67056 22.4363 1.66818 22.4339 1.66521C21.3994 0.60083 19.9812 4.41323e-07 18.5003 4.41323e-07C17.0188 -0.000593851 15.6 0.599047 14.5655 1.66343C14.5626 1.6664 14.5596 1.66937 14.5566 1.67234C9.67975 6.7577 0 21.8432 0 33.4486C0 43.687 8.28881 52 18.4997 52C28.7106 52 37 43.687 37 33.4486C37 21.8432 27.3203 6.75711 22.4416 1.67353ZM32.5992 27.8569H4.4008C6.60535 18.3797 13.4807 8.1531 17.2183 4.25335C17.5558 3.90866 18.0171 3.71373 18.4991 3.71433C18.9811 3.71433 19.443 3.90926 19.7805 4.25454C23.5187 8.1525 30.3947 18.3797 32.5992 27.8569Z" fill="#323232"/>
</svg>
