<?xml version="1.0" encoding="UTF-8"?>
<svg id="Camada_2" data-name="Camada 2" xmlns="http://www.w3.org/2000/svg" viewBox="0 0 36.63 36.73">
  <defs>
    <style>
      .cls-1 {
        fill: #323232;
      }
    </style>
  </defs>
  <g id="Camada_1-2" data-name="Camada 1">
    <g>
      <path class="cls-1" d="m19.31,36.73c-1.04,0-2.04-.54-2.75-1.48l-3.62-3.5c-.2-.26-.65-.36-.65-.37h-.97c-7.17,0-11.31-1.86-11.31-11.32v-8.75C0,3.81,3.81,0,11.31,0h14c7.51,0,11.31,3.81,11.31,11.31v8.75c0,7.51-3.81,11.31-11.31,11.31h-.88c-.28,0-.55.13-.73.35l-1.64,3.52c-.71.94-1.71,1.48-2.75,1.48ZM11.31,1.62C4.79,1.62,1.62,4.79,1.62,11.31v8.75c0,8.29,2.99,9.69,9.69,9.69h.88c.74,0,1.6.43,2.05,1.03l3.62,3.5c.4.52.91.8,1.45.8s1.05-.28,1.45-.8l1.63-3.5c.48-.64,1.25-1.02,2.05-1.02h.88c6.52,0,9.69-3.17,9.69-9.69v-8.75c0-6.52-3.17-9.69-9.69-9.69h-14Z"/>
      <path class="cls-1" d="m18.31,18.31c-.98,0-1.75-.79-1.75-1.75s.79-1.75,1.75-1.75,1.75.79,1.75,1.75-.77,1.75-1.75,1.75Z"/>
      <path class="cls-1" d="m25.32,18.31c-.98,0-1.75-.79-1.75-1.75s.79-1.75,1.75-1.75,1.75.79,1.75,1.75-.77,1.75-1.75,1.75Z"/>
      <path class="cls-1" d="m11.31,18.31c-.98,0-1.75-.79-1.75-1.75s.79-1.75,1.75-1.75,1.75.79,1.75,1.75-.77,1.75-1.75,1.75Z"/>
    </g>
  </g>
</svg>