<svg width="17" height="17" viewBox="0 0 17 17" fill="none" xmlns="http://www.w3.org/2000/svg">
<g clip-path="url(#clip0_35_159)">
<path d="M2.84021 5.74247L1.02621 3.92847L0.300618 4.65406C-0.100163 5.05484 -0.0999231 5.70474 0.300618 6.10525L1.38902 7.19365L2.84021 5.74247Z" fill="#DB3916"/>
<path d="M7.19379 1.3889L6.10538 0.300496C5.70484 -0.100046 5.05494 -0.100285 4.65419 0.300496L1.0262 3.92849C0.625415 4.32928 0.625655 4.97917 1.0262 5.37968L2.1146 6.46809L7.19379 1.3889Z" fill="#FC5A37"/>
<path d="M3.5658 6.46809L1.38898 5.74249C0.988202 6.14327 0.988441 6.79317 1.38898 7.19368L2.11458 7.91927L3.5658 6.46809Z" fill="#FFF2D4"/>
<path d="M7.91937 2.11447L7.19378 1.38887C6.79324 0.988333 6.14334 0.988094 5.74259 1.38887L1.389 5.74247L2.84019 7.19365L7.91937 2.11447Z" fill="white"/>
<path d="M4.65417 7.55648L2.11458 6.46808C1.7138 6.86886 1.71404 7.51876 2.11458 7.91926L3.20299 9.00767L4.65417 7.55648Z" fill="#DB3916"/>
<path d="M9.00781 3.20287L7.91941 2.11446C7.51886 1.71392 6.86897 1.71368 6.46822 2.11446L2.11463 6.46805L3.92863 8.28205L9.00781 3.20287Z" fill="#FC5A37"/>
<path d="M7.04888 12.8536L3.20296 9.00764C2.80242 8.6071 2.80218 7.9572 3.20296 7.55646L11.4025 10.6768L7.04888 12.8536Z" fill="#A42B10"/>
<path d="M7.77452 12.128L3.203 7.55649L7.5566 3.2029C7.95738 2.80212 8.60727 2.80236 9.00778 3.2029L12.8537 7.04882L11.4025 10.6768L7.77452 12.128Z" fill="#DB3916"/>
<path d="M12.3461 16.6995L13.0717 15.9739L7.77455 12.128L7.04896 12.8536L10.8949 16.6995C11.2954 17.1 11.9453 17.1003 12.3461 16.6995Z" fill="#1D54BD"/>
<path d="M11.6204 15.9739L7.77453 12.128L12.8537 7.04883L16.6996 10.8947C17.1002 11.2953 17.1004 11.9452 16.6996 12.3459L13.0716 15.9739C12.6708 16.3747 12.021 16.3745 11.6204 15.9739Z" fill="#487ED2"/>
</g>
<defs>
<clipPath id="clip0_35_159">
<rect width="17" height="17" fill="white" transform="matrix(0 1 -1 0 17.0001 0)"/>
</clipPath>
</defs>
</svg>
