<svg width="17" height="17" viewBox="0 0 17 17" fill="none" xmlns="http://www.w3.org/2000/svg">
<g clip-path="url(#clip0_79_133)">
<path d="M6.03077 16.0324C5.81802 16.0317 5.60745 15.9894 5.41098 15.9078C5.11781 15.7899 4.86706 15.5862 4.69151 15.3235C4.51597 15.0607 4.42382 14.7511 4.4271 14.4351V13.9946C4.42692 13.8054 4.35171 13.6241 4.21798 13.4904C4.08425 13.3567 3.90293 13.2815 3.71381 13.2813H2.83335C2.31691 13.2807 1.82177 13.0753 1.45659 12.7101C1.09141 12.3449 0.885999 11.8498 0.885437 11.3334V2.83335C0.885999 2.31691 1.09141 1.82177 1.45659 1.45659C1.82177 1.09141 2.31691 0.885999 2.83335 0.885437H14.1667C14.6831 0.885999 15.1783 1.09141 15.5435 1.45659C15.9086 1.82177 16.114 2.31691 16.1146 2.83335V11.3334C16.114 11.8498 15.9086 12.3449 15.5435 12.7101C15.1783 13.0753 14.6831 13.2807 14.1667 13.2813H9.72402C9.63006 13.2815 9.53709 13.3004 9.4505 13.3368C9.36392 13.3733 9.28546 13.4267 9.21969 13.4938L7.14781 15.5621C7.00201 15.7105 6.8282 15.8285 6.63645 15.9093C6.4447 15.99 6.23883 16.0319 6.03077 16.0324ZM2.83335 1.94794C2.59864 1.94831 2.37365 2.04172 2.20768 2.20768C2.04172 2.37365 1.94831 2.59864 1.94794 2.83335V11.3334C1.94831 11.5681 2.04172 11.7931 2.20768 11.959C2.37365 12.125 2.59864 12.2184 2.83335 12.2188H3.71381C4.18461 12.2193 4.63596 12.4066 4.96887 12.7395C5.30177 13.0724 5.48904 13.5238 5.4896 13.9946V14.4351C5.4897 14.5401 5.5209 14.6428 5.57928 14.73C5.63767 14.8173 5.7206 14.8853 5.81762 14.9255C5.91463 14.9657 6.02138 14.9762 6.12437 14.9557C6.22736 14.9353 6.32198 14.8848 6.39627 14.8106L8.46815 12.7387C8.63276 12.5734 8.8285 12.4423 9.04405 12.3531C9.25961 12.2638 9.49072 12.2182 9.72402 12.2188H14.1667C14.4014 12.2184 14.6264 12.125 14.7924 11.959C14.9583 11.7931 15.0517 11.5681 15.0521 11.3334V2.83335C15.0517 2.59864 14.9583 2.37365 14.7924 2.20768C14.6264 2.04172 14.4014 1.94831 14.1667 1.94794H2.83335Z" fill="#323232"/>
<path d="M8.5 9.73962C8.3591 9.73962 8.22398 9.68365 8.12435 9.58402C8.02472 9.4844 7.96875 9.34927 7.96875 9.20837V4.95837C7.96875 4.81748 8.02472 4.68235 8.12435 4.58272C8.22398 4.48309 8.3591 4.42712 8.5 4.42712C8.6409 4.42712 8.77602 4.48309 8.87565 4.58272C8.97528 4.68235 9.03125 4.81748 9.03125 4.95837V9.20837C9.03125 9.34927 8.97528 9.4844 8.87565 9.58402C8.77602 9.68365 8.6409 9.73962 8.5 9.73962Z" fill="#323232"/>
<path d="M10.625 7.61462H6.375C6.2341 7.61462 6.09898 7.55865 5.99935 7.45902C5.89972 7.3594 5.84375 7.22427 5.84375 7.08337C5.84375 6.94248 5.89972 6.80735 5.99935 6.70772C6.09898 6.6081 6.2341 6.55212 6.375 6.55212H10.625C10.7659 6.55212 10.901 6.6081 11.0006 6.70772C11.1003 6.80735 11.1562 6.94248 11.1562 7.08337C11.1562 7.22427 11.1003 7.3594 11.0006 7.45902C10.901 7.55865 10.7659 7.61462 10.625 7.61462Z" fill="#323232"/>
</g>
<defs>
<clipPath id="clip0_79_133">
<rect width="17" height="17" fill="white"/>
</clipPath>
</defs>
</svg>
