<svg width="50" height="50" viewBox="0 0 50 50" fill="none" xmlns="http://www.w3.org/2000/svg">
<path d="M44.7917 50H5.20833C2.3375 50 0 47.6646 0 44.7917V5.20833C0 2.33542 2.3375 0 5.20833 0H44.7917C47.6625 0 50 2.33542 50 5.20833V44.7917C50 47.6646 47.6625 50 44.7917 50ZM5.20833 2.08333C3.48542 2.08333 2.08333 3.48542 2.08333 5.20833V44.7917C2.08333 46.5146 3.48542 47.9167 5.20833 47.9167H44.7917C46.5146 47.9167 47.9167 46.5146 47.9167 44.7917V5.20833C47.9167 3.48542 46.5146 2.08333 44.7917 2.08333H5.20833Z" fill="#323232"/>
<path d="M40.625 20.8333H9.375C7.65208 20.8333 6.25 19.4313 6.25 17.7083V9.375C6.25 7.65208 7.65208 6.25 9.375 6.25H40.625C42.3479 6.25 43.75 7.65208 43.75 9.375V17.7083C43.75 19.4313 42.3479 20.8333 40.625 20.8333ZM9.375 8.33333C8.8 8.33333 8.33333 8.80208 8.33333 9.375V17.7083C8.33333 18.2813 8.8 18.75 9.375 18.75H40.625C41.2 18.75 41.6667 18.2813 41.6667 17.7083V9.375C41.6667 8.80208 41.2 8.33333 40.625 8.33333H9.375Z" fill="#323232"/>
</svg>
