<svg width="50" height="50" viewBox="0 0 50 50" fill="none" xmlns="http://www.w3.org/2000/svg">
<path d="M20.728 38.1096L14.8363 44.0013C12.3937 46.4439 8.43809 46.4439 5.99755 44.0018C3.55652 41.5608 3.55652 37.6048 5.99706 35.1643L17.7826 23.3787C20.2231 20.9381 24.1791 20.9381 26.6196 23.3787C27.4332 24.1923 28.7524 24.1923 29.5659 23.3787C30.3795 22.5652 30.3795 21.246 29.5659 20.4324C25.4981 16.3646 18.9041 16.3646 14.8363 20.4324L3.05085 32.2179C-1.01695 36.2857 -1.01695 42.8797 3.05085 46.9475C7.11816 51.0175 13.7127 51.0175 17.7827 46.9475L23.6744 41.0558C24.488 40.2422 24.488 38.9231 23.6744 38.1095C22.8608 37.2959 21.5416 37.296 20.728 38.1096Z" fill="#323232"/>
<path d="M46.948 3.05085C42.8802 -1.01695 36.284 -1.01695 32.2162 3.05085L25.1474 10.1196C24.3338 10.9332 24.3338 12.2524 25.1474 13.0659C25.961 13.8795 27.2801 13.8795 28.0937 13.0659L35.1625 5.99715C37.603 3.55651 41.5611 3.55651 44.0017 5.99715C46.4422 8.4377 46.4422 12.3937 44.0017 14.8342L31.0391 27.7969C28.5985 30.2375 24.6426 30.2375 22.2021 27.7969C21.3885 26.9833 20.0693 26.9833 19.2558 27.7969C18.4422 28.6105 18.4422 29.9296 19.2558 30.7432C23.3236 34.811 29.9176 34.811 33.9854 30.7432L46.948 17.7806C51.0158 13.7128 51.0158 7.11864 46.948 3.05085Z" fill="#323232"/>
</svg>
