<?xml version="1.0" encoding="UTF-8"?>
<svg id="Camada_2" data-name="Camada 2" xmlns="http://www.w3.org/2000/svg" viewBox="0 0 59 54">
  <defs>
    <style>
      .cls-1 {
        fill: #323232;
      }

      .cls-2 {
        fill: #ccc;
      }
    </style>
  </defs>
  <g id="Camada_1-2" data-name="Camada 1">
    <g>
      <path class="cls-2" d="m5,0h54v54H5c-2.76,0-5-2.24-5-5V5C0,2.24,2.24,0,5,0Z"/>
      <g>
        <path id="_05" data-name=" 05" class="cls-1" d="m27.83,39.65c-.4,0-.73-.33-.73-.73v-3.11l-.7-.28c-.79-.32-1.53-.74-2.2-1.27l-.59-.47-2.7,1.56c-.11.06-.24.1-.36.1-.26,0-.5-.14-.63-.37l-1.84-3.19c-.2-.35-.08-.8.27-1l2.7-1.56-.11-.74c-.06-.42-.09-.84-.09-1.27s.03-.85.09-1.27l.11-.74-2.7-1.56c-.17-.1-.29-.25-.34-.44s-.02-.39.07-.55l1.84-3.19c.13-.23.37-.37.63-.37.13,0,.25.03.36.1l2.7,1.56.59-.47c.67-.53,1.41-.95,2.2-1.27l.7-.28v-3.11c0-.4.33-.73.73-.73h3.68c.4,0,.73.33.73.73v3.11l.7.28c.79.32,1.53.74,2.2,1.27l.59.47,2.7-1.56c.11-.06.24-.1.36-.1.26,0,.5.14.63.37l1.84,3.19c.2.35.08.8-.27,1l-2.7,1.56.11.74c.06.42.09.85.09,1.27s-.03.85-.09,1.27l-.11.74,2.7,1.56c.17.1.29.25.34.44s.02.39-.07.55l-1.84,3.19c-.13.23-.37.37-.63.37h0c-.13,0-.25-.03-.36-.1l-2.7-1.56-.59.47c-.67.53-1.41.95-2.2,1.27l-.7.28v3.11c0,.4-.33.73-.73.73h-3.68Zm1.84-17.84c-3.05,0-5.52,2.48-5.52,5.52s2.48,5.52,5.52,5.52,5.52-2.48,5.52-5.52-2.48-5.52-5.52-5.52Z"/>
        <path class="cls-1" d="m39.67,7h-20.01c-5.7,0-10.33,4.62-10.33,10.33v20.01c0,5.7,4.62,10.33,10.33,10.33h20.01c5.7,0,10.33-4.62,10.33-10.33v-20.01c0-5.7-4.62-10.33-10.33-10.33Zm-.19,38.7h-19.62c-4.72,0-8.55-3.83-8.55-8.55v-19.62c0-4.72,3.83-8.55,8.55-8.55h19.62c4.72,0,8.55,3.83,8.55,8.55v19.62c0,4.72-3.83,8.55-8.55,8.55Z"/>
      </g>
      <path class="cls-1" d="m4.78,0h7.22v12H0v-7.22C0,2.14,2.14,0,4.78,0Z"/>
    </g>
  </g>
</svg>