<svg width="35" height="22" viewBox="0 0 35 22" fill="none" xmlns="http://www.w3.org/2000/svg">
<path d="M4.68608 21H0.0724432L7.10227 0.636363H12.6506L19.6705 21H15.0568L9.95597 5.28977H9.79688L4.68608 21ZM4.39773 12.9957H15.2955V16.3565H4.39773V12.9957ZM26.397 21.2884C25.4226 21.2884 24.5542 21.1193 23.7919 20.7812C23.0296 20.4366 22.4264 19.9295 21.9822 19.2599C21.5447 18.5838 21.326 17.742 21.326 16.7344C21.326 15.8859 21.4818 15.1733 21.7933 14.5966C22.1049 14.0199 22.5291 13.5559 23.0661 13.2045C23.603 12.8532 24.2128 12.5881 24.8956 12.4091C25.585 12.2301 26.3075 12.1042 27.0632 12.0312C27.9515 11.9384 28.6674 11.8523 29.2109 11.7727C29.7545 11.6866 30.1489 11.5606 30.3942 11.3949C30.6394 11.2292 30.7621 10.9839 30.7621 10.6591V10.5994C30.7621 9.9697 30.5632 9.48248 30.1655 9.13778C29.7744 8.79309 29.2176 8.62074 28.495 8.62074C27.7327 8.62074 27.1262 8.78977 26.6754 9.12784C26.2247 9.45928 25.9264 9.87689 25.7805 10.3807L21.8629 10.0625C22.0618 9.13447 22.4529 8.33239 23.0362 7.65625C23.6196 6.97348 24.3719 6.44981 25.2933 6.08523C26.2214 5.71401 27.2952 5.52841 28.5149 5.52841C29.3634 5.52841 30.1754 5.62784 30.951 5.8267C31.7332 6.02557 32.4259 6.33381 33.0291 6.75142C33.639 7.16903 34.1196 7.70597 34.4709 8.36222C34.8222 9.01184 34.9979 9.79072 34.9979 10.6989V21H30.9808V18.8821H30.8615C30.6162 19.3594 30.2881 19.7803 29.8771 20.1449C29.4661 20.5028 28.9723 20.7846 28.3956 20.9901C27.8189 21.1889 27.1527 21.2884 26.397 21.2884ZM27.6101 18.3651C28.2332 18.3651 28.7834 18.2424 29.2607 17.9972C29.7379 17.7453 30.1125 17.4072 30.3842 16.983C30.656 16.5587 30.7919 16.0781 30.7919 15.5412V13.9205C30.6593 14.0066 30.477 14.0862 30.245 14.1591C30.0197 14.2254 29.7644 14.2884 29.4794 14.348C29.1944 14.401 28.9093 14.4508 28.6243 14.4972C28.3393 14.5369 28.0807 14.5734 27.8487 14.6065C27.3516 14.6795 26.9174 14.7955 26.5462 14.9545C26.175 15.1136 25.8866 15.3291 25.6811 15.6009C25.4756 15.866 25.3729 16.1974 25.3729 16.5952C25.3729 17.1719 25.5817 17.6127 25.9993 17.9176C26.4235 18.2159 26.9605 18.3651 27.6101 18.3651Z" fill="#323232"/>
</svg>
