<svg width="9" height="10" viewBox="0 0 9 10" fill="none" xmlns="http://www.w3.org/2000/svg">
<path d="M3.31392 9.16477C2.7571 9.16477 2.26089 9.06818 1.82528 8.875C1.38968 8.67803 1.04498 8.38826 0.791193 8.00568C0.541193 7.61932 0.416193 7.13826 0.416193 6.5625C0.416193 6.07765 0.505208 5.67045 0.683239 5.34091C0.861269 5.01136 1.10369 4.74621 1.41051 4.54545C1.71733 4.3447 2.06581 4.19318 2.45597 4.09091C2.84991 3.98864 3.26278 3.91667 3.6946 3.875C4.20218 3.82197 4.61127 3.77273 4.92188 3.72727C5.23248 3.67803 5.45786 3.60606 5.59801 3.51136C5.73816 3.41667 5.80824 3.27652 5.80824 3.09091V3.05682C5.80824 2.69697 5.6946 2.41856 5.46733 2.22159C5.24384 2.02462 4.92566 1.92614 4.51278 1.92614C4.07718 1.92614 3.73059 2.02273 3.47301 2.21591C3.21544 2.4053 3.04498 2.64394 2.96165 2.93182L0.723011 2.75C0.836648 2.2197 1.06013 1.76136 1.39347 1.375C1.7268 0.984848 2.15672 0.685605 2.68324 0.477272C3.21354 0.265151 3.82718 0.159091 4.52415 0.159091C5.009 0.159091 5.47301 0.215909 5.91619 0.329545C6.36316 0.443182 6.759 0.619318 7.10369 0.857954C7.45218 1.09659 7.7268 1.40341 7.92756 1.77841C8.12831 2.14962 8.22869 2.5947 8.22869 3.11364V9H5.93324V7.78977H5.86506C5.72491 8.0625 5.53741 8.30303 5.30256 8.51136C5.06771 8.71591 4.78551 8.87689 4.45597 8.99432C4.12642 9.10795 3.74574 9.16477 3.31392 9.16477ZM4.0071 7.49432C4.36316 7.49432 4.67756 7.42424 4.95028 7.28409C5.22301 7.14015 5.43703 6.94697 5.59233 6.70455C5.74763 6.46212 5.82528 6.1875 5.82528 5.88068V4.95455C5.74953 5.00379 5.64536 5.04924 5.51278 5.09091C5.384 5.12879 5.23816 5.16477 5.07528 5.19886C4.91241 5.22917 4.74953 5.25758 4.58665 5.28409C4.42377 5.30682 4.27604 5.32765 4.14347 5.34659C3.85938 5.38826 3.61127 5.45455 3.39915 5.54545C3.18703 5.63636 3.02225 5.75947 2.90483 5.91477C2.78741 6.06629 2.72869 6.25568 2.72869 6.48295C2.72869 6.8125 2.84801 7.06439 3.08665 7.23864C3.32907 7.40909 3.63589 7.49432 4.0071 7.49432Z" fill="black"/>
</svg>
