<svg xmlns="http://www.w3.org/2000/svg" viewBox="0 0 138.32 128.19"><defs><style>.cls-1{opacity:0.2;}.cls-2{fill:#ae89be;}.cls-3{fill:none;stroke:#ae89be;stroke-linecap:round;stroke-linejoin:round;stroke-width:2px;}</style></defs><g id="Layer_2" data-name="Layer 2"><g id="Layer_1-2" data-name="Layer 1"><g class="cls-1"><path class="cls-2" d="M13.74,128.19H57.08a7.13,7.13,0,0,0,7.12-7.13V77.73a7.13,7.13,0,0,0-7.12-7.13H36.33q.41-17,7.9-27.26Q50.14,35.26,62.09,30a7.12,7.12,0,0,0,3.54-9.57L60.5,9.57a7.13,7.13,0,0,0-9.28-3.48A79.33,79.33,0,0,0,27.31,21.6,60.08,60.08,0,0,0,11,47.53Q6.61,62,6.61,87v34.07A7.13,7.13,0,0,0,13.74,128.19Z"/></g><path class="cls-3" d="M59.7,78.94V73.23a7.13,7.13,0,0,0-7.12-7.13H31.83q.41-17,7.9-27.26,5.91-8.09,17.86-13.37a7.12,7.12,0,0,0,3.54-9.57L56,5.07a7.13,7.13,0,0,0-9.28-3.48A79.33,79.33,0,0,0,22.81,17.1,60.08,60.08,0,0,0,6.52,43Q2.11,57.49,2.11,82.49V98"/><path class="cls-3" d="M2.11,102v14.58a7.13,7.13,0,0,0,7.13,7.13H52.58a7.13,7.13,0,0,0,7.12-7.13V82.76"/><circle class="cls-2" cx="41.38" cy="4" r="2.38"/><circle class="cls-2" cx="2.38" cy="74" r="2.38"/><circle class="cls-2" cx="57.38" cy="122" r="2.38"/><circle class="cls-2" cx="36.38" cy="45" r="2.38"/><g class="cls-1"><path class="cls-2" d="M85.74,128.19h43.34a7.13,7.13,0,0,0,7.12-7.13V77.73a7.13,7.13,0,0,0-7.12-7.13H108.33q.4-17,7.9-27.26,5.91-8.09,17.86-13.37a7.12,7.12,0,0,0,3.54-9.57L132.5,9.57a7.13,7.13,0,0,0-9.28-3.48A79.33,79.33,0,0,0,99.31,21.6,60.08,60.08,0,0,0,83,47.53Q78.61,62,78.61,87v34.07A7.13,7.13,0,0,0,85.74,128.19Z"/></g><path class="cls-3" d="M131.7,78.94V73.23a7.13,7.13,0,0,0-7.12-7.13H103.83q.4-17,7.9-27.26,5.91-8.09,17.86-13.37a7.12,7.12,0,0,0,3.54-9.57L128,5.07a7.13,7.13,0,0,0-9.28-3.48A79.33,79.33,0,0,0,94.81,17.1,60.08,60.08,0,0,0,78.52,43q-4.41,14.46-4.41,39.46V98"/><path class="cls-3" d="M74.11,102v14.58a7.13,7.13,0,0,0,7.13,7.13h43.34a7.13,7.13,0,0,0,7.12-7.13V82.76"/><circle class="cls-2" cx="113.38" cy="4" r="2.38"/><circle class="cls-2" cx="74.38" cy="74" r="2.38"/><circle class="cls-2" cx="129.38" cy="122" r="2.38"/><circle class="cls-2" cx="108.38" cy="45" r="2.38"/></g></g></svg>