<svg width="17" height="18" viewBox="0 0 17 18" fill="none" xmlns="http://www.w3.org/2000/svg">
<path d="M3.19087 10.2062C2.70227 9.71751 2.70227 8.92531 3.19087 8.43666L7.81079 3.81676C7.84988 3.77766 7.89155 3.74119 7.93546 3.70758C8.48438 3.28782 9.26965 3.39251 9.68941 3.94143L16.7427 13.8868C17.1236 14.3849 17.0769 15.0882 16.6335 15.5316L14.9057 17.2594C14.4622 17.7028 13.759 17.7495 13.2609 17.3686L3.31555 10.3152C3.27168 10.2817 3.23001 10.2453 3.19087 10.2062ZM2.50922 7.35602L1.63003 5.59767C1.50963 5.35684 1.55682 5.06594 1.74722 4.87551L4.24963 2.3731C4.44002 2.1827 4.73092 2.13547 4.97175 2.2559L6.73018 3.13514L2.50922 7.35602ZM3.18165 1.67159L1.0457 3.80753L0.18321 2.94504C0.0156212 2.77749 -0.0428753 2.52964 0.0320702 2.30484L0.657686 0.428046C0.804752 -0.0131518 1.36468 -0.145345 1.69354 0.183518L3.18165 1.67159Z" fill="#FFCE00"/>
</svg>
