<svg width="17" height="18" viewBox="0 0 17 18" fill="none" xmlns="http://www.w3.org/2000/svg">
<path d="M3.19094 10.2062C2.70234 9.71751 2.70234 8.92531 3.19094 8.43666L7.81085 3.81676C7.84994 3.77766 7.89161 3.74119 7.93552 3.70758C8.48444 3.28782 9.26971 3.39251 9.68947 3.94143L16.7427 13.8868C17.1237 14.3849 17.077 15.0882 16.6336 15.5316L14.9057 17.2594C14.4623 17.7028 13.7591 17.7495 13.261 17.3686L3.31561 10.3152C3.27174 10.2817 3.23007 10.2453 3.19094 10.2062ZM2.50928 7.35602L1.63009 5.59767C1.50969 5.35684 1.55688 5.06594 1.74728 4.87551L4.24969 2.3731C4.44008 2.1827 4.73098 2.13547 4.97181 2.2559L6.73024 3.13514L2.50928 7.35602ZM3.18172 1.67159L1.04577 3.80753L0.183271 2.94504C0.0156822 2.77749 -0.0428143 2.52964 0.0321312 2.30484L0.657747 0.428046C0.804813 -0.0131518 1.36474 -0.145345 1.6936 0.183518L3.18172 1.67159Z" fill="#2CBFCE"/>
</svg>
