<svg width="52" height="34" viewBox="0 0 52 34" fill="none" xmlns="http://www.w3.org/2000/svg">
<path d="M48.6087 0H3.3913C2.49268 0.00263711 1.63162 0.361697 0.996196 0.99875C0.360772 1.6358 0.00263036 2.49907 0 3.4V30.6C0.00263036 31.5009 0.360772 32.3642 0.996196 33.0013C1.63162 33.6383 2.49268 33.9974 3.3913 34H48.6087C49.5073 33.9974 50.3684 33.6383 51.0038 33.0013C51.6392 32.3642 51.9974 31.5009 52 30.6V3.4C51.9974 2.49907 51.6392 1.6358 51.0038 0.99875C50.3684 0.361697 49.5073 0.00263711 48.6087 0ZM31.6522 5.66667C31.653 5.36636 31.7724 5.0786 31.9842 4.86625C32.196 4.6539 32.4831 4.53421 32.7826 4.53333H37.3043C37.6039 4.53421 37.8909 4.6539 38.1027 4.86625C38.3145 5.0786 38.4339 5.36636 38.4348 5.66667V9.06667C38.4339 9.36697 38.3145 9.65473 38.1027 9.86708C37.8909 10.0794 37.6039 10.1991 37.3043 10.2H32.7826C32.4831 10.1991 32.196 10.0794 31.9842 9.86708C31.7724 9.65473 31.653 9.36697 31.6522 9.06667V5.66667ZM33.913 15.8667V19.2667C33.9122 19.567 33.7928 19.8547 33.581 20.0671C33.3692 20.2794 33.0821 20.3991 32.7826 20.4H28.2609C27.9613 20.3991 27.6743 20.2794 27.4625 20.0671C27.2507 19.8547 27.1313 19.567 27.1304 19.2667V15.8667C27.1313 15.5664 27.2507 15.2786 27.4625 15.0663C27.6743 14.8539 27.9613 14.7342 28.2609 14.7333H32.7826C33.0821 14.7342 33.3692 14.8539 33.581 15.0663C33.7928 15.2786 33.9122 15.5664 33.913 15.8667ZM22.6087 5.66667C22.6096 5.36636 22.729 5.0786 22.9408 4.86625C23.1526 4.6539 23.4396 4.53421 23.7391 4.53333H28.2609C28.5604 4.53421 28.8474 4.6539 29.0592 4.86625C29.271 5.0786 29.3904 5.36636 29.3913 5.66667V9.06667C29.3904 9.36697 29.271 9.65473 29.0592 9.86708C28.8474 10.0794 28.5604 10.1991 28.2609 10.2H23.7391C23.4396 10.1991 23.1526 10.0794 22.9408 9.86708C22.729 9.65473 22.6096 9.36697 22.6087 9.06667V5.66667ZM24.8696 15.8667V19.2667C24.8687 19.567 24.7493 19.8547 24.5375 20.0671C24.3257 20.2794 24.0387 20.3991 23.7391 20.4H19.2174C18.9179 20.3991 18.6308 20.2794 18.419 20.0671C18.2072 19.8547 18.0878 19.567 18.087 19.2667V15.8667C18.0878 15.5664 18.2072 15.2786 18.419 15.0663C18.6308 14.8539 18.9179 14.7342 19.2174 14.7333H23.7391C24.0387 14.7342 24.3257 14.8539 24.5375 15.0663C24.7493 15.2786 24.8687 15.5664 24.8696 15.8667ZM13.5652 5.66667C13.5661 5.36636 13.6855 5.0786 13.8973 4.86625C14.1091 4.6539 14.3961 4.53421 14.6957 4.53333H19.2174C19.5169 4.53421 19.804 4.6539 20.0158 4.86625C20.2276 5.0786 20.3469 5.36636 20.3478 5.66667V9.06667C20.3469 9.36697 20.2276 9.65473 20.0158 9.86708C19.804 10.0794 19.5169 10.1991 19.2174 10.2H14.6957C14.3961 10.1991 14.1091 10.0794 13.8973 9.86708C13.6855 9.65473 13.5661 9.36697 13.5652 9.06667V5.66667ZM15.8261 15.8667V19.2667C15.8252 19.567 15.7058 19.8547 15.494 20.0671C15.2822 20.2794 14.9952 20.3991 14.6957 20.4H10.1739C9.87437 20.3991 9.58735 20.2794 9.37554 20.0671C9.16374 19.8547 9.04435 19.567 9.04348 19.2667V15.8667C9.04435 15.5664 9.16374 15.2786 9.37554 15.0663C9.58735 14.8539 9.87437 14.7342 10.1739 14.7333H14.6957C14.9952 14.7342 15.2822 14.8539 15.494 15.0663C15.7058 15.2786 15.8252 15.5664 15.8261 15.8667ZM4.52174 9.06667V5.66667C4.52262 5.36636 4.642 5.0786 4.8538 4.86625C5.06561 4.6539 5.35263 4.53421 5.65217 4.53333H10.1739C10.4735 4.53421 10.7605 4.6539 10.9723 4.86625C11.1841 5.0786 11.3035 5.36636 11.3043 5.66667V9.06667C11.3035 9.36697 11.1841 9.65473 10.9723 9.86708C10.7605 10.0794 10.4735 10.1991 10.1739 10.2H5.65217C5.35263 10.1991 5.06561 10.0794 4.8538 9.86708C4.642 9.65473 4.52262 9.36697 4.52174 9.06667ZM42.9565 29.4667C42.9556 29.767 42.8363 30.0547 42.6245 30.2671C42.4126 30.4794 42.1256 30.5991 41.8261 30.6H10.1739C9.87437 30.5991 9.58735 30.4794 9.37554 30.2671C9.16374 30.0547 9.04435 29.767 9.04348 29.4667V26.0667C9.04435 25.7664 9.16374 25.4786 9.37554 25.2663C9.58735 25.0539 9.87437 24.9342 10.1739 24.9333H41.8261C42.1256 24.9342 42.4126 25.0539 42.6245 25.2663C42.8363 25.4786 42.9556 25.7664 42.9565 26.0667V29.4667ZM42.9565 19.2667C42.9556 19.567 42.8363 19.8547 42.6245 20.0671C42.4126 20.2794 42.1256 20.3991 41.8261 20.4H37.3043C37.0048 20.3991 36.7178 20.2794 36.506 20.0671C36.2942 19.8547 36.1748 19.567 36.1739 19.2667V15.8667C36.1748 15.5664 36.2942 15.2786 36.506 15.0663C36.7178 14.8539 37.0048 14.7342 37.3043 14.7333H41.8261C42.1256 14.7342 42.4126 14.8539 42.6245 15.0663C42.8363 15.2786 42.9556 15.5664 42.9565 15.8667V19.2667ZM47.4783 9.06667C47.4774 9.36697 47.358 9.65473 47.1462 9.86708C46.9344 10.0794 46.6474 10.1991 46.3478 10.2H41.8261C41.5265 10.1991 41.2395 10.0794 41.0277 9.86708C40.8159 9.65473 40.6965 9.36697 40.6957 9.06667V5.66667C40.6965 5.36636 40.8159 5.0786 41.0277 4.86625C41.2395 4.6539 41.5265 4.53421 41.8261 4.53333H46.3478C46.6474 4.53421 46.9344 4.6539 47.1462 4.86625C47.358 5.0786 47.4774 5.36636 47.4783 5.66667V9.06667Z" fill="#323232"/>
</svg>
