<?xml version="1.0" encoding="UTF-8"?>
<svg id="Camada_2" data-name="Camada 2" xmlns="http://www.w3.org/2000/svg" xmlns:xlink="http://www.w3.org/1999/xlink" viewBox="0 0 1079.53 1919.17">
  <defs>
    <style>
      .cls-1 {
        fill: #ff90e8;
      }

      .cls-2 {
        fill: none;
      }

      .cls-3 {
        fill: #68fe7f;
      }

      .cls-4 {
        fill: #ff7051;
      }

      .cls-5 {
        clip-path: url(#clippath);
      }
    </style>
    <clipPath id="clippath">
      <rect class="cls-2" x="0" y="0" width="1079.53" height="1919.17"/>
    </clipPath>
  </defs>
  <g id="Camada_1-2" data-name="Camada 1">
    <g class="cls-5">
      <path class="cls-4" d="M1316.64,1620.43c0-181.5-41.88-400.23-41.88-660.85s41.88-479.35,41.88-660.84c0-511.92-474.69-691.1-942.4-691.1S-568.16-213.18-568.16,298.74c0,183.83,39.56,400.23,39.56,660.84s-39.56,477.02-39.56,660.85c0,511.92,474.69,691.09,942.4,691.09s942.4-179.17,942.4-691.09M-458.8,961.91c0-323.44,265.27-570.1,523.56-570.1s435.13,162.88,553.81,162.88,181.5-127.98,332.75-127.98c190.81,0,253.63,153.58,253.63,535.19s-62.83,535.19-253.63,535.19c-151.25,0-218.73-127.98-332.75-127.98s-300.17,162.88-553.81,162.88-523.56-246.65-523.56-570.1"/>
      <path class="cls-1" d="M1634.93,1843.63c0-242.8-56.03-535.41-56.03-884.04s56.03-641.24,56.03-884.04c0-684.82-635.02-924.51-1260.69-924.51S-886.46-609.28-886.46,75.54c0,245.91,52.92,535.41,52.92,884.04s-52.92,638.13-52.92,884.04c0,684.82,635.02,924.51,1260.7,924.51s1260.69-239.69,1260.69-924.51M-740.15,962.7c0-432.68,354.86-762.64,700.39-762.64s582.1,217.9,740.85,217.9,242.8-171.21,445.13-171.21c255.25,0,339.3,205.45,339.3,715.95s-84.05,715.95-339.3,715.95c-202.33,0-292.61-171.2-445.13-171.2s-401.55,217.9-740.85,217.9-700.39-329.96-700.39-762.64"/>
      <path class="cls-3" d="M2017.96,2130.15c0-324.81-74.96-716.24-74.96-1182.63s74.96-857.82,74.96-1182.62c0-916.12-849.49-1236.76-1686.49-1236.76S-1355.02-1151.22-1355.02-235.1c0,328.97,70.79,716.24,70.79,1182.62s-70.79,853.66-70.79,1182.63c0,916.12,849.49,1236.76,1686.49,1236.76s1686.49-320.64,1686.49-1236.76M-1159.3,951.69c0-578.82,474.72-1020.22,936.94-1020.22S556.34,222.96,768.71,222.96,1093.52-6.07,1364.19-6.07c341.46,0,453.9,274.84,453.9,957.76s-112.43,957.76-453.9,957.76c-270.67,0-391.43-229.03-595.48-229.03s-537.18,291.49-991.07,291.49-936.94-441.4-936.94-1020.22"/>
    </g>
  </g>
</svg>