<?xml version="1.0" encoding="UTF-8"?>
<svg id="Camada_2" xmlns="http://www.w3.org/2000/svg" viewBox="0 0 192.37 460.84">
  <defs>
    <style>
      .cls-1 {
        fill: #fff;
      }

      .cls-2 {
        opacity: .5;
      }
    </style>
  </defs>
  <g id="Layer_1">
    <g class="cls-2">
      <path class="cls-1" d="M167.96,120.38l24.41,17.5v65.41l-24.41-17.5v-65.41ZM191.95,138.6l-23.58-16.9v63.36l23.58,16.9v-63.36Z"/>
      <path class="cls-1" d="M143.97,103.18l24.41,17.5v65.41l-24.41-17.5v-65.41ZM167.96,121.4l-23.58-16.9v63.36l23.58,16.9v-63.36Z"/>
      <path class="cls-1" d="M119.97,85.98l24.41,17.5v65.41l-24.41-17.5v-65.41ZM143.97,104.2l-23.58-16.9v63.36l23.58,16.9v-63.36Z"/>
      <path class="cls-1" d="M95.98,68.79l24.41,17.5v65.41l-24.41-17.5v-65.41ZM119.97,87.01l-23.58-16.9v63.36l23.58,16.9v-63.36Z"/>
      <path class="cls-1" d="M71.98,51.59l24.41,17.5v65.41l-24.41-17.5V51.59ZM95.98,69.81l-23.58-16.9v63.36l23.58,16.9v-63.36Z"/>
      <path class="cls-1" d="M47.99,34.39l24.41,17.5v65.41l-24.41-17.5V34.39ZM71.98,52.61l-23.58-16.9v63.36l23.58,16.9v-63.36Z"/>
      <path class="cls-1" d="M23.99,17.2l24.41,17.5v65.41l-24.41-17.5V17.2ZM47.99,35.42l-23.58-16.9v63.36l23.58,16.9v-63.36Z"/>
      <path class="cls-1" d="M0,0l24.41,17.5v65.41L0,65.41V0ZM23.99,18.22L.42,1.32v63.36l23.58,16.9V18.22Z"/>
      <path class="cls-1" d="M167.96,184.76l24.41,17.5v65.41l-24.41-17.5v-65.41ZM191.95,202.98l-23.58-16.9v63.36l23.58,16.9v-63.36Z"/>
      <path class="cls-1" d="M143.97,167.57l24.41,17.5v65.41l-24.41-17.5v-65.41ZM167.96,185.79l-23.58-16.9v63.36l23.58,16.9v-63.36Z"/>
      <path class="cls-1" d="M119.97,150.37l24.41,17.5v65.41l-24.41-17.5v-65.41ZM143.97,168.59l-23.58-16.9v63.36l23.58,16.9v-63.36Z"/>
      <path class="cls-1" d="M95.98,133.17l24.41,17.5v65.41l-24.41-17.5v-65.41ZM119.97,151.39l-23.58-16.9v63.36l23.58,16.9v-63.36Z"/>
      <path class="cls-1" d="M71.98,115.98l24.41,17.5v65.41l-24.41-17.5v-65.41ZM95.98,134.2l-23.58-16.9v63.36l23.58,16.9v-63.36Z"/>
      <path class="cls-1" d="M47.99,98.78l24.41,17.5v65.41l-24.41-17.5v-65.41ZM71.98,117l-23.58-16.9v63.36l23.58,16.9v-63.36Z"/>
      <path class="cls-1" d="M23.99,81.58l24.41,17.5v65.41l-24.41-17.5v-65.41ZM47.99,99.8l-23.58-16.9v63.36l23.58,16.9v-63.36Z"/>
      <path class="cls-1" d="M0,64.39l24.41,17.5v65.41L0,129.8v-65.41ZM23.99,82.61L.42,65.71v63.36l23.58,16.9v-63.36Z"/>
      <path class="cls-1" d="M167.96,249.15l24.41,17.5v65.41l-24.41-17.5v-65.41ZM191.95,267.37l-23.58-16.9v63.36l23.58,16.9v-63.36Z"/>
      <path class="cls-1" d="M143.97,231.96l24.41,17.5v65.41l-24.41-17.5v-65.41ZM167.96,250.18l-23.58-16.9v63.36l23.58,16.9v-63.36Z"/>
      <path class="cls-1" d="M119.97,214.76l24.41,17.5v65.41l-24.41-17.5v-65.41ZM143.97,232.98l-23.58-16.9v63.36l23.58,16.9v-63.36Z"/>
      <path class="cls-1" d="M95.98,197.56l24.41,17.5v65.41l-24.41-17.5v-65.41ZM119.97,215.78l-23.58-16.9v63.36l23.58,16.9v-63.36Z"/>
      <path class="cls-1" d="M71.98,180.37l24.41,17.5v65.41l-24.41-17.5v-65.41ZM95.98,198.59l-23.58-16.9v63.36l23.58,16.9v-63.36Z"/>
      <path class="cls-1" d="M47.99,163.17l24.41,17.5v65.41l-24.41-17.5v-65.41ZM71.98,181.39l-23.58-16.9v63.36l23.58,16.9v-63.36Z"/>
      <path class="cls-1" d="M23.99,145.97l24.41,17.5v65.41l-24.41-17.5v-65.41ZM47.99,164.19l-23.58-16.9v63.36l23.58,16.9v-63.36Z"/>
      <path class="cls-1" d="M0,128.78l24.41,17.5v65.41L0,194.19v-65.41ZM23.99,147L.42,130.1v63.36l23.58,16.9v-63.36Z"/>
      <path class="cls-1" d="M167.96,313.54l24.41,17.5v65.41l-24.41-17.5v-65.41ZM191.95,331.76l-23.58-16.9v63.36l23.58,16.9v-63.36Z"/>
      <path class="cls-1" d="M143.97,296.34l24.41,17.5v65.41l-24.41-17.5v-65.41ZM167.96,314.56l-23.58-16.9v63.36l23.58,16.9v-63.36Z"/>
      <path class="cls-1" d="M119.97,279.15l24.41,17.5v65.41l-24.41-17.5v-65.41ZM143.97,297.37l-23.58-16.9v63.36l23.58,16.9v-63.36Z"/>
      <path class="cls-1" d="M95.98,261.95l24.41,17.5v65.41l-24.41-17.5v-65.41ZM119.97,280.17l-23.58-16.9v63.36l23.58,16.9v-63.36Z"/>
      <path class="cls-1" d="M71.98,244.75l24.41,17.5v65.41l-24.41-17.5v-65.41ZM95.98,262.97l-23.58-16.9v63.36l23.58,16.9v-63.36Z"/>
      <path class="cls-1" d="M47.99,227.56l24.41,17.5v65.41l-24.41-17.5v-65.41ZM71.98,245.78l-23.58-16.9v63.36l23.58,16.9v-63.36Z"/>
      <path class="cls-1" d="M23.99,210.36l24.41,17.5v65.41l-24.41-17.5v-65.41ZM47.99,228.58l-23.58-16.9v63.36l23.58,16.9v-63.36Z"/>
      <path class="cls-1" d="M0,193.16l24.41,17.5v65.41L0,258.58v-65.41ZM23.99,211.38L.42,194.49v63.36l23.58,16.9v-63.36Z"/>
      <path class="cls-1" d="M167.96,377.93l24.41,17.5v65.41l-24.41-17.5v-65.41ZM191.95,396.15l-23.58-16.9v63.36l23.58,16.9v-63.36Z"/>
      <path class="cls-1" d="M143.97,360.73l24.41,17.5v65.41l-24.41-17.5v-65.41ZM167.96,378.95l-23.58-16.9v63.36l23.58,16.9v-63.36Z"/>
      <path class="cls-1" d="M119.97,343.54l24.41,17.5v65.41l-24.41-17.5v-65.41ZM143.97,361.76l-23.58-16.9v63.36l23.58,16.9v-63.36Z"/>
      <path class="cls-1" d="M95.98,326.34l24.41,17.5v65.41l-24.41-17.5v-65.41ZM119.97,344.56l-23.58-16.9v63.36l23.58,16.9v-63.36Z"/>
      <path class="cls-1" d="M71.98,309.14l24.41,17.5v65.41l-24.41-17.5v-65.41ZM95.98,327.36l-23.58-16.9v63.36l23.58,16.9v-63.36Z"/>
      <path class="cls-1" d="M47.99,291.95l24.41,17.5v65.41l-24.41-17.5v-65.41ZM71.98,310.17l-23.58-16.9v63.36l23.58,16.9v-63.36Z"/>
      <path class="cls-1" d="M23.99,274.75l24.41,17.5v65.41l-24.41-17.5v-65.41ZM47.99,292.97l-23.58-16.9v63.36l23.58,16.9v-63.36Z"/>
      <path class="cls-1" d="M0,257.55l24.41,17.5v65.41L0,322.96v-65.41ZM23.99,275.77L.42,258.88v63.36l23.58,16.9v-63.36Z"/>
    </g>
  </g>
</svg>