<?xml version="1.0" encoding="UTF-8"?>
<svg id="Camada_2" xmlns="http://www.w3.org/2000/svg" viewBox="0 0 324 159">
  <defs>
    <style>
      .cls-1 {
        fill: #8c52ff;
      }

      .cls-2 {
        fill: none;
      }
    </style>
  </defs>
  <g id="Layer_1">
    <g>
      <g>
        <g>
          <path class="cls-1" d="M23.23,75.52l5.93-13.41c5.15,3.04,12.01,4.99,18.02,4.99,5.23,0,7.1-1.09,7.1-2.96,0-6.86-30.18-1.33-30.18-21.68,0-10.14,8.5-18.4,25.42-18.4,7.33,0,14.9,1.56,20.59,4.76l-5.54,13.34c-5.38-2.73-10.45-4.06-15.21-4.06-5.38,0-7.1,1.56-7.1,3.43,0,6.55,30.18,1.09,30.18,21.21,0,9.98-8.5,18.41-25.42,18.41-9.12,0-18.33-2.26-23.79-5.62Z"/>
          <path class="cls-1" d="M77.42,55.32v-30.03h18.4v29.48c0,8.34,3.2,11.46,8.34,11.46s8.34-3.12,8.34-11.46v-29.48h18.09v30.03c0,16.38-9.83,25.81-26.59,25.81s-26.59-9.44-26.59-25.81Z"/>
          <path class="cls-1" d="M190.19,45.88c0,12.63-9.67,20.59-24.88,20.59h-7.88v13.41h-18.41V25.29h26.28c15.21,0,24.88,7.96,24.88,20.59ZM171.63,45.88c0-3.98-2.42-6.39-7.49-6.39h-6.71v12.79h6.71c5.07,0,7.49-2.42,7.49-6.4Z"/>
          <path class="cls-1" d="M241.58,66v13.88h-45.39V25.29h44.38v13.88h-26.28v6.4h23.08v13.26h-23.08v7.17h27.3Z"/>
          <path class="cls-1" d="M272.08,66.16h-4.99v13.73h-18.41V25.29h26.28c15.21,0,24.88,7.96,24.88,20.59,0,7.88-3.74,13.8-10.29,17.16l11.46,16.85h-19.65l-9.28-13.73ZM273.79,39.49h-6.71v12.79h6.71c5.07,0,7.49-2.42,7.49-6.4s-2.42-6.39-7.49-6.39Z"/>
        </g>
        <g>
          <path class="cls-1" d="M19.46,112.58c0-14.96,11.48-25.47,27.14-25.47,9.53,0,17.05,3.48,21.85,9.74l-10.37,9.26c-2.85-3.62-6.26-5.71-10.65-5.71-6.82,0-11.41,4.73-11.41,12.18s4.59,12.18,11.41,12.18c4.38,0,7.79-2.09,10.65-5.71l10.37,9.26c-4.8,6.26-12.32,9.74-21.85,9.74-15.66,0-27.14-10.51-27.14-25.47Z"/>
          <path class="cls-1" d="M70.19,112.58c0-14.75,11.62-25.47,27.49-25.47s27.49,10.72,27.49,25.47-11.62,25.47-27.49,25.47-27.49-10.72-27.49-25.47ZM108.61,112.58c0-7.59-4.87-12.18-10.93-12.18s-10.93,4.59-10.93,12.18,4.87,12.18,10.93,12.18,10.93-4.59,10.93-12.18Z"/>
          <path class="cls-1" d="M174.65,136.94l-.14-22.2-10.58,17.82h-7.24l-10.58-17.05v21.44h-14.96v-48.72h13.5l15.87,25.96,15.45-25.96h13.5l.14,48.72h-14.96Z"/>
          <path class="cls-1" d="M245.57,123.51c0,8.49-7.17,13.43-20.6,13.43h-27.42v-48.72h26.03c13.43,0,19.7,5.36,19.7,12.74,0,4.52-2.3,8.28-6.75,10.51,5.71,2.09,9.05,6.26,9.05,12.04ZM213.7,99.71v7.24h7.66c3.69,0,5.36-1.25,5.36-3.62s-1.67-3.62-5.36-3.62h-7.66ZM229.01,121.63c0-2.51-1.81-3.83-5.43-3.83h-9.88v7.66h9.88c3.62,0,5.43-1.32,5.43-3.83Z"/>
          <path class="cls-1" d="M249.4,112.58c0-14.75,11.62-25.47,27.49-25.47s27.49,10.72,27.49,25.47-11.62,25.47-27.49,25.47-27.49-10.72-27.49-25.47ZM287.82,112.58c0-7.59-4.87-12.18-10.93-12.18s-10.93,4.59-10.93,12.18,4.87,12.18,10.93,12.18,10.93-4.59,10.93-12.18Z"/>
        </g>
      </g>
      <rect class="cls-2" width="324" height="159"/>
    </g>
  </g>
</svg>