<svg xmlns="http://www.w3.org/2000/svg" viewBox="0 0 350.88 797.76"><defs><style>.cls-1{opacity:0.65;}.cls-2{fill:none;stroke:#fff;stroke-miterlimit:10;}</style></defs><g id="Layer_2" data-name="Layer 2"><g id="Layer_1-2" data-name="Layer 1"><g class="cls-1"><path class="cls-2" d="M.26,369.89a275.34,275.34,0,0,0,31.91,1.77c106.5,0,149.2-53.25,153.42-114.41,1.58-19,1.58-29.52,1.58-46.39V.5H104.93V223c0,10,0,16.88-1.06,24.26-2.64,39.54-26.36,63.26-71.7,63.26-12.24,0-22.89-1.74-32-5"/><polyline class="cls-2" points="0.7 502.88 72.46 303.26 173.15 303.26 257.69 540.4 257.69 540.4 350.17 797.26 258.32 797.26 121.76 373.85 83.36 496.33 142.23 496.33 162.46 560.17 63.11 560.17 29.9 661.38 0.17 661.38"/></g></g></g></svg>