<svg xmlns="http://www.w3.org/2000/svg" viewBox="0 0 1478.96 1080.99"><defs><style>.cls-1,.cls-3{fill:none;stroke-miterlimit:10;}.cls-1{stroke:#fff;stroke-width:5.1px;}.cls-2{opacity:0.6;}.cls-3{stroke:#b1d249;stroke-width:0.99px;}</style></defs><g id="Camada_2" data-name="Camada 2"><g id="Camada_1-2" data-name="Camada 1"><path class="cls-1" d="M929.51,926.93,6.16,4.5H233.57l809.64,808.84A119.78,119.78,0,0,0,1212.69,644L572.52,4.5H799.93l526.46,525.94c109.42,109.31,109.43,287.17,0,396.48S1038.93,1036.24,929.51,926.93Z"/><g class="cls-2"><path class="cls-3" d="M652,1039.44a71.1,71.1,0,0,0,100.36,0L992.86,798A70.94,70.94,0,0,0,892.49,697.69L652,939.17A70.94,70.94,0,0,0,652,1039.44Zm312.08-313a30.3,30.3,0,0,1,0,42.82L723.64,1010.71a30.29,30.29,0,0,1-42.86-42.81L921.25,726.42A30.37,30.37,0,0,1,964.11,726.42Z"/><path class="cls-3" d="M1006.75.5,1203,196.56a30.29,30.29,0,1,0,42.86-42.81L1092.47.5H1150L1274.63,125a70.94,70.94,0,1,1-100.37,100.27L949.25.5Z"/><path class="cls-3" d="M343,1080.5H285.49L509.22,857a30.29,30.29,0,0,0-42.86-42.81L199.78,1080.5H142.27l295.34-295A70.93,70.93,0,0,1,538,885.72Z"/><path class="cls-3" d="M1302.75,253.38a70.94,70.94,0,1,0,100.37,0A70.94,70.94,0,0,0,1302.75,253.38Zm71.61,71.54a30.29,30.29,0,1,1,0-42.81A30.35,30.35,0,0,1,1374.36,324.92Z"/><path class="cls-3" d="M381.09,382.31a70.92,70.92,0,0,0,0-100.26l-119-117.85A70.94,70.94,0,0,0,161.68,264.47L280.73,382.31A71.1,71.1,0,0,0,381.09,382.31ZM190.44,192.93a30.34,30.34,0,0,1,42.85,0l119,117.84a30.29,30.29,0,0,1-42.86,42.82l-119-117.85A30.27,30.27,0,0,1,190.44,192.93Z"/><path class="cls-3" d="M566.1,757.36a70.93,70.93,0,1,0,0-100.27A71.1,71.1,0,0,0,566.1,757.36Zm71.61-71.54a30.29,30.29,0,1,1-42.86,0A30.29,30.29,0,0,1,637.71,685.82Z"/><polygon class="cls-3" points="1478.46 875.39 1273.15 1080.5 1215.64 1080.5 1478.46 817.94 1478.46 875.39"/><polygon class="cls-3" points="1478.46 1018.47 1416.37 1080.5 1358.86 1080.5 1478.46 961.02 1478.46 1018.47"/></g></g></g></svg>