<svg width="18" height="13" viewBox="0 0 18 13" fill="none" xmlns="http://www.w3.org/2000/svg">
<path d="M3.56909 12.129H0.932723L4.94977 0.492603H8.12022L12.1316 12.129H9.49522L6.58045 3.15169H6.48954L3.56909 12.129ZM3.40431 7.5551H9.63159V9.47556H3.40431V7.5551ZM15.2736 12.2568C14.785 12.2549 14.3645 12.1346 14.0123 11.896C13.6619 11.6574 13.392 11.3117 13.2026 10.8591C13.0151 10.4064 12.9223 9.86192 12.9242 9.22556C12.9242 8.59109 13.018 8.05037 13.2055 7.6034C13.3948 7.15643 13.6647 6.81647 14.0151 6.58351C14.3674 6.34866 14.7869 6.23124 15.2736 6.23124C15.7604 6.23124 16.1789 6.34866 16.5293 6.58351C16.8816 6.81836 17.1524 7.15927 17.3418 7.60624C17.5312 8.05132 17.625 8.59109 17.6231 9.22556C17.6231 9.86382 17.5284 10.4093 17.339 10.8619C17.1515 11.3146 16.8825 11.6602 16.5322 11.8989C16.1818 12.1375 15.7623 12.2568 15.2736 12.2568ZM15.2736 11.2369C15.607 11.2369 15.8731 11.0693 16.0719 10.7341C16.2708 10.3989 16.3693 9.89601 16.3674 9.22556C16.3674 8.78427 16.3219 8.41685 16.231 8.12329C16.142 7.82972 16.0151 7.60908 15.8503 7.46135C15.6875 7.31363 15.4952 7.23976 15.2736 7.23976C14.9422 7.23976 14.677 7.40548 14.4782 7.73692C14.2793 8.06836 14.1789 8.56457 14.177 9.22556C14.177 9.67253 14.2215 10.0456 14.3106 10.3449C14.4015 10.6422 14.5293 10.8657 14.6941 11.0153C14.8589 11.1631 15.052 11.2369 15.2736 11.2369Z" fill="#323232"/>
</svg>
