<svg width="58" height="60" viewBox="0 0 58 60" fill="none" xmlns="http://www.w3.org/2000/svg">
<path d="M56.9569 0.89209H25.6006C25.5048 0.902955 25.4103 0.923935 25.3189 0.954677H25.2251C25.1178 1.00483 25.0192 1.07173 24.933 1.15287L12.4155 13.6704C12.3344 13.7566 12.2675 13.8552 12.2173 13.9624V14.0563C12.1866 14.1477 12.1656 14.2421 12.1547 14.338C12.1547 14.338 12.1547 14.338 12.1547 14.4005V41.6678L1.22278 52.5476C0.439846 53.3305 -1.84465e-08 54.3924 0 55.4996C1.84465e-08 56.6068 0.439845 57.6687 1.22278 58.4517C2.0057 59.2346 3.06758 59.6744 4.17481 59.6744C5.28204 59.6744 6.34392 59.2346 7.12685 58.4517L12.1026 53.476V55.1345C12.1026 55.4112 12.2125 55.6765 12.4081 55.8721C12.6037 56.0677 12.869 56.1776 13.1457 56.1776H56.9569C57.2335 56.1776 57.4989 56.0677 57.6945 55.8721C57.8901 55.6765 58 55.4112 58 55.1345V1.93521C58 1.65856 57.8901 1.39324 57.6945 1.19761C57.4989 1.00199 57.2335 0.89209 56.9569 0.89209ZM24.62 4.44914V13.4096H15.6596L24.62 4.44914ZM5.64562 56.9809C5.24667 57.3579 4.71854 57.568 4.1696 57.568C3.62066 57.568 3.09253 57.3579 2.69358 56.9809C2.49961 56.7871 2.34573 56.557 2.24074 56.3037C2.13575 56.0505 2.08171 55.779 2.08171 55.5048C2.08171 55.2307 2.13575 54.9592 2.24074 54.7059C2.34573 54.4527 2.49961 54.2226 2.69358 54.0288L13.8863 42.8465L18.3613 38.3611C18.9028 39.2166 19.5359 40.0106 20.2494 40.729C20.5229 41.006 20.812 41.2672 21.1151 41.5113L12.4051 50.211L5.64562 56.9809ZM21.7202 39.2477C20.116 37.6428 19.0237 35.5983 18.5814 33.3726C18.1391 31.1469 18.3666 28.8401 19.2352 26.7438C20.1039 24.6474 21.5746 22.8557 23.4614 21.5951C25.3482 20.3345 27.5665 19.6617 29.8357 19.6617C32.1048 19.6617 34.3231 20.3345 36.2099 21.5951C38.0967 22.8557 39.5674 24.6474 40.4361 26.7438C41.3047 28.8401 41.5322 31.1469 41.0899 33.3726C40.6476 35.5983 39.5553 37.6428 37.9512 39.2477C36.8863 40.3145 35.6217 41.161 34.2295 41.7389C32.8374 42.3167 31.3451 42.6147 29.8378 42.6156C28.3305 42.6166 26.8378 42.3206 25.445 41.7445C24.0521 41.1684 22.7864 40.3236 21.7202 39.2582V39.2477ZM55.9138 54.0914H14.1888V51.3897L22.8363 42.7422C25.6076 44.3981 28.8788 45.011 32.0617 44.4706C35.2445 43.9302 38.1301 42.2721 40.1996 39.7943C42.2692 37.3165 43.3868 34.1817 43.3516 30.9535C43.3164 27.7253 42.1307 24.6156 40.0077 22.1835C37.8846 19.7515 34.9635 18.1566 31.7697 17.6857C28.5758 17.2149 25.3188 17.8989 22.5842 19.6148C19.8496 21.3307 17.8169 23.9659 16.8516 27.0466C15.8863 30.1273 16.0517 33.4513 17.3182 36.4209L14.1888 39.5503V15.4958H25.6632C25.9398 15.4958 26.2051 15.3859 26.4008 15.1903C26.5964 14.9947 26.7063 14.7294 26.7063 14.4527V2.97834H55.9138V54.0914Z" fill="#323232"/>
</svg>
