<svg xmlns="http://www.w3.org/2000/svg" viewBox="0 0 1723.09 314.46"><defs><style>.cls-1{opacity:0.2;}.cls-2{fill:#4e2575;}</style></defs><g id="Layer_2" data-name="Layer 2"><g id="Layer_1-2" data-name="Layer 1"><g class="cls-1"><path class="cls-2" d="M1670.13,306.11h0Z"/><path class="cls-2" d="M1544.83,306.11a.27.27,0,1,0-.26.26A.26.26,0,0,0,1544.83,306.11Z"/><circle class="cls-2" cx="1519.46" cy="306.11" r="0.02"/><path class="cls-2" d="M1494.4,306.11a0,0,0,0,0-.05-.05.05.05,0,1,0,0,.1A0,0,0,0,0,1494.4,306.11Z"/><path class="cls-2" d="M1469.34,306.11a.1.1,0,0,0-.1-.1.1.1,0,1,0,0,.2A.1.1,0,0,0,1469.34,306.11Z"/><path class="cls-2" d="M1444.27,306.11a.15.15,0,0,0-.15-.15.15.15,0,1,0,0,.3A.15.15,0,0,0,1444.27,306.11Z"/><path class="cls-2" d="M1419.21,306.11a.2.2,0,1,0-.2.2A.2.2,0,0,0,1419.21,306.11Z"/><path class="cls-2" d="M1394.15,306.11a.25.25,0,1,0-.25.25A.25.25,0,0,0,1394.15,306.11Z"/><path class="cls-2" d="M1369.09,306.11a.31.31,0,0,0-.3-.3.3.3,0,0,0-.29.3.29.29,0,0,0,.29.3A.3.3,0,0,0,1369.09,306.11Z"/><path class="cls-2" d="M1344,306.11a.34.34,0,0,0-.34-.34.35.35,0,0,0-.35.34.35.35,0,0,0,.35.35A.35.35,0,0,0,1344,306.11Z"/><path class="cls-2" d="M1319,306.11a.39.39,0,1,0-.39.39A.38.38,0,0,0,1319,306.11Z"/><path class="cls-2" d="M1293.92,306.11a.47.47,0,0,0-.46-.46.46.46,0,1,0,0,.92A.47.47,0,0,0,1293.92,306.11Z"/><circle class="cls-2" cx="1268.35" cy="306.11" r="0.52"/><path class="cls-2" d="M1243.82,306.11a.59.59,0,1,0-.58.59A.58.58,0,0,0,1243.82,306.11Z"/><path class="cls-2" d="M1218.79,306.11a.67.67,0,0,0-.67-.67.67.67,0,0,0,0,1.34A.67.67,0,0,0,1218.79,306.11Z"/><path class="cls-2" d="M1193.77,306.11a.76.76,0,1,0-.76.75A.75.75,0,0,0,1193.77,306.11Z"/><circle class="cls-2" cx="1167.9" cy="306.11" r="0.84"/><circle class="cls-2" cx="1142.79" cy="306.11" r="0.94"/><path class="cls-2" d="M1118.73,306.11a1,1,0,1,0-1,1.05A1,1,0,0,0,1118.73,306.11Z"/><path class="cls-2" d="M1093.73,306.11a1.16,1.16,0,1,0-1.16,1.16A1.16,1.16,0,0,0,1093.73,306.11Z"/><path class="cls-2" d="M1068.74,306.11a1.29,1.29,0,0,0-2.57,0,1.29,1.29,0,1,0,2.57,0Z"/><path class="cls-2" d="M1043.77,306.11a1.43,1.43,0,1,0-1.42,1.43A1.42,1.42,0,0,0,1043.77,306.11Z"/><path class="cls-2" d="M1018.8,306.11a1.57,1.57,0,1,0-1.56,1.57A1.56,1.56,0,0,0,1018.8,306.11Z"/><path class="cls-2" d="M993.83,306.11a1.71,1.71,0,1,0-1.71,1.71A1.71,1.71,0,0,0,993.83,306.11Z"/><path class="cls-2" d="M968.89,306.11A1.88,1.88,0,1,0,967,308,1.88,1.88,0,0,0,968.89,306.11Z"/><path class="cls-2" d="M943.94,306.11a2,2,0,1,0-2,2A2,2,0,0,0,943.94,306.11Z"/><path class="cls-2" d="M919,306.11a2.21,2.21,0,1,0-2.21,2.21A2.21,2.21,0,0,0,919,306.11Z"/><path class="cls-2" d="M891.68,303.72a2.39,2.39,0,1,0,2.39,2.39A2.39,2.39,0,0,0,891.68,303.72Z"/><path class="cls-2" d="M866.57,308.69a2.58,2.58,0,1,0-2.58-2.58A2.58,2.58,0,0,0,866.57,308.69Z"/><path class="cls-2" d="M841.46,308.88a2.77,2.77,0,1,0-2.77-2.77A2.77,2.77,0,0,0,841.46,308.88Z"/><path class="cls-2" d="M813.39,306.11a3,3,0,1,0,3-3A3,3,0,0,0,813.39,306.11Z"/><path class="cls-2" d="M788.06,306.11a3.18,3.18,0,1,0,3.18-3.18A3.18,3.18,0,0,0,788.06,306.11Z"/><path class="cls-2" d="M762.68,306.11a3.45,3.45,0,1,0,3.44-3.45A3.45,3.45,0,0,0,762.68,306.11Z"/><path class="cls-2" d="M744.8,306.11a3.79,3.79,0,1,0-3.79,3.78A3.79,3.79,0,0,0,744.8,306.11Z"/><path class="cls-2" d="M720.09,306.11a4.19,4.19,0,1,0-4.19,4.19A4.19,4.19,0,0,0,720.09,306.11Z"/><path class="cls-2" d="M695.44,306.11a4.65,4.65,0,1,0-4.65,4.65A4.64,4.64,0,0,0,695.44,306.11Z"/><path class="cls-2" d="M670.83,306.11a5.15,5.15,0,1,0-5.15,5.15A5.16,5.16,0,0,0,670.83,306.11Z"/><path class="cls-2" d="M646.23,306.11a5.67,5.67,0,1,0-5.66,5.67A5.65,5.65,0,0,0,646.23,306.11Z"/><circle class="cls-2" cx="615.46" cy="306.11" r="6.18" transform="translate(97.12 757.58) rotate(-67.5)"/><path class="cls-2" d="M597,306.11a6.69,6.69,0,1,0-6.68,6.68A6.68,6.68,0,0,0,597,306.11Z"/><path class="cls-2" d="M572.37,306.11a7.14,7.14,0,1,0-7.13,7.14A7.13,7.13,0,0,0,572.37,306.11Z"/><path class="cls-2" d="M547.65,306.11a7.53,7.53,0,1,0-7.52,7.53A7.53,7.53,0,0,0,547.65,306.11Z"/><circle class="cls-2" cx="515.01" cy="306.11" r="7.85"/><circle class="cls-2" cx="489.9" cy="306.11" r="8.12"/><path class="cls-2" d="M473.1,306.11a8.31,8.31,0,1,0-8.31,8.31A8.31,8.31,0,0,0,473.1,306.11Z"/><path class="cls-2" d="M439.68,314.46a8.35,8.35,0,1,0-8.35-8.35A8.35,8.35,0,0,0,439.68,314.46Z"/><path class="cls-2" d="M414.57,314.29a8.18,8.18,0,1,0-8.18-8.18A8.18,8.18,0,0,0,414.57,314.29Z"/><path class="cls-2" d="M397.27,306.11a7.82,7.82,0,1,0-7.81,7.82A7.81,7.81,0,0,0,397.27,306.11Z"/><path class="cls-2" d="M364.35,313.46a7.35,7.35,0,1,0-7.36-7.35A7.35,7.35,0,0,0,364.35,313.46Z"/><path class="cls-2" d="M339.24,299.23a6.88,6.88,0,1,0,6.88,6.88A6.88,6.88,0,0,0,339.24,299.23Z"/><path class="cls-2" d="M314.13,299.71a6.4,6.4,0,1,0,6.4,6.4A6.41,6.41,0,0,0,314.13,299.71Z"/><path class="cls-2" d="M289,300.23a5.88,5.88,0,1,0,5.88,5.88A5.89,5.89,0,0,0,289,300.23Z"/><circle class="cls-2" cx="263.9" cy="306.11" r="5.29"/><path class="cls-2" d="M238.79,301.47a4.64,4.64,0,1,0,4.64,4.64A4.64,4.64,0,0,0,238.79,301.47Z"/><circle class="cls-2" cx="213.68" cy="306.11" r="3.96"/><path class="cls-2" d="M188.57,302.83a3.29,3.29,0,1,0,3.28,3.28A3.28,3.28,0,0,0,188.57,302.83Z"/><path class="cls-2" d="M163.46,303.51a2.61,2.61,0,1,0,2.6,2.6A2.59,2.59,0,0,0,163.46,303.51Z"/><path class="cls-2" d="M140.12,306.11a1.77,1.77,0,1,0-1.77,1.77A1.77,1.77,0,0,0,140.12,306.11Z"/><path class="cls-2" d="M113.24,306.82a.7.7,0,0,0,.7-.71.7.7,0,0,0-.7-.7.7.7,0,0,0-.71.7A.71.71,0,0,0,113.24,306.82Z"/><path class="cls-2" d="M88.18,306.11a.06.06,0,0,0-.05-.06.06.06,0,1,0,0,.12A.06.06,0,0,0,88.18,306.11Z"/><path class="cls-2" d="M1710.3,277.8a1.52,1.52,0,1,0,1.51,1.52A1.51,1.51,0,0,0,1710.3,277.8Z"/><path class="cls-2" d="M1686.58,279.32a1.39,1.39,0,1,0-1.39,1.38A1.39,1.39,0,0,0,1686.58,279.32Z"/><path class="cls-2" d="M1661.49,279.31a1.42,1.42,0,1,0-1.41,1.42A1.41,1.41,0,0,0,1661.49,279.31Z"/><path class="cls-2" d="M1636.51,279.32a1.55,1.55,0,1,0-1.55,1.54A1.54,1.54,0,0,0,1636.51,279.32Z"/><path class="cls-2" d="M1611.55,279.32a1.7,1.7,0,1,0-1.7,1.69A1.7,1.7,0,0,0,1611.55,279.32Z"/><circle class="cls-2" cx="1584.74" cy="279.31" r="1.85"/><path class="cls-2" d="M1561.63,279.31a2,2,0,1,0-2,2A2,2,0,0,0,1561.63,279.31Z"/><path class="cls-2" d="M1536.67,279.31a2.15,2.15,0,1,0-2.15,2.16A2.15,2.15,0,0,0,1536.67,279.31Z"/><path class="cls-2" d="M1509.41,281.62a2.31,2.31,0,1,0-2.31-2.3A2.31,2.31,0,0,0,1509.41,281.62Z"/><path class="cls-2" d="M1484.3,276.85a2.47,2.47,0,1,0,2.46,2.47A2.47,2.47,0,0,0,1484.3,276.85Z"/><path class="cls-2" d="M1459.19,276.7a2.62,2.62,0,1,0,2.61,2.61A2.61,2.61,0,0,0,1459.19,276.7Z"/><path class="cls-2" d="M1434.08,276.55a2.77,2.77,0,1,0,2.76,2.76A2.77,2.77,0,0,0,1434.08,276.55Z"/><path class="cls-2" d="M1409,276.39a2.92,2.92,0,1,0,2.93,2.93A2.93,2.93,0,0,0,1409,276.39Z"/><path class="cls-2" d="M1383.85,276.24a3.08,3.08,0,1,0,3.08,3.08A3.08,3.08,0,0,0,1383.85,276.24Z"/><path class="cls-2" d="M1358.74,276.09a3.23,3.23,0,1,0,3.23,3.22A3.22,3.22,0,0,0,1358.74,276.09Z"/><path class="cls-2" d="M1333.63,275.93a3.39,3.39,0,1,0,3.38,3.38A3.38,3.38,0,0,0,1333.63,275.93Z"/><path class="cls-2" d="M1308.52,275.77a3.55,3.55,0,1,0,3.54,3.54A3.54,3.54,0,0,0,1308.52,275.77Z"/><path class="cls-2" d="M1283.41,283a3.72,3.72,0,1,0-3.72-3.72A3.71,3.71,0,0,0,1283.41,283Z"/><path class="cls-2" d="M1258.3,275.43a3.89,3.89,0,1,0,3.88,3.89A3.89,3.89,0,0,0,1258.3,275.43Z"/><path class="cls-2" d="M1233.19,275.24a4.08,4.08,0,1,0,4.07,4.07A4.07,4.07,0,0,0,1233.19,275.24Z"/><path class="cls-2" d="M1208.08,275.05a4.26,4.26,0,1,0,4.26,4.27A4.27,4.27,0,0,0,1208.08,275.05Z"/><path class="cls-2" d="M1183,274.87a4.45,4.45,0,1,0,4.45,4.44A4.44,4.44,0,0,0,1183,274.87Z"/><path class="cls-2" d="M1157.85,274.66a4.66,4.66,0,1,0,4.66,4.66A4.65,4.65,0,0,0,1157.85,274.66Z"/><path class="cls-2" d="M1132.74,274.45a4.87,4.87,0,1,0,4.87,4.86A4.87,4.87,0,0,0,1132.74,274.45Z"/><path class="cls-2" d="M1107.63,274.24a5.08,5.08,0,1,0,5.08,5.07A5.08,5.08,0,0,0,1107.63,274.24Z"/><path class="cls-2" d="M1082.52,274a5.31,5.31,0,1,0,5.3,5.31A5.3,5.3,0,0,0,1082.52,274Z"/><path class="cls-2" d="M1062.94,279.32a5.54,5.54,0,1,0-5.53,5.53A5.53,5.53,0,0,0,1062.94,279.32Z"/><path class="cls-2" d="M1038.06,279.32a5.77,5.77,0,1,0-5.76,5.76A5.76,5.76,0,0,0,1038.06,279.32Z"/><path class="cls-2" d="M1013.19,279.31a6,6,0,1,0-6,6A6,6,0,0,0,1013.19,279.31Z"/><path class="cls-2" d="M988.35,279.32a6.28,6.28,0,1,0-6.27,6.27A6.28,6.28,0,0,0,988.35,279.32Z"/><path class="cls-2" d="M963.57,279.31a6.61,6.61,0,1,0-6.61,6.61A6.61,6.61,0,0,0,963.57,279.31Z"/><path class="cls-2" d="M938.84,279.31a7,7,0,1,0-7,7A7,7,0,0,0,938.84,279.31Z"/><path class="cls-2" d="M914.16,279.32a7.42,7.42,0,1,0-7.42,7.41A7.42,7.42,0,0,0,914.16,279.32Z"/><path class="cls-2" d="M889.52,279.31a7.89,7.89,0,1,0-7.89,7.9A7.89,7.89,0,0,0,889.52,279.31Z"/><path class="cls-2" d="M864.9,279.32a8.38,8.38,0,1,0-8.38,8.37A8.38,8.38,0,0,0,864.9,279.32Z"/><circle class="cls-2" cx="831.41" cy="279.31" r="8.88"/><circle class="cls-2" cx="806.3" cy="279.32" r="9.39" transform="translate(239.69 917.35) rotate(-67.5)"/><path class="cls-2" d="M791.05,279.32a9.87,9.87,0,1,0-9.86,9.86A9.87,9.87,0,0,0,791.05,279.32Z"/><path class="cls-2" d="M766.37,279.31a10.3,10.3,0,1,0-10.29,10.3A10.29,10.29,0,0,0,766.37,279.31Z"/><path class="cls-2" d="M731,290a10.67,10.67,0,1,0-10.67-10.66A10.67,10.67,0,0,0,731,290Z"/><path class="cls-2" d="M705.85,290.29a11,11,0,1,0-11-11A11,11,0,0,0,705.85,290.29Z"/><path class="cls-2" d="M680.74,290.52a11.21,11.21,0,1,0-11.2-11.21A11.21,11.21,0,0,0,680.74,290.52Z"/><path class="cls-2" d="M655.63,290.68a11.37,11.37,0,1,0-11.36-11.37A11.36,11.36,0,0,0,655.63,290.68Z"/><path class="cls-2" d="M630.52,290.76a11.45,11.45,0,1,0-11.44-11.45A11.45,11.45,0,0,0,630.52,290.76Z"/><circle class="cls-2" cx="605.41" cy="279.31" r="11.45" transform="translate(-60.81 252.94) rotate(-22.5)"/><path class="cls-2" d="M580.3,290.66A11.35,11.35,0,1,0,569,279.31,11.35,11.35,0,0,0,580.3,290.66Z"/><path class="cls-2" d="M555.19,290.39a11.08,11.08,0,1,0-11.08-11.08A11.08,11.08,0,0,0,555.19,290.39Z"/><path class="cls-2" d="M530.08,290a10.64,10.64,0,1,0-10.64-10.63A10.63,10.63,0,0,0,530.08,290Z"/><path class="cls-2" d="M505,289.34a10,10,0,1,0-10-10A10,10,0,0,0,505,289.34Z"/><path class="cls-2" d="M479.85,288.61a9.3,9.3,0,1,0-9.29-9.29A9.29,9.29,0,0,0,479.85,288.61Z"/><path class="cls-2" d="M446.26,279.32a8.49,8.49,0,1,0,8.48-8.49A8.48,8.48,0,0,0,446.26,279.32Z"/><path class="cls-2" d="M429.63,287a7.67,7.67,0,1,0-7.66-7.67A7.66,7.66,0,0,0,429.63,287Z"/><path class="cls-2" d="M397.63,279.31a6.89,6.89,0,1,0,6.89-6.88A6.89,6.89,0,0,0,397.63,279.31Z"/><path class="cls-2" d="M379.41,273.11a6.21,6.21,0,1,0,6.2,6.2A6.2,6.2,0,0,0,379.41,273.11Z"/><path class="cls-2" d="M354.3,273.68a5.64,5.64,0,1,0,5.63,5.63A5.64,5.64,0,0,0,354.3,273.68Z"/><path class="cls-2" d="M324,279.32a5.18,5.18,0,1,0,5.18-5.19A5.18,5.18,0,0,0,324,279.32Z"/><path class="cls-2" d="M304.08,274.54a4.78,4.78,0,1,0,4.77,4.78A4.78,4.78,0,0,0,304.08,274.54Z"/><path class="cls-2" d="M279,274.93a4.39,4.39,0,1,0,4.38,4.38A4.38,4.38,0,0,0,279,274.93Z"/><path class="cls-2" d="M253.85,275.31a4,4,0,1,0,4,4A4,4,0,0,0,253.85,275.31Z"/><path class="cls-2" d="M228.74,283a3.65,3.65,0,1,0-3.64-3.65A3.64,3.64,0,0,0,228.74,283Z"/><path class="cls-2" d="M203.63,282.62a3.31,3.31,0,1,0-3.31-3.3A3.31,3.31,0,0,0,203.63,282.62Z"/><path class="cls-2" d="M175.53,279.31a3,3,0,1,0,3-3A3,3,0,0,0,175.53,279.31Z"/><path class="cls-2" d="M153.41,282a2.7,2.7,0,1,0-2.69-2.69A2.69,2.69,0,0,0,153.41,282Z"/><path class="cls-2" d="M128.3,281.72a2.41,2.41,0,1,0-2.4-2.4A2.4,2.4,0,0,0,128.3,281.72Z"/><path class="cls-2" d="M103.19,277.17a2.15,2.15,0,1,0,2.15,2.15A2.15,2.15,0,0,0,103.19,277.17Z"/><path class="cls-2" d="M78.08,277.41a1.91,1.91,0,1,0,1.91,1.9A1.9,1.9,0,0,0,78.08,277.41Z"/><path class="cls-2" d="M53,277.62a1.7,1.7,0,1,0,1.7,1.7A1.7,1.7,0,0,0,53,277.62Z"/><path class="cls-2" d="M27.85,277.79a1.53,1.53,0,1,0,1.53,1.52A1.52,1.52,0,0,0,27.85,277.79Z"/><path class="cls-2" d="M2.74,277.91a1.41,1.41,0,1,0,1.41,1.4A1.4,1.4,0,0,0,2.74,277.91Z"/><path class="cls-2" d="M1720.35,251.91a.61.61,0,0,0-.61.61.61.61,0,0,0,1.21,0A.61.61,0,0,0,1720.35,251.91Z"/><path class="cls-2" d="M1695.23,252a.56.56,0,1,0,.56.56A.56.56,0,0,0,1695.23,252Z"/><path class="cls-2" d="M1670.68,252.52a.56.56,0,1,0-1.11,0,.56.56,0,0,0,1.11,0Z"/><path class="cls-2" d="M1645.59,252.52a.57.57,0,0,0-.58-.57.57.57,0,1,0,0,1.14A.57.57,0,0,0,1645.59,252.52Z"/><path class="cls-2" d="M1619.28,252.52a.62.62,0,1,0,.62-.62A.62.62,0,0,0,1619.28,252.52Z"/><path class="cls-2" d="M1594.12,252.52a.67.67,0,0,0,.67.67.68.68,0,0,0,.68-.67.69.69,0,0,0-.68-.68A.68.68,0,0,0,1594.12,252.52Z"/><path class="cls-2" d="M1568.92,252.52a.76.76,0,1,0,.76-.76A.76.76,0,0,0,1568.92,252.52Z"/><path class="cls-2" d="M1545.41,252.52a.84.84,0,1,0-.84.84A.84.84,0,0,0,1545.41,252.52Z"/><circle class="cls-2" cx="1519.46" cy="252.52" r="0.95"/><path class="cls-2" d="M1495.42,252.52a1.08,1.08,0,1,0-1.07,1.07A1.07,1.07,0,0,0,1495.42,252.52Z"/><circle class="cls-2" cx="1469.24" cy="252.52" r="1.21"/><path class="cls-2" d="M1445.48,252.52a1.36,1.36,0,1,0-1.36,1.36A1.36,1.36,0,0,0,1445.48,252.52Z"/><path class="cls-2" d="M1420.53,252.52A1.52,1.52,0,1,0,1419,254,1.51,1.51,0,0,0,1420.53,252.52Z"/><path class="cls-2" d="M1395.59,252.52a1.69,1.69,0,1,0-1.69,1.69A1.68,1.68,0,0,0,1395.59,252.52Z"/><circle class="cls-2" cx="1368.79" cy="252.52" r="1.87"/><path class="cls-2" d="M1345.75,252.52a2.07,2.07,0,1,0-2.07,2.07A2.07,2.07,0,0,0,1345.75,252.52Z"/><path class="cls-2" d="M1320.84,252.52a2.27,2.27,0,1,0-2.27,2.27A2.27,2.27,0,0,0,1320.84,252.52Z"/><path class="cls-2" d="M1293.46,255a2.49,2.49,0,1,0-2.49-2.49A2.5,2.5,0,0,0,1293.46,255Z"/><path class="cls-2" d="M1271.06,252.52a2.72,2.72,0,1,0-2.71,2.71A2.71,2.71,0,0,0,1271.06,252.52Z"/><circle class="cls-2" cx="1243.24" cy="252.52" r="2.97"/><circle class="cls-2" cx="1218.12" cy="252.52" r="3.25"/><path class="cls-2" d="M1193,256.09a3.57,3.57,0,1,0-3.57-3.57A3.57,3.57,0,0,0,1193,256.09Z"/><path class="cls-2" d="M1167.9,256.45a3.93,3.93,0,1,0-3.93-3.93A3.93,3.93,0,0,0,1167.9,256.45Z"/><circle class="cls-2" cx="1142.79" cy="252.52" r="4.33"/><path class="cls-2" d="M1117.68,247.77a4.75,4.75,0,1,0,4.75,4.75A4.74,4.74,0,0,0,1117.68,247.77Z"/><path class="cls-2" d="M1092.57,247.31a5.21,5.21,0,1,0,5.21,5.21A5.21,5.21,0,0,0,1092.57,247.31Z"/><circle class="cls-2" cx="1067.46" cy="252.52" r="5.68" transform="translate(-29.46 252.01) rotate(-13.28)"/><path class="cls-2" d="M1042.35,246.36a6.16,6.16,0,1,0,6.15,6.16A6.16,6.16,0,0,0,1042.35,246.36Z"/><path class="cls-2" d="M1017.24,245.89a6.63,6.63,0,1,0,6.62,6.63A6.63,6.63,0,0,0,1017.24,245.89Z"/><path class="cls-2" d="M992.12,245.43a7.09,7.09,0,1,0,7.1,7.09A7.09,7.09,0,0,0,992.12,245.43Z"/><path class="cls-2" d="M967,245a7.53,7.53,0,1,0,7.53,7.53A7.53,7.53,0,0,0,967,245Z"/><path class="cls-2" d="M941.9,244.59a7.93,7.93,0,1,0,7.93,7.93A7.93,7.93,0,0,0,941.9,244.59Z"/><path class="cls-2" d="M916.79,244.23a8.29,8.29,0,1,0,8.29,8.29A8.29,8.29,0,0,0,916.79,244.23Z"/><path class="cls-2" d="M891.68,243.91a8.61,8.61,0,1,0,8.61,8.61A8.6,8.6,0,0,0,891.68,243.91Z"/><circle class="cls-2" cx="866.57" cy="252.52" r="8.89" transform="translate(301.65 956.49) rotate(-67.5)"/><circle class="cls-2" cx="841.46" cy="252.52" r="9.13" transform="translate(-35.51 200.08) rotate(-13.28)"/><path class="cls-2" d="M825.68,252.52a9.34,9.34,0,1,0-9.33,9.33A9.34,9.34,0,0,0,825.68,252.52Z"/><circle class="cls-2" cx="791.24" cy="252.52" r="9.5"/><circle class="cls-2" cx="766.12" cy="252.52" r="9.67" transform="translate(344.34 940.13) rotate(-76.72)"/><circle class="cls-2" cx="741.01" cy="252.52" r="9.8"/><path class="cls-2" d="M725.83,252.52a9.93,9.93,0,1,0-9.93,9.93A9.93,9.93,0,0,0,725.83,252.52Z"/><circle class="cls-2" cx="690.79" cy="252.52" r="10.01"/><path class="cls-2" d="M665.68,262.58a10.06,10.06,0,1,0-10.06-10.06A10.07,10.07,0,0,0,665.68,262.58Z"/><path class="cls-2" d="M650.64,252.52a10.07,10.07,0,1,0-10.07,10.07A10.07,10.07,0,0,0,650.64,252.52Z"/><path class="cls-2" d="M625.5,252.52a10,10,0,1,0-10,10A10,10,0,0,0,625.5,252.52Z"/><path class="cls-2" d="M600.31,252.52a10,10,0,1,0-10,10A10,10,0,0,0,600.31,252.52Z"/><path class="cls-2" d="M575.08,252.52a9.85,9.85,0,1,0-9.84,9.85A9.85,9.85,0,0,0,575.08,252.52Z"/><circle class="cls-2" cx="540.13" cy="252.52" r="9.7"/><path class="cls-2" d="M524.53,252.52A9.52,9.52,0,1,0,515,262,9.51,9.51,0,0,0,524.53,252.52Z"/><path class="cls-2" d="M499.21,252.52a9.31,9.31,0,1,0-9.31,9.3A9.3,9.3,0,0,0,499.21,252.52Z"/><path class="cls-2" d="M473.85,252.52a9.06,9.06,0,1,0-9.06,9.06A9.06,9.06,0,0,0,473.85,252.52Z"/><path class="cls-2" d="M430.87,252.52a8.82,8.82,0,1,0,8.81-8.82A8.8,8.8,0,0,0,430.87,252.52Z"/><path class="cls-2" d="M406.05,252.52a8.52,8.52,0,1,0,8.52-8.52A8.53,8.53,0,0,0,406.05,252.52Z"/><path class="cls-2" d="M389.46,244.43a8.09,8.09,0,1,0,8.09,8.09A8.09,8.09,0,0,0,389.46,244.43Z"/><path class="cls-2" d="M364.35,245a7.55,7.55,0,1,0,7.54,7.55A7.55,7.55,0,0,0,364.35,245Z"/><path class="cls-2" d="M332.35,252.52a6.89,6.89,0,1,0,6.89-6.89A6.89,6.89,0,0,0,332.35,252.52Z"/><circle class="cls-2" cx="314.13" cy="252.52" r="6.14"/><path class="cls-2" d="M283.64,252.52a5.38,5.38,0,1,0,5.37-5.37A5.37,5.37,0,0,0,283.64,252.52Z"/><path class="cls-2" d="M259.29,252.52a4.62,4.62,0,1,0,4.61-4.62A4.6,4.6,0,0,0,259.29,252.52Z"/><path class="cls-2" d="M234.87,252.52a3.93,3.93,0,1,0,3.92-3.93A3.92,3.92,0,0,0,234.87,252.52Z"/><path class="cls-2" d="M210.35,252.52a3.33,3.33,0,1,0,3.33-3.33A3.33,3.33,0,0,0,210.35,252.52Z"/><path class="cls-2" d="M185.73,252.52a2.84,2.84,0,1,0,2.84-2.85A2.84,2.84,0,0,0,185.73,252.52Z"/><circle class="cls-2" cx="163.46" cy="252.52" r="2.47"/><path class="cls-2" d="M138.35,250.33a2.19,2.19,0,1,0,2.19,2.19A2.19,2.19,0,0,0,138.35,250.33Z"/><path class="cls-2" d="M113.24,250.51a2,2,0,1,0,2,2A2,2,0,0,0,113.24,250.51Z"/><path class="cls-2" d="M88.13,250.58a1.94,1.94,0,1,0,1.93,1.94A1.94,1.94,0,0,0,88.13,250.58Z"/><path class="cls-2" d="M63,250.53a2,2,0,1,0,2,2A2,2,0,0,0,63,250.53Z"/><path class="cls-2" d="M37.9,254.71a2.19,2.19,0,1,0-2.19-2.19A2.19,2.19,0,0,0,37.9,254.71Z"/><path class="cls-2" d="M12.79,255.13a2.61,2.61,0,1,0-2.61-2.61A2.61,2.61,0,0,0,12.79,255.13Z"/><path class="cls-2" d="M1685.19,225.56a.17.17,0,0,0-.17.16.18.18,0,0,0,.17.17.17.17,0,0,0,.16-.17A.16.16,0,0,0,1685.19,225.56Z"/><circle class="cls-2" cx="1660.08" cy="225.72" r="0.35"/><path class="cls-2" d="M1635,225.18a.54.54,0,1,0,0,1.08.54.54,0,0,0,0-1.08Z"/><path class="cls-2" d="M1609.85,225a.76.76,0,1,0,.75.75A.76.76,0,0,0,1609.85,225Z"/><path class="cls-2" d="M1584.74,226.69a1,1,0,1,0,0-1.93,1,1,0,0,0,0,1.93Z"/><path class="cls-2" d="M1559.63,226.89a1.17,1.17,0,1,0-1.17-1.17A1.17,1.17,0,0,0,1559.63,226.89Z"/><path class="cls-2" d="M1534.52,227.05a1.33,1.33,0,1,0-1.33-1.33A1.33,1.33,0,0,0,1534.52,227.05Z"/><path class="cls-2" d="M1509.41,224.28a1.45,1.45,0,1,0,1.44,1.44A1.44,1.44,0,0,0,1509.41,224.28Z"/><path class="cls-2" d="M1484.3,224.2a1.53,1.53,0,1,0,1.52,1.52A1.52,1.52,0,0,0,1484.3,224.2Z"/><path class="cls-2" d="M1459.19,224.1a1.63,1.63,0,1,0,1.62,1.62A1.63,1.63,0,0,0,1459.19,224.1Z"/><path class="cls-2" d="M1434.08,224a1.78,1.78,0,1,0,1.77,1.77A1.78,1.78,0,0,0,1434.08,224Z"/><circle class="cls-2" cx="1408.96" cy="225.72" r="2"/><path class="cls-2" d="M1383.85,228.06a2.34,2.34,0,1,0-2.34-2.34A2.34,2.34,0,0,0,1383.85,228.06Z"/><path class="cls-2" d="M1358.74,228.52a2.8,2.8,0,1,0-2.8-2.8A2.8,2.8,0,0,0,1358.74,228.52Z"/><path class="cls-2" d="M1333.63,229.07a3.35,3.35,0,1,0-3.35-3.35A3.35,3.35,0,0,0,1333.63,229.07Z"/><path class="cls-2" d="M1308.52,220.76a5,5,0,1,0,5,5A5,5,0,0,0,1308.52,220.76Z"/><path class="cls-2" d="M1291,225.72a7.6,7.6,0,1,0-7.6,7.6A7.59,7.59,0,0,0,1291,225.72Z"/><path class="cls-2" d="M1258.3,217.08a8.65,8.65,0,1,0,8.64,8.64A8.64,8.64,0,0,0,1258.3,217.08Z"/><path class="cls-2" d="M1233.19,221.29a4.44,4.44,0,1,0,4.43,4.43A4.43,4.43,0,0,0,1233.19,221.29Z"/><path class="cls-2" d="M1208.08,228.9a3.18,3.18,0,1,0-3.18-3.18A3.17,3.17,0,0,0,1208.08,228.9Z"/><path class="cls-2" d="M1183,222.74a3,3,0,1,0,3,3A3,3,0,0,0,1183,222.74Z"/><path class="cls-2" d="M1157.85,222.78a2.94,2.94,0,1,0,2.94,2.94A2.94,2.94,0,0,0,1157.85,222.78Z"/><path class="cls-2" d="M1132.74,222.66a3.07,3.07,0,1,0,3.07,3.06A3.06,3.06,0,0,0,1132.74,222.66Z"/><path class="cls-2" d="M1107.63,222.38a3.35,3.35,0,1,0,3.35,3.34A3.34,3.34,0,0,0,1107.63,222.38Z"/><path class="cls-2" d="M1082.52,229.46a3.74,3.74,0,1,0-3.73-3.74A3.74,3.74,0,0,0,1082.52,229.46Z"/><path class="cls-2" d="M1053.24,225.72a4.17,4.17,0,1,0,4.17-4.16A4.17,4.17,0,0,0,1053.24,225.72Z"/><path class="cls-2" d="M1027.7,225.72a4.6,4.6,0,1,0,4.6-4.6A4.6,4.6,0,0,0,1027.7,225.72Z"/><path class="cls-2" d="M1002.2,225.72a5,5,0,1,0,5-5A5,5,0,0,0,1002.2,225.72Z"/><path class="cls-2" d="M976.69,225.72a5.39,5.39,0,1,0,5.39-5.38A5.39,5.39,0,0,0,976.69,225.72Z"/><path class="cls-2" d="M951.08,225.72a5.89,5.89,0,1,0,5.88-5.88A5.89,5.89,0,0,0,951.08,225.72Z"/><path class="cls-2" d="M931.85,232.23a6.51,6.51,0,1,0-6.5-6.51A6.5,6.5,0,0,0,931.85,232.23Z"/><path class="cls-2" d="M906.74,232.91a7.19,7.19,0,1,0-7.18-7.19A7.19,7.19,0,0,0,906.74,232.91Z"/><path class="cls-2" d="M881.63,233.58a7.86,7.86,0,1,0-7.86-7.86A7.86,7.86,0,0,0,881.63,233.58Z"/><path class="cls-2" d="M856.52,234.21a8.49,8.49,0,1,0-8.48-8.49A8.48,8.48,0,0,0,856.52,234.21Z"/><circle class="cls-2" cx="831.41" cy="225.72" r="8.97" transform="translate(304.7 907.47) rotate(-67.5)"/><path class="cls-2" d="M815.59,225.72A9.29,9.29,0,1,0,806.3,235,9.29,9.29,0,0,0,815.59,225.72Z"/><circle class="cls-2" cx="781.19" cy="225.72" r="9.47" transform="translate(-26.07 128.05) rotate(-9.22)"/><path class="cls-2" d="M765.66,225.72a9.59,9.59,0,1,0-9.58,9.59A9.58,9.58,0,0,0,765.66,225.72Z"/><path class="cls-2" d="M731,235.41a9.69,9.69,0,1,0-9.69-9.69A9.69,9.69,0,0,0,731,235.41Z"/><path class="cls-2" d="M715.61,225.72a9.76,9.76,0,1,0-9.76,9.75A9.76,9.76,0,0,0,715.61,225.72Z"/><path class="cls-2" d="M690.52,225.72a9.78,9.78,0,1,0-9.78,9.78A9.77,9.77,0,0,0,690.52,225.72Z"/><path class="cls-2" d="M665.39,225.72a9.76,9.76,0,1,0-9.76,9.76A9.76,9.76,0,0,0,665.39,225.72Z"/><path class="cls-2" d="M620.83,225.72a9.69,9.69,0,1,0,9.69-9.69A9.69,9.69,0,0,0,620.83,225.72Z"/><circle class="cls-2" cx="605.41" cy="225.72" r="9.58" transform="matrix(0.99, -0.16, 0.16, 0.99, -28.34, 99.89)"/><path class="cls-2" d="M580.3,235.14a9.42,9.42,0,1,0-9.42-9.42A9.42,9.42,0,0,0,580.3,235.14Z"/><path class="cls-2" d="M555.19,234.93a9.21,9.21,0,1,0-9.21-9.21A9.21,9.21,0,0,0,555.19,234.93Z"/><path class="cls-2" d="M521.1,225.72a9,9,0,1,0,9-9A9,9,0,0,0,521.1,225.72Z"/><path class="cls-2" d="M496.24,225.72A8.73,8.73,0,1,0,505,217,8.73,8.73,0,0,0,496.24,225.72Z"/><path class="cls-2" d="M479.85,234.17a8.45,8.45,0,1,0-8.44-8.45A8.45,8.45,0,0,0,479.85,234.17Z"/><path class="cls-2" d="M446.58,225.72a8.17,8.17,0,1,0,8.16-8.16A8.17,8.17,0,0,0,446.58,225.72Z"/><path class="cls-2" d="M429.63,233.57a7.85,7.85,0,1,0-7.85-7.85A7.84,7.84,0,0,0,429.63,233.57Z"/><path class="cls-2" d="M404.52,233.2a7.48,7.48,0,1,0-7.48-7.48A7.48,7.48,0,0,0,404.52,233.2Z"/><path class="cls-2" d="M379.41,232.76a7,7,0,1,0-7-7A7,7,0,0,0,379.41,232.76Z"/><path class="cls-2" d="M354.3,232.26a6.54,6.54,0,1,0-6.54-6.54A6.54,6.54,0,0,0,354.3,232.26Z"/><path class="cls-2" d="M329.19,231.7a6,6,0,1,0-6-6A6,6,0,0,0,329.19,231.7Z"/><path class="cls-2" d="M304.08,231.11a5.39,5.39,0,1,0-5.39-5.39A5.38,5.38,0,0,0,304.08,231.11Z"/><path class="cls-2" d="M279,221a4.77,4.77,0,1,0,4.76,4.76A4.76,4.76,0,0,0,279,221Z"/><path class="cls-2" d="M249.7,225.72a4.16,4.16,0,1,0,4.15-4.15A4.15,4.15,0,0,0,249.7,225.72Z"/><path class="cls-2" d="M225.19,225.72a3.56,3.56,0,1,0,3.55-3.55A3.55,3.55,0,0,0,225.19,225.72Z"/><path class="cls-2" d="M200.63,225.72a3,3,0,1,0,3-3A3,3,0,0,0,200.63,225.72Z"/><path class="cls-2" d="M178.52,223.24a2.48,2.48,0,1,0,2.48,2.48A2.48,2.48,0,0,0,178.52,223.24Z"/><path class="cls-2" d="M153.41,227.74a2,2,0,1,0-2-2A2,2,0,0,0,153.41,227.74Z"/><circle class="cls-2" cx="128.3" cy="225.72" r="1.76"/><path class="cls-2" d="M101.51,225.72a1.68,1.68,0,1,0,1.68-1.67A1.68,1.68,0,0,0,101.51,225.72Z"/><path class="cls-2" d="M76.66,225.72a1.42,1.42,0,1,0,1.42-1.41A1.41,1.41,0,0,0,76.66,225.72Z"/><path class="cls-2" d="M51.93,225.72a1,1,0,1,0,1-1A1,1,0,0,0,51.93,225.72Z"/><path class="cls-2" d="M27.85,225.15a.58.58,0,1,0,.58.57A.58.58,0,0,0,27.85,225.15Z"/><path class="cls-2" d="M1720.35,201.67a2.75,2.75,0,1,0-2.75-2.74A2.74,2.74,0,0,0,1720.35,201.67Z"/><circle class="cls-2" cx="1695.23" cy="198.93" r="2.49"/><circle class="cls-2" cx="1670.12" cy="198.93" r="2.26"/><path class="cls-2" d="M1645,196.86a2.07,2.07,0,1,0,2.07,2.07A2.07,2.07,0,0,0,1645,196.86Z"/><circle class="cls-2" cx="1619.9" cy="198.93" r="1.91"/><path class="cls-2" d="M1596.56,198.93a1.77,1.77,0,1,0-1.77,1.76A1.77,1.77,0,0,0,1596.56,198.93Z"/><path class="cls-2" d="M1571.32,198.93a1.64,1.64,0,1,0-1.64,1.64A1.64,1.64,0,0,0,1571.32,198.93Z"/><path class="cls-2" d="M1546.11,198.93a1.55,1.55,0,1,0-1.54,1.54A1.55,1.55,0,0,0,1546.11,198.93Z"/><circle class="cls-2" cx="1519.46" cy="198.93" r="1.45"/><path class="cls-2" d="M1494.35,197.54a1.39,1.39,0,1,0,1.39,1.39A1.39,1.39,0,0,0,1494.35,197.54Z"/><path class="cls-2" d="M1469.24,197.6a1.33,1.33,0,1,0,1.33,1.33A1.33,1.33,0,0,0,1469.24,197.6Z"/><circle class="cls-2" cx="1444.12" cy="198.93" r="1.29"/><path class="cls-2" d="M1419,200.19a1.27,1.27,0,1,0-1.26-1.26A1.26,1.26,0,0,0,1419,200.19Z"/><path class="cls-2" d="M1393.9,197.67a1.26,1.26,0,1,0,1.26,1.26A1.25,1.25,0,0,0,1393.9,197.67Z"/><path class="cls-2" d="M1368.79,197.68a1.25,1.25,0,1,0,1.25,1.25A1.25,1.25,0,0,0,1368.79,197.68Z"/><path class="cls-2" d="M1343.68,197.66a1.27,1.27,0,1,0,1.27,1.27A1.27,1.27,0,0,0,1343.68,197.66Z"/><path class="cls-2" d="M1317.28,198.93a1.29,1.29,0,1,0,1.29-1.29A1.29,1.29,0,0,0,1317.28,198.93Z"/><path class="cls-2" d="M1292.12,198.93a1.34,1.34,0,1,0,1.34-1.34A1.34,1.34,0,0,0,1292.12,198.93Z"/><circle class="cls-2" cx="1268.35" cy="198.93" r="1.38"/><path class="cls-2" d="M1241.79,198.93a1.45,1.45,0,1,0,1.45-1.44A1.45,1.45,0,0,0,1241.79,198.93Z"/><circle class="cls-2" cx="1218.12" cy="198.93" r="1.52"/><path class="cls-2" d="M1191.41,198.93a1.6,1.6,0,1,0,1.6-1.6A1.6,1.6,0,0,0,1191.41,198.93Z"/><path class="cls-2" d="M1166.21,198.93a1.69,1.69,0,1,0,1.69-1.7A1.69,1.69,0,0,0,1166.21,198.93Z"/><path class="cls-2" d="M1141,198.93a1.8,1.8,0,1,0,1.8-1.8A1.81,1.81,0,0,0,1141,198.93Z"/><circle class="cls-2" cx="1117.68" cy="198.93" r="1.91"/><path class="cls-2" d="M1090.52,198.93a2,2,0,1,0,2-2.05A2,2,0,0,0,1090.52,198.93Z"/><path class="cls-2" d="M1069.69,198.93a2.23,2.23,0,1,0-2.23,2.23A2.23,2.23,0,0,0,1069.69,198.93Z"/><path class="cls-2" d="M1044.83,198.93a2.49,2.49,0,1,0-2.48,2.48A2.49,2.49,0,0,0,1044.83,198.93Z"/><path class="cls-2" d="M1020,198.93a2.8,2.8,0,1,0-2.79,2.79A2.79,2.79,0,0,0,1020,198.93Z"/><path class="cls-2" d="M995.28,198.93a3.16,3.16,0,1,0-3.16,3.15A3.15,3.15,0,0,0,995.28,198.93Z"/><path class="cls-2" d="M970.59,198.93a3.58,3.58,0,1,0-3.58,3.58A3.58,3.58,0,0,0,970.59,198.93Z"/><path class="cls-2" d="M941.9,203a4.06,4.06,0,1,0-4-4A4.05,4.05,0,0,0,941.9,203Z"/><path class="cls-2" d="M921.37,198.93a4.58,4.58,0,1,0-4.58,4.58A4.58,4.58,0,0,0,921.37,198.93Z"/><circle class="cls-2" cx="891.68" cy="198.93" r="5.15"/><path class="cls-2" d="M872.32,198.93a5.75,5.75,0,1,0-5.75,5.75A5.75,5.75,0,0,0,872.32,198.93Z"/><path class="cls-2" d="M847.82,198.93a6.36,6.36,0,1,0-6.36,6.36A6.36,6.36,0,0,0,847.82,198.93Z"/><circle class="cls-2" cx="816.35" cy="198.93" r="6.98" transform="translate(-23.87 192.88) rotate(-13.28)"/><circle class="cls-2" cx="791.24" cy="198.93" r="7.59" transform="translate(-21.65 129.31) rotate(-9.22)"/><path class="cls-2" d="M766.12,207.12a8.19,8.19,0,1,0-8.18-8.19A8.19,8.19,0,0,0,766.12,207.12Z"/><circle class="cls-2" cx="741.01" cy="198.93" r="8.75" transform="translate(377.16 874.41) rotate(-76.72)"/><circle class="cls-2" cx="715.9" cy="198.93" r="9.29"/><path class="cls-2" d="M690.79,208.7a9.77,9.77,0,1,0-9.77-9.77A9.77,9.77,0,0,0,690.79,208.7Z"/><path class="cls-2" d="M665.68,209.12a10.2,10.2,0,1,0-10.2-10.19A10.2,10.2,0,0,0,665.68,209.12Z"/><path class="cls-2" d="M651.13,198.93a10.57,10.57,0,1,0-10.56,10.56A10.56,10.56,0,0,0,651.13,198.93Z"/><path class="cls-2" d="M604.58,198.93a10.88,10.88,0,1,0,10.88-10.88A10.88,10.88,0,0,0,604.58,198.93Z"/><path class="cls-2" d="M590.35,187.81a11.12,11.12,0,1,0,11.12,11.12A11.12,11.12,0,0,0,590.35,187.81Z"/><path class="cls-2" d="M576.54,198.93a11.31,11.31,0,1,0-11.3,11.3A11.3,11.3,0,0,0,576.54,198.93Z"/><path class="cls-2" d="M551.56,198.93a11.44,11.44,0,1,0-11.43,11.43A11.43,11.43,0,0,0,551.56,198.93Z"/><circle class="cls-2" cx="515.01" cy="198.93" r="11.22" transform="translate(-36.92 212.23) rotate(-22.5)"/><path class="cls-2" d="M479.84,198.93a10.06,10.06,0,1,0,10.06-10.06A10.06,10.06,0,0,0,479.84,198.93Z"/><path class="cls-2" d="M456.62,198.93a8.18,8.18,0,1,0,8.17-8.18A8.17,8.17,0,0,0,456.62,198.93Z"/><path class="cls-2" d="M445.89,198.93a6.21,6.21,0,1,0-6.21,6.21A6.21,6.21,0,0,0,445.89,198.93Z"/><path class="cls-2" d="M414.57,203.76a4.83,4.83,0,1,0-4.83-4.83A4.83,4.83,0,0,0,414.57,203.76Z"/><path class="cls-2" d="M389.46,203.15a4.22,4.22,0,1,0-4.22-4.22A4.22,4.22,0,0,0,389.46,203.15Z"/><path class="cls-2" d="M364.35,202.73a3.8,3.8,0,1,0-3.81-3.8A3.8,3.8,0,0,0,364.35,202.73Z"/><path class="cls-2" d="M339.24,202.33a3.4,3.4,0,1,0-3.41-3.4A3.4,3.4,0,0,0,339.24,202.33Z"/><path class="cls-2" d="M311.11,198.93a3,3,0,1,0,3-3A3,3,0,0,0,311.11,198.93Z"/><path class="cls-2" d="M291.68,198.93a2.67,2.67,0,1,0-2.67,2.66A2.67,2.67,0,0,0,291.68,198.93Z"/><circle class="cls-2" cx="263.9" cy="198.93" r="2.33"/><path class="cls-2" d="M240.81,198.93a2,2,0,1,0-2,2A2,2,0,0,0,240.81,198.93Z"/><path class="cls-2" d="M215.41,198.93a1.73,1.73,0,1,0-1.73,1.73A1.73,1.73,0,0,0,215.41,198.93Z"/><path class="cls-2" d="M190,198.93a1.47,1.47,0,1,0-1.47,1.47A1.47,1.47,0,0,0,190,198.93Z"/><path class="cls-2" d="M164.7,198.93a1.24,1.24,0,1,0-1.24,1.23A1.25,1.25,0,0,0,164.7,198.93Z"/><path class="cls-2" d="M139.38,198.93a1,1,0,1,0-1,1A1,1,0,0,0,139.38,198.93Z"/><path class="cls-2" d="M114.1,198.93a.86.86,0,1,0-.86.86A.86.86,0,0,0,114.1,198.93Z"/><path class="cls-2" d="M88.85,198.93a.73.73,0,1,0-.72.72A.72.72,0,0,0,88.85,198.93Z"/><path class="cls-2" d="M63.64,198.93a.63.63,0,1,0-.63.63A.63.63,0,0,0,63.64,198.93Z"/><path class="cls-2" d="M37.32,198.93a.58.58,0,1,0,.58-.58A.58.58,0,0,0,37.32,198.93Z"/><path class="cls-2" d="M12.19,198.93a.61.61,0,1,0,.6-.61A.6.6,0,0,0,12.19,198.93Z"/><path class="cls-2" d="M1685.19,171.94a.19.19,0,0,0-.2.19.2.2,0,1,0,.39,0A.19.19,0,0,0,1685.19,171.94Z"/><path class="cls-2" d="M1660.08,171.74a.4.4,0,0,0-.4.39.4.4,0,0,0,.79,0A.4.4,0,0,0,1660.08,171.74Z"/><path class="cls-2" d="M1635,171.55a.58.58,0,1,0,.59.58A.58.58,0,0,0,1635,171.55Z"/><path class="cls-2" d="M1609.85,171.37a.76.76,0,0,0-.76.76.77.77,0,0,0,.76.77.78.78,0,0,0,.77-.77A.77.77,0,0,0,1609.85,171.37Z"/><circle class="cls-2" cx="1584.74" cy="172.13" r="0.94"/><path class="cls-2" d="M1559.63,173.26a1.13,1.13,0,1,0-1.12-1.13A1.13,1.13,0,0,0,1559.63,173.26Z"/><path class="cls-2" d="M1534.52,173.43a1.3,1.3,0,1,0-1.29-1.3A1.3,1.3,0,0,0,1534.52,173.43Z"/><path class="cls-2" d="M1509.41,170.67a1.46,1.46,0,1,0,1.46,1.46A1.46,1.46,0,0,0,1509.41,170.67Z"/><path class="cls-2" d="M1484.3,170.5a1.63,1.63,0,1,0,1.63,1.63A1.63,1.63,0,0,0,1484.3,170.5Z"/><path class="cls-2" d="M1459.19,170.34a1.8,1.8,0,1,0,1.79,1.79A1.79,1.79,0,0,0,1459.19,170.34Z"/><path class="cls-2" d="M1434.08,170.17a2,2,0,1,0,2,2A2,2,0,0,0,1434.08,170.17Z"/><path class="cls-2" d="M1409,170a2.11,2.11,0,1,0,2.11,2.1A2.1,2.1,0,0,0,1409,170Z"/><path class="cls-2" d="M1383.85,174.38a2.25,2.25,0,1,0-2.25-2.25A2.25,2.25,0,0,0,1383.85,174.38Z"/><path class="cls-2" d="M1358.74,169.74a2.39,2.39,0,1,0,2.39,2.39A2.39,2.39,0,0,0,1358.74,169.74Z"/><circle class="cls-2" cx="1333.63" cy="172.13" r="2.5"/><circle class="cls-2" cx="1308.52" cy="172.13" r="2.62"/><path class="cls-2" d="M1283.41,169.41a2.73,2.73,0,1,0,2.73,2.72A2.72,2.72,0,0,0,1283.41,169.41Z"/><path class="cls-2" d="M1258.3,169.31a2.83,2.83,0,1,0,2.82,2.82A2.83,2.83,0,0,0,1258.3,169.31Z"/><path class="cls-2" d="M1233.19,169.21a2.93,2.93,0,1,0,2.92,2.92A2.93,2.93,0,0,0,1233.19,169.21Z"/><path class="cls-2" d="M1208.08,175.16a3,3,0,1,0-3-3A3,3,0,0,0,1208.08,175.16Z"/><path class="cls-2" d="M1183,169a3.12,3.12,0,1,0,3.13,3.12A3.12,3.12,0,0,0,1183,169Z"/><path class="cls-2" d="M1157.85,168.89a3.24,3.24,0,1,0,3.24,3.24A3.25,3.25,0,0,0,1157.85,168.89Z"/><path class="cls-2" d="M1132.74,168.77a3.36,3.36,0,1,0,3.36,3.36A3.36,3.36,0,0,0,1132.74,168.77Z"/><path class="cls-2" d="M1107.63,168.64a3.49,3.49,0,1,0,3.49,3.49A3.49,3.49,0,0,0,1107.63,168.64Z"/><path class="cls-2" d="M1082.52,175.78a3.65,3.65,0,1,0-3.65-3.65A3.64,3.64,0,0,0,1082.52,175.78Z"/><path class="cls-2" d="M1057.41,168.33a3.81,3.81,0,1,0,3.8,3.8A3.81,3.81,0,0,0,1057.41,168.33Z"/><path class="cls-2" d="M1032.3,168.14a4,4,0,1,0,4,4A4,4,0,0,0,1032.3,168.14Z"/><path class="cls-2" d="M1007.19,167.93a4.21,4.21,0,1,0,4.2,4.2A4.19,4.19,0,0,0,1007.19,167.93Z"/><path class="cls-2" d="M982.08,167.7a4.43,4.43,0,1,0,4.42,4.43A4.43,4.43,0,0,0,982.08,167.7Z"/><path class="cls-2" d="M957,167.46a4.67,4.67,0,1,0,4.68,4.67A4.68,4.68,0,0,0,957,167.46Z"/><path class="cls-2" d="M926.92,172.13a4.94,4.94,0,1,0,4.93-4.93A4.94,4.94,0,0,0,926.92,172.13Z"/><path class="cls-2" d="M901.52,172.13a5.22,5.22,0,1,0,5.22-5.22A5.22,5.22,0,0,0,901.52,172.13Z"/><circle class="cls-2" cx="881.63" cy="172.13" r="5.59"/><path class="cls-2" d="M850.45,172.13a6.07,6.07,0,1,0,6.07-6.07A6.07,6.07,0,0,0,850.45,172.13Z"/><path class="cls-2" d="M831.41,178.77a6.64,6.64,0,1,0-6.64-6.64A6.64,6.64,0,0,0,831.41,178.77Z"/><circle class="cls-2" cx="806.3" cy="172.13" r="7.28"/><circle class="cls-2" cx="781.19" cy="172.13" r="7.97"/><path class="cls-2" d="M756.08,180.79a8.66,8.66,0,1,0-8.66-8.66A8.66,8.66,0,0,0,756.08,180.79Z"/><path class="cls-2" d="M731,181.44a9.31,9.31,0,1,0-9.32-9.31A9.31,9.31,0,0,0,731,181.44Z"/><path class="cls-2" d="M715.74,172.13a9.89,9.89,0,1,0-9.89,9.89A9.89,9.89,0,0,0,715.74,172.13Z"/><path class="cls-2" d="M691.1,172.13a10.36,10.36,0,1,0-10.36,10.36A10.36,10.36,0,0,0,691.1,172.13Z"/><path class="cls-2" d="M666.35,172.13a10.72,10.72,0,1,0-10.72,10.72A10.72,10.72,0,0,0,666.35,172.13Z"/><path class="cls-2" d="M619.56,172.13a11,11,0,1,0,11-11A11,11,0,0,0,619.56,172.13Z"/><circle class="cls-2" cx="605.41" cy="172.13" r="11.04" transform="translate(55.6 478.51) rotate(-45)"/><path class="cls-2" d="M580.3,161.3a10.84,10.84,0,1,0,10.83,10.83A10.84,10.84,0,0,0,580.3,161.3Z"/><circle class="cls-2" cx="555.19" cy="172.13" r="10.34" transform="translate(296.35 692.58) rotate(-80.78)"/><path class="cls-2" d="M520.43,172.13a9.65,9.65,0,1,0,9.65-9.64A9.64,9.64,0,0,0,520.43,172.13Z"/><path class="cls-2" d="M496.05,172.13a8.92,8.92,0,1,0,8.92-8.91A8.91,8.91,0,0,0,496.05,172.13Z"/><path class="cls-2" d="M479.85,163.87a8.26,8.26,0,1,0,8.27,8.26A8.26,8.26,0,0,0,479.85,163.87Z"/><circle class="cls-2" cx="454.74" cy="172.13" r="7.7"/><path class="cls-2" d="M429.63,179.23a7.1,7.1,0,1,0-7.1-7.1A7.1,7.1,0,0,0,429.63,179.23Z"/><path class="cls-2" d="M404.52,178.59a6.46,6.46,0,1,0-6.45-6.46A6.46,6.46,0,0,0,404.52,178.59Z"/><path class="cls-2" d="M373.64,172.13a5.77,5.77,0,1,0,5.77-5.77A5.77,5.77,0,0,0,373.64,172.13Z"/><path class="cls-2" d="M354.3,177.2a5.07,5.07,0,1,0-5.07-5.07A5.07,5.07,0,0,0,354.3,177.2Z"/><path class="cls-2" d="M329.19,176.5a4.37,4.37,0,1,0-4.37-4.37A4.37,4.37,0,0,0,329.19,176.5Z"/><path class="cls-2" d="M304.08,175.81a3.68,3.68,0,1,0-3.68-3.68A3.68,3.68,0,0,0,304.08,175.81Z"/><path class="cls-2" d="M279,175.18a3,3,0,1,0-3.05-3.05A3,3,0,0,0,279,175.18Z"/><path class="cls-2" d="M253.85,174.61a2.48,2.48,0,1,0-2.47-2.48A2.48,2.48,0,0,0,253.85,174.61Z"/><path class="cls-2" d="M228.74,174.11a2,2,0,1,0-2-2A2,2,0,0,0,228.74,174.11Z"/><path class="cls-2" d="M203.63,173.7a1.57,1.57,0,1,0-1.57-1.57A1.57,1.57,0,0,0,203.63,173.7Z"/><path class="cls-2" d="M178.52,170.9a1.24,1.24,0,1,0,1.24,1.23A1.24,1.24,0,0,0,178.52,170.9Z"/><path class="cls-2" d="M153.41,171.16a1,1,0,1,0,1,1A1,1,0,0,0,153.41,171.16Z"/><path class="cls-2" d="M128.3,172.9a.77.77,0,1,0-.77-.77A.76.76,0,0,0,128.3,172.9Z"/><path class="cls-2" d="M103.19,172.78a.65.65,0,1,0-.65-.65A.65.65,0,0,0,103.19,172.78Z"/><path class="cls-2" d="M77.48,172.13a.6.6,0,1,0,1.19,0,.6.6,0,0,0-1.19,0Z"/><path class="cls-2" d="M52.34,172.13a.63.63,0,1,0,.63-.63A.63.63,0,0,0,52.34,172.13Z"/><path class="cls-2" d="M27.08,172.13a.78.78,0,1,0,.77-.77A.77.77,0,0,0,27.08,172.13Z"/><path class="cls-2" d="M1.67,172.13a1.08,1.08,0,0,0,1.07,1.07,1.07,1.07,0,1,0,0-2.14A1.08,1.08,0,0,0,1.67,172.13Z"/><circle class="cls-2" cx="1695.23" cy="145.34" r="0.03"/><path class="cls-2" d="M1670,145.34a.08.08,0,0,0,.08.08.09.09,0,0,0,.09-.08.09.09,0,0,0-.09-.09A.08.08,0,0,0,1670,145.34Z"/><path class="cls-2" d="M1644.86,145.34a.15.15,0,0,0,.15.15.16.16,0,0,0,.16-.15.16.16,0,0,0-.16-.16A.16.16,0,0,0,1644.86,145.34Z"/><path class="cls-2" d="M1619.66,145.34a.24.24,0,1,0,.48,0,.24.24,0,1,0-.48,0Z"/><circle class="cls-2" cx="1594.79" cy="145.34" r="0.33"/><path class="cls-2" d="M1569.24,145.34a.44.44,0,0,0,.88,0,.44.44,0,0,0-.88,0Z"/><path class="cls-2" d="M1545.13,145.34a.56.56,0,1,0-.56.55A.56.56,0,0,0,1545.13,145.34Z"/><path class="cls-2" d="M1520.14,145.34a.68.68,0,1,0-.68.68A.68.68,0,0,0,1520.14,145.34Z"/><path class="cls-2" d="M1495.15,145.34a.8.8,0,1,0-1.6,0,.8.8,0,0,0,1.6,0Z"/><path class="cls-2" d="M1469.24,146.29a1,1,0,1,0-1-.95A1,1,0,0,0,1469.24,146.29Z"/><path class="cls-2" d="M1444.12,146.44a1.11,1.11,0,1,0-1.1-1.1A1.11,1.11,0,0,0,1444.12,146.44Z"/><path class="cls-2" d="M1419,146.59a1.26,1.26,0,0,0,0-2.51,1.26,1.26,0,0,0,0,2.51Z"/><path class="cls-2" d="M1393.9,143.93a1.41,1.41,0,1,0,1.41,1.41A1.41,1.41,0,0,0,1393.9,143.93Z"/><path class="cls-2" d="M1368.79,143.75a1.59,1.59,0,1,0,1.58,1.58A1.58,1.58,0,0,0,1368.79,143.75Z"/><path class="cls-2" d="M1343.68,143.57a1.77,1.77,0,1,0,1.76,1.77A1.76,1.76,0,0,0,1343.68,143.57Z"/><path class="cls-2" d="M1320.51,145.34a1.94,1.94,0,1,0-1.94,1.94A1.94,1.94,0,0,0,1320.51,145.34Z"/><path class="cls-2" d="M1295.58,145.34a2.13,2.13,0,1,0-2.12,2.12A2.12,2.12,0,0,0,1295.58,145.34Z"/><path class="cls-2" d="M1268.35,143a2.32,2.32,0,1,0,2.31,2.32A2.32,2.32,0,0,0,1268.35,143Z"/><circle class="cls-2" cx="1243.24" cy="145.34" r="2.53"/><circle class="cls-2" cx="1218.12" cy="145.34" r="2.74"/><path class="cls-2" d="M1196,145.34a2.95,2.95,0,1,0-3,2.94A2.95,2.95,0,0,0,1196,145.34Z"/><path class="cls-2" d="M1171.06,145.34a3.16,3.16,0,1,0-3.16,3.15A3.16,3.16,0,0,0,1171.06,145.34Z"/><path class="cls-2" d="M1146.19,145.34a3.4,3.4,0,1,0-3.4,3.4A3.4,3.4,0,0,0,1146.19,145.34Z"/><path class="cls-2" d="M1121.72,145.34a4,4,0,1,0-4,4A4,4,0,0,0,1121.72,145.34Z"/><path class="cls-2" d="M1097.64,145.34a5.08,5.08,0,1,0-5.07,5.07A5.07,5.07,0,0,0,1097.64,145.34Z"/><path class="cls-2" d="M1067.46,139.15a6.19,6.19,0,1,0,6.19,6.19A6.19,6.19,0,0,0,1067.46,139.15Z"/><path class="cls-2" d="M1042.35,138.32a7,7,0,1,0,7,7A7,7,0,0,0,1042.35,138.32Z"/><path class="cls-2" d="M1017.24,137.9a7.44,7.44,0,1,0,7.43,7.44A7.44,7.44,0,0,0,1017.24,137.9Z"/><path class="cls-2" d="M992.12,137.56a7.78,7.78,0,1,0,7.79,7.78A7.78,7.78,0,0,0,992.12,137.56Z"/><path class="cls-2" d="M967,137.21a8.13,8.13,0,1,0,8.12,8.13A8.13,8.13,0,0,0,967,137.21Z"/><path class="cls-2" d="M950.37,145.34a8.47,8.47,0,1,0-8.47,8.46A8.47,8.47,0,0,0,950.37,145.34Z"/><circle class="cls-2" cx="916.79" cy="145.34" r="8.81" transform="translate(165.75 690.84) rotate(-45)"/><circle class="cls-2" cx="891.68" cy="145.34" r="9.13"/><path class="cls-2" d="M876,145.34a9.44,9.44,0,1,0-9.44,9.44A9.45,9.45,0,0,0,876,145.34Z"/><path class="cls-2" d="M851.19,145.33a9.74,9.74,0,1,0-9.73,9.74A9.73,9.73,0,0,0,851.19,145.33Z"/><path class="cls-2" d="M826.35,145.34a10,10,0,1,0-10,10A10,10,0,0,0,826.35,145.34Z"/><circle class="cls-2" cx="791.24" cy="145.34" r="10.25" transform="translate(-12.22 185.68) rotate(-13.28)"/><path class="cls-2" d="M766.12,155.79a10.46,10.46,0,1,0-10.45-10.45A10.45,10.45,0,0,0,766.12,155.79Z"/><circle class="cls-2" cx="741.01" cy="145.34" r="10.63"/><circle class="cls-2" cx="715.9" cy="145.34" r="10.78"/><path class="cls-2" d="M690.79,156.23a10.89,10.89,0,1,0-10.89-10.89A10.89,10.89,0,0,0,690.79,156.23Z"/><path class="cls-2" d="M654.71,145.34a11,11,0,1,0,11-11A11,11,0,0,0,654.71,145.34Z"/><circle class="cls-2" cx="640.57" cy="145.34" r="11.03"/><path class="cls-2" d="M604.4,145.34a11.06,11.06,0,1,0,11.06-11.07A11.06,11.06,0,0,0,604.4,145.34Z"/><circle class="cls-2" cx="590.35" cy="145.34" r="11.07" transform="translate(156.35 571.11) rotate(-58.28)"/><path class="cls-2" d="M565.24,134.33a11,11,0,1,0,11,11A11,11,0,0,0,565.24,134.33Z"/><path class="cls-2" d="M540.13,134.63a10.71,10.71,0,1,0,10.7,10.71A10.7,10.7,0,0,0,540.13,134.63Z"/><circle class="cls-2" cx="515.01" cy="145.34" r="10.18" transform="translate(-11.81 51.46) rotate(-5.66)"/><path class="cls-2" d="M489.9,135.86a9.48,9.48,0,1,0,9.47,9.47A9.48,9.48,0,0,0,489.9,135.86Z"/><circle class="cls-2" cx="464.79" cy="145.34" r="8.7" transform="translate(-17.28 76.33) rotate(-9.22)"/><path class="cls-2" d="M439.68,137.36a8,8,0,1,0,8,8A8,8,0,0,0,439.68,137.36Z"/><path class="cls-2" d="M414.57,152.72a7.39,7.39,0,1,0-7.39-7.39A7.39,7.39,0,0,0,414.57,152.72Z"/><path class="cls-2" d="M382.52,145.34a6.94,6.94,0,1,0,6.94-7A6.94,6.94,0,0,0,382.52,145.34Z"/><path class="cls-2" d="M357.82,145.34a6.53,6.53,0,1,0,6.53-6.53A6.52,6.52,0,0,0,357.82,145.34Z"/><path class="cls-2" d="M339.24,151.45a6.12,6.12,0,1,0-6.12-6.11A6.12,6.12,0,0,0,339.24,151.45Z"/><circle class="cls-2" cx="314.13" cy="145.34" r="5.7"/><path class="cls-2" d="M283.71,145.34A5.31,5.31,0,1,0,289,140,5.31,5.31,0,0,0,283.71,145.34Z"/><path class="cls-2" d="M259,145.34a4.91,4.91,0,1,0,4.91-4.91A4.9,4.9,0,0,0,259,145.34Z"/><path class="cls-2" d="M234.28,145.34a4.52,4.52,0,1,0,4.51-4.52A4.51,4.51,0,0,0,234.28,145.34Z"/><path class="cls-2" d="M213.68,141.2a4.14,4.14,0,1,0,4.14,4.14A4.14,4.14,0,0,0,213.68,141.2Z"/><path class="cls-2" d="M188.57,141.57a3.77,3.77,0,1,0,3.76,3.77A3.76,3.76,0,0,0,188.57,141.57Z"/><circle class="cls-2" cx="163.46" cy="145.34" r="3.39"/><path class="cls-2" d="M138.35,142.3a3,3,0,1,0,3,3A3,3,0,0,0,138.35,142.3Z"/><circle class="cls-2" cx="113.24" cy="145.34" r="2.68"/><path class="cls-2" d="M88.13,147.69a2.36,2.36,0,1,0-2.36-2.35A2.35,2.35,0,0,0,88.13,147.69Z"/><path class="cls-2" d="M63,143.31a2,2,0,1,0,2,2A2,2,0,0,0,63,143.31Z"/><circle class="cls-2" cx="37.9" cy="145.34" r="1.7"/><path class="cls-2" d="M12.79,146.74a1.41,1.41,0,1,0-1.4-1.41A1.41,1.41,0,0,0,12.79,146.74Z"/><path class="cls-2" d="M1685.19,118.27a.27.27,0,1,0,.27.27A.27.27,0,0,0,1685.19,118.27Z"/><path class="cls-2" d="M1660.08,118a.52.52,0,1,0,.51.52A.52.52,0,0,0,1660.08,118Z"/><path class="cls-2" d="M1635,117.79a.75.75,0,1,0,.76.75A.76.76,0,0,0,1635,117.79Z"/><path class="cls-2" d="M1609.85,117.57a1,1,0,1,0,1,1A1,1,0,0,0,1609.85,117.57Z"/><path class="cls-2" d="M1584.74,117.36a1.18,1.18,0,1,0,1.18,1.18A1.18,1.18,0,0,0,1584.74,117.36Z"/><path class="cls-2" d="M1559.63,117.16a1.38,1.38,0,1,0,1.38,1.38A1.38,1.38,0,0,0,1559.63,117.16Z"/><path class="cls-2" d="M1534.52,117a1.56,1.56,0,1,0,1.56,1.56A1.56,1.56,0,0,0,1534.52,117Z"/><path class="cls-2" d="M1509.41,116.81a1.73,1.73,0,1,0,1.73,1.73A1.72,1.72,0,0,0,1509.41,116.81Z"/><path class="cls-2" d="M1484.3,116.65a1.89,1.89,0,1,0,1.89,1.89A1.89,1.89,0,0,0,1484.3,116.65Z"/><path class="cls-2" d="M1459.19,116.49a2.05,2.05,0,1,0,2,2.05A2.05,2.05,0,0,0,1459.19,116.49Z"/><path class="cls-2" d="M1434.08,116.34a2.2,2.2,0,1,0,2.2,2.2A2.2,2.2,0,0,0,1434.08,116.34Z"/><path class="cls-2" d="M1409,116.18a2.36,2.36,0,1,0,2.36,2.36A2.36,2.36,0,0,0,1409,116.18Z"/><path class="cls-2" d="M1383.85,116a2.53,2.53,0,1,0,2.53,2.53A2.53,2.53,0,0,0,1383.85,116Z"/><path class="cls-2" d="M1358.74,115.82a2.72,2.72,0,1,0,2.72,2.72A2.71,2.71,0,0,0,1358.74,115.82Z"/><circle class="cls-2" cx="1333.63" cy="118.54" r="2.92"/><path class="cls-2" d="M1308.52,115.39a3.15,3.15,0,1,0,3.16,3.15A3.15,3.15,0,0,0,1308.52,115.39Z"/><circle class="cls-2" cx="1283.41" cy="118.54" r="3.4"/><path class="cls-2" d="M1258.3,114.86a3.68,3.68,0,1,0,3.68,3.68A3.69,3.69,0,0,0,1258.3,114.86Z"/><path class="cls-2" d="M1233.19,114.56a4,4,0,1,0,4,4A4,4,0,0,0,1233.19,114.56Z"/><path class="cls-2" d="M1208.08,114.2a4.35,4.35,0,1,0,4.34,4.34A4.34,4.34,0,0,0,1208.08,114.2Z"/><path class="cls-2" d="M1183,113.56a5,5,0,1,0,5,5A5,5,0,0,0,1183,113.56Z"/><path class="cls-2" d="M1157.85,112.73a5.81,5.81,0,1,0,5.82,5.81A5.81,5.81,0,0,0,1157.85,112.73Z"/><path class="cls-2" d="M1132.74,125.17a6.63,6.63,0,1,0-6.63-6.63A6.63,6.63,0,0,0,1132.74,125.17Z"/><circle class="cls-2" cx="1107.63" cy="118.54" r="7.22" transform="translate(-4.69 178.95) rotate(-9.22)"/><path class="cls-2" d="M1090.07,118.54a7.55,7.55,0,1,0-7.55,7.56A7.56,7.56,0,0,0,1090.07,118.54Z"/><path class="cls-2" d="M1065.24,118.54a7.84,7.84,0,1,0-7.83,7.83A7.82,7.82,0,0,0,1065.24,118.54Z"/><path class="cls-2" d="M1040.41,118.54a8.12,8.12,0,1,0-8.11,8.11A8.11,8.11,0,0,0,1040.41,118.54Z"/><circle class="cls-2" cx="1007.19" cy="118.54" r="8.37"/><circle class="cls-2" cx="982.08" cy="118.54" r="8.63"/><circle class="cls-2" cx="956.96" cy="118.54" r="8.87" transform="translate(-6.63 154.82) rotate(-9.22)"/><path class="cls-2" d="M941,118.54a9.11,9.11,0,1,0-9.11,9.1A9.1,9.1,0,0,0,941,118.54Z"/><circle class="cls-2" cx="906.74" cy="118.54" r="9.32" transform="translate(-7.28 146.78) rotate(-9.22)"/><path class="cls-2" d="M891.15,118.54a9.52,9.52,0,1,0-9.52,9.52A9.52,9.52,0,0,0,891.15,118.54Z"/><path class="cls-2" d="M866.23,118.54a9.71,9.71,0,1,0-9.71,9.71A9.71,9.71,0,0,0,866.23,118.54Z"/><circle class="cls-2" cx="831.41" cy="118.54" r="9.87" transform="translate(403.73 841.3) rotate(-67.5)"/><path class="cls-2" d="M806.3,128.57a10,10,0,1,0-10-10A10,10,0,0,0,806.3,128.57Z"/><circle class="cls-2" cx="781.19" cy="118.54" r="10.17" transform="matrix(0.38, -0.92, 0.92, 0.38, 372.72, 794.9)"/><path class="cls-2" d="M766.37,118.54a10.3,10.3,0,1,0-10.29,10.3A10.3,10.3,0,0,0,766.37,118.54Z"/><circle class="cls-2" cx="730.97" cy="118.54" r="10.41"/><path class="cls-2" d="M695.33,118.54A10.52,10.52,0,1,0,705.85,108,10.52,10.52,0,0,0,695.33,118.54Z"/><path class="cls-2" d="M670.12,118.54a10.62,10.62,0,1,0,10.62-10.62A10.63,10.63,0,0,0,670.12,118.54Z"/><path class="cls-2" d="M655.63,107.83a10.71,10.71,0,1,0,10.72,10.71A10.71,10.71,0,0,0,655.63,107.83Z"/><path class="cls-2" d="M619.73,118.54a10.79,10.79,0,1,0,10.79-10.79A10.79,10.79,0,0,0,619.73,118.54Z"/><path class="cls-2" d="M594.88,118.54A10.53,10.53,0,1,0,605.41,108,10.52,10.52,0,0,0,594.88,118.54Z"/><path class="cls-2" d="M580.3,108.69a9.85,9.85,0,1,0,9.85,9.85A9.85,9.85,0,0,0,580.3,108.69Z"/><path class="cls-2" d="M546.07,118.54a9.12,9.12,0,1,0,9.12-9.12A9.12,9.12,0,0,0,546.07,118.54Z"/><path class="cls-2" d="M521.76,118.54a8.32,8.32,0,1,0,8.32-8.32A8.32,8.32,0,0,0,521.76,118.54Z"/><path class="cls-2" d="M497.57,118.54a7.4,7.4,0,1,0,7.4-7.4A7.4,7.4,0,0,0,497.57,118.54Z"/><path class="cls-2" d="M479.85,125a6.44,6.44,0,1,0-6.44-6.44A6.44,6.44,0,0,0,479.85,125Z"/><path class="cls-2" d="M454.74,124.1a5.56,5.56,0,1,0-5.55-5.56A5.56,5.56,0,0,0,454.74,124.1Z"/><path class="cls-2" d="M424.79,118.54a4.85,4.85,0,1,0,4.84-4.85A4.85,4.85,0,0,0,424.79,118.54Z"/><path class="cls-2" d="M400.2,118.54a4.32,4.32,0,1,0,4.32-4.32A4.31,4.31,0,0,0,400.2,118.54Z"/><path class="cls-2" d="M375.49,118.54a3.92,3.92,0,1,0,3.92-3.92A3.92,3.92,0,0,0,375.49,118.54Z"/><path class="cls-2" d="M354.3,122.06a3.52,3.52,0,1,0-3.52-3.52A3.53,3.53,0,0,0,354.3,122.06Z"/><path class="cls-2" d="M326,118.54a3.15,3.15,0,1,0,3.15-3.15A3.15,3.15,0,0,0,326,118.54Z"/><circle class="cls-2" cx="304.08" cy="118.54" r="2.78"/><path class="cls-2" d="M279,121a2.44,2.44,0,1,0-2.44-2.44A2.44,2.44,0,0,0,279,121Z"/><path class="cls-2" d="M253.85,120.65a2.11,2.11,0,1,0-2.11-2.11A2.11,2.11,0,0,0,253.85,120.65Z"/><path class="cls-2" d="M228.74,120.34a1.8,1.8,0,1,0-1.79-1.8A1.8,1.8,0,0,0,228.74,120.34Z"/><path class="cls-2" d="M202.12,118.54a1.51,1.51,0,1,0,1.51-1.51A1.52,1.52,0,0,0,202.12,118.54Z"/><path class="cls-2" d="M178.52,117.3a1.24,1.24,0,1,0,1.24,1.24A1.24,1.24,0,0,0,178.52,117.3Z"/><path class="cls-2" d="M153.41,117.55a1,1,0,1,0,1,1A1,1,0,0,0,153.41,117.55Z"/><path class="cls-2" d="M127.54,118.54a.76.76,0,1,0,.76-.76A.76.76,0,0,0,127.54,118.54Z"/><path class="cls-2" d="M102.63,118.54a.56.56,0,1,0,1.11,0,.56.56,0,0,0-1.11,0Z"/><path class="cls-2" d="M78.46,118.54a.39.39,0,1,0-.38.39A.39.39,0,0,0,78.46,118.54Z"/><path class="cls-2" d="M53.2,118.54a.23.23,0,0,0-.23-.23.23.23,0,0,0-.24.23.24.24,0,0,0,.24.24A.23.23,0,0,0,53.2,118.54Z"/><path class="cls-2" d="M28,118.54a.12.12,0,0,0-.13-.12.12.12,0,0,0,0,.24A.12.12,0,0,0,28,118.54Z"/><path class="cls-2" d="M2.81,118.54s0-.06-.07-.06a.06.06,0,0,0-.06.06.07.07,0,0,0,.06.07A.07.07,0,0,0,2.81,118.54Z"/><path class="cls-2" d="M1695.49,91.75a.26.26,0,1,0-.51,0,.26.26,0,0,0,.51,0Z"/><circle class="cls-2" cx="1670.12" cy="91.74" r="0.5"/><path class="cls-2" d="M1645.75,91.74a.74.74,0,1,0-.74.75A.74.74,0,0,0,1645.75,91.74Z"/><path class="cls-2" d="M1620.87,91.74a1,1,0,1,0-1,1A1,1,0,0,0,1620.87,91.74Z"/><path class="cls-2" d="M1596,91.74a1.21,1.21,0,1,0-1.21,1.21A1.21,1.21,0,0,0,1596,91.74Z"/><circle class="cls-2" cx="1569.68" cy="91.74" r="1.42"/><path class="cls-2" d="M1544.57,90.11a1.64,1.64,0,1,0,1.63,1.64A1.63,1.63,0,0,0,1544.57,90.11Z"/><path class="cls-2" d="M1519.46,89.9a1.85,1.85,0,1,0,1.84,1.85A1.85,1.85,0,0,0,1519.46,89.9Z"/><path class="cls-2" d="M1496.4,91.75a2.06,2.06,0,1,0-2.05,2A2.05,2.05,0,0,0,1496.4,91.75Z"/><path class="cls-2" d="M1471.48,91.74a2.25,2.25,0,1,0-2.24,2.25A2.24,2.24,0,0,0,1471.48,91.74Z"/><path class="cls-2" d="M1446.57,91.75a2.45,2.45,0,1,0-2.45,2.44A2.45,2.45,0,0,0,1446.57,91.75Z"/><path class="cls-2" d="M1419,94.37a2.63,2.63,0,1,0-2.63-2.63A2.63,2.63,0,0,0,1419,94.37Z"/><path class="cls-2" d="M1391.1,91.74a2.8,2.8,0,1,0,2.8-2.8A2.81,2.81,0,0,0,1391.1,91.74Z"/><path class="cls-2" d="M1365.82,91.75a3,3,0,1,0,3-3A3,3,0,0,0,1365.82,91.75Z"/><path class="cls-2" d="M1340.54,91.75a3.14,3.14,0,1,0,3.14-3.14A3.14,3.14,0,0,0,1340.54,91.75Z"/><path class="cls-2" d="M1315.27,91.75a3.3,3.3,0,1,0,3.3-3.3A3.29,3.29,0,0,0,1315.27,91.75Z"/><path class="cls-2" d="M1293.46,88.29a3.46,3.46,0,1,0,3.46,3.45A3.46,3.46,0,0,0,1293.46,88.29Z"/><path class="cls-2" d="M1268.35,88.13a3.62,3.62,0,1,0,3.61,3.61A3.62,3.62,0,0,0,1268.35,88.13Z"/><path class="cls-2" d="M1243.24,88a3.79,3.79,0,1,0,3.78,3.78A3.79,3.79,0,0,0,1243.24,88Z"/><circle class="cls-2" cx="1218.12" cy="91.75" r="3.95"/><path class="cls-2" d="M1193,87.62a4.13,4.13,0,1,0,4.13,4.12A4.12,4.12,0,0,0,1193,87.62Z"/><circle class="cls-2" cx="1167.9" cy="91.74" r="4.32"/><path class="cls-2" d="M1142.79,87.23a4.52,4.52,0,1,0,4.51,4.51A4.51,4.51,0,0,0,1142.79,87.23Z"/><path class="cls-2" d="M1113,91.74a4.73,4.73,0,1,0,4.72-4.72A4.72,4.72,0,0,0,1113,91.74Z"/><path class="cls-2" d="M1087.62,91.75a5,5,0,1,0,5-5A4.94,4.94,0,0,0,1087.62,91.75Z"/><path class="cls-2" d="M1062.28,91.74a5.18,5.18,0,1,0,5.18-5.17A5.18,5.18,0,0,0,1062.28,91.74Z"/><path class="cls-2" d="M1047.78,91.75a5.44,5.44,0,1,0-5.43,5.43A5.43,5.43,0,0,0,1047.78,91.75Z"/><path class="cls-2" d="M1022.93,91.74a5.7,5.7,0,1,0-5.69,5.7A5.69,5.69,0,0,0,1022.93,91.74Z"/><path class="cls-2" d="M998.09,91.74a6,6,0,1,0-6,6A6,6,0,0,0,998.09,91.74Z"/><path class="cls-2" d="M973.33,91.74A6.32,6.32,0,1,0,967,98.06,6.32,6.32,0,0,0,973.33,91.74Z"/><path class="cls-2" d="M948.69,91.75a6.79,6.79,0,1,0-6.79,6.78A6.79,6.79,0,0,0,948.69,91.75Z"/><circle class="cls-2" cx="916.79" cy="91.75" r="7.34" transform="translate(3.45 213.09) rotate(-13.28)"/><path class="cls-2" d="M899.64,91.74a8,8,0,1,0-8,8A8,8,0,0,0,899.64,91.74Z"/><circle class="cls-2" cx="866.57" cy="91.74" r="8.62"/><circle class="cls-2" cx="841.46" cy="91.74" r="9.26"/><circle class="cls-2" cx="816.35" cy="91.74" r="9.83"/><path class="cls-2" d="M801.52,91.74A10.29,10.29,0,1,0,791.24,102,10.29,10.29,0,0,0,801.52,91.74Z"/><path class="cls-2" d="M766.12,81.15a10.59,10.59,0,1,0,10.6,10.6A10.6,10.6,0,0,0,766.12,81.15Z"/><path class="cls-2" d="M730.27,91.74A10.75,10.75,0,1,0,741,81,10.74,10.74,0,0,0,730.27,91.74Z"/><circle class="cls-2" cx="715.9" cy="91.74" r="10.75"/><circle class="cls-2" cx="690.79" cy="91.74" r="10.6"/><circle class="cls-2" cx="665.68" cy="91.75" r="10.29"/><path class="cls-2" d="M630.76,91.75a9.81,9.81,0,1,0,9.81-9.81A9.81,9.81,0,0,0,630.76,91.75Z"/><circle class="cls-2" cx="615.46" cy="91.74" r="9.14"/><path class="cls-2" d="M590.35,83.42a8.33,8.33,0,1,0,8.32,8.33A8.33,8.33,0,0,0,590.35,83.42Z"/><path class="cls-2" d="M565.24,84.35a7.4,7.4,0,1,0,7.4,7.39A7.39,7.39,0,0,0,565.24,84.35Z"/><circle class="cls-2" cx="540.13" cy="91.74" r="6.42"/><path class="cls-2" d="M515,97.21a5.47,5.47,0,1,0-5.46-5.47A5.47,5.47,0,0,0,515,97.21Z"/><path class="cls-2" d="M489.9,96.33a4.59,4.59,0,1,0-4.58-4.59A4.58,4.58,0,0,0,489.9,96.33Z"/><circle class="cls-2" cx="464.79" cy="91.74" r="3.81"/><path class="cls-2" d="M442.86,91.74a3.18,3.18,0,1,0-3.18,3.18A3.17,3.17,0,0,0,442.86,91.74Z"/><path class="cls-2" d="M417.25,91.75a2.69,2.69,0,1,0-2.68,2.68A2.68,2.68,0,0,0,417.25,91.75Z"/><path class="cls-2" d="M391.77,91.75a2.31,2.31,0,1,0-2.31,2.31A2.31,2.31,0,0,0,391.77,91.75Z"/><path class="cls-2" d="M366.42,91.75a2.07,2.07,0,1,0-2.07,2.06A2.07,2.07,0,0,0,366.42,91.75Z"/><path class="cls-2" d="M337.29,91.74a1.95,1.95,0,1,0,1.95-1.95A2,2,0,0,0,337.29,91.74Z"/><path class="cls-2" d="M316.05,91.74a1.93,1.93,0,1,0-1.92,1.93A1.92,1.92,0,0,0,316.05,91.74Z"/><path class="cls-2" d="M291,91.74A1.94,1.94,0,1,0,289,93.68,1.94,1.94,0,0,0,291,91.74Z"/><path class="cls-2" d="M265.83,91.75a1.93,1.93,0,1,0-1.93,1.92A1.92,1.92,0,0,0,265.83,91.75Z"/><path class="cls-2" d="M240.64,91.74a1.85,1.85,0,1,0-1.85,1.86A1.85,1.85,0,0,0,240.64,91.74Z"/><path class="cls-2" d="M215.37,91.75a1.69,1.69,0,1,0-1.69,1.69A1.7,1.7,0,0,0,215.37,91.75Z"/><path class="cls-2" d="M190,91.74a1.39,1.39,0,1,0-1.39,1.4A1.39,1.39,0,0,0,190,91.74Z"/><path class="cls-2" d="M164.37,91.75a.92.92,0,1,0-.91.91A.92.92,0,0,0,164.37,91.75Z"/><path class="cls-2" d="M137.94,91.75a.4.4,0,0,0,.41.4.41.41,0,1,0,0-.81A.41.41,0,0,0,137.94,91.75Z"/><path class="cls-2" d="M113.16,91.74a.08.08,0,0,0,.08.09.09.09,0,0,0,.08-.09.08.08,0,0,0-.08-.07A.07.07,0,0,0,113.16,91.74Z"/><path class="cls-2" d="M1710.3,67a2.08,2.08,0,1,0-2.08-2.07A2.07,2.07,0,0,0,1710.3,67Z"/><path class="cls-2" d="M1687.22,65a2,2,0,1,0-2,2A2,2,0,0,0,1687.22,65Z"/><path class="cls-2" d="M1662.08,65a2,2,0,1,0-2,2A2,2,0,0,0,1662.08,65Z"/><path class="cls-2" d="M1635,62.93a2,2,0,1,0,2,2A2,2,0,0,0,1635,62.93Z"/><path class="cls-2" d="M1609.85,62.92a2,2,0,1,0,2,2A2,2,0,0,0,1609.85,62.92Z"/><path class="cls-2" d="M1584.74,62.88a2.07,2.07,0,1,0,2.07,2.07A2.07,2.07,0,0,0,1584.74,62.88Z"/><circle class="cls-2" cx="1559.63" cy="64.95" r="2.11"/><path class="cls-2" d="M1534.52,62.79a2.16,2.16,0,1,0,2.16,2.16A2.16,2.16,0,0,0,1534.52,62.79Z"/><path class="cls-2" d="M1509.41,62.73a2.22,2.22,0,1,0,2.22,2.22A2.21,2.21,0,0,0,1509.41,62.73Z"/><path class="cls-2" d="M1484.3,62.65a2.3,2.3,0,1,0,2.29,2.3A2.3,2.3,0,0,0,1484.3,62.65Z"/><path class="cls-2" d="M1459.19,62.57a2.38,2.38,0,1,0,2.38,2.38A2.38,2.38,0,0,0,1459.19,62.57Z"/><path class="cls-2" d="M1434.08,62.47a2.48,2.48,0,1,0,2.47,2.48A2.48,2.48,0,0,0,1434.08,62.47Z"/><path class="cls-2" d="M1409,62.37a2.58,2.58,0,1,0,2.58,2.58A2.57,2.57,0,0,0,1409,62.37Z"/><path class="cls-2" d="M1383.85,67.64a2.69,2.69,0,1,0-2.69-2.69A2.69,2.69,0,0,0,1383.85,67.64Z"/><path class="cls-2" d="M1355.93,65a2.81,2.81,0,1,0,2.81-2.81A2.81,2.81,0,0,0,1355.93,65Z"/><path class="cls-2" d="M1330.69,65a2.94,2.94,0,1,0,2.94-2.94A2.94,2.94,0,0,0,1330.69,65Z"/><path class="cls-2" d="M1305.44,65a3.08,3.08,0,1,0,3.08-3.08A3.07,3.07,0,0,0,1305.44,65Z"/><path class="cls-2" d="M1280.19,65a3.22,3.22,0,1,0,3.22-3.22A3.22,3.22,0,0,0,1280.19,65Z"/><path class="cls-2" d="M1258.3,61.57a3.38,3.38,0,1,0,3.37,3.38A3.38,3.38,0,0,0,1258.3,61.57Z"/><path class="cls-2" d="M1233.19,61.42a3.53,3.53,0,1,0,3.52,3.53A3.53,3.53,0,0,0,1233.19,61.42Z"/><path class="cls-2" d="M1204.38,65a3.7,3.7,0,1,0,3.7-3.7A3.7,3.7,0,0,0,1204.38,65Z"/><path class="cls-2" d="M1179.1,65a3.87,3.87,0,1,0,3.86-3.87A3.86,3.86,0,0,0,1179.1,65Z"/><path class="cls-2" d="M1153.81,65a4,4,0,1,0,4-4A4,4,0,0,0,1153.81,65Z"/><path class="cls-2" d="M1128.51,65a4.24,4.24,0,1,0,4.23-4.23A4.23,4.23,0,0,0,1128.51,65Z"/><path class="cls-2" d="M1103.21,65a4.43,4.43,0,1,0,4.42-4.43A4.43,4.43,0,0,0,1103.21,65Z"/><path class="cls-2" d="M1077.9,65a4.62,4.62,0,1,0,4.62-4.62A4.62,4.62,0,0,0,1077.9,65Z"/><path class="cls-2" d="M1052.58,65a4.83,4.83,0,1,0,4.83-4.83A4.82,4.82,0,0,0,1052.58,65Z"/><path class="cls-2" d="M1027.26,65a5,5,0,1,0,5-5A5,5,0,0,0,1027.26,65Z"/><path class="cls-2" d="M1001.93,65a5.26,5.26,0,1,0,5.26-5.26A5.26,5.26,0,0,0,1001.93,65Z"/><path class="cls-2" d="M976.6,65a5.48,5.48,0,1,0,5.48-5.48A5.48,5.48,0,0,0,976.6,65Z"/><circle class="cls-2" cx="956.96" cy="64.95" r="5.79"/><circle class="cls-2" cx="931.85" cy="64.95" r="6.25" transform="translate(227.01 677.94) rotate(-45)"/><circle class="cls-2" cx="906.74" cy="64.95" r="6.82"/><path class="cls-2" d="M881.63,72.45a7.5,7.5,0,1,0-7.5-7.5A7.5,7.5,0,0,0,881.63,72.45Z"/><circle class="cls-2" cx="856.52" cy="64.95" r="8.22"/><path class="cls-2" d="M840.35,65a8.94,8.94,0,1,0-8.94,8.94A8.94,8.94,0,0,0,840.35,65Z"/><circle class="cls-2" cx="806.3" cy="64.95" r="9.59"/><path class="cls-2" d="M791.32,65a10.13,10.13,0,1,0-10.13,10.13A10.13,10.13,0,0,0,791.32,65Z"/><path class="cls-2" d="M745.53,65A10.55,10.55,0,1,0,756.08,54.4,10.55,10.55,0,0,0,745.53,65Z"/><path class="cls-2" d="M720.13,65A10.84,10.84,0,1,0,731,54.12,10.83,10.83,0,0,0,720.13,65Z"/><path class="cls-2" d="M694.9,65a11,11,0,1,0,11-11A10.95,10.95,0,0,0,694.9,65Z"/><path class="cls-2" d="M669.9,65a10.84,10.84,0,1,0,10.84-10.84A10.84,10.84,0,0,0,669.9,65Z"/><path class="cls-2" d="M655.63,54.47A10.48,10.48,0,1,0,666.11,65,10.48,10.48,0,0,0,655.63,54.47Z"/><path class="cls-2" d="M620.6,65A9.93,9.93,0,1,0,630.52,55,9.92,9.92,0,0,0,620.6,65Z"/><path class="cls-2" d="M605.41,74.26A9.31,9.31,0,1,0,596.1,65,9.31,9.31,0,0,0,605.41,74.26Z"/><path class="cls-2" d="M571.67,65a8.63,8.63,0,1,0,8.63-8.63A8.63,8.63,0,0,0,571.67,65Z"/><path class="cls-2" d="M547.37,65a7.82,7.82,0,1,0,7.82-7.82A7.82,7.82,0,0,0,547.37,65Z"/><path class="cls-2" d="M523.18,65a6.9,6.9,0,1,0,6.9-6.89A6.89,6.89,0,0,0,523.18,65Z"/><path class="cls-2" d="M505,70.83A5.88,5.88,0,1,0,499.08,65,5.88,5.88,0,0,0,505,70.83Z"/><path class="cls-2" d="M475,65a4.88,4.88,0,1,0,4.87-4.88A4.87,4.87,0,0,0,475,65Z"/><path class="cls-2" d="M450.82,65A3.93,3.93,0,1,0,454.74,61,3.92,3.92,0,0,0,450.82,65Z"/><path class="cls-2" d="M429.63,68.06A3.12,3.12,0,1,0,426.52,65,3.12,3.12,0,0,0,429.63,68.06Z"/><path class="cls-2" d="M404.52,67.42A2.47,2.47,0,1,0,402.05,65,2.48,2.48,0,0,0,404.52,67.42Z"/><path class="cls-2" d="M379.41,63a2,2,0,1,0,2,2A2,2,0,0,0,379.41,63Z"/><path class="cls-2" d="M354.3,63.39A1.56,1.56,0,1,0,355.86,65,1.56,1.56,0,0,0,354.3,63.39Z"/><path class="cls-2" d="M328,65a1.18,1.18,0,1,0,1.18-1.18A1.17,1.17,0,0,0,328,65Z"/><path class="cls-2" d="M303.23,65a.85.85,0,1,0,.85-.84A.84.84,0,0,0,303.23,65Z"/><path class="cls-2" d="M278.39,65a.58.58,0,0,0,1.15,0,.58.58,0,0,0-1.15,0Z"/><path class="cls-2" d="M253.5,65a.36.36,0,0,0,.71,0,.36.36,0,1,0-.71,0Z"/><path class="cls-2" d="M228.54,65a.2.2,0,0,0,.2.2.2.2,0,1,0,0-.4A.2.2,0,0,0,228.54,65Z"/><path class="cls-2" d="M203.74,65a.1.1,0,0,0-.11-.1.1.1,0,1,0,0,.2A.1.1,0,0,0,203.74,65Z"/><path class="cls-2" d="M178.57,65a0,0,0,0,0,0,0,.05.05,0,0,0-.05,0,.06.06,0,0,0,.05,0A.05.05,0,0,0,178.57,65Z"/><path class="cls-2" d="M153.43,65s0,0,0,0,0,0,0,0l0,0S153.43,65,153.43,65Z"/><path class="cls-2" d="M128.31,65s0,0,0,0a0,0,0,0,0,0,0h0Z"/><polygon class="cls-2" points="103.19 64.95 103.19 64.94 103.18 64.95 103.19 64.95 103.19 64.95"/><path class="cls-2" d="M1720.35,37.55a.61.61,0,1,0,.6.6A.6.6,0,0,0,1720.35,37.55Z"/><path class="cls-2" d="M1695.75,38.15a.52.52,0,1,0-.52.52A.51.51,0,0,0,1695.75,38.15Z"/><circle class="cls-2" cx="1670.12" cy="38.15" r="0.57"/><circle class="cls-2" cx="1645.01" cy="38.15" r="0.71"/><path class="cls-2" d="M1619.9,39.07a.92.92,0,1,0-.92-.92A.92.92,0,0,0,1619.9,39.07Z"/><path class="cls-2" d="M1594.79,36.94a1.22,1.22,0,1,0,1.22,1.21A1.22,1.22,0,0,0,1594.79,36.94Z"/><circle class="cls-2" cx="1569.68" cy="38.15" r="1.57"/><path class="cls-2" d="M1544.57,36.2a2,2,0,1,0,2,1.95A2,2,0,0,0,1544.57,36.2Z"/><path class="cls-2" d="M1519.46,42.32a4.17,4.17,0,1,0-4.18-4.17A4.17,4.17,0,0,0,1519.46,42.32Z"/><path class="cls-2" d="M1494.35,45.29a7.14,7.14,0,1,0-7.13-7.14A7.14,7.14,0,0,0,1494.35,45.29Z"/><path class="cls-2" d="M1469.24,32.35a5.81,5.81,0,1,0,5.8,5.8A5.81,5.81,0,0,0,1469.24,32.35Z"/><circle class="cls-2" cx="1444.12" cy="38.15" r="2.58"/><path class="cls-2" d="M1419,40.41a2.26,2.26,0,1,0-2.25-2.26A2.26,2.26,0,0,0,1419,40.41Z"/><path class="cls-2" d="M1395.83,38.15a1.93,1.93,0,1,0-1.93,1.93A1.92,1.92,0,0,0,1395.83,38.15Z"/><path class="cls-2" d="M1370.43,38.15a1.64,1.64,0,1,0-1.64,1.64A1.64,1.64,0,0,0,1370.43,38.15Z"/><path class="cls-2" d="M1345,38.15a1.35,1.35,0,1,0-1.35,1.35A1.35,1.35,0,0,0,1345,38.15Z"/><path class="cls-2" d="M1319.7,38.15a1.13,1.13,0,1,0-1.13,1.14A1.14,1.14,0,0,0,1319.7,38.15Z"/><path class="cls-2" d="M1294.39,38.15a.93.93,0,0,0-1.86,0,.93.93,0,0,0,1.86,0Z"/><path class="cls-2" d="M1269.15,38.15a.8.8,0,1,0-.8.8A.8.8,0,0,0,1269.15,38.15Z"/><path class="cls-2" d="M1244,38.15a.72.72,0,1,0-.71.72A.72.72,0,0,0,1244,38.15Z"/><path class="cls-2" d="M1218.82,38.15a.7.7,0,0,0-1.39,0,.7.7,0,0,0,1.39,0Z"/><path class="cls-2" d="M1193.75,38.15a.74.74,0,1,0-.74.74A.74.74,0,0,0,1193.75,38.15Z"/><path class="cls-2" d="M1168.72,38.15a.82.82,0,0,0-1.64,0,.82.82,0,1,0,1.64,0Z"/><path class="cls-2" d="M1143.77,38.15a1,1,0,1,0-1,1A1,1,0,0,0,1143.77,38.15Z"/><path class="cls-2" d="M1118.83,38.15a1.15,1.15,0,1,0-1.15,1.15A1.15,1.15,0,0,0,1118.83,38.15Z"/><path class="cls-2" d="M1094,38.15a1.4,1.4,0,0,0-2.79,0,1.4,1.4,0,1,0,2.79,0Z"/><path class="cls-2" d="M1067.46,36.51a1.64,1.64,0,1,0,1.64,1.64A1.64,1.64,0,0,0,1067.46,36.51Z"/><path class="cls-2" d="M1040.38,38.15a2,2,0,1,0,2-2A2,2,0,0,0,1040.38,38.15Z"/><path class="cls-2" d="M1014.82,38.15a2.42,2.42,0,1,0,2.42-2.42A2.42,2.42,0,0,0,1014.82,38.15Z"/><path class="cls-2" d="M989.11,38.15a3,3,0,1,0,3-3A3,3,0,0,0,989.11,38.15Z"/><path class="cls-2" d="M967,41.9a3.75,3.75,0,1,0-3.75-3.75A3.75,3.75,0,0,0,967,41.9Z"/><path class="cls-2" d="M941.9,42.75a4.6,4.6,0,1,0-4.59-4.6A4.59,4.59,0,0,0,941.9,42.75Z"/><path class="cls-2" d="M922.31,38.15a5.52,5.52,0,1,0-5.52,5.52A5.52,5.52,0,0,0,922.31,38.15Z"/><path class="cls-2" d="M898.15,38.15a6.47,6.47,0,1,0-6.47,6.47A6.47,6.47,0,0,0,898.15,38.15Z"/><path class="cls-2" d="M874,38.15a7.41,7.41,0,1,0-7.41,7.41A7.41,7.41,0,0,0,874,38.15Z"/><circle class="cls-2" cx="841.46" cy="38.15" r="8.3" transform="translate(219.48 606.18) rotate(-45)"/><path class="cls-2" d="M825.44,38.15a9.09,9.09,0,1,0-9.09,9.09A9.09,9.09,0,0,0,825.44,38.15Z"/><circle class="cls-2" cx="791.24" cy="38.15" r="9.74" transform="translate(12.4 182.81) rotate(-13.28)"/><path class="cls-2" d="M766.12,48.4a10.25,10.25,0,1,0-10.25-10.25A10.25,10.25,0,0,0,766.12,48.4Z"/><circle class="cls-2" cx="741.01" cy="38.15" r="10.62"/><circle class="cls-2" cx="715.9" cy="38.15" r="10.85" transform="translate(514.29 726.14) rotate(-76.72)"/><path class="cls-2" d="M680,38.18a10.78,10.78,0,1,0,10.78-10.77A10.79,10.79,0,0,0,680,38.18Z"/><circle class="cls-2" cx="665.68" cy="38.24" r="10.4"/><path class="cls-2" d="M630.85,38.31a9.72,9.72,0,1,0,9.72-9.73A9.72,9.72,0,0,0,630.85,38.31Z"/><path class="cls-2" d="M615.46,29.47a8.88,8.88,0,1,0,8.88,8.88A8.88,8.88,0,0,0,615.46,29.47Z"/><path class="cls-2" d="M582.34,38.37a8,8,0,1,0,8-8A8,8,0,0,0,582.34,38.37Z"/><path class="cls-2" d="M558,38.33a7.26,7.26,0,1,0,7.26-7.25A7.26,7.26,0,0,0,558,38.33Z"/><path class="cls-2" d="M540.13,45a6.72,6.72,0,1,0-6.73-6.72A6.72,6.72,0,0,0,540.13,45Z"/><path class="cls-2" d="M515,44.53a6.45,6.45,0,1,0-6.44-6.45A6.45,6.45,0,0,0,515,44.53Z"/><path class="cls-2" d="M489.9,31a6.62,6.62,0,1,0,6.61,6.61A6.61,6.61,0,0,0,489.9,31Z"/><path class="cls-2" d="M464.79,29.89A7.13,7.13,0,1,0,471.92,37,7.12,7.12,0,0,0,464.79,29.89Z"/><path class="cls-2" d="M432.12,36.47a7.56,7.56,0,1,0,7.56-7.56A7.56,7.56,0,0,0,432.12,36.47Z"/><path class="cls-2" d="M407,36.28a7.56,7.56,0,1,0,7.56-7.56A7.56,7.56,0,0,0,407,36.28Z"/><path class="cls-2" d="M382.15,36.27A7.31,7.31,0,1,0,389.46,29,7.31,7.31,0,0,0,382.15,36.27Z"/><path class="cls-2" d="M357.33,36.3a7,7,0,1,0,7-7A7,7,0,0,0,357.33,36.3Z"/><path class="cls-2" d="M332.54,36.35a6.7,6.7,0,1,0,6.7-6.69A6.7,6.7,0,0,0,332.54,36.35Z"/><path class="cls-2" d="M307.79,36.45a6.34,6.34,0,1,0,6.34-6.34A6.34,6.34,0,0,0,307.79,36.45Z"/><path class="cls-2" d="M289,30.62a6,6,0,1,0,6,5.95A6,6,0,0,0,289,30.62Z"/><path class="cls-2" d="M263.9,31.19a5.54,5.54,0,1,0,5.54,5.54A5.54,5.54,0,0,0,263.9,31.19Z"/><path class="cls-2" d="M238.79,31.83a5.07,5.07,0,1,0,5.07,5.07A5.07,5.07,0,0,0,238.79,31.83Z"/><path class="cls-2" d="M213.68,41.67a4.6,4.6,0,1,0-4.6-4.59A4.6,4.6,0,0,0,213.68,41.67Z"/><path class="cls-2" d="M188.57,33.13a4.13,4.13,0,1,0,4.12,4.12A4.12,4.12,0,0,0,188.57,33.13Z"/><path class="cls-2" d="M163.46,33.78a3.63,3.63,0,1,0,3.63,3.63A3.64,3.64,0,0,0,163.46,33.78Z"/><path class="cls-2" d="M113.24,40.37a2.67,2.67,0,1,0-2.67-2.67A2.67,2.67,0,0,0,113.24,40.37Z"/><path class="cls-2" d="M88.13,40A2.17,2.17,0,1,0,86,37.82,2.17,2.17,0,0,0,88.13,40Z"/><path class="cls-2" d="M63,36.36a1.58,1.58,0,1,0,1.59,1.58A1.58,1.58,0,0,0,63,36.36Z"/><path class="cls-2" d="M37,38.05a.88.88,0,1,0,.87-.88A.87.87,0,0,0,37,38.05Z"/><path class="cls-2" d="M1710.3,13.43a2.08,2.08,0,1,0-2.08-2.07A2.07,2.07,0,0,0,1710.3,13.43Z"/><path class="cls-2" d="M1683,11.36a2.21,2.21,0,1,0,2.21-2.21A2.2,2.2,0,0,0,1683,11.36Z"/><circle class="cls-2" cx="1660.08" cy="11.36" r="2.32"/><path class="cls-2" d="M1635,9a2.41,2.41,0,1,0,2.41,2.41A2.41,2.41,0,0,0,1635,9Z"/><path class="cls-2" d="M1609.85,8.88a2.48,2.48,0,1,0,2.48,2.48A2.48,2.48,0,0,0,1609.85,8.88Z"/><path class="cls-2" d="M1584.74,8.82a2.54,2.54,0,1,0,2.54,2.54A2.54,2.54,0,0,0,1584.74,8.82Z"/><path class="cls-2" d="M1559.63,8.78a2.58,2.58,0,1,0,2.58,2.58A2.58,2.58,0,0,0,1559.63,8.78Z"/><path class="cls-2" d="M1534.52,8.74a2.62,2.62,0,1,0,2.62,2.62A2.62,2.62,0,0,0,1534.52,8.74Z"/><path class="cls-2" d="M1509.41,8.72a2.64,2.64,0,1,0,2.63,2.64A2.64,2.64,0,0,0,1509.41,8.72Z"/><path class="cls-2" d="M1484.3,8.71a2.65,2.65,0,1,0,2.65,2.65A2.65,2.65,0,0,0,1484.3,8.71Z"/><path class="cls-2" d="M1459.19,8.7a2.66,2.66,0,1,0,2.65,2.66A2.66,2.66,0,0,0,1459.19,8.7Z"/><path class="cls-2" d="M1434.08,14a2.64,2.64,0,1,0-2.65-2.64A2.64,2.64,0,0,0,1434.08,14Z"/><path class="cls-2" d="M1409,8.73a2.63,2.63,0,1,0,2.63,2.63A2.62,2.62,0,0,0,1409,8.73Z"/><path class="cls-2" d="M1383.85,14a2.61,2.61,0,1,0-2.6-2.6A2.6,2.6,0,0,0,1383.85,14Z"/><path class="cls-2" d="M1360.67,11.36a1.93,1.93,0,1,0-1.93,1.93A1.92,1.92,0,0,0,1360.67,11.36Z"/><path class="cls-2" d="M1335.27,11.36a1.64,1.64,0,1,0-1.64,1.63A1.63,1.63,0,0,0,1335.27,11.36Z"/><path class="cls-2" d="M1310.2,11.36a1.68,1.68,0,1,0-3.35,0,1.68,1.68,0,0,0,3.35,0Z"/><path class="cls-2" d="M1285.08,11.36a1.68,1.68,0,1,0-1.67,1.67A1.68,1.68,0,0,0,1285.08,11.36Z"/><path class="cls-2" d="M1258.3,9.68a1.68,1.68,0,1,0,1.67,1.68A1.68,1.68,0,0,0,1258.3,9.68Z"/><path class="cls-2" d="M1233.19,9.68a1.68,1.68,0,1,0,1.67,1.68A1.68,1.68,0,0,0,1233.19,9.68Z"/><path class="cls-2" d="M1208.08,9.76a1.6,1.6,0,1,0,1.59,1.6A1.6,1.6,0,0,0,1208.08,9.76Z"/><path class="cls-2" d="M1183,10.2a1.16,1.16,0,1,0,1.16,1.16A1.16,1.16,0,0,0,1183,10.2Z"/><path class="cls-2" d="M1157.85,10.37a1,1,0,1,0,1,1A1,1,0,0,0,1157.85,10.37Z"/><path class="cls-2" d="M1132.74,9.59a1.77,1.77,0,1,0,1.77,1.77A1.77,1.77,0,0,0,1132.74,9.59Z"/><path class="cls-2" d="M1107.63,7.68a3.68,3.68,0,1,0,3.68,3.68A3.68,3.68,0,0,0,1107.63,7.68Z"/><path class="cls-2" d="M1082.52,4.79a6.57,6.57,0,1,0,6.56,6.57A6.56,6.56,0,0,0,1082.52,4.79Z"/><path class="cls-2" d="M1057.41,2.09a9.27,9.27,0,1,0,9.27,9.27A9.27,9.27,0,0,0,1057.41,2.09Z"/><path class="cls-2" d="M1032.3,22.05a10.69,10.69,0,1,0-10.69-10.69A10.7,10.7,0,0,0,1032.3,22.05Z"/><path class="cls-2" d="M1007.19,22.45A11.09,11.09,0,1,0,996.1,11.36,11.1,11.1,0,0,0,1007.19,22.45Z"/><circle class="cls-2" cx="982.08" cy="11.36" r="11.31" transform="translate(10.86 157.46) rotate(-9.22)"/><circle class="cls-2" cx="956.96" cy="11.36" r="11.36"/><path class="cls-2" d="M931.85,22.58a11.22,11.22,0,1,0-11.21-11.22A11.22,11.22,0,0,0,931.85,22.58Z"/><circle class="cls-2" cx="906.74" cy="11.36" r="10.9"/><path class="cls-2" d="M881.63,21.82a10.46,10.46,0,1,0-10.46-10.46A10.46,10.46,0,0,0,881.63,21.82Z"/><path class="cls-2" d="M856.52,21.29a9.94,9.94,0,1,0-9.94-9.93A9.93,9.93,0,0,0,856.52,21.29Z"/><path class="cls-2" d="M840.8,11.36a9.39,9.39,0,1,0-9.39,9.39A9.39,9.39,0,0,0,840.8,11.36Z"/><path class="cls-2" d="M797.42,11.36a8.88,8.88,0,1,0,8.88-8.88A8.88,8.88,0,0,0,797.42,11.36Z"/><circle class="cls-2" cx="781.19" cy="11.36" r="8.41"/><path class="cls-2" d="M764.09,11.36a8,8,0,1,0-8,8A8,8,0,0,0,764.09,11.36Z"/><path class="cls-2" d="M731,19a7.61,7.61,0,1,0-7.61-7.61A7.61,7.61,0,0,0,731,19Z"/><path class="cls-2" d="M705.85,18.5a7.14,7.14,0,1,0-7.14-7.14A7.14,7.14,0,0,0,705.85,18.5Z"/><path class="cls-2" d="M680.74,18a6.62,6.62,0,1,0-6.62-6.62A6.62,6.62,0,0,0,680.74,18Z"/><path class="cls-2" d="M655.63,17.4a6,6,0,1,0-6-6A6,6,0,0,0,655.63,17.4Z"/><path class="cls-2" d="M630.52,16.81a5.45,5.45,0,1,0-5.45-5.45A5.45,5.45,0,0,0,630.52,16.81Z"/><path class="cls-2" d="M605.41,16.22a4.87,4.87,0,1,0-4.86-4.86A4.87,4.87,0,0,0,605.41,16.22Z"/><path class="cls-2" d="M580.3,7.06a4.3,4.3,0,1,0,4.29,4.3A4.3,4.3,0,0,0,580.3,7.06Z"/><path class="cls-2" d="M555.19,7.56a3.8,3.8,0,1,0,3.79,3.8A3.8,3.8,0,0,0,555.19,7.56Z"/><path class="cls-2" d="M530.08,8a3.37,3.37,0,1,0,3.36,3.37A3.37,3.37,0,0,0,530.08,8Z"/><path class="cls-2" d="M502,11.36a3,3,0,1,0,3-3A3,3,0,0,0,502,11.36Z"/><path class="cls-2" d="M482.6,11.36a2.75,2.75,0,1,0-2.75,2.75A2.75,2.75,0,0,0,482.6,11.36Z"/><path class="cls-2" d="M457.3,11.36a2.56,2.56,0,1,0-2.56,2.55A2.56,2.56,0,0,0,457.3,11.36Z"/><path class="cls-2" d="M429.63,13.75a2.4,2.4,0,1,0-2.39-2.39A2.4,2.4,0,0,0,429.63,13.75Z"/><path class="cls-2" d="M404.52,13.6a2.25,2.25,0,1,0-2.24-2.24A2.24,2.24,0,0,0,404.52,13.6Z"/><path class="cls-2" d="M379.41,9.24a2.12,2.12,0,1,0,2.12,2.12A2.12,2.12,0,0,0,379.41,9.24Z"/><path class="cls-2" d="M354.3,9.36a2,2,0,1,0,2,2A2,2,0,0,0,354.3,9.36Z"/><path class="cls-2" d="M331.1,11.36a1.91,1.91,0,1,0-1.91,1.91A1.91,1.91,0,0,0,331.1,11.36Z"/><path class="cls-2" d="M305.9,11.36a1.83,1.83,0,1,0-1.82,1.83A1.82,1.82,0,0,0,305.9,11.36Z"/><path class="cls-2" d="M280.74,11.36A1.78,1.78,0,1,0,279,13.13,1.77,1.77,0,0,0,280.74,11.36Z"/><path class="cls-2" d="M255.59,11.36a1.74,1.74,0,1,0-1.74,1.73A1.73,1.73,0,0,0,255.59,11.36Z"/><path class="cls-2" d="M230.46,11.36a1.72,1.72,0,1,0-1.72,1.71A1.71,1.71,0,0,0,230.46,11.36Z"/><path class="cls-2" d="M203.63,13.07a1.72,1.72,0,1,0-1.71-1.71A1.71,1.71,0,0,0,203.63,13.07Z"/><path class="cls-2" d="M176.78,11.36a1.74,1.74,0,1,0,1.74-1.74A1.74,1.74,0,0,0,176.78,11.36Z"/><path class="cls-2" d="M151.62,11.36a1.79,1.79,0,1,0,1.79-1.79A1.79,1.79,0,0,0,151.62,11.36Z"/><path class="cls-2" d="M126.44,11.36a1.86,1.86,0,1,0,1.86-1.87A1.86,1.86,0,0,0,126.44,11.36Z"/><path class="cls-2" d="M101.22,11.36a2,2,0,1,0,2-2A2,2,0,0,0,101.22,11.36Z"/><path class="cls-2" d="M78.08,9.26a2.1,2.1,0,1,0,2.09,2.1A2.1,2.1,0,0,0,78.08,9.26Z"/><path class="cls-2" d="M53,9.09a2.27,2.27,0,1,0,2.26,2.27A2.27,2.27,0,0,0,53,9.09Z"/><path class="cls-2" d="M27.85,8.88a2.48,2.48,0,1,0,2.48,2.48A2.48,2.48,0,0,0,27.85,8.88Z"/><path class="cls-2" d="M2.74,14.1A2.75,2.75,0,1,0,0,11.36,2.75,2.75,0,0,0,2.74,14.1Z"/></g></g></g></svg>