<svg xmlns="http://www.w3.org/2000/svg" viewBox="0 0 126.96 1721.75"><defs><style>.cls-1{opacity:0.42;}.cls-2{fill:#fff;}</style></defs><g id="Layer_2" data-name="Layer 2"><g id="Layer_1-2" data-name="Layer 1"><g class="cls-1"><path class="cls-2" d="M118.61,53h0Z"/><path class="cls-2" d="M118.61,178.26a.26.26,0,0,0-.26.26.27.27,0,0,0,.53,0A.27.27,0,0,0,118.61,178.26Z"/><circle class="cls-2" cx="118.62" cy="203.63" r="0.02"/><path class="cls-2" d="M118.61,228.69a.05.05,0,0,0,0,.05.06.06,0,0,0,0,.06.06.06,0,0,0,.06-.06S118.65,228.69,118.61,228.69Z"/><path class="cls-2" d="M118.62,253.75a.11.11,0,0,0-.11.1.11.11,0,0,0,.11.11.11.11,0,0,0,.1-.11A.11.11,0,0,0,118.62,253.75Z"/><path class="cls-2" d="M118.61,278.82a.15.15,0,0,0-.15.15.15.15,0,0,0,.15.15.16.16,0,0,0,.16-.15A.15.15,0,0,0,118.61,278.82Z"/><path class="cls-2" d="M118.62,303.88a.2.2,0,0,0,0,.4.2.2,0,0,0,0-.4Z"/><path class="cls-2" d="M118.62,328.94a.25.25,0,1,0,.24.25A.25.25,0,0,0,118.62,328.94Z"/><path class="cls-2" d="M118.61,354a.3.3,0,0,0-.29.3.3.3,0,0,0,.59,0A.3.3,0,0,0,118.61,354Z"/><path class="cls-2" d="M118.62,379.07a.34.34,0,1,0,0,.68.34.34,0,0,0,0-.68Z"/><path class="cls-2" d="M118.61,404.13a.39.39,0,1,0,.4.39A.39.39,0,0,0,118.61,404.13Z"/><path class="cls-2" d="M118.62,429.17a.46.46,0,0,0-.46.46.46.46,0,1,0,.46-.46Z"/><circle class="cls-2" cx="118.61" cy="454.74" r="0.52"/><path class="cls-2" d="M118.62,479.27a.59.59,0,1,0,.58.58A.58.58,0,0,0,118.62,479.27Z"/><path class="cls-2" d="M118.62,504.3a.67.67,0,1,0,.66.67A.67.67,0,0,0,118.62,504.3Z"/><path class="cls-2" d="M118.62,529.32a.76.76,0,1,0,.75.76A.76.76,0,0,0,118.62,529.32Z"/><circle class="cls-2" cx="118.62" cy="555.19" r="0.84"/><circle class="cls-2" cx="118.61" cy="580.3" r="0.94"/><path class="cls-2" d="M118.62,604.36a1.05,1.05,0,1,0,1,1A1.05,1.05,0,0,0,118.62,604.36Z"/><path class="cls-2" d="M118.61,629.36a1.16,1.16,0,1,0,1.17,1.16A1.16,1.16,0,0,0,118.61,629.36Z"/><path class="cls-2" d="M118.62,654.35a1.29,1.29,0,1,0,1.28,1.28A1.28,1.28,0,0,0,118.62,654.35Z"/><path class="cls-2" d="M118.62,679.32a1.43,1.43,0,1,0,1.42,1.42A1.42,1.42,0,0,0,118.62,679.32Z"/><path class="cls-2" d="M118.62,704.29a1.57,1.57,0,1,0,1.56,1.56A1.56,1.56,0,0,0,118.62,704.29Z"/><path class="cls-2" d="M118.62,729.26a1.71,1.71,0,1,0,1.7,1.71A1.7,1.7,0,0,0,118.62,729.26Z"/><path class="cls-2" d="M118.61,754.2a1.88,1.88,0,1,0,1.88,1.88A1.88,1.88,0,0,0,118.61,754.2Z"/><path class="cls-2" d="M118.61,779.15a2,2,0,1,0,2,2A2,2,0,0,0,118.61,779.15Z"/><path class="cls-2" d="M118.62,804.09a2.21,2.21,0,1,0,2.2,2.21A2.21,2.21,0,0,0,118.62,804.09Z"/><path class="cls-2" d="M116.23,831.41a2.39,2.39,0,1,0,2.38-2.39A2.38,2.38,0,0,0,116.23,831.41Z"/><path class="cls-2" d="M121.2,856.52a2.58,2.58,0,1,0-2.59,2.58A2.59,2.59,0,0,0,121.2,856.52Z"/><path class="cls-2" d="M121.38,881.63a2.77,2.77,0,1,0-2.76,2.77A2.76,2.76,0,0,0,121.38,881.63Z"/><path class="cls-2" d="M118.61,909.7a3,3,0,1,0-3-3A3,3,0,0,0,118.61,909.7Z"/><path class="cls-2" d="M118.62,935a3.18,3.18,0,1,0-3.18-3.18A3.17,3.17,0,0,0,118.62,935Z"/><path class="cls-2" d="M118.62,960.41a3.45,3.45,0,1,0-3.45-3.45A3.44,3.44,0,0,0,118.62,960.41Z"/><path class="cls-2" d="M118.61,978.29a3.79,3.79,0,1,0,3.79,3.79A3.79,3.79,0,0,0,118.61,978.29Z"/><path class="cls-2" d="M118.61,1003a4.19,4.19,0,1,0,4.19,4.19A4.19,4.19,0,0,0,118.61,1003Z"/><path class="cls-2" d="M118.62,1027.65a4.65,4.65,0,1,0,4.64,4.65A4.65,4.65,0,0,0,118.62,1027.65Z"/><path class="cls-2" d="M118.62,1052.26a5.15,5.15,0,1,0,5.14,5.15A5.15,5.15,0,0,0,118.62,1052.26Z"/><path class="cls-2" d="M118.61,1076.86a5.67,5.67,0,1,0,5.67,5.66A5.66,5.66,0,0,0,118.61,1076.86Z"/><circle class="cls-2" cx="118.61" cy="1107.63" r="6.18" transform="translate(-950.09 793.34) rotate(-67.5)"/><path class="cls-2" d="M118.62,1126.06a6.68,6.68,0,1,0,6.68,6.68A6.68,6.68,0,0,0,118.62,1126.06Z"/><path class="cls-2" d="M118.62,1150.72a7.14,7.14,0,1,0,7.13,7.13A7.13,7.13,0,0,0,118.62,1150.72Z"/><path class="cls-2" d="M118.61,1175.44a7.53,7.53,0,1,0,7.53,7.52A7.52,7.52,0,0,0,118.61,1175.44Z"/><circle class="cls-2" cx="118.62" cy="1208.08" r="7.85"/><circle class="cls-2" cx="118.62" cy="1233.19" r="8.12"/><path class="cls-2" d="M118.61,1250a8.32,8.32,0,1,0,8.32,8.32A8.32,8.32,0,0,0,118.61,1250Z"/><path class="cls-2" d="M127,1283.41a8.35,8.35,0,1,0-8.35,8.35A8.35,8.35,0,0,0,127,1283.41Z"/><path class="cls-2" d="M126.79,1308.52a8.18,8.18,0,1,0-8.17,8.18A8.18,8.18,0,0,0,126.79,1308.52Z"/><path class="cls-2" d="M118.62,1325.82a7.82,7.82,0,1,0,7.81,7.81A7.81,7.81,0,0,0,118.62,1325.82Z"/><path class="cls-2" d="M126,1358.74a7.36,7.36,0,1,0-7.35,7.35A7.35,7.35,0,0,0,126,1358.74Z"/><path class="cls-2" d="M111.74,1383.85a6.88,6.88,0,1,0,6.87-6.88A6.87,6.87,0,0,0,111.74,1383.85Z"/><path class="cls-2" d="M112.21,1409a6.41,6.41,0,1,0,6.4-6.4A6.41,6.41,0,0,0,112.21,1409Z"/><path class="cls-2" d="M112.74,1434.08a5.88,5.88,0,1,0,5.88-5.88A5.88,5.88,0,0,0,112.74,1434.08Z"/><circle class="cls-2" cx="118.61" cy="1459.19" r="5.29"/><path class="cls-2" d="M114,1484.3a4.64,4.64,0,1,0,4.64-4.64A4.64,4.64,0,0,0,114,1484.3Z"/><circle class="cls-2" cx="118.62" cy="1509.41" r="3.96"/><path class="cls-2" d="M115.33,1534.52a3.29,3.29,0,1,0,3.28-3.28A3.28,3.28,0,0,0,115.33,1534.52Z"/><path class="cls-2" d="M116,1559.63a2.61,2.61,0,1,0,2.6-2.6A2.6,2.6,0,0,0,116,1559.63Z"/><path class="cls-2" d="M118.62,1583a1.77,1.77,0,1,0,1.76,1.77A1.77,1.77,0,0,0,118.62,1583Z"/><path class="cls-2" d="M119.32,1609.85a.71.71,0,0,0-1.41,0,.71.71,0,1,0,1.41,0Z"/><path class="cls-2" d="M118.62,1634.91s-.06,0-.06,0a.05.05,0,0,0,.06.06s0,0,0-.06A0,0,0,0,0,118.62,1634.91Z"/><path class="cls-2" d="M90.31,12.79a1.51,1.51,0,1,0,1.51-1.51A1.51,1.51,0,0,0,90.31,12.79Z"/><path class="cls-2" d="M91.82,36.51a1.39,1.39,0,1,0,1.39,1.39A1.39,1.39,0,0,0,91.82,36.51Z"/><path class="cls-2" d="M91.82,61.6A1.42,1.42,0,1,0,93.24,63,1.42,1.42,0,0,0,91.82,61.6Z"/><path class="cls-2" d="M91.82,86.58a1.55,1.55,0,1,0,1.54,1.55A1.54,1.54,0,0,0,91.82,86.58Z"/><path class="cls-2" d="M91.82,111.54a1.7,1.7,0,1,0,1.69,1.7A1.69,1.69,0,0,0,91.82,111.54Z"/><circle class="cls-2" cx="91.82" cy="138.35" r="1.85"/><path class="cls-2" d="M91.82,161.46a2,2,0,1,0,2,2A2,2,0,0,0,91.82,161.46Z"/><path class="cls-2" d="M91.82,186.42A2.15,2.15,0,1,0,94,188.57,2.15,2.15,0,0,0,91.82,186.42Z"/><path class="cls-2" d="M94.13,213.68A2.31,2.31,0,1,0,91.82,216,2.32,2.32,0,0,0,94.13,213.68Z"/><path class="cls-2" d="M89.36,238.79a2.46,2.46,0,1,0,2.46-2.46A2.46,2.46,0,0,0,89.36,238.79Z"/><path class="cls-2" d="M89.21,263.9a2.61,2.61,0,1,0,2.61-2.61A2.61,2.61,0,0,0,89.21,263.9Z"/><path class="cls-2" d="M89.05,289a2.77,2.77,0,1,0,2.77-2.76A2.77,2.77,0,0,0,89.05,289Z"/><path class="cls-2" d="M88.9,314.13a2.92,2.92,0,1,0,2.92-2.93A2.92,2.92,0,0,0,88.9,314.13Z"/><path class="cls-2" d="M88.75,339.24a3.07,3.07,0,1,0,3.07-3.08A3.07,3.07,0,0,0,88.75,339.24Z"/><path class="cls-2" d="M88.59,364.35a3.23,3.23,0,1,0,3.23-3.23A3.23,3.23,0,0,0,88.59,364.35Z"/><path class="cls-2" d="M88.44,389.46a3.38,3.38,0,1,0,3.38-3.38A3.38,3.38,0,0,0,88.44,389.46Z"/><path class="cls-2" d="M88.27,414.57A3.55,3.55,0,1,0,91.82,411,3.54,3.54,0,0,0,88.27,414.57Z"/><path class="cls-2" d="M95.54,439.68a3.72,3.72,0,1,0-3.72,3.72A3.72,3.72,0,0,0,95.54,439.68Z"/><path class="cls-2" d="M87.93,464.79a3.89,3.89,0,1,0,3.89-3.89A3.89,3.89,0,0,0,87.93,464.79Z"/><path class="cls-2" d="M87.75,489.9a4.07,4.07,0,1,0,4.07-4.07A4.07,4.07,0,0,0,87.75,489.9Z"/><path class="cls-2" d="M87.56,515a4.26,4.26,0,1,0,4.26-4.26A4.26,4.26,0,0,0,87.56,515Z"/><path class="cls-2" d="M87.37,540.12a4.45,4.45,0,1,0,4.45-4.44A4.45,4.45,0,0,0,87.37,540.12Z"/><path class="cls-2" d="M87.16,565.24a4.66,4.66,0,1,0,4.66-4.66A4.66,4.66,0,0,0,87.16,565.24Z"/><path class="cls-2" d="M87,590.35a4.87,4.87,0,1,0,4.87-4.87A4.87,4.87,0,0,0,87,590.35Z"/><path class="cls-2" d="M86.74,615.46a5.08,5.08,0,1,0,5.08-5.08A5.09,5.09,0,0,0,86.74,615.46Z"/><path class="cls-2" d="M86.52,640.57a5.3,5.3,0,1,0,5.3-5.3A5.3,5.3,0,0,0,86.52,640.57Z"/><path class="cls-2" d="M91.82,660.15a5.53,5.53,0,1,0,5.53,5.53A5.52,5.52,0,0,0,91.82,660.15Z"/><path class="cls-2" d="M91.82,685a5.77,5.77,0,1,0,5.76,5.76A5.77,5.77,0,0,0,91.82,685Z"/><path class="cls-2" d="M91.82,709.9a6,6,0,1,0,6,6A6,6,0,0,0,91.82,709.9Z"/><path class="cls-2" d="M91.82,734.74A6.28,6.28,0,1,0,98.09,741,6.28,6.28,0,0,0,91.82,734.74Z"/><path class="cls-2" d="M91.82,759.52a6.61,6.61,0,1,0,6.61,6.6A6.61,6.61,0,0,0,91.82,759.52Z"/><path class="cls-2" d="M91.82,784.25a7,7,0,1,0,7,7A7,7,0,0,0,91.82,784.25Z"/><path class="cls-2" d="M91.82,808.93a7.42,7.42,0,1,0,7.41,7.42A7.42,7.42,0,0,0,91.82,808.93Z"/><path class="cls-2" d="M91.82,833.57a7.89,7.89,0,1,0,7.89,7.89A7.89,7.89,0,0,0,91.82,833.57Z"/><path class="cls-2" d="M91.82,858.19a8.38,8.38,0,1,0,8.38,8.38A8.38,8.38,0,0,0,91.82,858.19Z"/><circle class="cls-2" cx="91.82" cy="891.68" r="8.88"/><circle class="cls-2" cx="91.82" cy="916.79" r="9.39" transform="translate(-790.32 650.78) rotate(-67.5)"/><path class="cls-2" d="M91.82,932a9.86,9.86,0,1,0,9.86,9.86A9.86,9.86,0,0,0,91.82,932Z"/><path class="cls-2" d="M91.82,956.72A10.3,10.3,0,1,0,102.11,967,10.29,10.29,0,0,0,91.82,956.72Z"/><path class="cls-2" d="M102.48,992.12a10.67,10.67,0,1,0-10.66,10.67A10.66,10.66,0,0,0,102.48,992.12Z"/><path class="cls-2" d="M102.79,1017.24a11,11,0,1,0-11,11A11,11,0,0,0,102.79,1017.24Z"/><path class="cls-2" d="M103,1042.35a11.21,11.21,0,1,0-11.21,11.2A11.21,11.21,0,0,0,103,1042.35Z"/><path class="cls-2" d="M103.18,1067.46a11.36,11.36,0,1,0-11.36,11.36A11.36,11.36,0,0,0,103.18,1067.46Z"/><path class="cls-2" d="M103.26,1092.57A11.44,11.44,0,1,0,91.82,1104,11.44,11.44,0,0,0,103.26,1092.57Z"/><circle class="cls-2" cx="91.82" cy="1117.68" r="11.45" transform="translate(-420.73 120.22) rotate(-22.5)"/><path class="cls-2" d="M103.17,1142.79a11.35,11.35,0,1,0-11.35,11.35A11.35,11.35,0,0,0,103.17,1142.79Z"/><path class="cls-2" d="M102.9,1167.9A11.08,11.08,0,1,0,91.82,1179,11.08,11.08,0,0,0,102.9,1167.9Z"/><path class="cls-2" d="M102.46,1193a10.64,10.64,0,1,0-10.64,10.64A10.64,10.64,0,0,0,102.46,1193Z"/><path class="cls-2" d="M101.85,1218.12a10,10,0,1,0-10,10A10,10,0,0,0,101.85,1218.12Z"/><path class="cls-2" d="M101.12,1243.24a9.3,9.3,0,1,0-9.3,9.29A9.3,9.3,0,0,0,101.12,1243.24Z"/><path class="cls-2" d="M91.82,1276.83a8.49,8.49,0,1,0-8.48-8.48A8.48,8.48,0,0,0,91.82,1276.83Z"/><path class="cls-2" d="M99.48,1293.46a7.66,7.66,0,1,0-7.66,7.66A7.66,7.66,0,0,0,99.48,1293.46Z"/><path class="cls-2" d="M91.82,1325.46a6.89,6.89,0,1,0-6.89-6.89A6.9,6.9,0,0,0,91.82,1325.46Z"/><path class="cls-2" d="M85.61,1343.68a6.21,6.21,0,1,0,6.21-6.2A6.2,6.2,0,0,0,85.61,1343.68Z"/><path class="cls-2" d="M86.19,1368.79a5.63,5.63,0,1,0,5.63-5.63A5.63,5.63,0,0,0,86.19,1368.79Z"/><path class="cls-2" d="M91.82,1399.08a5.18,5.18,0,1,0-5.18-5.18A5.18,5.18,0,0,0,91.82,1399.08Z"/><path class="cls-2" d="M87,1419a4.78,4.78,0,1,0,4.78-4.77A4.78,4.78,0,0,0,87,1419Z"/><path class="cls-2" d="M87.43,1444.12a4.39,4.39,0,1,0,4.39-4.38A4.39,4.39,0,0,0,87.43,1444.12Z"/><path class="cls-2" d="M87.81,1469.23a4,4,0,1,0,4-4A4,4,0,0,0,87.81,1469.23Z"/><path class="cls-2" d="M95.47,1494.35a3.65,3.65,0,1,0-3.65,3.64A3.65,3.65,0,0,0,95.47,1494.35Z"/><path class="cls-2" d="M95.13,1519.46a3.31,3.31,0,1,0-3.31,3.31A3.31,3.31,0,0,0,95.13,1519.46Z"/><path class="cls-2" d="M91.82,1547.56a3,3,0,1,0-3-3A3,3,0,0,0,91.82,1547.56Z"/><path class="cls-2" d="M94.51,1569.68a2.69,2.69,0,1,0-2.69,2.69A2.68,2.68,0,0,0,94.51,1569.68Z"/><path class="cls-2" d="M94.22,1594.79a2.4,2.4,0,1,0-2.4,2.4A2.39,2.39,0,0,0,94.22,1594.79Z"/><path class="cls-2" d="M89.67,1619.9a2.15,2.15,0,1,0,2.15-2.15A2.15,2.15,0,0,0,89.67,1619.9Z"/><path class="cls-2" d="M89.91,1645a1.91,1.91,0,1,0,1.91-1.91A1.9,1.9,0,0,0,89.91,1645Z"/><path class="cls-2" d="M90.12,1670.12a1.7,1.7,0,1,0,1.7-1.7A1.7,1.7,0,0,0,90.12,1670.12Z"/><path class="cls-2" d="M90.29,1695.23a1.53,1.53,0,1,0,1.53-1.52A1.53,1.53,0,0,0,90.29,1695.23Z"/><path class="cls-2" d="M90.41,1720.35a1.41,1.41,0,1,0,1.41-1.41A1.41,1.41,0,0,0,90.41,1720.35Z"/><path class="cls-2" d="M64.42,2.74a.61.61,0,1,0,.6-.6A.6.6,0,0,0,64.42,2.74Z"/><path class="cls-2" d="M64.46,27.85a.57.57,0,0,0,.56.56.56.56,0,1,0-.56-.56Z"/><path class="cls-2" d="M65,52.41a.56.56,0,1,0,.56.56A.56.56,0,0,0,65,52.41Z"/><path class="cls-2" d="M65,77.5a.58.58,0,1,0,.58.58A.58.58,0,0,0,65,77.5Z"/><path class="cls-2" d="M65,103.81a.62.62,0,0,0,0-1.24.62.62,0,0,0,0,1.24Z"/><path class="cls-2" d="M65,129a.67.67,0,0,0,.68-.67.68.68,0,1,0-1.35,0A.67.67,0,0,0,65,129Z"/><path class="cls-2" d="M65,154.17a.76.76,0,1,0-.76-.76A.76.76,0,0,0,65,154.17Z"/><path class="cls-2" d="M65,177.68a.84.84,0,1,0,.85.84A.85.85,0,0,0,65,177.68Z"/><circle class="cls-2" cx="65.02" cy="203.63" r="0.95"/><path class="cls-2" d="M65,227.67a1.08,1.08,0,0,0,0,2.15,1.08,1.08,0,1,0,0-2.15Z"/><circle class="cls-2" cx="65.02" cy="253.85" r="1.21"/><path class="cls-2" d="M65,277.61A1.36,1.36,0,1,0,66.38,279,1.35,1.35,0,0,0,65,277.61Z"/><path class="cls-2" d="M65,302.56a1.52,1.52,0,1,0,1.52,1.52A1.52,1.52,0,0,0,65,302.56Z"/><path class="cls-2" d="M65,327.5a1.69,1.69,0,1,0,1.7,1.69A1.69,1.69,0,0,0,65,327.5Z"/><circle class="cls-2" cx="65.02" cy="354.3" r="1.87"/><path class="cls-2" d="M65,377.34a2.07,2.07,0,1,0,2.07,2.07A2.07,2.07,0,0,0,65,377.34Z"/><path class="cls-2" d="M65,402.25a2.27,2.27,0,1,0,2.27,2.27A2.27,2.27,0,0,0,65,402.25Z"/><path class="cls-2" d="M67.52,429.63a2.5,2.5,0,1,0-2.5,2.49A2.5,2.5,0,0,0,67.52,429.63Z"/><path class="cls-2" d="M65,452a2.72,2.72,0,1,0,2.72,2.71A2.71,2.71,0,0,0,65,452Z"/><circle class="cls-2" cx="65.02" cy="479.85" r="2.97"/><circle class="cls-2" cx="65.02" cy="504.97" r="3.25"/><path class="cls-2" d="M68.59,530.08A3.57,3.57,0,1,0,65,533.65,3.57,3.57,0,0,0,68.59,530.08Z"/><path class="cls-2" d="M69,555.19A3.93,3.93,0,1,0,65,559.12,3.93,3.93,0,0,0,69,555.19Z"/><circle class="cls-2" cx="65.02" cy="580.3" r="4.33"/><path class="cls-2" d="M60.27,605.41A4.76,4.76,0,1,0,65,600.66,4.75,4.75,0,0,0,60.27,605.41Z"/><path class="cls-2" d="M59.82,630.52a5.21,5.21,0,1,0,5.2-5.21A5.2,5.2,0,0,0,59.82,630.52Z"/><circle class="cls-2" cx="65.02" cy="655.63" r="5.68" transform="translate(-148.89 32.48) rotate(-13.28)"/><path class="cls-2" d="M58.86,680.74A6.16,6.16,0,1,0,65,674.59,6.16,6.16,0,0,0,58.86,680.74Z"/><path class="cls-2" d="M58.4,705.85A6.63,6.63,0,1,0,65,699.23,6.62,6.62,0,0,0,58.4,705.85Z"/><path class="cls-2" d="M57.93,731a7.1,7.1,0,1,0,7.09-7.1A7.1,7.1,0,0,0,57.93,731Z"/><path class="cls-2" d="M57.5,756.08A7.53,7.53,0,1,0,65,748.55,7.52,7.52,0,0,0,57.5,756.08Z"/><path class="cls-2" d="M57.09,781.19A7.93,7.93,0,1,0,65,773.26,7.93,7.93,0,0,0,57.09,781.19Z"/><path class="cls-2" d="M56.73,806.3A8.3,8.3,0,1,0,65,798,8.29,8.29,0,0,0,56.73,806.3Z"/><path class="cls-2" d="M56.41,831.41A8.62,8.62,0,1,0,65,822.8,8.61,8.61,0,0,0,56.41,831.41Z"/><circle class="cls-2" cx="65.02" cy="856.52" r="8.89" transform="translate(-751.18 588.82) rotate(-67.5)"/><circle class="cls-2" cx="65.02" cy="881.63" r="9.13" transform="translate(-200.82 38.52) rotate(-13.28)"/><path class="cls-2" d="M65,897.41a9.34,9.34,0,1,0,9.34,9.33A9.33,9.33,0,0,0,65,897.41Z"/><circle class="cls-2" cx="65.02" cy="931.85" r="9.5"/><circle class="cls-2" cx="65.02" cy="956.96" r="9.67" transform="translate(-881.28 800.38) rotate(-76.72)"/><circle class="cls-2" cx="65.02" cy="982.08" r="9.8"/><path class="cls-2" d="M65,997.26a9.93,9.93,0,1,0,9.93,9.93A9.92,9.92,0,0,0,65,997.26Z"/><circle class="cls-2" cx="65.02" cy="1032.3" r="10.01"/><path class="cls-2" d="M75.08,1057.41A10.06,10.06,0,1,0,65,1067.47,10.05,10.05,0,0,0,75.08,1057.41Z"/><path class="cls-2" d="M65,1072.45a10.07,10.07,0,1,0,10.07,10.07A10.06,10.06,0,0,0,65,1072.45Z"/><path class="cls-2" d="M65,1097.59a10,10,0,1,0,10,10A10,10,0,0,0,65,1097.59Z"/><path class="cls-2" d="M65,1122.78a10,10,0,1,0,10,10A10,10,0,0,0,65,1122.78Z"/><path class="cls-2" d="M65,1148a9.85,9.85,0,1,0,9.85,9.84A9.83,9.83,0,0,0,65,1148Z"/><circle class="cls-2" cx="65.02" cy="1182.96" r="9.7"/><path class="cls-2" d="M65,1198.56a9.52,9.52,0,1,0,9.52,9.52A9.51,9.51,0,0,0,65,1198.56Z"/><path class="cls-2" d="M65,1223.88a9.31,9.31,0,1,0,9.31,9.31A9.31,9.31,0,0,0,65,1223.88Z"/><path class="cls-2" d="M65,1249.24a9.06,9.06,0,1,0,9.06,9.06A9.06,9.06,0,0,0,65,1249.24Z"/><path class="cls-2" d="M65,1292.22a8.82,8.82,0,1,0-8.81-8.81A8.81,8.81,0,0,0,65,1292.22Z"/><path class="cls-2" d="M65,1317a8.52,8.52,0,1,0-8.51-8.51A8.51,8.51,0,0,0,65,1317Z"/><path class="cls-2" d="M56.94,1333.63a8.09,8.09,0,1,0,8.08-8.09A8.09,8.09,0,0,0,56.94,1333.63Z"/><path class="cls-2" d="M57.48,1358.74A7.55,7.55,0,1,0,65,1351.2,7.55,7.55,0,0,0,57.48,1358.74Z"/><path class="cls-2" d="M65,1390.74a6.89,6.89,0,1,0-6.88-6.89A6.88,6.88,0,0,0,65,1390.74Z"/><circle class="cls-2" cx="65.02" cy="1408.96" r="6.14"/><path class="cls-2" d="M65,1439.45a5.38,5.38,0,1,0-5.37-5.37A5.38,5.38,0,0,0,65,1439.45Z"/><path class="cls-2" d="M65,1463.8a4.62,4.62,0,1,0-4.61-4.61A4.61,4.61,0,0,0,65,1463.8Z"/><path class="cls-2" d="M65,1488.22a3.93,3.93,0,1,0-3.92-3.92A3.92,3.92,0,0,0,65,1488.22Z"/><path class="cls-2" d="M65,1512.74a3.33,3.33,0,1,0-3.33-3.33A3.33,3.33,0,0,0,65,1512.74Z"/><path class="cls-2" d="M65,1537.36a2.85,2.85,0,1,0-2.84-2.84A2.84,2.84,0,0,0,65,1537.36Z"/><circle class="cls-2" cx="65.02" cy="1559.63" r="2.47"/><path class="cls-2" d="M62.84,1584.74a2.19,2.19,0,1,0,2.18-2.19A2.19,2.19,0,0,0,62.84,1584.74Z"/><path class="cls-2" d="M63,1609.85a2,2,0,1,0,2-2A2,2,0,0,0,63,1609.85Z"/><path class="cls-2" d="M63.09,1635A1.94,1.94,0,1,0,65,1633,1.93,1.93,0,0,0,63.09,1635Z"/><path class="cls-2" d="M63,1660.08a2,2,0,1,0,2-2A2,2,0,0,0,63,1660.08Z"/><path class="cls-2" d="M67.22,1685.19a2.2,2.2,0,1,0-2.2,2.19A2.19,2.19,0,0,0,67.22,1685.19Z"/><path class="cls-2" d="M67.64,1710.3a2.62,2.62,0,1,0-2.62,2.61A2.62,2.62,0,0,0,67.64,1710.3Z"/><path class="cls-2" d="M38.06,37.9a.17.17,0,0,0,.17.17.17.17,0,0,0,.16-.17.16.16,0,0,0-.16-.16A.16.16,0,0,0,38.06,37.9Z"/><circle class="cls-2" cx="38.23" cy="63.01" r="0.35"/><path class="cls-2" d="M37.69,88.13a.54.54,0,1,0,.54-.54A.54.54,0,0,0,37.69,88.13Z"/><path class="cls-2" d="M37.48,113.24a.75.75,0,1,0,.75-.75A.75.75,0,0,0,37.48,113.24Z"/><path class="cls-2" d="M39.19,138.35a1,1,0,1,0-1,1A1,1,0,0,0,39.19,138.35Z"/><path class="cls-2" d="M39.4,163.46a1.17,1.17,0,1,0-1.17,1.17A1.17,1.17,0,0,0,39.4,163.46Z"/><path class="cls-2" d="M39.55,188.57a1.33,1.33,0,1,0-1.32,1.32A1.33,1.33,0,0,0,39.55,188.57Z"/><path class="cls-2" d="M36.79,213.68a1.44,1.44,0,1,0,1.44-1.44A1.43,1.43,0,0,0,36.79,213.68Z"/><path class="cls-2" d="M36.7,238.79a1.53,1.53,0,1,0,1.53-1.53A1.52,1.52,0,0,0,36.7,238.79Z"/><path class="cls-2" d="M36.6,263.9a1.63,1.63,0,1,0,1.63-1.62A1.63,1.63,0,0,0,36.6,263.9Z"/><path class="cls-2" d="M36.46,289a1.77,1.77,0,1,0,1.77-1.77A1.77,1.77,0,0,0,36.46,289Z"/><circle class="cls-2" cx="38.23" cy="314.13" r="2"/><path class="cls-2" d="M40.57,339.24a2.34,2.34,0,1,0-2.34,2.34A2.35,2.35,0,0,0,40.57,339.24Z"/><path class="cls-2" d="M41,364.35a2.8,2.8,0,1,0-2.8,2.8A2.8,2.8,0,0,0,41,364.35Z"/><path class="cls-2" d="M41.58,389.46a3.35,3.35,0,1,0-3.35,3.35A3.35,3.35,0,0,0,41.58,389.46Z"/><path class="cls-2" d="M33.26,414.57a5,5,0,1,0,5-5A5,5,0,0,0,33.26,414.57Z"/><path class="cls-2" d="M38.23,432.08a7.6,7.6,0,1,0,7.6,7.6A7.6,7.6,0,0,0,38.23,432.08Z"/><path class="cls-2" d="M29.59,464.79a8.64,8.64,0,1,0,8.64-8.64A8.64,8.64,0,0,0,29.59,464.79Z"/><path class="cls-2" d="M33.79,489.9a4.44,4.44,0,1,0,4.44-4.43A4.44,4.44,0,0,0,33.79,489.9Z"/><path class="cls-2" d="M41.4,515a3.18,3.18,0,1,0-3.17,3.18A3.17,3.17,0,0,0,41.4,515Z"/><path class="cls-2" d="M35.25,540.12a3,3,0,1,0,3-3A3,3,0,0,0,35.25,540.12Z"/><path class="cls-2" d="M35.29,565.24a2.94,2.94,0,1,0,2.94-2.94A2.93,2.93,0,0,0,35.29,565.24Z"/><path class="cls-2" d="M35.16,590.35a3.07,3.07,0,1,0,3.07-3.07A3.06,3.06,0,0,0,35.16,590.35Z"/><path class="cls-2" d="M34.88,615.46a3.35,3.35,0,1,0,3.35-3.35A3.35,3.35,0,0,0,34.88,615.46Z"/><path class="cls-2" d="M42,640.57a3.74,3.74,0,1,0-3.73,3.73A3.74,3.74,0,0,0,42,640.57Z"/><path class="cls-2" d="M38.23,669.85a4.17,4.17,0,1,0-4.17-4.17A4.17,4.17,0,0,0,38.23,669.85Z"/><path class="cls-2" d="M38.23,695.39a4.6,4.6,0,1,0-4.6-4.6A4.6,4.6,0,0,0,38.23,695.39Z"/><path class="cls-2" d="M38.23,720.89a5,5,0,1,0-5-5A5,5,0,0,0,38.23,720.89Z"/><path class="cls-2" d="M38.23,746.4A5.39,5.39,0,1,0,32.84,741,5.38,5.38,0,0,0,38.23,746.4Z"/><path class="cls-2" d="M38.23,772a5.89,5.89,0,1,0-5.89-5.89A5.88,5.88,0,0,0,38.23,772Z"/><path class="cls-2" d="M44.74,791.24a6.51,6.51,0,1,0-6.51,6.5A6.51,6.51,0,0,0,44.74,791.24Z"/><path class="cls-2" d="M45.41,816.35a7.19,7.19,0,1,0-7.18,7.18A7.19,7.19,0,0,0,45.41,816.35Z"/><path class="cls-2" d="M46.09,841.46a7.86,7.86,0,1,0-7.86,7.86A7.86,7.86,0,0,0,46.09,841.46Z"/><path class="cls-2" d="M46.71,866.57a8.48,8.48,0,1,0-8.48,8.48A8.48,8.48,0,0,0,46.71,866.57Z"/><circle class="cls-2" cx="38.23" cy="891.68" r="8.97" transform="translate(-800.21 585.77) rotate(-67.5)"/><path class="cls-2" d="M38.23,907.5a9.29,9.29,0,1,0,9.29,9.29A9.29,9.29,0,0,0,38.23,907.5Z"/><circle class="cls-2" cx="38.23" cy="941.9" r="9.47" transform="translate(-150.38 18.29) rotate(-9.22)"/><path class="cls-2" d="M38.23,957.43A9.59,9.59,0,1,0,47.81,967,9.58,9.58,0,0,0,38.23,957.43Z"/><path class="cls-2" d="M47.92,992.12a9.69,9.69,0,1,0-9.69,9.69A9.69,9.69,0,0,0,47.92,992.12Z"/><path class="cls-2" d="M38.23,1007.48a9.76,9.76,0,1,0,9.75,9.76A9.75,9.75,0,0,0,38.23,1007.48Z"/><path class="cls-2" d="M38.23,1032.57a9.78,9.78,0,1,0,9.78,9.78A9.78,9.78,0,0,0,38.23,1032.57Z"/><path class="cls-2" d="M38.23,1057.7a9.76,9.76,0,1,0,9.76,9.76A9.76,9.76,0,0,0,38.23,1057.7Z"/><path class="cls-2" d="M38.23,1102.26a9.69,9.69,0,1,0-9.69-9.69A9.69,9.69,0,0,0,38.23,1102.26Z"/><circle class="cls-2" cx="38.23" cy="1117.68" r="9.58" transform="translate(-178.54 20.56) rotate(-9.22)"/><path class="cls-2" d="M47.65,1142.79a9.42,9.42,0,1,0-9.42,9.42A9.42,9.42,0,0,0,47.65,1142.79Z"/><path class="cls-2" d="M47.44,1167.9a9.21,9.21,0,1,0-9.21,9.21A9.22,9.22,0,0,0,47.44,1167.9Z"/><path class="cls-2" d="M38.23,1202a9,9,0,1,0-9-9A9,9,0,0,0,38.23,1202Z"/><path class="cls-2" d="M38.23,1226.85a8.73,8.73,0,1,0-8.73-8.73A8.72,8.72,0,0,0,38.23,1226.85Z"/><path class="cls-2" d="M46.68,1243.24a8.45,8.45,0,1,0-8.45,8.44A8.45,8.45,0,0,0,46.68,1243.24Z"/><path class="cls-2" d="M38.23,1276.51a8.17,8.17,0,1,0-8.17-8.16A8.16,8.16,0,0,0,38.23,1276.51Z"/><path class="cls-2" d="M46.08,1293.46a7.85,7.85,0,1,0-7.85,7.85A7.85,7.85,0,0,0,46.08,1293.46Z"/><path class="cls-2" d="M45.71,1318.57a7.48,7.48,0,1,0-7.48,7.48A7.48,7.48,0,0,0,45.71,1318.57Z"/><path class="cls-2" d="M45.27,1343.68a7,7,0,1,0-7,7A7,7,0,0,0,45.27,1343.68Z"/><path class="cls-2" d="M44.77,1368.79a6.54,6.54,0,1,0-6.54,6.54A6.54,6.54,0,0,0,44.77,1368.79Z"/><path class="cls-2" d="M44.21,1393.9a6,6,0,1,0-6,6A6,6,0,0,0,44.21,1393.9Z"/><path class="cls-2" d="M43.61,1419a5.39,5.39,0,1,0-5.38,5.39A5.38,5.38,0,0,0,43.61,1419Z"/><path class="cls-2" d="M33.46,1444.12a4.77,4.77,0,1,0,4.77-4.76A4.77,4.77,0,0,0,33.46,1444.12Z"/><path class="cls-2" d="M38.23,1473.39a4.16,4.16,0,1,0-4.16-4.16A4.15,4.15,0,0,0,38.23,1473.39Z"/><path class="cls-2" d="M38.23,1497.9a3.56,3.56,0,1,0-3.56-3.55A3.55,3.55,0,0,0,38.23,1497.9Z"/><path class="cls-2" d="M38.23,1522.46a3,3,0,1,0-3-3A3,3,0,0,0,38.23,1522.46Z"/><path class="cls-2" d="M35.75,1544.57a2.48,2.48,0,1,0,2.48-2.48A2.48,2.48,0,0,0,35.75,1544.57Z"/><path class="cls-2" d="M40.24,1569.68a2,2,0,1,0-2,2A2,2,0,0,0,40.24,1569.68Z"/><circle class="cls-2" cx="38.23" cy="1594.79" r="1.76"/><path class="cls-2" d="M38.23,1621.58a1.68,1.68,0,1,0-1.68-1.68A1.68,1.68,0,0,0,38.23,1621.58Z"/><path class="cls-2" d="M38.23,1646.43a1.42,1.42,0,1,0-1.42-1.42A1.42,1.42,0,0,0,38.23,1646.43Z"/><path class="cls-2" d="M38.23,1671.16a1,1,0,1,0-1-1A1,1,0,0,0,38.23,1671.16Z"/><path class="cls-2" d="M37.65,1695.23a.58.58,0,1,0,.58-.57A.58.58,0,0,0,37.65,1695.23Z"/><path class="cls-2" d="M14.18,2.74a2.75,2.75,0,1,0-2.75,2.75A2.75,2.75,0,0,0,14.18,2.74Z"/><circle class="cls-2" cx="11.43" cy="27.85" r="2.49"/><circle class="cls-2" cx="11.43" cy="52.97" r="2.26"/><path class="cls-2" d="M9.36,78.08A2.07,2.07,0,1,0,11.43,76,2.07,2.07,0,0,0,9.36,78.08Z"/><circle class="cls-2" cx="11.43" cy="103.19" r="1.91"/><path class="cls-2" d="M11.43,126.53a1.77,1.77,0,1,0,1.77,1.77A1.76,1.76,0,0,0,11.43,126.53Z"/><path class="cls-2" d="M11.43,151.77a1.64,1.64,0,1,0,1.65,1.64A1.63,1.63,0,0,0,11.43,151.77Z"/><path class="cls-2" d="M11.43,177A1.55,1.55,0,1,0,13,178.52,1.54,1.54,0,0,0,11.43,177Z"/><circle class="cls-2" cx="11.43" cy="203.63" r="1.45"/><path class="cls-2" d="M10,228.74a1.39,1.39,0,1,0,1.39-1.39A1.39,1.39,0,0,0,10,228.74Z"/><path class="cls-2" d="M10.1,253.85a1.33,1.33,0,1,0,1.33-1.33A1.34,1.34,0,0,0,10.1,253.85Z"/><circle class="cls-2" cx="11.43" cy="278.97" r="1.29"/><path class="cls-2" d="M12.7,304.08a1.27,1.27,0,1,0-2.53,0,1.27,1.27,0,0,0,2.53,0Z"/><path class="cls-2" d="M10.18,329.19a1.26,1.26,0,1,0,1.25-1.26A1.25,1.25,0,0,0,10.18,329.19Z"/><path class="cls-2" d="M10.18,354.3a1.26,1.26,0,1,0,1.25-1.25A1.25,1.25,0,0,0,10.18,354.3Z"/><path class="cls-2" d="M10.16,379.41a1.27,1.27,0,1,0,1.27-1.27A1.27,1.27,0,0,0,10.16,379.41Z"/><path class="cls-2" d="M11.43,405.81a1.29,1.29,0,1,0-1.29-1.29A1.28,1.28,0,0,0,11.43,405.81Z"/><path class="cls-2" d="M11.43,431a1.34,1.34,0,1,0-1.33-1.34A1.34,1.34,0,0,0,11.43,431Z"/><circle class="cls-2" cx="11.43" cy="454.74" r="1.38"/><path class="cls-2" d="M11.43,481.3A1.45,1.45,0,1,0,10,479.85,1.44,1.44,0,0,0,11.43,481.3Z"/><circle class="cls-2" cx="11.43" cy="504.97" r="1.52"/><path class="cls-2" d="M11.43,531.68a1.6,1.6,0,1,0-1.6-1.6A1.6,1.6,0,0,0,11.43,531.68Z"/><path class="cls-2" d="M11.43,556.88a1.69,1.69,0,1,0-1.69-1.69A1.7,1.7,0,0,0,11.43,556.88Z"/><path class="cls-2" d="M11.43,582.1a1.8,1.8,0,1,0-1.8-1.8A1.8,1.8,0,0,0,11.43,582.1Z"/><circle class="cls-2" cx="11.43" cy="605.41" r="1.91"/><path class="cls-2" d="M11.43,632.57a2,2,0,1,0-2-2.05A2,2,0,0,0,11.43,632.57Z"/><path class="cls-2" d="M11.43,653.4a2.23,2.23,0,1,0,2.23,2.23A2.23,2.23,0,0,0,11.43,653.4Z"/><path class="cls-2" d="M11.43,678.26a2.49,2.49,0,1,0,2.48,2.48A2.48,2.48,0,0,0,11.43,678.26Z"/><path class="cls-2" d="M11.43,703.06a2.79,2.79,0,1,0,2.79,2.79A2.79,2.79,0,0,0,11.43,703.06Z"/><path class="cls-2" d="M11.43,727.81A3.16,3.16,0,1,0,14.59,731,3.15,3.15,0,0,0,11.43,727.81Z"/><path class="cls-2" d="M11.43,752.5A3.58,3.58,0,1,0,15,756.08,3.58,3.58,0,0,0,11.43,752.5Z"/><path class="cls-2" d="M15.49,781.19a4.06,4.06,0,1,0-4.06,4A4.06,4.06,0,0,0,15.49,781.19Z"/><path class="cls-2" d="M11.43,801.72A4.58,4.58,0,1,0,16,806.3,4.58,4.58,0,0,0,11.43,801.72Z"/><circle class="cls-2" cx="11.43" cy="831.41" r="5.15"/><path class="cls-2" d="M11.43,850.77a5.75,5.75,0,1,0,5.75,5.75A5.76,5.76,0,0,0,11.43,850.77Z"/><path class="cls-2" d="M11.43,875.27a6.36,6.36,0,1,0,6.36,6.36A6.36,6.36,0,0,0,11.43,875.27Z"/><circle class="cls-2" cx="11.43" cy="906.74" r="6.98" transform="translate(-208.02 26.88) rotate(-13.28)"/><circle class="cls-2" cx="11.43" cy="931.85" r="7.59" transform="translate(-149.12 13.86) rotate(-9.22)"/><path class="cls-2" d="M19.62,957a8.19,8.19,0,1,0-8.19,8.19A8.19,8.19,0,0,0,19.62,957Z"/><circle class="cls-2" cx="11.43" cy="982.08" r="8.75" transform="translate(-947 767.57) rotate(-76.72)"/><circle class="cls-2" cx="11.43" cy="1007.19" r="9.29"/><path class="cls-2" d="M21.21,1032.3a9.78,9.78,0,1,0-9.78,9.77A9.77,9.77,0,0,0,21.21,1032.3Z"/><path class="cls-2" d="M21.63,1057.41a10.2,10.2,0,1,0-10.2,10.2A10.2,10.2,0,0,0,21.63,1057.41Z"/><path class="cls-2" d="M11.43,1072A10.56,10.56,0,1,0,22,1082.52,10.56,10.56,0,0,0,11.43,1072Z"/><path class="cls-2" d="M11.43,1118.51A10.88,10.88,0,1,0,.56,1107.63,10.88,10.88,0,0,0,11.43,1118.51Z"/><path class="cls-2" d="M.31,1132.74a11.12,11.12,0,1,0,11.12-11.12A11.12,11.12,0,0,0,.31,1132.74Z"/><path class="cls-2" d="M11.43,1146.55a11.31,11.31,0,1,0,11.31,11.3A11.3,11.3,0,0,0,11.43,1146.55Z"/><path class="cls-2" d="M11.43,1171.53A11.44,11.44,0,1,0,22.87,1183,11.43,11.43,0,0,0,11.43,1171.53Z"/><circle class="cls-2" cx="11.43" cy="1208.08" r="11.22" transform="translate(-461.44 96.33) rotate(-22.5)"/><path class="cls-2" d="M11.43,1243.25a10.07,10.07,0,1,0-10.06-10.06A10.07,10.07,0,0,0,11.43,1243.25Z"/><path class="cls-2" d="M11.43,1266.47a8.18,8.18,0,1,0-8.17-8.17A8.17,8.17,0,0,0,11.43,1266.47Z"/><path class="cls-2" d="M11.43,1277.2a6.21,6.21,0,1,0,6.21,6.21A6.21,6.21,0,0,0,11.43,1277.2Z"/><path class="cls-2" d="M16.26,1308.52a4.83,4.83,0,1,0-4.83,4.83A4.83,4.83,0,0,0,16.26,1308.52Z"/><path class="cls-2" d="M15.65,1333.63a4.22,4.22,0,1,0-4.22,4.22A4.22,4.22,0,0,0,15.65,1333.63Z"/><path class="cls-2" d="M15.23,1358.74a3.8,3.8,0,1,0-3.8,3.81A3.8,3.8,0,0,0,15.23,1358.74Z"/><path class="cls-2" d="M14.84,1383.85a3.41,3.41,0,1,0-3.41,3.4A3.41,3.41,0,0,0,14.84,1383.85Z"/><path class="cls-2" d="M11.43,1412a3,3,0,1,0-3-3A3,3,0,0,0,11.43,1412Z"/><path class="cls-2" d="M11.43,1431.41a2.67,2.67,0,1,0,2.67,2.67A2.66,2.66,0,0,0,11.43,1431.41Z"/><circle class="cls-2" cx="11.43" cy="1459.19" r="2.33"/><path class="cls-2" d="M11.43,1482.28a2,2,0,1,0,2,2A2,2,0,0,0,11.43,1482.28Z"/><path class="cls-2" d="M11.43,1507.67a1.74,1.74,0,1,0,1.74,1.74A1.73,1.73,0,0,0,11.43,1507.67Z"/><path class="cls-2" d="M11.43,1533.05a1.47,1.47,0,1,0,1.47,1.47A1.47,1.47,0,0,0,11.43,1533.05Z"/><path class="cls-2" d="M11.43,1558.39a1.24,1.24,0,1,0,1.24,1.24A1.24,1.24,0,0,0,11.43,1558.39Z"/><path class="cls-2" d="M11.43,1583.71a1,1,0,1,0,1,1A1,1,0,0,0,11.43,1583.71Z"/><path class="cls-2" d="M11.43,1609a.86.86,0,1,0,0,1.72.86.86,0,0,0,0-1.72Z"/><path class="cls-2" d="M11.43,1634.24a.73.73,0,0,0,0,1.45.73.73,0,1,0,0-1.45Z"/><path class="cls-2" d="M11.43,1659.45a.63.63,0,1,0,.63.63A.63.63,0,0,0,11.43,1659.45Z"/><path class="cls-2" d="M11.43,1685.77a.58.58,0,1,0-.58-.58A.58.58,0,0,0,11.43,1685.77Z"/><path class="cls-2" d="M11.43,1710.9a.61.61,0,1,0-.6-.6A.6.6,0,0,0,11.43,1710.9Z"/></g></g></g></svg>