<svg width="50" height="50" viewBox="0 0 50 50" fill="none" xmlns="http://www.w3.org/2000/svg">
<g clip-path="url(#clip0_89_201)">
<path d="M27.029 50C26.8314 50 26.6354 49.9626 26.4481 49.8875C26.0605 49.7334 25.7523 49.4293 25.5898 49.0437L19.7437 35.1917L12.796 41.3334C12.5042 41.6332 11.9812 41.848 11.4395 41.848C10.302 41.848 9.375 40.9187 9.375 39.7751V2.07291C9.375 0.92926 10.302 0 11.4395 0C11.9209 0 12.3875 0.16861 12.7834 0.489426L40.0352 28.1231C40.4606 28.6457 40.625 29.1061 40.625 29.5853C40.625 30.727 39.698 31.6582 38.5605 31.6582H29.3041L34.9377 45.0188C35.2707 45.8084 34.9064 46.7167 34.1209 47.0585L27.652 49.8707C27.454 49.9561 27.2415 50 27.029 50ZM20.3396 31.0188C20.4563 31.0188 20.5708 31.0314 20.6875 31.0585C21.1769 31.1707 21.5855 31.5105 21.7793 31.9752L27.8561 46.3749L31.4583 44.8082L25.5104 30.7022C25.3063 30.2208 25.3582 29.6665 25.6477 29.2313C25.9377 28.796 26.4271 28.5332 26.9501 28.5332H36.0645L12.5 4.63943V37.429L19.3043 31.4106C19.5915 31.1562 19.9623 31.0188 20.3396 31.0188ZM10.7708 38.9584C10.7269 38.9915 10.6876 39.027 10.6499 39.0644L10.7708 38.9584Z" fill="#323232"/>
</g>
<defs>
<clipPath id="clip0_89_201">
<rect width="50" height="50" fill="white"/>
</clipPath>
</defs>
</svg>
