<svg width="49" height="49" viewBox="0 0 49 49" fill="none" xmlns="http://www.w3.org/2000/svg">
<path d="M47.25 10.5H22.75C21.784 10.5 21 11.284 21 12.25C21 13.216 21.784 14 22.75 14H45.5V30.7755L39.7373 25.0127C39.053 24.3285 37.947 24.3285 37.2627 25.0127L31.5 30.7755L25.7373 25.0127C25.053 24.3285 23.947 24.3285 23.2628 25.0127L14 34.2755V28C14 27.034 13.216 26.25 12.25 26.25C11.284 26.25 10.5 27.034 10.5 28V47.25C10.5 48.216 11.284 49 12.25 49H47.25C48.2178 49 49 48.216 49 47.25V12.25C49 11.284 48.2178 10.5 47.25 10.5ZM14 45.5V39.2245L24.5 28.7245L35.5127 39.7373C35.854 40.0785 36.302 40.25 36.75 40.25C37.198 40.25 37.646 40.0785 37.9873 39.7373C38.6715 39.053 38.6715 37.947 37.9873 37.2627L33.9745 33.25L38.5 28.7245L45.5 35.7245V45.5H14Z" fill="#323232"/>
<path d="M30.7755 21L32.0127 22.2372C32.354 22.5785 32.802 22.75 33.25 22.75C33.698 22.75 34.146 22.5785 34.4873 22.2372L35.7245 21H36.75C37.7177 21 38.5 20.216 38.5 19.25C38.5 18.284 37.7177 17.5 36.75 17.5H35C34.5345 17.5 34.09 17.6838 33.7627 18.0128L33.25 18.5255L32.7373 18.0128C32.41 17.6838 31.9655 17.5 31.5 17.5H29.75C28.7823 17.5 28 18.284 28 19.25C28 20.216 28.7823 21 29.75 21H30.7755Z" fill="#323232"/>
<path d="M19.25 22.75V7C19.25 6.53625 19.0662 6.09 18.7372 5.76275L13.4872 0.51275C13.16 0.18375 12.7137 0 12.25 0H1.75C0.784 0 0 0.784 0 1.75V22.75C0 23.716 0.784 24.5 1.75 24.5H17.5C18.466 24.5 19.25 23.716 19.25 22.75ZM15.75 21H3.5V3.5H11.5255L15.75 7.7245V21Z" fill="#323232"/>
<path d="M7 5.25C6.034 5.25 5.25 6.034 5.25 7C5.25 7.966 6.034 8.75 7 8.75H10.5C11.466 8.75 12.25 7.966 12.25 7C12.25 6.034 11.466 5.25 10.5 5.25H7Z" fill="#323232"/>
<path d="M7 10.5C6.034 10.5 5.25 11.284 5.25 12.25C5.25 13.216 6.034 14 7 14H12.25C13.216 14 14 13.216 14 12.25C14 11.284 13.216 10.5 12.25 10.5H7Z" fill="#323232"/>
<path d="M12.25 15.75H7C6.034 15.75 5.25 16.534 5.25 17.5C5.25 18.466 6.034 19.25 7 19.25H12.25C13.216 19.25 14 18.466 14 17.5C14 16.534 13.216 15.75 12.25 15.75Z" fill="#323232"/>
</svg>
