<svg width="50" height="32" viewBox="0 0 50 32" fill="none" xmlns="http://www.w3.org/2000/svg">
<path d="M25 3.10413C31.3896 3.10413 36.7981 6.08694 40.2102 8.59016C44.2531 11.5557 46.3332 14.4232 46.872 15.5172C46.3319 16.6113 44.253 19.4805 40.2102 22.4451C36.7984 24.9488 31.3899 27.932 25 27.932C18.6101 27.932 13.2013 24.9488 9.78926 22.4451C5.74648 19.4805 3.66709 16.6113 3.12686 15.5172C3.66709 14.4232 5.74648 11.5557 9.78848 8.59016C13.2013 6.08694 18.6102 3.10413 25 3.10413ZM25 0C11.1934 0 0 12.4148 0 15.5172C0 18.6214 11.1934 31.0345 25 31.0345C38.8066 31.0345 50 18.6214 50 15.5172C50 12.4148 38.807 0 25 0ZM25 6.20656C23.202 6.20662 21.4444 6.75273 19.9494 7.77584C18.4545 8.79894 17.2893 10.2531 16.6013 11.9544C15.9133 13.6557 15.7333 15.5278 16.0841 17.3338C16.4349 19.1399 17.3007 20.7989 18.5721 22.101C19.8435 23.4031 21.4634 24.2898 23.2269 24.649C24.9903 25.0083 26.8182 24.8239 28.4793 24.1192C30.1404 23.4145 31.5602 22.2211 32.5591 20.6899C33.558 19.1588 34.0912 17.3587 34.0912 15.5172C34.091 13.0479 33.1331 10.6798 31.4282 8.93375C29.7233 7.1877 27.411 6.20672 25 6.20656ZM22.5528 15.5172C21.7921 15.5173 21.0484 15.2864 20.4159 14.8536C19.7833 14.4208 19.2903 13.8057 18.9991 13.0859C18.7079 12.3661 18.6316 11.574 18.78 10.8099C18.9283 10.0457 19.2946 9.34379 19.8325 8.79283C20.3704 8.24188 21.0557 7.86666 21.8018 7.71463C22.5479 7.56259 23.3213 7.64057 24.0241 7.9387C24.7269 8.23684 25.3277 8.74173 25.7503 9.38953C26.1729 10.0373 26.3985 10.799 26.3985 11.5781C26.3986 12.6227 25.9934 13.6246 25.2722 14.3633C24.551 15.1021 23.5728 15.5171 22.5528 15.5172Z" fill="#323232"/>
</svg>
