<svg width="22" height="11" viewBox="0 0 22 11" fill="none" xmlns="http://www.w3.org/2000/svg">
<path d="M7.04 7.28924C7.04 5.72668 5.7816 4.46069 4.2284 4.46069H2.948V6.2313H4.2416C4.8136 6.2313 5.28 6.70051 5.28 7.27596V8.88721H7.04V7.28924Z" fill="#753BBD"/>
<path d="M4.22847 0.0341797H1.76007V1.80479H4.24167C4.81367 1.80479 5.28007 2.274 5.28007 2.84944V4.46069H7.04007V2.86272C7.04007 1.30016 5.78167 0.0341797 4.22847 0.0341797Z" fill="#753BBD"/>
<path d="M0 7.82917C0 9.39173 1.2584 10.6577 2.8116 10.6577H5.28V8.88711H2.7984C2.2264 8.88711 1.76 8.4179 1.76 7.84245V1.80469H0V7.82917Z" fill="#753BBD"/>
<path d="M9.68004 3.41604V0.0341797H7.92004V3.40276C7.92004 4.96532 9.17844 6.2313 10.7316 6.2313H11.748V4.46069H10.7184C10.1464 4.46069 9.68004 3.99148 9.68004 3.41604Z" fill="#753BBD"/>
<path d="M22 2.86272C22 1.30016 20.7416 0.0341797 19.1884 0.0341797H14.96V1.80479H19.2016C19.7736 1.80479 20.24 2.274 20.24 2.84944V4.46069H22V2.86272Z" fill="#753BBD"/>
<path d="M14.0801 1.80469H12.3201V10.6577H14.0801V1.80469Z" fill="#753BBD"/>
<path d="M20.24 6.2313V4.46069H14.96V6.2313V7.82927C14.96 9.39183 16.2184 10.6578 17.7716 10.6578H22V8.88721H17.7584C17.1864 8.88721 16.72 8.418 16.72 7.84255V6.2313H20.24Z" fill="#753BBD"/>
</svg>
