<svg width="23" height="23" viewBox="0 0 23 23" fill="none" xmlns="http://www.w3.org/2000/svg">
<path d="M11.5491 18.7226V21.4737C11.5714 21.7656 11.3532 22.0221 11.0594 22.0442C10.7656 22.0663 10.5074 21.8496 10.4852 21.5577C10.4807 21.5267 10.4807 21.5002 10.4852 21.4692V18.7181C10.5074 18.4262 10.7656 18.2095 11.0594 18.2316C11.3221 18.2581 11.5313 18.4616 11.5491 18.7226ZM11.0194 0C10.7256 0 10.4852 0.238842 10.4852 0.53076V3.14033C10.4629 3.43225 10.681 3.68878 10.9749 3.7109C11.2687 3.73301 11.5269 3.51628 11.5491 3.22437C11.5536 3.19341 11.5536 3.16687 11.5491 3.13591V0.53076C11.5491 0.238842 11.3132 0 11.0194 0ZM3.73204 10.9292C3.73204 10.6373 3.49165 10.3985 3.19784 10.3985H0.575824C0.282016 10.3764 0.0238206 10.5931 0.00156245 10.885C-0.0206957 11.1769 0.197435 11.4335 0.491243 11.4556C0.522404 11.46 0.549114 11.46 0.580276 11.4556H3.20674C3.4961 11.4556 3.73204 11.2212 3.73204 10.9292ZM21.5119 10.3985H18.8854C18.5916 10.3764 18.3334 10.5931 18.3112 10.885C18.2889 11.1769 18.507 11.4335 18.8008 11.4556C18.832 11.46 18.8587 11.46 18.8899 11.4556H21.5163C21.8101 11.4335 22.0283 11.1769 22.006 10.885C21.9793 10.624 21.7701 10.4206 21.5119 10.3985ZM5.16101 16.1174L3.29578 17.9706C3.10435 18.1962 3.13552 18.5279 3.3581 18.7181C3.55842 18.8862 3.84778 18.8862 4.0481 18.7181L5.91334 16.8649C6.10476 16.6393 6.07805 16.3076 5.85102 16.1174C5.65514 15.9493 5.36134 15.9493 5.16101 16.1174ZM16.664 5.96663C16.8065 5.96663 16.94 5.90913 17.0424 5.81182L18.9077 3.95858C19.0991 3.73301 19.0679 3.40129 18.8454 3.2111C18.645 3.04302 18.3557 3.04302 18.1553 3.2111L16.2901 5.06433C16.0853 5.27222 16.0853 5.60836 16.2946 5.81624C16.3925 5.90913 16.526 5.96663 16.664 5.96663ZM4.05255 3.2111C3.82552 3.02091 3.4872 3.05187 3.29578 3.27302C3.12661 3.47205 3.12661 3.75955 3.29578 3.95858L5.16101 5.81182C5.35243 6.03739 5.68631 6.06393 5.91334 5.87374C6.14037 5.68355 6.16708 5.35183 5.97566 5.12626C5.95786 5.10414 5.9356 5.08203 5.91334 5.06433L4.05255 3.2111ZM17.038 16.1174C16.811 15.9272 16.4771 15.9582 16.2857 16.1793C16.1165 16.3784 16.1165 16.6659 16.2857 16.8649L18.1509 18.7181C18.3423 18.9437 18.6762 18.9702 18.9032 18.7801C19.1303 18.5899 19.157 18.2581 18.9655 18.0326C18.9477 18.0105 18.9255 17.9883 18.9032 17.9706L17.038 16.1174ZM17.4386 10.9248C17.4386 14.3969 14.594 17.2187 11.104 17.2187C7.61387 17.2187 4.76482 14.3969 4.76482 10.9248C4.76482 7.45275 7.60941 4.63088 11.0995 4.63088C14.5896 4.63088 17.4386 7.45275 17.4386 10.9248ZM10.9838 5.68798C8.14361 5.72336 5.77534 8.05428 5.77534 10.9248C5.77534 13.7953 8.14361 16.1263 10.9838 16.1616V5.68798Z" fill="black"/>
</svg>
