<svg width="17" height="18" viewBox="0 0 17 18" fill="none" xmlns="http://www.w3.org/2000/svg">
<path d="M3.191 10.2062C2.7024 9.71751 2.7024 8.92531 3.191 8.43666L7.81091 3.81676C7.85 3.77766 7.89167 3.74119 7.93558 3.70758C8.4845 3.28782 9.26977 3.39251 9.68953 3.94143L16.7428 13.8868C17.1238 14.3849 17.0771 15.0882 16.6336 15.5316L14.9058 17.2594C14.4624 17.7028 13.7591 17.7495 13.261 17.3686L3.31567 10.3152C3.2718 10.2817 3.23013 10.2453 3.191 10.2062ZM2.50934 7.35602L1.63015 5.59767C1.50975 5.35684 1.55694 5.06594 1.74734 4.87551L4.24975 2.3731C4.44014 2.1827 4.73104 2.13547 4.97187 2.2559L6.7303 3.13514L2.50934 7.35602ZM3.18178 1.67159L1.04583 3.80753L0.183332 2.94504C0.0157433 2.77749 -0.0427532 2.52964 0.0321922 2.30484L0.657808 0.428046C0.804874 -0.0131518 1.3648 -0.145345 1.69367 0.183518L3.18178 1.67159Z" fill="#74BC35"/>
</svg>
