<svg width="40" height="40" viewBox="0 0 40 40" fill="none" xmlns="http://www.w3.org/2000/svg">
<g clip-path="url(#clip0_79_99)">
<path d="M20.9227 34.041V39.043C20.9632 39.5738 20.5666 40.0402 20.0324 40.0804C19.4982 40.1206 19.0287 39.7266 18.9883 39.1958C18.9802 39.1395 18.9802 39.0913 18.9883 39.035V34.033C19.0287 33.5022 19.4982 33.1082 20.0324 33.1484C20.5099 33.1966 20.8903 33.5665 20.9227 34.041ZM19.9595 0C19.4253 0 18.9883 0.434258 18.9883 0.965018V5.70969C18.9478 6.24045 19.3444 6.70688 19.8786 6.74709C20.4128 6.78729 20.8822 6.39325 20.9227 5.86249C20.9308 5.80619 20.9308 5.75794 20.9227 5.70165V0.965018C20.9227 0.434258 20.4937 0 19.9595 0ZM6.70984 19.8713C6.70984 19.3406 6.27277 18.9063 5.73857 18.9063H0.971269C0.437072 18.8661 -0.0323733 19.2602 -0.0728428 19.7909C-0.113312 20.3217 0.283288 20.7881 0.817485 20.8283C0.874142 20.8363 0.922706 20.8363 0.979363 20.8283H5.75476C6.28086 20.8283 6.70984 20.4021 6.70984 19.8713ZM39.0368 18.9063H34.2614C33.7272 18.8661 33.2578 19.2602 33.2173 19.7909C33.1769 20.3217 33.5735 20.7881 34.1077 20.8283C34.1643 20.8363 34.2129 20.8363 34.2695 20.8283H39.0449C39.5791 20.7881 39.9757 20.3217 39.9352 19.7909C39.8867 19.3164 39.5063 18.9465 39.0368 18.9063ZM9.30797 29.3044L5.91664 32.6739C5.5686 33.084 5.62526 33.6872 6.02995 34.033C6.39417 34.3386 6.92028 34.3386 7.2845 34.033L10.6758 30.6635C11.0239 30.2533 10.9753 29.6502 10.5625 29.3044C10.2064 28.9988 9.6722 28.9988 9.30797 29.3044ZM30.2226 10.8484C30.4816 10.8484 30.7244 10.7439 30.9106 10.5669L34.3019 7.19743C34.6499 6.78729 34.5933 6.18416 34.1886 5.83836C33.8244 5.53277 33.2983 5.53277 32.934 5.83836L29.5427 9.20788C29.1704 9.58585 29.1704 10.197 29.5508 10.575C29.7289 10.7439 29.9717 10.8484 30.2226 10.8484ZM7.2926 5.83836C6.87981 5.49256 6.26467 5.54885 5.91664 5.95094C5.60907 6.31283 5.60907 6.83555 5.91664 7.19743L9.30797 10.5669C9.65601 10.9771 10.2631 11.0253 10.6758 10.6795C11.0886 10.3337 11.1372 9.7306 10.7892 9.32047C10.7568 9.28026 10.7163 9.24005 10.6758 9.20788L7.2926 5.83836ZM30.9025 29.3044C30.4897 28.9586 29.8826 29.0149 29.5346 29.417C29.227 29.7789 29.227 30.3016 29.5346 30.6635L32.9259 34.033C33.274 34.4431 33.881 34.4914 34.2938 34.1456C34.7066 33.7998 34.7552 33.1966 34.4071 32.7865C34.3747 32.7463 34.3343 32.7061 34.2938 32.6739L30.9025 29.3044ZM31.6309 19.8633C31.6309 26.1761 26.4589 31.3068 20.1133 31.3068C13.7677 31.3068 8.58762 26.1761 8.58762 19.8633C8.58762 13.5505 13.7596 8.41978 20.1052 8.41978C26.4508 8.41978 31.6309 13.5505 31.6309 19.8633ZM19.8948 10.3418C14.7309 10.4061 10.4249 14.6441 10.4249 19.8633C10.4249 25.0824 14.7309 29.3205 19.8948 29.3848V10.3418Z" fill="#323232"/>
</g>
<defs>
<clipPath id="clip0_79_99">
<rect width="40" height="40" fill="white"/>
</clipPath>
</defs>
</svg>
