<?xml version="1.0" encoding="UTF-8"?><svg id="Camada_2" data-name="Camada 2" xmlns="http://www.w3.org/2000/svg" viewBox="0 0 250.72 252.45"><defs><style>.cls-1 {
        fill: #65bc95;
      }

      .cls-2 {
        fill: #9ed1b6;
      }

      .cls-3 {
        fill: #9eddbc;
      }

      .cls-4 {
        fill: #41a2a1;
      }

      .cls-5 {
        fill: #008f8b;
      }

      .cls-6 {
        fill: none;
        stroke: #008f8b;
        stroke-dasharray: 3 3;
        stroke-linecap: round;
        stroke-linejoin: round;
      }

      .cls-7 {
        fill: #bedfcb;
      }</style></defs><g id="Layer_1" data-name="Layer 1"><g><rect class="cls-3" width="250.67" height="252.44"/><rect class="cls-6" x="24.74" y="25.04" width="201.19" height="202.37" rx="15.11" ry="15.11"/><polygon class="cls-1" points="250.67 252.44 250.65 179.52 204.64 184.69 117.17 252.41 250.67 252.44"/><polygon class="cls-5" points="250.66 186.6 250.59 177.25 198.38 177.63 175.55 222.05 250.66 186.6"/><polygon class="cls-4" points="119.31 252.43 200.9 207.47 198.46 177.63 116.2 252.45 119.31 252.43"/><polygon class="cls-7" points="250.66 186.6 212.6 204.51 224.81 223.24 250.72 241.26 250.66 186.6"/><polygon class="cls-2" points="250.22 231.16 198.48 177.63 172.78 222.83 250.33 245.82 250.22 231.16"/><g><path class="cls-5" d="M68.43,101.5h-7.62v-17.42h7.36c3,0,5.16.68,6.47,2.03,1.32,1.35,1.98,3.51,1.98,6.49s-.63,5.2-1.9,6.68c-1.27,1.48-3.36,2.22-6.29,2.22ZM70.54,92.89c0-1.56-.16-2.6-.48-3.12-.32-.52-1.04-.78-2.15-.78h-1.07v7.59h1.07c.9,0,1.57-.22,2-.68.42-.45.62-1.46.62-3.02Z"/><path class="cls-5" d="M77.82,101.5v-17.42h6.03v17.42h-6.03Z"/><path class="cls-5" d="M98.67,89.09c-2.44-.26-4.22-.39-5.33-.39s-1.75.03-1.94.09c-.18.06-.27.19-.27.38s.1.34.31.44c.21.1.86.28,1.96.52,1.1.24,2,.48,2.7.71.7.23,1.33.56,1.9.99s.94.95,1.12,1.56.27,1.44.27,2.48c0,2.15-.57,3.68-1.72,4.6-1.14.92-2.87,1.38-5.17,1.38-1.11,0-2.28-.08-3.5-.23s-2.16-.31-2.82-.47l-1.01-.23.26-4.6c2.65.38,4.83.57,6.53.57.9,0,1.35-.2,1.35-.6,0-.17-.1-.3-.31-.38s-.77-.19-1.69-.33c-2.43-.38-4.08-.97-4.95-1.78-.88-.81-1.31-2.13-1.31-3.97,0-2.34.56-3.94,1.69-4.81,1.13-.87,2.86-1.3,5.2-1.3,1.65,0,3.58.17,5.8.49l1.09.18-.16,4.68Z"/><path class="cls-5" d="M113.15,101.16c-1.84.45-3.72.68-5.64.68s-3.41-.27-4.45-.82c-1.04-.55-1.79-1.46-2.25-2.74-.46-1.28-.69-3.13-.69-5.54,0-3.45.53-5.81,1.6-7.08,1.07-1.27,3.1-1.91,6.1-1.91,1.25,0,2.72.17,4.42.52l.91.18-.16,4.65c-1.42-.17-2.73-.26-3.94-.26s-1.98.23-2.33.69c-.35.46-.52,1.41-.52,2.85s.08,2.44.25,2.99.43.92.79,1.1c.36.18.95.27,1.77.27l4.06-.16.08,4.58Z"/><path class="cls-5" d="M121.81,97h-1.48v4.5h-6.03v-17.42h7.33c2.69,0,4.61.45,5.77,1.34s1.74,2.55,1.74,4.97-.64,4.15-1.92,5.19l1.72,5.93h-6.14l-.99-4.5ZM121.78,92.24c.85,0,1.27-.57,1.27-1.7s-.48-1.7-1.43-1.7h-1.33v3.41h1.48Z"/><path class="cls-5" d="M130.34,101.5v-17.42h6.03v17.42h-6.03Z"/><path class="cls-5" d="M148.55,102.55c.51.3.77.93.77,1.89s-.27,1.65-.82,2.11c-.55.45-1.37.68-2.48.68-.9,0-1.86-.07-2.86-.21l-.44-.08.1-2.03c.54.02.95.03,1.25.03.66,0,.99-.19.99-.57,0-.21-.07-.35-.21-.42-.14-.07-.4-.1-.78-.1h-.23v-2.05c-2.38-.14-4-.86-4.89-2.16s-1.33-3.64-1.33-7.01.53-5.69,1.6-6.97c1.07-1.27,3.1-1.91,6.1-1.91,1.25,0,2.72.17,4.42.52l.91.18-.16,4.65c-1.42-.17-2.73-.26-3.94-.26s-1.98.23-2.33.69c-.35.46-.52,1.41-.52,2.85s.08,2.44.25,2.99.43.92.79,1.1c.36.18.95.27,1.77.27l4.06-.16.08,4.58c-1.56.38-3.2.6-4.91.65v.26c1.37.02,2.31.18,2.82.48Z"/><path class="cls-5" d="M150.88,101.5l3.85-17.42h9.13l3.93,17.42h-6.08l-.49-2h-3.98l-.42,2h-5.93ZM163.63,81.89c-.18.17-.52.4-1,.68s-.95.42-1.4.42-1.14-.15-2.07-.44c-.93-.29-1.5-.44-1.73-.44-.47,0-1.05.16-1.74.47l-.36.18-.75-2.76c.29-.35.73-.69,1.3-1.03.57-.34,1.11-.51,1.62-.51s1.21.14,2.09.42,1.42.42,1.61.42c.35,0,.92-.16,1.72-.47l.39-.13.75,2.78c-.1.1-.25.24-.43.42ZM158.99,88.81l-.99,6.08h2.57l-.94-6.08h-.65Z"/><path class="cls-5" d="M184.63,92.79c0,3.17-.66,5.47-1.98,6.9-1.32,1.43-3.42,2.14-6.31,2.14s-4.99-.72-6.32-2.16c-1.33-1.44-1.99-3.74-1.99-6.9s.66-5.46,1.98-6.89c1.32-1.43,3.42-2.14,6.32-2.14s5,.71,6.32,2.14c1.32,1.43,1.98,3.73,1.98,6.9ZM174.12,92.79c0,1.47.14,2.54.43,3.18.29.65.88.98,1.79.98s1.5-.32,1.78-.96.42-1.71.42-3.21-.13-2.57-.4-3.2-.86-.95-1.78-.95-1.52.33-1.81.98c-.29.65-.43,1.71-.43,3.18Z"/><path class="cls-5" d="M64.81,132.7l3.85-17.42h9.13l3.93,17.42h-6.08l-.49-2h-3.98l-.42,2h-5.93ZM72.92,120.01l-.99,6.08h2.57l-.94-6.08h-.65Z"/><path class="cls-5" d="M94.65,132.36c-1.84.45-3.72.68-5.64.68s-3.41-.27-4.45-.82c-1.04-.55-1.79-1.46-2.25-2.74-.46-1.28-.69-3.13-.69-5.54,0-3.45.53-5.81,1.6-7.08,1.07-1.27,3.1-1.91,6.1-1.91,1.25,0,2.72.17,4.42.52l.91.18-.16,4.65c-1.42-.17-2.73-.26-3.94-.26s-1.98.23-2.33.69c-.35.46-.52,1.41-.52,2.85s.08,2.44.25,2.99.43.92.79,1.1c.36.18.95.27,1.77.27l4.06-.16.08,4.58Z"/><path class="cls-5" d="M95.8,132.7v-17.42h6.03v17.42h-6.03Z"/><path class="cls-5" d="M103.39,132.7v-17.42h8.97l1.35,6.66,1.12-6.66h9.23v17.42h-6.03v-8.97h-.29l-1.51,8.79h-5.04l-1.48-8.79h-.29v8.97h-6.03Z"/><path class="cls-5" d="M124.71,132.7l3.85-17.42h9.13l3.93,17.42h-6.08l-.49-2h-3.98l-.42,2h-5.93ZM132.82,120.01l-.99,6.08h2.57l-.94-6.08h-.65Z"/><path class="cls-5" d="M155.44,132.7h-7.62v-17.42h7.36c3,0,5.16.68,6.47,2.03,1.32,1.35,1.98,3.51,1.98,6.49s-.63,5.2-1.9,6.68c-1.27,1.48-3.36,2.22-6.29,2.22ZM157.55,124.09c0-1.56-.16-2.6-.48-3.12-.32-.52-1.04-.78-2.15-.78h-1.07v7.59h1.07c.9,0,1.57-.22,2-.68.42-.45.62-1.46.62-3.02Z"/><path class="cls-5" d="M163.4,132.7l3.85-17.42h9.13l3.93,17.42h-6.08l-.49-2h-3.98l-.42,2h-5.93ZM171.51,120.01l-.99,6.08h2.57l-.94-6.08h-.65Z"/><path class="cls-5" d="M89.74,163.9v-17.42h8.97l1.35,6.66,1.12-6.66h9.23v17.42h-6.03v-8.97h-.29l-1.51,8.79h-5.04l-1.48-8.79h-.29v8.97h-6.03Z"/><path class="cls-5" d="M128.19,155.19c0,3.17-.66,5.47-1.98,6.9-1.32,1.43-3.42,2.14-6.31,2.14s-4.99-.72-6.32-2.16c-1.33-1.44-1.99-3.74-1.99-6.9s.66-5.46,1.98-6.89c1.32-1.43,3.42-2.14,6.32-2.14s5,.71,6.32,2.14c1.32,1.43,1.98,3.73,1.98,6.9ZM117.69,155.19c0,1.47.14,2.54.43,3.18.29.65.88.98,1.79.98s1.5-.32,1.78-.96.42-1.71.42-3.21-.13-2.57-.4-3.2-.86-.95-1.78-.95-1.52.33-1.81.98c-.29.65-.43,1.71-.43,3.18Z"/><path class="cls-5" d="M137.01,163.9h-7.62v-17.42h7.36c3,0,5.16.68,6.47,2.03,1.32,1.35,1.98,3.51,1.98,6.49s-.63,5.2-1.9,6.68c-1.27,1.48-3.36,2.22-6.29,2.22ZM139.11,155.29c0-1.56-.16-2.6-.48-3.12-.32-.52-1.04-.78-2.15-.78h-1.07v7.59h1.07c.9,0,1.57-.22,2-.68.42-.45.62-1.46.62-3.02Z"/><path class="cls-5" d="M144.96,163.9l3.85-17.42h9.13l3.93,17.42h-6.08l-.49-2h-3.98l-.42,2h-5.93ZM153.08,151.21l-.99,6.08h2.57l-.94-6.08h-.65Z"/></g></g></g></svg>