<?xml version="1.0" encoding="UTF-8"?><svg id="Camada_2" data-name="Camada 2" xmlns="http://www.w3.org/2000/svg" viewBox="0 0 250.72 252.45"><defs><style>.cls-1 {
        fill: #65bc95;
      }

      .cls-2 {
        fill: #9ed1b6;
      }

      .cls-3 {
        fill: #9eddbc;
      }

      .cls-4 {
        fill: #41a2a1;
      }

      .cls-5 {
        fill: #008f8b;
      }

      .cls-6 {
        fill: none;
        stroke: #008f8b;
        stroke-dasharray: 3 3;
        stroke-linecap: round;
        stroke-linejoin: round;
      }

      .cls-7 {
        fill: #bedfcb;
      }</style></defs><g id="Layer_1" data-name="Layer 1"><g><rect class="cls-3" width="250.67" height="252.44"/><rect class="cls-6" x="24.74" y="25.04" width="201.19" height="202.37" rx="15.11" ry="15.11"/><polygon class="cls-1" points="250.67 252.44 250.65 179.52 204.64 184.69 117.17 252.41 250.67 252.44"/><polygon class="cls-5" points="250.66 186.6 250.59 177.25 198.38 177.63 175.55 222.05 250.66 186.6"/><polygon class="cls-4" points="119.31 252.43 200.9 207.47 198.46 177.63 116.2 252.45 119.31 252.43"/><polygon class="cls-7" points="250.66 186.6 212.6 204.51 224.81 223.24 250.72 241.26 250.66 186.6"/><polygon class="cls-2" points="250.22 231.16 198.48 177.63 172.78 222.83 250.33 245.82 250.22 231.16"/><g><path class="cls-5" d="M104.69,83.41v11.41c0,.5.13.86.38,1.07s.67.31,1.26.31,1-.1,1.25-.31.36-.56.36-1.07v-11.41h6.03v11.08c0,2.46-.62,4.19-1.85,5.19-1.23,1-3.17,1.5-5.81,1.5s-4.58-.49-5.81-1.46c-1.23-.97-1.85-2.68-1.85-5.12v-11.18h6.03Z"/><path class="cls-5" d="M128.69,88.43c-2.44-.26-4.22-.39-5.33-.39s-1.75.03-1.94.09c-.18.06-.27.19-.27.38s.1.34.31.44c.21.1.86.28,1.96.52,1.1.24,2,.48,2.7.71.7.23,1.33.56,1.9.99s.94.95,1.12,1.56.27,1.44.27,2.48c0,2.15-.57,3.68-1.72,4.6-1.14.92-2.87,1.38-5.17,1.38-1.11,0-2.28-.08-3.5-.23s-2.16-.31-2.82-.47l-1.01-.23.26-4.6c2.65.38,4.83.57,6.53.57.9,0,1.35-.2,1.35-.6,0-.17-.1-.3-.31-.38s-.77-.19-1.69-.33c-2.43-.38-4.08-.97-4.95-1.78-.88-.81-1.31-2.13-1.31-3.97,0-2.34.56-3.94,1.69-4.81,1.13-.87,2.86-1.3,5.2-1.3,1.65,0,3.58.17,5.8.49l1.09.18-.16,4.68Z"/><path class="cls-5" d="M146.68,92.12c0,3.17-.66,5.47-1.98,6.9-1.32,1.43-3.42,2.14-6.31,2.14s-4.99-.72-6.32-2.16c-1.33-1.44-1.99-3.74-1.99-6.9s.66-5.46,1.98-6.89c1.32-1.43,3.42-2.14,6.32-2.14s5,.71,6.32,2.14c1.32,1.43,1.98,3.73,1.98,6.9ZM136.18,92.12c0,1.47.14,2.54.43,3.18.29.65.88.98,1.79.98s1.5-.32,1.78-.96.42-1.71.42-3.21-.13-2.57-.4-3.2-.86-.95-1.78-.95-1.52.33-1.81.98c-.29.65-.43,1.71-.43,3.18Z"/><path class="cls-5" d="M56.15,132.03l3.85-17.42h9.13l3.93,17.42h-6.08l-.49-2h-3.98l-.42,2h-5.93ZM64.26,119.34l-.99,6.08h2.57l-.94-6.08h-.65Z"/><path class="cls-5" d="M81.29,132.03h-7.62v-17.42h7.36c3,0,5.16.68,6.47,2.03,1.32,1.35,1.98,3.51,1.98,6.49s-.63,5.2-1.9,6.68c-1.27,1.48-3.36,2.22-6.29,2.22ZM83.4,123.43c0-1.56-.16-2.6-.48-3.12-.32-.52-1.04-.78-2.15-.78h-1.07v7.59h1.07c.9,0,1.57-.22,2-.68.42-.45.62-1.46.62-3.02Z"/><path class="cls-5" d="M90.68,132.03v-17.42h13.05v4.81h-7.02v1.48h5.46v4.76h-5.46v1.56h7.02v4.81h-13.05Z"/><path class="cls-5" d="M112.8,132.37c-2.89,0-4.99-.71-6.28-2.12-1.29-1.41-1.94-3.72-1.94-6.93s.64-5.52,1.91-6.93c1.27-1.41,3.38-2.12,6.3-2.12s5.04.71,6.34,2.12c1.3,1.41,1.95,3.82,1.95,7.21s-.83,5.79-2.5,7.18l2.08,3.09-4.58,2.26-2.55-3.8c-.16.02-.41.03-.75.03ZM110.51,123.32c0,1.44.16,2.49.48,3.16.32.67.93,1,1.82,1s1.48-.33,1.77-.99c.29-.66.43-1.72.43-3.18s-.14-2.52-.43-3.17c-.29-.65-.88-.98-1.77-.98s-1.5.33-1.82,1c-.32.67-.48,1.72-.48,3.16Z"/><path class="cls-5" d="M128.22,114.61v11.41c0,.5.13.86.38,1.07s.67.31,1.26.31,1-.1,1.25-.31.36-.56.36-1.07v-11.41h6.03v11.08c0,2.46-.62,4.19-1.85,5.19-1.23,1-3.17,1.5-5.81,1.5s-4.58-.49-5.81-1.46c-1.23-.97-1.85-2.68-1.85-5.12v-11.18h6.03Z"/><path class="cls-5" d="M137.63,132.03l3.85-17.42h9.13l3.93,17.42h-6.08l-.49-2h-3.98l-.42,2h-5.93ZM145.74,119.34l-.99,6.08h2.57l-.94-6.08h-.65Z"/><path class="cls-5" d="M162.77,132.03h-7.62v-17.42h7.36c3,0,5.16.68,6.47,2.03,1.32,1.35,1.98,3.51,1.98,6.49s-.63,5.2-1.9,6.68c-1.27,1.48-3.36,2.22-6.29,2.22ZM164.88,123.43c0-1.56-.16-2.6-.48-3.12-.32-.52-1.04-.78-2.15-.78h-1.07v7.59h1.07c.9,0,1.57-.22,2-.68.42-.45.62-1.46.62-3.02Z"/><path class="cls-5" d="M188.38,123.32c0,3.17-.66,5.47-1.98,6.9-1.32,1.43-3.42,2.14-6.31,2.14s-4.99-.72-6.32-2.16c-1.33-1.44-1.99-3.74-1.99-6.9s.66-5.46,1.98-6.89c1.32-1.43,3.42-2.14,6.32-2.14s5,.71,6.32,2.14c1.32,1.43,1.98,3.73,1.98,6.9ZM177.88,123.32c0,1.47.14,2.54.43,3.18.29.65.88.98,1.79.98s1.5-.32,1.78-.96.42-1.71.42-3.21-.13-2.57-.4-3.2-.86-.95-1.78-.95-1.52.33-1.81.98c-.29.65-.43,1.71-.43,3.18Z"/><path class="cls-5" d="M51.01,163.23h-7.62v-17.42h7.36c3,0,5.16.68,6.47,2.03,1.32,1.35,1.98,3.51,1.98,6.49s-.63,5.2-1.9,6.68c-1.27,1.48-3.36,2.22-6.29,2.22ZM53.12,154.63c0-1.56-.16-2.6-.48-3.12-.32-.52-1.04-.78-2.15-.78h-1.07v7.59h1.07c.9,0,1.57-.22,2-.68.42-.45.62-1.46.62-3.02Z"/><path class="cls-5" d="M76.62,154.52c0,3.17-.66,5.47-1.98,6.9-1.32,1.43-3.42,2.14-6.31,2.14s-4.99-.72-6.32-2.16c-1.33-1.44-1.99-3.74-1.99-6.9s.66-5.46,1.98-6.89c1.32-1.43,3.42-2.14,6.32-2.14s5,.71,6.32,2.14c1.32,1.43,1.98,3.73,1.98,6.9ZM66.12,154.52c0,1.47.14,2.54.43,3.18.29.65.88.98,1.79.98s1.5-.32,1.78-.96.42-1.71.42-3.21-.13-2.57-.4-3.2-.86-.95-1.78-.95-1.52.33-1.81.98c-.29.65-.43,1.71-.43,3.18Z"/><path class="cls-5" d="M89.34,145.81v11.41c0,.5.13.86.38,1.07s.67.31,1.26.31,1-.1,1.25-.31.36-.56.36-1.07v-11.41h6.03v11.08c0,2.46-.62,4.19-1.85,5.19-1.23,1-3.17,1.5-5.81,1.5s-4.58-.49-5.81-1.46c-1.23-.97-1.85-2.68-1.85-5.12v-11.18h6.03Z"/><path class="cls-5" d="M100.08,163.23v-17.42h5.93l4,6.6h.36v-6.6h6.03v17.42h-5.95l-3.95-7.1h-.39v7.1h-6.03Z"/><path class="cls-5" d="M117.96,163.23v-17.42h6.03v17.42h-6.03Z"/><path class="cls-5" d="M125.55,163.23v-17.42h12.56v4.91h-6.53v2.81h4.97v4.91h-4.97v4.78h-6.03Z"/><path class="cls-5" d="M155.09,154.52c0,3.17-.66,5.47-1.98,6.9-1.32,1.43-3.42,2.14-6.31,2.14s-4.99-.72-6.32-2.16c-1.33-1.44-1.99-3.74-1.99-6.9s.66-5.46,1.98-6.89c1.32-1.43,3.42-2.14,6.32-2.14s5,.71,6.32,2.14c1.32,1.43,1.98,3.73,1.98,6.9ZM144.59,154.52c0,1.47.14,2.54.43,3.18.29.65.88.98,1.79.98s1.5-.32,1.78-.96.42-1.71.42-3.21-.13-2.57-.4-3.2-.86-.95-1.78-.95-1.52.33-1.81.98c-.29.65-.43,1.71-.43,3.18Z"/><path class="cls-5" d="M163.8,158.74h-1.48v4.5h-6.03v-17.42h7.33c2.69,0,4.61.45,5.77,1.34s1.74,2.55,1.74,4.97-.64,4.15-1.92,5.19l1.72,5.93h-6.14l-.99-4.5ZM163.77,153.98c.85,0,1.27-.57,1.27-1.7s-.48-1.7-1.43-1.7h-1.33v3.41h1.48Z"/><path class="cls-5" d="M172.33,163.23v-17.42h8.97l1.35,6.66,1.12-6.66h9.23v17.42h-6.03v-8.97h-.29l-1.51,8.79h-5.04l-1.48-8.79h-.29v8.97h-6.03Z"/><path class="cls-5" d="M194.56,163.23v-17.42h13.05v4.81h-7.02v1.48h5.46v4.76h-5.46v1.56h7.02v4.81h-13.05Z"/></g></g></g></svg>