<?xml version="1.0" encoding="UTF-8"?><svg id="Camada_2" data-name="Camada 2" xmlns="http://www.w3.org/2000/svg" viewBox="0 0 250.72 252.45"><defs><style>.cls-1 {
        fill: #65bc95;
      }

      .cls-2 {
        fill: #9ed1b6;
      }

      .cls-3 {
        fill: #9eddbc;
      }

      .cls-4 {
        fill: #41a2a1;
      }

      .cls-5 {
        fill: #008f8b;
      }

      .cls-6 {
        fill: none;
        stroke: #008f8b;
        stroke-dasharray: 3 3;
        stroke-linecap: round;
        stroke-linejoin: round;
      }

      .cls-7 {
        fill: #bedfcb;
      }</style></defs><g id="Layer_1" data-name="Layer 1"><g><rect class="cls-3" width="250.67" height="252.44"/><rect class="cls-6" x="24.74" y="25.04" width="201.19" height="202.37" rx="15.11" ry="15.11"/><polygon class="cls-1" points="250.67 252.44 250.65 179.52 204.64 184.69 117.17 252.41 250.67 252.44"/><polygon class="cls-5" points="250.66 186.6 250.59 177.25 198.38 177.63 175.55 222.05 250.66 186.6"/><polygon class="cls-4" points="119.31 252.43 200.9 207.47 198.46 177.63 116.2 252.45 119.31 252.43"/><polygon class="cls-7" points="250.66 186.6 212.6 204.51 224.81 223.24 250.72 241.26 250.66 186.6"/><polygon class="cls-2" points="250.22 231.16 198.48 177.63 172.78 222.83 250.33 245.82 250.22 231.16"/><g><path class="cls-5" d="M48.6,101.02l3.84-17.42h9.12l3.92,17.42h-6.08l-.49-2h-3.97l-.42,2h-5.92ZM56.7,88.33l-.99,6.08h2.57l-.93-6.08h-.65Z"/><path class="cls-5" d="M78.41,100.68c-1.83.45-3.71.68-5.64.68s-3.4-.27-4.44-.82c-1.04-.55-1.79-1.46-2.25-2.74-.46-1.28-.69-3.13-.69-5.54,0-3.45.53-5.81,1.6-7.08,1.07-1.27,3.09-1.91,6.09-1.91,1.25,0,2.72.17,4.42.52l.91.18-.16,4.65c-1.42-.17-2.73-.26-3.94-.26s-1.98.23-2.32.69-.52,1.41-.52,2.85.08,2.44.25,2.99c.16.55.43.92.79,1.1.36.18.95.27,1.77.27l4.05-.16.08,4.58Z"/><path class="cls-5" d="M79.56,101.02v-17.42h13.04v4.81h-7.01v1.48h5.45v4.76h-5.45v1.56h7.01v4.81h-13.04Z"/><path class="cls-5" d="M107.06,88.61c-2.44-.26-4.22-.39-5.32-.39s-1.75.03-1.94.09c-.18.06-.27.19-.27.38s.1.34.31.44c.21.1.86.28,1.96.52,1.1.24,2,.48,2.7.71.7.23,1.33.56,1.9.99.56.42.93.95,1.12,1.56s.27,1.44.27,2.48c0,2.15-.57,3.68-1.71,4.6s-2.87,1.38-5.17,1.38c-1.11,0-2.27-.08-3.49-.23s-2.16-.31-2.82-.47l-1.01-.23.26-4.6c2.65.38,4.82.57,6.52.57.9,0,1.35-.2,1.35-.6,0-.17-.1-.3-.31-.38s-.77-.19-1.69-.33c-2.42-.38-4.07-.97-4.95-1.78-.88-.81-1.31-2.13-1.31-3.97,0-2.34.56-3.94,1.69-4.81,1.13-.87,2.86-1.3,5.2-1.3,1.64,0,3.58.17,5.79.49l1.09.18-.16,4.68Z"/><path class="cls-5" d="M122.07,88.61c-2.44-.26-4.22-.39-5.32-.39s-1.75.03-1.94.09c-.18.06-.27.19-.27.38s.1.34.31.44c.21.1.86.28,1.96.52,1.1.24,2,.48,2.7.71.7.23,1.33.56,1.9.99.56.42.93.95,1.12,1.56s.27,1.44.27,2.48c0,2.15-.57,3.68-1.71,4.6s-2.87,1.38-5.17,1.38c-1.11,0-2.27-.08-3.49-.23s-2.16-.31-2.82-.47l-1.01-.23.26-4.6c2.65.38,4.82.57,6.52.57.9,0,1.35-.2,1.35-.6,0-.17-.1-.3-.31-.38s-.77-.19-1.69-.33c-2.42-.38-4.07-.97-4.95-1.78-.88-.81-1.31-2.13-1.31-3.97,0-2.34.56-3.94,1.69-4.81,1.13-.87,2.86-1.3,5.2-1.3,1.64,0,3.58.17,5.79.49l1.09.18-.16,4.68Z"/><path class="cls-5" d="M140.05,92.31c0,3.17-.66,5.47-1.97,6.9-1.32,1.43-3.42,2.14-6.3,2.14s-4.99-.72-6.31-2.16c-1.32-1.44-1.99-3.74-1.99-6.9s.66-5.46,1.97-6.89c1.32-1.43,3.42-2.14,6.31-2.14s5,.71,6.31,2.14c1.32,1.43,1.97,3.73,1.97,6.9ZM129.45,78.94h6.29l-2.83,3.54h-4.57l1.12-3.54ZM129.55,92.31c0,1.47.14,2.54.43,3.18.29.65.88.98,1.79.98s1.5-.32,1.78-.96c.28-.64.42-1.71.42-3.21s-.13-2.57-.4-3.2-.86-.95-1.78-.95-1.52.33-1.8.98c-.29.65-.43,1.71-.43,3.18Z"/><path class="cls-5" d="M148.75,96.52h-1.48v4.5h-6.03v-17.42h7.32c2.68,0,4.61.45,5.77,1.34s1.74,2.55,1.74,4.97-.64,4.15-1.92,5.19l1.71,5.93h-6.13l-.99-4.5ZM148.72,91.76c.85,0,1.27-.57,1.27-1.7s-.48-1.7-1.43-1.7h-1.32v3.41h1.48Z"/><path class="cls-5" d="M157.27,101.02v-17.42h6.03v17.42h-6.03Z"/><path class="cls-5" d="M181.06,92.31c0,3.17-.66,5.47-1.97,6.9-1.32,1.43-3.42,2.14-6.3,2.14s-4.99-.72-6.31-2.16c-1.32-1.44-1.99-3.74-1.99-6.9s.66-5.46,1.97-6.89c1.32-1.43,3.42-2.14,6.31-2.14s5,.71,6.31,2.14c1.32,1.43,1.97,3.73,1.97,6.9ZM170.56,92.31c0,1.47.14,2.54.43,3.18.29.65.88.98,1.79.98s1.5-.32,1.78-.96c.28-.64.42-1.71.42-3.21s-.13-2.57-.4-3.2-.86-.95-1.78-.95-1.52.33-1.8.98c-.29.65-.43,1.71-.43,3.18Z"/><path class="cls-5" d="M195.5,88.61c-2.44-.26-4.22-.39-5.32-.39s-1.75.03-1.94.09c-.18.06-.27.19-.27.38s.1.34.31.44c.21.1.86.28,1.96.52,1.1.24,2,.48,2.7.71.7.23,1.33.56,1.9.99.56.42.93.95,1.12,1.56s.27,1.44.27,2.48c0,2.15-.57,3.68-1.71,4.6s-2.87,1.38-5.17,1.38c-1.11,0-2.27-.08-3.49-.23s-2.16-.31-2.82-.47l-1.01-.23.26-4.6c2.65.38,4.82.57,6.52.57.9,0,1.35-.2,1.35-.6,0-.17-.1-.3-.31-.38s-.77-.19-1.69-.33c-2.42-.38-4.07-.97-4.95-1.78-.88-.81-1.31-2.13-1.31-3.97,0-2.34.56-3.94,1.69-4.81,1.13-.87,2.86-1.3,5.2-1.3,1.64,0,3.58.17,5.79.49l1.09.18-.16,4.68Z"/><path class="cls-5" d="M110.89,119.81c-2.44-.26-4.22-.39-5.32-.39s-1.75.03-1.94.09c-.18.06-.27.19-.27.38s.1.34.31.44c.21.1.86.28,1.96.52,1.1.24,2,.48,2.7.71.7.23,1.33.56,1.9.99.56.42.93.95,1.12,1.56s.27,1.44.27,2.48c0,2.15-.57,3.68-1.71,4.6s-2.87,1.38-5.17,1.38c-1.11,0-2.27-.08-3.49-.23s-2.16-.31-2.82-.47l-1.01-.23.26-4.6c2.65.38,4.82.57,6.52.57.9,0,1.35-.2,1.35-.6,0-.17-.1-.3-.31-.38s-.77-.19-1.69-.33c-2.42-.38-4.07-.97-4.95-1.78-.88-.81-1.31-2.13-1.31-3.97,0-2.34.56-3.94,1.69-4.81,1.13-.87,2.86-1.3,5.2-1.3,1.64,0,3.58.17,5.79.49l1.09.18-.16,4.68Z"/><path class="cls-5" d="M112.66,132.22v-17.42h13.04v4.81h-7.01v1.48h5.45v4.76h-5.45v1.56h7.01v4.81h-13.04Z"/><path class="cls-5" d="M126.92,132.22v-17.42h8.96l1.35,6.66,1.12-6.66h9.22v17.42h-6.03v-8.97h-.29l-1.51,8.79h-5.04l-1.48-8.79h-.29v8.97h-6.03Z"/><path class="cls-5" d="M64,163.42v-17.42h13.04v4.81h-7.01v1.48h5.45v4.76h-5.45v1.56h7.01v4.81h-13.04Z"/><path class="cls-5" d="M83.4,146l1.58,4.78,2.03-4.78h5.92l-3.77,8.29,3.53,9.13h-6.18l-1.53-4.63-1.58,4.63h-6.13l3.71-8.35-3.71-9.07h6.13Z"/><path class="cls-5" d="M92.49,163.42l3.84-17.42h9.12l3.92,17.42h-6.08l-.49-2h-3.97l-.42,2h-5.92ZM100.6,150.73l-.99,6.08h2.57l-.93-6.08h-.65Z"/><path class="cls-5" d="M124.18,153.17v9.72c-3.13.5-5.45.75-6.96.75s-2.79-.17-3.86-.51c-1.07-.34-1.9-.9-2.51-1.68s-1.03-1.7-1.26-2.76c-.23-1.06-.35-2.4-.35-4.03,0-3.34.62-5.68,1.87-7.02s3.35-2,6.31-2c.88,0,1.88.07,2.99.22,1.11.15,1.99.29,2.65.43l.99.23v4.55c-2.49-.22-4.26-.34-5.31-.34s-1.73.05-2.05.14c-.32.09-.58.21-.77.34s-.33.39-.42.77c-.12.54-.18,1.48-.18,2.83s.16,2.34.47,2.95c.31.62.94.92,1.9.92l.88-.03v-1.3h-.78l-.03-4.21h6.42Z"/><path class="cls-5" d="M125.66,163.42v-17.42h13.04v4.81h-7.01v1.48h5.45v4.76h-5.45v1.56h7.01v4.81h-13.04Z"/><path class="cls-5" d="M147.42,158.92h-1.48v4.5h-6.03v-17.42h7.32c2.68,0,4.61.45,5.77,1.34s1.74,2.55,1.74,4.97-.64,4.15-1.92,5.19l1.71,5.93h-6.13l-.99-4.5ZM147.4,154.16c.85,0,1.27-.57,1.27-1.7s-.48-1.7-1.43-1.7h-1.32v3.41h1.48Z"/><path class="cls-5" d="M172.15,154.71c0,3.17-.66,5.47-1.97,6.9-1.32,1.43-3.42,2.14-6.3,2.14s-4.99-.72-6.31-2.16c-1.32-1.44-1.99-3.74-1.99-6.9s.66-5.46,1.97-6.89c1.32-1.43,3.42-2.14,6.31-2.14s5,.71,6.31,2.14c1.32,1.43,1.97,3.73,1.97,6.9ZM161.66,154.71c0,1.47.14,2.54.43,3.18.29.65.88.98,1.79.98s1.5-.32,1.78-.96c.28-.64.42-1.71.42-3.21s-.13-2.57-.4-3.2-.86-.95-1.78-.95-1.52.33-1.8.98c-.29.65-.43,1.71-.43,3.18Z"/><path class="cls-5" d="M186.59,151.01c-2.44-.26-4.22-.39-5.32-.39s-1.75.03-1.94.09c-.18.06-.27.19-.27.38s.1.34.31.44c.21.1.86.28,1.96.52,1.1.24,2,.48,2.7.71.7.23,1.33.56,1.9.99.56.42.93.95,1.12,1.56s.27,1.44.27,2.48c0,2.15-.57,3.68-1.71,4.6s-2.87,1.38-5.17,1.38c-1.11,0-2.27-.08-3.49-.23s-2.16-.31-2.82-.47l-1.01-.23.26-4.6c2.65.38,4.82.57,6.52.57.9,0,1.35-.2,1.35-.6,0-.17-.1-.3-.31-.38s-.77-.19-1.69-.33c-2.42-.38-4.07-.97-4.95-1.78-.88-.81-1.31-2.13-1.31-3.97,0-2.34.56-3.94,1.69-4.81,1.13-.87,2.86-1.3,5.2-1.3,1.64,0,3.58.17,5.79.49l1.09.18-.16,4.68Z"/></g></g></g></svg>