<?xml version="1.0" encoding="UTF-8"?><svg id="Camada_2" data-name="Camada 2" xmlns="http://www.w3.org/2000/svg" viewBox="0 0 250.72 252.45"><defs><style>.cls-1 {
        fill: #65bc95;
      }

      .cls-2 {
        fill: #9ed1b6;
      }

      .cls-3 {
        fill: #9eddbc;
      }

      .cls-4 {
        fill: #41a2a1;
      }

      .cls-5 {
        fill: #008f8b;
      }

      .cls-6 {
        fill: none;
        stroke: #008f8b;
        stroke-dasharray: 3 3;
        stroke-linecap: round;
        stroke-linejoin: round;
      }

      .cls-7 {
        fill: #bedfcb;
      }</style></defs><g id="Layer_1" data-name="Layer 1"><g><rect class="cls-3" width="250.67" height="252.44"/><rect class="cls-6" x="24.74" y="25.04" width="201.19" height="202.37" rx="15.11" ry="15.11"/><polygon class="cls-1" points="250.67 252.44 250.65 179.52 204.64 184.69 117.17 252.41 250.67 252.44"/><polygon class="cls-5" points="250.66 186.6 250.59 177.25 198.38 177.63 175.55 222.05 250.66 186.6"/><polygon class="cls-4" points="119.31 252.43 200.9 207.47 198.46 177.63 116.2 252.45 119.31 252.43"/><polygon class="cls-7" points="250.66 186.6 212.6 204.51 224.81 223.24 250.72 241.26 250.66 186.6"/><polygon class="cls-2" points="250.22 231.16 198.48 177.63 172.78 222.83 250.33 245.82 250.22 231.16"/><g><path class="cls-5" d="M72.94,115.34c-1.84.45-3.72.68-5.64.68s-3.41-.27-4.45-.82c-1.04-.55-1.79-1.46-2.25-2.74-.46-1.28-.69-3.13-.69-5.54,0-3.45.53-5.81,1.6-7.08,1.07-1.27,3.1-1.91,6.1-1.91,1.25,0,2.72.17,4.42.52l.91.18-.16,4.65c-1.42-.17-2.73-.26-3.94-.26s-1.98.23-2.33.69c-.35.46-.52,1.41-.52,2.85s.08,2.44.25,2.99.43.92.79,1.1c.36.18.95.27,1.77.27l4.06-.16.08,4.58Z"/><path class="cls-5" d="M90.08,106.97c0,3.17-.66,5.47-1.98,6.9-1.32,1.43-3.42,2.14-6.31,2.14s-4.99-.72-6.32-2.16c-1.33-1.44-1.99-3.74-1.99-6.9s.66-5.46,1.98-6.89c1.32-1.43,3.42-2.14,6.32-2.14s5,.71,6.32,2.14c1.32,1.43,1.98,3.73,1.98,6.9ZM79.57,106.97c0,1.47.14,2.54.43,3.18.29.65.88.98,1.79.98s1.5-.32,1.78-.96.42-1.71.42-3.21-.13-2.57-.4-3.2-.86-.95-1.78-.95-1.52.33-1.81.98c-.29.65-.43,1.71-.43,3.18Z"/><path class="cls-5" d="M91.27,115.68v-17.42h5.93l4,6.6h.36v-6.6h6.03v17.42h-5.95l-3.95-7.1h-.39v7.1h-6.03Z"/><path class="cls-5" d="M109.16,115.68v-17.42h12.56v4.91h-6.53v2.81h4.97v4.91h-4.97v4.78h-6.03Z"/><path class="cls-5" d="M138.7,106.97c0,3.17-.66,5.47-1.98,6.9-1.32,1.43-3.42,2.14-6.31,2.14s-4.99-.72-6.32-2.16c-1.33-1.44-1.99-3.74-1.99-6.9s.66-5.46,1.98-6.89c1.32-1.43,3.42-2.14,6.32-2.14s5,.71,6.32,2.14c1.32,1.43,1.98,3.73,1.98,6.9ZM128.19,106.97c0,1.47.14,2.54.43,3.18.29.65.88.98,1.79.98s1.5-.32,1.78-.96.42-1.71.42-3.21-.13-2.57-.4-3.2-.86-.95-1.78-.95-1.52.33-1.81.98c-.29.65-.43,1.71-.43,3.18Z"/><path class="cls-5" d="M147.41,111.18h-1.48v4.5h-6.03v-17.42h7.33c2.69,0,4.61.45,5.77,1.34s1.74,2.55,1.74,4.97-.64,4.15-1.92,5.19l1.72,5.93h-6.14l-.99-4.5ZM147.38,106.42c.85,0,1.27-.57,1.27-1.7s-.48-1.7-1.43-1.7h-1.33v3.41h1.48Z"/><path class="cls-5" d="M155.26,103.17v-4.91h13v4.91h-3.38v12.51h-6.03v-12.51h-3.59Z"/><path class="cls-5" d="M185.21,106.97c0,3.17-.66,5.47-1.98,6.9-1.32,1.43-3.42,2.14-6.31,2.14s-4.99-.72-6.32-2.16c-1.33-1.44-1.99-3.74-1.99-6.9s.66-5.46,1.98-6.89c1.32-1.43,3.42-2.14,6.32-2.14s5,.71,6.32,2.14c1.32,1.43,1.98,3.73,1.98,6.9ZM174.71,106.97c0,1.47.14,2.54.43,3.18.29.65.88.98,1.79.98s1.5-.32,1.78-.96.42-1.71.42-3.21-.13-2.57-.4-3.2-.86-.95-1.78-.95-1.52.33-1.81.98c-.29.65-.43,1.71-.43,3.18Z"/><path class="cls-5" d="M39.26,146.88v-17.42h13.05v4.81h-7.02v1.48h5.46v4.76h-5.46v1.56h7.02v4.81h-13.05Z"/><path class="cls-5" d="M65.96,143.19h-.81v3.69h-6.03v-17.42h6.84c2.76,0,4.76.48,6.02,1.43,1.26.95,1.89,2.74,1.89,5.37s-.63,4.44-1.9,5.43c-1.27,1-3.27,1.49-6.01,1.49ZM65.16,138.43h.55c.75,0,1.28-.16,1.6-.49.32-.33.48-.89.48-1.69s-.15-1.33-.46-1.61c-.3-.28-.85-.42-1.62-.42h-.55v4.21Z"/><path class="cls-5" d="M82.55,142.38h-1.48v4.5h-6.03v-17.42h7.33c2.69,0,4.61.45,5.77,1.34s1.74,2.55,1.74,4.97-.64,4.15-1.92,5.19l1.72,5.93h-6.14l-.99-4.5ZM82.52,137.62c.85,0,1.27-.57,1.27-1.7s-.48-1.7-1.43-1.7h-1.33v3.41h1.48Z"/><path class="cls-5" d="M90.01,146.88l3.85-17.42h9.13l3.93,17.42h-6.08l-.49-2h-3.98l-.42,2h-5.93ZM98.12,134.19l-.99,6.08h2.57l-.94-6.08h-.65Z"/><path class="cls-5" d="M105.51,134.37v-4.91h13v4.91h-3.38v12.51h-6.03v-12.51h-3.59Z"/><path class="cls-5" d="M119.55,146.88v-17.42h6.03v17.42h-6.03Z"/><path class="cls-5" d="M139.85,146.54c-1.84.45-3.72.68-5.64.68s-3.41-.27-4.45-.82c-1.04-.55-1.79-1.46-2.25-2.74-.46-1.28-.69-3.13-.69-5.54,0-3.45.53-5.81,1.6-7.08,1.07-1.27,3.1-1.91,6.1-1.91,1.25,0,2.72.17,4.42.52l.91.18-.16,4.65c-1.42-.17-2.73-.26-3.94-.26s-1.98.23-2.33.69c-.35.46-.52,1.41-.52,2.85s.08,2.44.25,2.99.43.92.79,1.1c.36.18.95.27,1.77.27l4.06-.16.08,4.58Z"/><path class="cls-5" d="M141,146.88v-17.42h6.03v17.42h-6.03Z"/><path class="cls-5" d="M156.21,146.88h-7.62v-17.42h7.36c3,0,5.16.68,6.47,2.03,1.32,1.35,1.98,3.51,1.98,6.49s-.63,5.2-1.9,6.68c-1.27,1.48-3.36,2.22-6.29,2.22ZM158.31,138.27c0-1.56-.16-2.6-.48-3.12-.32-.52-1.04-.78-2.15-.78h-1.07v7.59h1.07c.9,0,1.57-.22,2-.68.42-.45.62-1.46.62-3.02Z"/><path class="cls-5" d="M164.16,146.88l3.85-17.42h9.13l3.93,17.42h-6.08l-.49-2h-3.98l-.42,2h-5.93ZM172.28,134.19l-.99,6.08h2.57l-.94-6.08h-.65Z"/><path class="cls-5" d="M189.31,146.88h-7.62v-17.42h7.36c3,0,5.16.68,6.47,2.03,1.32,1.35,1.98,3.51,1.98,6.49s-.63,5.2-1.9,6.68c-1.27,1.48-3.36,2.22-6.29,2.22ZM191.41,138.27c0-1.56-.16-2.6-.48-3.12-.32-.52-1.04-.78-2.15-.78h-1.07v7.59h1.07c.9,0,1.57-.22,2-.68.42-.45.62-1.46.62-3.02Z"/><path class="cls-5" d="M198.69,146.88v-17.42h13.05v4.81h-7.02v1.48h5.46v4.76h-5.46v1.56h7.02v4.81h-13.05Z"/></g></g></g></svg>