<?xml version="1.0" encoding="UTF-8"?><svg id="Camada_2" data-name="Camada 2" xmlns="http://www.w3.org/2000/svg" viewBox="0 0 250.72 252.45"><defs><style>.cls-1 {
        fill: #65bc95;
      }

      .cls-2 {
        fill: #9ed1b6;
      }

      .cls-3 {
        fill: #9eddbc;
      }

      .cls-4 {
        fill: #41a2a1;
      }

      .cls-5 {
        fill: #008f8b;
      }

      .cls-6 {
        fill: none;
        stroke: #008f8b;
        stroke-dasharray: 3 3;
        stroke-linecap: round;
        stroke-linejoin: round;
      }

      .cls-7 {
        fill: #bedfcb;
      }</style></defs><g id="Layer_1" data-name="Layer 1"><g><rect class="cls-3" width="250.67" height="252.44"/><rect class="cls-6" x="24.74" y="25.04" width="201.19" height="202.37" rx="15.11" ry="15.11"/><polygon class="cls-1" points="250.67 252.44 250.65 179.52 204.64 184.69 117.17 252.41 250.67 252.44"/><polygon class="cls-5" points="250.66 186.6 250.59 177.25 198.38 177.63 175.55 222.05 250.66 186.6"/><polygon class="cls-4" points="119.31 252.43 200.9 207.47 198.46 177.63 116.2 252.45 119.31 252.43"/><polygon class="cls-7" points="250.66 186.6 212.6 204.51 224.81 223.24 250.72 241.26 250.66 186.6"/><polygon class="cls-2" points="250.22 231.16 198.48 177.63 172.78 222.83 250.33 245.82 250.22 231.16"/><g><path class="cls-5" d="M49.56,116.38l3.84-17.42h9.12l3.92,17.42h-6.08l-.49-2h-3.97l-.42,2h-5.92ZM57.67,103.7l-.99,6.08h2.57l-.93-6.08h-.65Z"/><path class="cls-5" d="M74.68,116.38h-7.61v-17.42h7.35c3,0,5.15.68,6.47,2.03,1.32,1.35,1.97,3.51,1.97,6.49s-.63,5.2-1.9,6.68c-1.26,1.48-3.36,2.22-6.29,2.22ZM76.78,107.78c0-1.56-.16-2.6-.48-3.12-.32-.52-1.04-.78-2.14-.78h-1.07v7.59h1.07c.9,0,1.57-.22,2-.68.42-.45.62-1.46.62-3.02Z"/><path class="cls-5" d="M84.05,116.38v-17.42h13.04v4.81h-7.01v1.48h5.45v4.76h-5.45v1.56h7.01v4.81h-13.04Z"/><path class="cls-5" d="M106.16,116.72c-2.89,0-4.98-.71-6.27-2.12-1.29-1.41-1.93-3.72-1.93-6.93s.64-5.52,1.91-6.93c1.27-1.41,3.37-2.12,6.3-2.12s5.04.71,6.34,2.12c1.3,1.41,1.95,3.82,1.95,7.21s-.83,5.79-2.49,7.18l2.08,3.09-4.57,2.26-2.55-3.8c-.16.02-.41.03-.75.03ZM103.87,107.67c0,1.44.16,2.49.48,3.16s.93,1,1.82,1,1.48-.33,1.77-.99c.29-.66.43-1.72.43-3.18s-.14-2.52-.43-3.17c-.29-.65-.88-.98-1.77-.98s-1.5.33-1.82,1c-.32.67-.48,1.72-.48,3.16Z"/><path class="cls-5" d="M121.56,98.96v11.41c0,.5.12.86.38,1.07s.67.31,1.26.31,1-.1,1.25-.31c.24-.21.36-.56.36-1.07v-11.41h6.03v11.08c0,2.46-.62,4.19-1.84,5.19-1.23,1-3.16,1.5-5.8,1.5s-4.58-.49-5.8-1.46-1.84-2.68-1.84-5.12v-11.18h6.03Z"/><path class="cls-5" d="M130.96,116.38l3.84-17.42h9.12l3.92,17.42h-6.08l-.49-2h-3.97l-.42,2h-5.92ZM139.06,103.7l-.99,6.08h2.57l-.93-6.08h-.65Z"/><path class="cls-5" d="M159.08,117.44c.51.3.77.93.77,1.89s-.27,1.65-.82,2.11c-.54.45-1.37.68-2.48.68-.9,0-1.85-.07-2.86-.21l-.44-.08.1-2.03c.54.02.95.03,1.25.03.66,0,.99-.19.99-.57,0-.21-.07-.35-.21-.42-.14-.07-.4-.1-.78-.1h-.23v-2.05c-2.37-.14-4-.86-4.88-2.16s-1.32-3.64-1.32-7.01.53-5.69,1.6-6.97c1.07-1.27,3.09-1.91,6.09-1.91,1.25,0,2.72.17,4.42.52l.91.18-.16,4.65c-1.42-.17-2.73-.26-3.94-.26s-1.98.23-2.32.69-.52,1.41-.52,2.85.08,2.44.25,2.99c.16.55.43.92.79,1.1.36.18.95.27,1.77.27l4.05-.16.08,4.58c-1.56.38-3.19.6-4.91.65v.26c1.37.02,2.31.18,2.82.48Z"/><path class="cls-5" d="M161.4,116.38l3.84-17.42h9.12l3.92,17.42h-6.08l-.49-2h-3.97l-.42,2h-5.92ZM174.14,96.78c-.18.17-.51.4-1,.68-.48.28-.95.42-1.4.42s-1.14-.15-2.06-.44c-.93-.29-1.5-.44-1.73-.44-.47,0-1.05.16-1.74.47l-.36.18-.75-2.76c.29-.35.73-.69,1.3-1.03.57-.34,1.11-.51,1.62-.51s1.21.14,2.09.42c.88.28,1.42.42,1.61.42.35,0,.92-.16,1.71-.47l.39-.13.75,2.78c-.1.1-.25.24-.43.42ZM169.5,103.7l-.99,6.08h2.57l-.93-6.08h-.65Z"/><path class="cls-5" d="M195.11,107.67c0,3.17-.66,5.47-1.97,6.9-1.32,1.43-3.42,2.14-6.3,2.14s-4.99-.72-6.31-2.16c-1.32-1.44-1.99-3.74-1.99-6.9s.66-5.46,1.97-6.89c1.32-1.43,3.42-2.14,6.31-2.14s5,.71,6.31,2.14c1.32,1.43,1.97,3.73,1.97,6.9ZM184.62,107.67c0,1.47.14,2.54.43,3.18.29.65.88.98,1.79.98s1.5-.32,1.78-.96c.28-.64.42-1.71.42-3.21s-.13-2.57-.4-3.2-.86-.95-1.78-.95-1.52.33-1.8.98c-.29.65-.43,1.71-.43,3.18Z"/><path class="cls-5" d="M44.71,147.58l3.84-17.42h9.12l3.92,17.42h-6.08l-.49-2h-3.97l-.42,2h-5.92ZM52.81,134.9l-.99,6.08h2.57l-.93-6.08h-.65Z"/><path class="cls-5" d="M77.95,138.87c0,3.17-.66,5.47-1.97,6.9-1.32,1.43-3.42,2.14-6.3,2.14s-4.99-.72-6.31-2.16c-1.32-1.44-1.99-3.74-1.99-6.9s.66-5.46,1.97-6.89c1.32-1.43,3.42-2.14,6.31-2.14s5,.71,6.31,2.14c1.32,1.43,1.97,3.73,1.97,6.9ZM67.46,138.87c0,1.47.14,2.54.43,3.18.29.65.88.98,1.79.98s1.5-.32,1.78-.96c.28-.64.42-1.71.42-3.21s-.13-2.57-.4-3.2-.86-.95-1.78-.95-1.52.33-1.8.98c-.29.65-.43,1.71-.43,3.18Z"/><path class="cls-5" d="M83.82,147.58l3.84-17.42h9.12l3.92,17.42h-6.08l-.49-2h-3.97l-.42,2h-5.92ZM91.93,134.9l-.99,6.08h2.57l-.93-6.08h-.65Z"/><path class="cls-5" d="M101.33,147.58v-17.42h8.96l1.35,6.66,1.12-6.66h9.22v17.42h-6.03v-8.97h-.29l-1.51,8.79h-5.04l-1.48-8.79h-.29v8.97h-6.03Z"/><path class="cls-5" d="M123.53,130.16h7.87c4.24,0,6.36,1.44,6.36,4.32,0,1.09-.12,1.93-.35,2.52-.23.59-.71,1.14-1.44,1.66.85.36,1.43.81,1.75,1.34.32.53.48,1.41.48,2.64,0,3.29-2.23,4.94-6.7,4.94h-7.97v-17.42ZM130.88,134.14h-1.33v2.78h1.35c.52,0,.88-.11,1.09-.34.21-.22.31-.58.31-1.08s-.11-.84-.34-1.05c-.23-.21-.59-.31-1.09-.31ZM130.96,140.69h-1.4v2.86h1.4c.61,0,1.01-.1,1.22-.3.21-.2.31-.57.31-1.12s-.11-.92-.34-1.13c-.23-.21-.62-.31-1.2-.31Z"/><path class="cls-5" d="M139.3,147.58v-17.42h6.03v17.42h-6.03Z"/><path class="cls-5" d="M146.88,147.58v-17.42h13.04v4.81h-7.01v1.48h5.45v4.76h-5.45v1.56h7.01v4.81h-13.04Z"/><path class="cls-5" d="M161.14,147.58v-17.42h5.92l4,6.6h.36v-6.6h6.03v17.42h-5.95l-3.95-7.1h-.39v7.1h-6.03Z"/><path class="cls-5" d="M178.46,135.08v-4.91h12.99v4.91h-3.38v12.51h-6.03v-12.51h-3.58Z"/><path class="cls-5" d="M192.49,147.58v-17.42h13.04v4.81h-7.01v1.48h5.45v4.76h-5.45v1.56h7.01v4.81h-13.04Z"/></g></g></g></svg>