<?xml version="1.0" encoding="utf-8"?>
<!-- Generator: Adobe Illustrator 25.2.1, SVG Export Plug-In . SVG Version: 6.00 Build 0)  -->
<svg version="1.1" id="Layer_1" xmlns="http://www.w3.org/2000/svg" xmlns:xlink="http://www.w3.org/1999/xlink" x="0px" y="0px"
	 viewBox="0 0 1247.2 153.1" style="enable-background:new 0 0 1247.2 153.1;" xml:space="preserve">
<style type="text/css">
	.st0{opacity:0.15;}
	.st1{fill:none;stroke:#238CC4;stroke-width:0.25;stroke-miterlimit:10;}
</style>
<g>
	<g id="Layer_2_1_">
		<g id="Layer_1-2">
			<g class="st0">
				<g>
					<path class="st1" d="M145.3,75.4c0,0,50.5-33.7,106-13.5s72.3,25.2,111,11.8s37-16.8,57.2-5s30.3,18.5,102.6-6.7
						s89.2,30.2,149.7,20.1s62.2-43.7,114.4-20.2s62.2,23.5,79.1,20.2s18.5-16.8,43.7-11.8s28.6,10.1,52.2,0s32-16.8,75.7,1.7
						s94.2-1.7,94.2-1.7"/>
					<path class="st1" d="M1130.3,71c0,0-50.5,17.6-94.8,1s-53.1-10-77.4-1s-27.4,4-52.4-0.2s-27.1,8.9-46.5,10.9
						s-29.9,4.7-82.4-18.3s-54.2,7.5-114.4,18.3s-76.7-42.2-146.4-18.4s-79.4,16.8-99.8,5.9s-19-7.5-57,4.8S304.9,81.2,250,62.8
						S144.6,75.6,144.6,75.6"/>
					<path class="st1" d="M1129.6,71.7c0,0-50.5,15.1-95.3,0.2s-54.1-8.2-79.1-0.4s-27.9,3-52.6-0.5s-27.2,9.4-49.3,10
						s-32.8,6-85.8-16.3S712.8,69.7,653,81s-75.9-38.8-143-16.3s-76.3,15.1-97,5s-19.4-6.7-56.7,4.5s-53.3,6-107.7-10.5
						s-104.9,12-104.9,12"/>
					<path class="st1" d="M1128.8,72.3c0,0-50.5,12.5-95.9-0.5s-55-6.5-80.7,0.2s-28.4,1.9-52.9-0.7s-27.4,9.9-52.2,9.1
						s-35.8,7.2-89.2-14.4s-55,2.4-114.4,14.4S568.4,44.9,504,66.1s-73.3,13.4-94.2,4.1s-20-5.8-56.5,4.3s-52.1,4.8-106-9.9
						S143,75.9,143,75.9"/>
					<path class="st1" d="M1128.1,73c0,0-50.5,9.9-96.4-1.2s-56-4.7-82.4,0.9s-28.8,0.9-53.1-1s-27.6,10.3-55,8.3
						s-38.8,8.5-92.5-12.5S693.2,67.3,634.2,80S559.7,47.7,498,67.5s-70.2,11.8-91.4,3.2s-20.4-4.9-56.2,4.1s-51,3.6-104.3-9.2
						S142.3,76.1,142.3,76.1"/>
					<path class="st1" d="M1127.3,73.7c0,0-50.5,7.4-97-1.9s-57-3-84.1,1.5s-29.3-0.2-53.3-1.2s-27.7,10.8-57.8,7.4
						s-41.7,9.8-95.9-10.6s-55.8-2.7-114.4,10.6s-73.8-29-132.9-10.6s-67.2,10.1-88.6,2.3s-20.9-4-56,3.8s-49.9,2.4-102.6-8.6
						s-103.2,9.8-103.2,9.8"/>
					<path class="st1" d="M1126.6,74.3c0,0-50.5,4.8-97.6-2.7s-57.9-1.2-85.8,2.2s-29.8-1.2-53.6-1.4s-27.9,11.3-60.5,6.5
						s-44.7,11.1-99.2-8.7s-56.2-5.2-114.4,8.7s-73.1-25.7-129.5-8.7s-64.2,8.4-85.8,1.4s-21.4-3.1-55.8,3.6s-48.8,1.2-100.9-7.9
						s-102.6,9.1-102.6,9.1"/>
					<path class="st1" d="M1125.8,75c0,0-50.5,2.2-98.1-3.4s-58.9,0.6-87.5,2.8s-30.3-2.2-53.8-1.7s-28,11.8-63.4,5.6
						s-47.7,12.3-102.6-6.7s-56.6-7.9-114.4,6.7s-72.3-22.4-126.2-6.7s-61.1,6.7-83,0.6S375,70,341.4,75.6s-47.7,0-99.2-7.3
						s-102.1,8.4-102.1,8.4"/>
					<path class="st1" d="M1125.1,75.7c0,0-50.5-0.3-98.7-4.1s-59.8,2.3-89.2,3.4s-30.8-3.3-54.1-1.9S855,85.3,817,77.8
						S766.4,91.4,711,73s-57-10.4-114.4,4.8S525,58.7,473.8,73s-58.1,5-80.2-0.3s-22.3-1.4-55.3,3.1s-46.5-1.2-97.6-6.7
						s-101.5,7.7-101.5,7.7"/>
					<path class="st1" d="M1124.3,76.3c0,0-50.5-2.9-99.2-4.8s-60.8,4.1-90.8,4.1s-31.2-4.3-54.3-2.2s-28.3,12.7-69,3.8
						s-53.6,14.9-109.3-2.9s-57.4-13-114.4,2.9s-70.9-15.9-119.4-2.9s-55,3.4-77.4-1.2s-22.8-0.5-55,2.9s-45.4-2.4-95.9-6
						s-100.9,7-100.9,7"/>
					<path class="st1" d="M1123.6,77c0,0-50.5-5.4-99.8-5.5s-61.8,5.8-92.5,4.7s-31.7-5.4-54.5-2.4s-28.5,13.2-71.8,3
						s-56.6,16.2-112.7-1s-57.8-15.5-114.4,1s-70.2-12.6-116.1-1s-52,1.7-74.6-2.1s-23.3,0.4-54.8,2.7s-44.3-3.6-94.2-5.4
						s-100.4,6.2-100.4,6.2"/>
					<path class="st1" d="M1122.8,77.7c0,0-50.5-8-100.4-6.2s-62.7,7.6-94.2,5.4s-32.2-6.4-54.8-2.6s-28.7,13.7-74.6,2.1
						s-59.5,17.5-116.1,1s-58.2-18.1-114.4-1s-69.5-9.3-112.7,1s-49,0-71.8-3s-23.8,1.3-54.5,2.4s-43.2-4.8-92.5-4.7
						s-99.8,5.5-99.8,5.5"/>
					<path class="st1" d="M1122.1,78.3c0,0-50.5-10.6-100.9-7s-63.7,9.4-95.9,6s-32.7-7.4-55-2.9s-28.8,14.2-77.4,1.2
						s-62.5,18.7-119.4,2.9S614.8,57.9,559,75.7s-68.7-6-109.3,2.9s-45.9-1.7-69-3.8s-24.3,2.2-54.3,2.2s-42-6-90.8-4.1
						s-99.2,4.8-99.2,4.8"/>
					<path class="st1" d="M1121.3,79c0,0-50.5-13.1-101.5-7.7s-64.6,11.1-97.6,6.7s-33.2-8.5-55.3-3.2s-29,14.7-80.2,0.3
						S721.4,95.2,664,80s-59-23.2-114.4-4.8s-68-2.7-106,4.8s-42.9-3.4-66.2-4.7s-24.8,3-54.1,1.9s-40.9-7.2-89.1-3.5
						s-98.7,4.1-98.7,4.1"/>
					<path class="st1" d="M1120.6,79.7c0,0-50.5-15.7-102-8.4s-65.6,12.9-99.2,7.3s-33.7-9.5-55.6-3.4s-29.2,15.1-83-0.6
						s-68.4,21.3-126.2,6.7s-59.4-25.8-114.4-6.7s-67.3,0.6-102.6,6.7s-39.8-5-63.4-5.6s-25.3,3.9-53.8,1.7S280.6,69,233,74.6
						S134.8,78,134.8,78"/>
					<path class="st1" d="M1119.8,80.3c0,0-50.5-18.3-102.6-9.1s-66.6,14.7-100.9,7.9s-34.1-10.6-55.8-3.6s-29.3,15.6-85.8-1.4
						s-71.4,22.6-129.5,8.7s-59.8-28.4-114.4-8.7s-66.6,3.8-99.2,8.7S394.8,76,371,76.2s-25.7,4.8-53.6,1.4s-38.7-9.6-85.8-2.2
						S134,78.2,134,78.2"/>
					<path class="st1" d="M1119.1,81c0,0-50.5-20.8-103.2-9.8s-67.5,16.4-102.6,8.6s-34.6-11.6-56-3.8s-29.5,16.1-88.6-2.3
						s-74.3,23.9-132.9,10.6s-60.2-30.9-114.4-10.6s-65.9,7.1-95.9,10.6s-33.7-8.4-57.8-7.4s-26.2,5.7-53.4,1.2s-37.6-10.8-84.1-1.5
						s-97,1.9-97,1.9"/>
					<path class="st1" d="M1118.3,81.7c0,0-50.5-23.4-103.7-10.6s-68.5,18.2-104.3,9.2s-35.1-12.7-56.2-4.1s-29.6,16.6-91.4-3.2
						s-77.3,25.2-136.3,12.5S565.8,52,512,73s-65.1,10.4-92.5,12.5s-30.7-10.1-55-8.2s-26.7,6.6-53.1,1s-36.4-12-82.4-0.9
						s-96.4,1.2-96.4,1.2"/>
					<path class="st1" d="M1117.6,82.3c0,0-50.5-26-104.3-11.3s-69.5,20-106,9.9s-35.6-13.7-56.5-4.3s-29.8,17.1-94.2-4.1
						S676.4,98.9,617,86.9s-61-36-114.4-14.4s-64.4,13.7-89.2,14.4s-27.6-11.8-52.1-9.1s-27.2,7.4-52.9,0.7s-35.3-13.2-80.8-0.2
						s-95.9,0.5-95.9,0.5"/>
					<path class="st1" d="M1116.8,83c0,0-50.5-28.5-104.8-12s-70.4,21.7-107.7,10.5s-36-14.7-56.7-4.6s-30,17.5-97-5
						s-83.2,27.7-143,16.3S546.2,49.7,493.2,72s-63.7,17-85.8,16.3s-24.6-13.5-49.4-10s-27.6,8.3-52.6,0.5s-34.2-14.4-79.1,0.4
						S131.1,79,131.1,79"/>
					<path class="st1" d="M1116.1,83.7c0,0-50.5-31.1-105.4-12.7s-71.4,23.5-109.3,11.1s-36.5-15.8-57-4.8s-30.1,18-99.8-5.8
						s-86.2,29-146.4,18.3s-61.8-41.2-114.3-18.3s-63,20.3-82.4,18.3s-21.5-15.1-46.5-10.9S326.8,88,302.5,79s-33.1-15.6-77.4,1
						s-94.8-1-94.8-1"/>
					<path class="st1" d="M1115.4,84.3c0,0-50.5-33.6-106-13.5s-72.3,25.2-111,11.8s-37-16.8-57.2-5s-30.3,18.5-102.6-6.7
						s-89.2,30.3-149.7,20.2s-62.2-43.8-114.4-20.2s-62.2,23.6-79.1,20.2s-18.5-16.8-43.7-11.8s-28.6,10.1-52.1,0s-32-16.8-75.7,1.7
						s-94.2-1.7-94.2-1.7"/>
				</g>
				<g>
					<path class="st1" d="M19.6,85.1c0,0,62.8-132,132-52.8s90.1,99,138.2,46.2s46.1-66,71.2-19.8s37.7,72.6,127.8-26.4
						s111,118.8,186.4,79.2s77.5-171.6,142.4-79.2s77.5,92.4,98.5,79.2s23-66,54.5-46.2s35.6,39.6,64.9,0
						c29.3-39.6,39.8-66,94.3,6.6s117.3-6.6,117.3-6.6"/>
					<path class="st1" d="M1246.2,67.9c0,0-62.8,69.2-118,3.8s-66.1-39.3-96.3-4.1s-34.1,15.7-65.2-1s-33.7,34.9-58,42.8
						S871.4,127.7,806,37.8s-67.5,29.6-142.4,71.7S568.1-55.9,481.3,37.8s-98.9,66-124.3,23s-23.6-29.5-70.9,18.9
						S218.4,107.8,150,35.9s-131.3,50-131.3,50"/>
					<path class="st1" d="M1245.2,70.6c0,0-62.8,59.1-118.7,0.9s-67.3-32.4-98.4-1.6s-34.7,11.6-65.5-1.9s-33.9,36.8-61.4,39.3
						s-40.9,23.3-106.8-64.1s-68,19.5-142.4,64.1s-94.6-152.4-178-64.1S378.8,102.6,353,62.7s-24.2-26.1-70.6,17.9
						s-66.3,23.6-134.1-41.2S17.8,86.6,17.8,86.6"/>
					<path class="st1" d="M1244.3,73.2c0,0-62.8,49-119.4-1.9s-68.5-25.5-100.5,1s-35.3,7.5-65.8-2.8s-34.1,38.7-64.9,35.8
						s-44.6,28.3-111-56.6s-68.5,9.4-142.4,56.6S546.5-34.3,466.3,48.7S375,101.5,349,64.7s-24.8-22.6-70.3,17s-64.9,18.9-132-38.7
						S16.9,87.3,16.9,87.3"/>
					<path class="st1" d="M1243.4,75.8c0,0-62.8,39-120.1-4.7s-69.7-18.5-102.6,3.5s-35.9,3.5-66.1-3.8s-34.3,40.5-68.4,32.4
						s-48.3,33.3-115.2-49s-69-0.6-142.4,49s-92.8-126.7-169.7-49S371.3,100.3,345,66.7s-25.4-19.2-70,16s-63.6,14.2-129.9-36.1
						S15.9,88.1,15.9,88.1"/>
					<path class="st1" d="M1242.4,78.4c0,0-62.8,28.9-120.8-7.6s-70.9-11.6-104.7,6s-36.5-0.6-66.4-4.7S916,114.6,878.6,101
						s-52,38.4-119.4-41.5S689.7,48.9,616.8,101S524.9-12.8,451.3,59.5S367.6,99.2,341,68.7S315,53,271.3,83.8s-62.2,9.4-127.8-33.6
						S15,88.8,15,88.8"/>
					<path class="st1" d="M1241.5,81c0,0-62.8,18.9-121.5-10.3s-72.1-4.7-106.8,8.5s-37.1-4.7-66.7-5.7s-34.7,44.3-75.4,25.5
						S815.4,142.3,747.5,65s-70-20.8-142.4,33.9S514.1-2,443.8,65s-79.9,33-106.8,5.7s-26.6-12.2-69.4,14.2s-60.7,4.7-125.7-31.1
						S14.1,89.5,14.1,89.5"/>
					<path class="st1" d="M1240.6,83.7c0,0-62.8,8.8-122.2-13.2s-73.3,2.2-108.9,11s-37.7-8.8-67-6.6s-34.9,46.2-78.9,22
						s-59.4,48.4-127.8-26.4s-70.5-30.8-142.4,26.4s-90.1-88-157.1-26.4s-76.1,26.4-103.3,2.2s-27.2-8.8-69.1,13.2
						s-59.4,0-123.6-28.6s-127.1,33-127.1,33"/>
					<path class="st1" d="M1239.7,86.3c0,0-62.8-1.3-122.9-16s-74.5,9.1-111,13.5s-38.3-12.9-67.3-7.5s-35.1,48.1-82.4,18.5
						s-63,53.4-132-18.9S653.1,35,581.6,94.8s-89.2-75.1-152.9-18.9s-72.3,19.8-99.8-1.2s-27.8-5.3-68.8,12.3s-57.9-4.7-121.5-26.1
						S12.2,91,12.2,91"/>
					<path class="st1" d="M1238.7,88.9c0,0-62.8-11.3-123.6-18.9s-75.7,16-113.1,16s-38.9-17-67.6-8.5s-35.3,50-85.9,15.1
						s-66.7,58.5-136.2-11.3s-71.5-50.9-142.4,11.4s-88.3-62.2-148.7-11.3s-68.5,13.2-96.4-4.7s-28.4-1.9-68.5,11.3
						S199.8,78.5,137,64.4S11.3,91.7,11.3,91.7"/>
					<path class="st1" d="M1237.8,91.5c0,0-62.8-21.4-124.3-21.7s-76.9,22.9-115.2,18.5s-39.5-21.1-67.9-9.4s-35.5,51.9-89.4,11.6
						s-70.4,63.5-140.3-3.8s-72-61-142.4,3.8s-87.4-49.3-144.5-3.8s-64.7,6.6-92.9-8.2s-29,1.6-68.2,10.4s-55.2-14.1-117.3-21.1
						s-125,24.5-125,24.5"/>
					<path class="st1" d="M1236.9,94.1c0,0-62.8-31.4-125-24.5s-78.1,29.9-117.3,21.1s-40.1-25.2-68.2-10.4s-35.7,53.8-92.9,8.2
						S759.4,157,689,92.2s-72.5-71-142.4-3.8S460,52,406.2,92.2s-60.9,0-89.4-11.6s-29.6,5-67.9,9.4s-53.8-18.9-115.2-18.5
						S9.4,93.2,9.4,93.2"/>
					<path class="st1" d="M1235.9,96.7c0,0-62.8-41.5-125.7-27.3S1031,106.2,990.9,93s-40.7-29.2-68.5-11.3s-35.9,55.6-96.3,4.7
						s-77.8,73.6-148.7,11.3s-73-81.1-142.4-11.3s-85.6-23.6-136.2,11.3s-57.2-6.6-85.9-15.1s-30.2,8.5-67.6,8.5
						s-52.4-23.6-113.1-16S8.5,93.9,8.5,93.9"/>
					<path class="st1" d="M1235,99.4c0,0-62.8-51.5-126.4-30.2s-80.5,43.7-121.5,26.1S945.8,62,918.3,83s-36.1,57.5-99.8,1.3
						s-81.5,78.6-152.9,18.9S592,12,523.1,84.3s-84.7-10.7-132,18.9s-53.3-13.2-82.4-18.6s-30.8,12-67.3,7.5s-51-28.3-111-13.5
						S7.6,94.6,7.6,94.6"/>
					<path class="st1" d="M1234.1,102c0,0-62.8-61.6-127.1-33s-81.7,50.6-123.6,28.6s-41.9-37.4-69.1-13.2S878,143.8,811,82.2
						s-85.2,83.6-157.1,26.4s-74-101.2-142.4-26.4s-83.8,2.2-127.8,26.4s-49.6-19.8-78.9-22s-31.4,15.4-67,6.6s-49.6-33-108.9-11
						S6.6,95.4,6.6,95.4"/>
					<path class="st1" d="M1233.1,104.6c0,0-62.8-71.7-127.8-35.8s-82.9,57.5-125.7,31.1s-42.5-41.5-69.4-14.2s-36.5,61.3-106.8-5.7
						s-88.9,88.6-161.3,33.9S567.6,2.8,499.7,80.1S416.8,95.2,376.1,114s-45.8-26.4-75.4-25.5s-32,18.9-66.7,5.7
						s-48.2-37.7-106.8-8.5S5.7,96.1,5.7,96.1"/>
					<path class="st1" d="M1232.2,107.2c0,0-62.8-81.7-128.5-38.7S1019.7,133,976,102.2s-43.1-45.6-69.7-15.1s-36.8,63.2-110.4-9.1
						s-92.6,93.7-165.5,41.5S555.4-1.9,488,78s-82,28-119.4,41.5s-42-33-71.9-28.9s-32.6,22.3-66.4,4.7s-46.8-42.4-104.7-6
						S4.8,96.8,4.8,96.8"/>
					<path class="st1" d="M1231.3,109.8c0,0-62.8-91.8-129.2-41.5s-85.3,71.3-129.9,36.2s-43.7-49.7-70-16s-36.9,65.1-113.8-12.6
						s-96.3,98.7-169.7,49s-75.5-131.4-142.4-49s-81.1,40.9-115.2,49s-38.2-39.6-68.4-32.4s-33.2,25.8-66.1,3.8
						s-45.4-47.2-102.6-3.5S3.8,97.6,3.8,97.6"/>
					<path class="st1" d="M1230.3,112.5c0,0-62.8-101.8-129.9-44.3s-86.5,78.3-132,38.7s-44.3-53.8-70.3-17s-37.1,67-117.3-16
						S681,177.5,607,130.4S531-11.1,464.6,73.8s-80.2,53.8-111,56.6s-34.4-46.2-64.9-35.8s-33.8,29.2-65.8,2.8s-44-51.9-100.6-0.9
						S2.9,98.3,2.9,98.3"/>
					<path class="st1" d="M1229.4,115.1c0,0-62.8-111.9-130.6-47.2s-87.7,85.2-134,41.2s-44.9-57.8-70.7-17.9S856.9,160,773.4,71.7
						s-103.6,108.8-178,64.1S518.8-15.7,452.9,71.7s-79.3,66.6-106.8,64.1S315.5,83,284.6,96.5s-34.4,32.7-65.5,1.9
						s-42.6-56.6-98.4,1.6S2,99.1,2,99.1"/>
					<path class="st1" d="M1228.5,117.7c0,0-62.8-122-131.3-50s-88.9,92.1-136.2,43.7s-45.5-61.9-70.9-18.9s-37.5,70.7-124.3-22.9
						s-107.3,113.8-182.2,71.7s-77-161.6-142.4-71.7s-78.4,79.5-102.6,71.7s-26.8-59.4-58-42.8s-35,36.1-65.2,0.9
						s-41.2-61.3-96.3,4.1S1,99.8,1,99.8"/>
					<path class="st1" d="M1227.6,120.3c0,0-62.8-132-132-52.8s-90.1,99-138.2,46.2s-46.1-66-71.2-19.8s-37.7,72.6-127.8-26.4
						s-111,118.8-186.4,79.2S494.4-24.9,429.5,67.5S352,159.9,331,146.7s-23-66-54.5-46.2s-35.6,39.6-64.9,0s-39.8-66-94.2,6.6
						S0.1,100.5,0.1,100.5"/>
				</g>
				<g>
					<path class="st1" d="M19.6,85.1c0,0,62.8-132,132-52.8s90.1,99,138.2,46.2s46.1-66,71.2-19.8s37.7,72.6,127.8-26.4
						s111,118.8,186.4,79.2s77.5-171.6,142.4-79.2s77.5,92.4,98.5,79.2s23-66,54.5-46.2s35.6,39.6,64.9,0
						c29.3-39.6,39.8-66,94.3,6.6s117.3-6.6,117.3-6.6"/>
					<path class="st1" d="M1246.2,67.9c0,0-62.8,69.2-118,3.8s-66.1-39.3-96.3-4.1s-34.1,15.7-65.2-1s-33.7,34.9-58,42.8
						S871.4,127.7,806,37.8s-67.5,29.6-142.4,71.7S568.1-55.9,481.3,37.8s-98.9,66-124.3,23s-23.6-29.5-70.9,18.9
						S218.4,107.8,150,35.9s-131.3,50-131.3,50"/>
					<path class="st1" d="M1245.2,70.6c0,0-62.8,59.1-118.7,0.9s-67.3-32.4-98.4-1.6s-34.7,11.6-65.5-1.9s-33.9,36.8-61.4,39.3
						s-40.9,23.3-106.8-64.1s-68,19.5-142.4,64.1s-94.6-152.4-178-64.1S378.8,102.6,353,62.7s-24.2-26.1-70.6,17.9
						s-66.3,23.6-134.1-41.2S17.8,86.6,17.8,86.6"/>
					<path class="st1" d="M1244.3,73.2c0,0-62.8,49-119.4-1.9s-68.5-25.5-100.5,1s-35.3,7.5-65.8-2.8s-34.1,38.7-64.9,35.8
						s-44.6,28.3-111-56.6s-68.5,9.4-142.4,56.6S546.5-34.3,466.3,48.7S375,101.5,349,64.7s-24.8-22.6-70.3,17s-64.9,18.9-132-38.7
						S16.9,87.3,16.9,87.3"/>
					<path class="st1" d="M1243.4,75.8c0,0-62.8,39-120.1-4.7s-69.7-18.5-102.6,3.5s-35.9,3.5-66.1-3.8s-34.3,40.5-68.4,32.4
						s-48.3,33.3-115.2-49s-69-0.6-142.4,49s-92.8-126.7-169.7-49S371.3,100.3,345,66.7s-25.4-19.2-70,16s-63.6,14.2-129.9-36.1
						S15.9,88.1,15.9,88.1"/>
					<path class="st1" d="M1242.4,78.4c0,0-62.8,28.9-120.8-7.6s-70.9-11.6-104.7,6s-36.5-0.6-66.4-4.7S916,114.6,878.6,101
						s-52,38.4-119.4-41.5S689.7,48.9,616.8,101S524.9-12.8,451.3,59.5S367.6,99.2,341,68.7S315,53,271.3,83.8s-62.2,9.4-127.8-33.6
						S15,88.8,15,88.8"/>
					<path class="st1" d="M1241.5,81c0,0-62.8,18.9-121.5-10.3s-72.1-4.7-106.8,8.5s-37.1-4.7-66.7-5.7s-34.7,44.3-75.4,25.5
						S815.4,142.3,747.5,65s-70-20.8-142.4,33.9S514.1-2,443.8,65s-79.9,33-106.8,5.7s-26.6-12.2-69.4,14.2s-60.7,4.7-125.7-31.1
						S14.1,89.5,14.1,89.5"/>
					<path class="st1" d="M1240.6,83.7c0,0-62.8,8.8-122.2-13.2s-73.3,2.2-108.9,11s-37.7-8.8-67-6.6s-34.9,46.2-78.9,22
						s-59.4,48.4-127.8-26.4s-70.5-30.8-142.4,26.4s-90.1-88-157.1-26.4s-76.1,26.4-103.3,2.2s-27.2-8.8-69.1,13.2
						s-59.4,0-123.6-28.6s-127.1,33-127.1,33"/>
					<path class="st1" d="M1239.7,86.3c0,0-62.8-1.3-122.9-16s-74.5,9.1-111,13.5s-38.3-12.9-67.3-7.5s-35.1,48.1-82.4,18.5
						s-63,53.4-132-18.9S653.1,35,581.6,94.8s-89.2-75.1-152.9-18.9s-72.3,19.8-99.8-1.2s-27.8-5.3-68.8,12.3s-57.9-4.7-121.5-26.1
						S12.2,91,12.2,91"/>
					<path class="st1" d="M1238.7,88.9c0,0-62.8-11.3-123.6-18.9s-75.7,16-113.1,16s-38.9-17-67.6-8.5s-35.3,50-85.9,15.1
						s-66.7,58.5-136.2-11.3s-71.5-50.9-142.4,11.4s-88.3-62.2-148.7-11.3s-68.5,13.2-96.4-4.7s-28.4-1.9-68.5,11.3
						S199.8,78.5,137,64.4S11.3,91.7,11.3,91.7"/>
					<path class="st1" d="M1237.8,91.5c0,0-62.8-21.4-124.3-21.7s-76.9,22.9-115.2,18.5s-39.5-21.1-67.9-9.4s-35.5,51.9-89.4,11.6
						s-70.4,63.5-140.3-3.8s-72-61-142.4,3.8s-87.4-49.3-144.5-3.8s-64.7,6.6-92.9-8.2s-29,1.6-68.2,10.4s-55.2-14.1-117.3-21.1
						s-125,24.5-125,24.5"/>
					<path class="st1" d="M1236.9,94.1c0,0-62.8-31.4-125-24.5s-78.1,29.9-117.3,21.1s-40.1-25.2-68.2-10.4s-35.7,53.8-92.9,8.2
						S759.4,157,689,92.2s-72.5-71-142.4-3.8S460,52,406.2,92.2s-60.9,0-89.4-11.6s-29.6,5-67.9,9.4s-53.8-18.9-115.2-18.5
						S9.4,93.2,9.4,93.2"/>
					<path class="st1" d="M1235.9,96.7c0,0-62.8-41.5-125.7-27.3S1031,106.2,990.9,93s-40.7-29.2-68.5-11.3s-35.9,55.6-96.3,4.7
						s-77.8,73.6-148.7,11.3s-73-81.1-142.4-11.3s-85.6-23.6-136.2,11.3s-57.2-6.6-85.9-15.1s-30.2,8.5-67.6,8.5
						s-52.4-23.6-113.1-16S8.5,93.9,8.5,93.9"/>
					<path class="st1" d="M1235,99.4c0,0-62.8-51.5-126.4-30.2s-80.5,43.7-121.5,26.1S945.8,62,918.3,83s-36.1,57.5-99.8,1.3
						s-81.5,78.6-152.9,18.9S592,12,523.1,84.3s-84.7-10.7-132,18.9s-53.3-13.2-82.4-18.6s-30.8,12-67.3,7.5s-51-28.3-111-13.5
						S7.6,94.6,7.6,94.6"/>
					<path class="st1" d="M1234.1,102c0,0-62.8-61.6-127.1-33s-81.7,50.6-123.6,28.6s-41.9-37.4-69.1-13.2S878,143.8,811,82.2
						s-85.2,83.6-157.1,26.4s-74-101.2-142.4-26.4s-83.8,2.2-127.8,26.4s-49.6-19.8-78.9-22s-31.4,15.4-67,6.6s-49.6-33-108.9-11
						S6.6,95.4,6.6,95.4"/>
					<path class="st1" d="M1233.1,104.6c0,0-62.8-71.7-127.8-35.8s-82.9,57.5-125.7,31.1s-42.5-41.5-69.4-14.2s-36.5,61.3-106.8-5.7
						s-88.9,88.6-161.3,33.9S567.6,2.8,499.7,80.1S416.8,95.2,376.1,114s-45.8-26.4-75.4-25.5s-32,18.9-66.7,5.7
						s-48.2-37.7-106.8-8.5S5.7,96.1,5.7,96.1"/>
					<path class="st1" d="M1232.2,107.2c0,0-62.8-81.7-128.5-38.7S1019.7,133,976,102.2s-43.1-45.6-69.7-15.1s-36.8,63.2-110.4-9.1
						s-92.6,93.7-165.5,41.5S555.4-1.9,488,78s-82,28-119.4,41.5s-42-33-71.9-28.9s-32.6,22.3-66.4,4.7s-46.8-42.4-104.7-6
						S4.8,96.8,4.8,96.8"/>
					<path class="st1" d="M1231.3,109.8c0,0-62.8-91.8-129.2-41.5s-85.3,71.3-129.9,36.2s-43.7-49.7-70-16s-36.9,65.1-113.8-12.6
						s-96.3,98.7-169.7,49s-75.5-131.4-142.4-49s-81.1,40.9-115.2,49s-38.2-39.6-68.4-32.4s-33.2,25.8-66.1,3.8
						s-45.4-47.2-102.6-3.5S3.8,97.6,3.8,97.6"/>
					<path class="st1" d="M1230.3,112.5c0,0-62.8-101.8-129.9-44.3s-86.5,78.3-132,38.7s-44.3-53.8-70.3-17s-37.1,67-117.3-16
						S681,177.5,607,130.4S531-11.1,464.6,73.8s-80.2,53.8-111,56.6s-34.4-46.2-64.9-35.8s-33.8,29.2-65.8,2.8s-44-51.9-100.6-0.9
						S2.9,98.3,2.9,98.3"/>
					<path class="st1" d="M1229.4,115.1c0,0-62.8-111.9-130.6-47.2s-87.7,85.2-134,41.2s-44.9-57.8-70.7-17.9S856.9,160,773.4,71.7
						s-103.6,108.8-178,64.1S518.8-15.7,452.9,71.7s-79.3,66.6-106.8,64.1S315.5,83,284.6,96.5s-34.4,32.7-65.5,1.9
						s-42.6-56.6-98.4,1.6S2,99.1,2,99.1"/>
					<path class="st1" d="M1228.5,117.7c0,0-62.8-122-131.3-50s-88.9,92.1-136.2,43.7s-45.5-61.9-70.9-18.9s-37.5,70.7-124.3-22.9
						s-107.3,113.8-182.2,71.7s-77-161.6-142.4-71.7s-78.4,79.5-102.6,71.7s-26.8-59.4-58-42.8s-35,36.1-65.2,0.9
						s-41.2-61.3-96.3,4.1S1,99.8,1,99.8"/>
					<path class="st1" d="M1227.6,120.3c0,0-62.8-132-132-52.8s-90.1,99-138.2,46.2s-46.1-66-71.2-19.8s-37.7,72.6-127.8-26.4
						s-111,118.8-186.4,79.2S494.4-24.9,429.5,67.5S352,159.9,331,146.7s-23-66-54.5-46.2s-35.6,39.6-64.9,0s-39.8-66-94.2,6.6
						S0.1,100.5,0.1,100.5"/>
				</g>
			</g>
		</g>
	</g>
</g>
</svg>
