<?xml version="1.0" encoding="UTF-8"?>
<svg id="Camada_1" xmlns="http://www.w3.org/2000/svg" xmlns:xlink="http://www.w3.org/1999/xlink" viewBox="0 0 1080 198">
  <defs>
    <style>
      .cls-1 {
        fill: #ff90e8;
      }

      .cls-2 {
        fill: none;
      }

      .cls-3 {
        fill: #68fe7f;
      }

      .cls-4 {
        clip-path: url(#clippath-1);
      }

      .cls-5 {
        fill: #ff7051;
      }

      .cls-6 {
        clip-path: url(#clippath);
      }
    </style>
    <clipPath id="clippath">
      <rect class="cls-2" x="-674.38" y="-1880.53" width="1919.17" height="1079.53"/>
    </clipPath>
    <clipPath id="clippath-1">
      <rect class="cls-2" x="-1.56" y="-7" width="1079.53" height="205"/>
    </clipPath>
  </defs>
  <g class="cls-6">
    <path class="cls-1" d="M1169.25-2435.93c-242.8,0-535.41,56.03-884.04,56.03s-641.24-56.03-884.04-56.03c-684.82,0-924.51,635.02-924.51,1260.69S-1283.65,85.46-598.83,85.46c245.91,0,535.41-52.92,884.04-52.92s638.13,52.92,884.04,52.92c684.82,0,924.51-635.02,924.51-1260.7s-239.69-1260.69-924.51-1260.69M288.32-60.85c-432.68,0-762.64-354.86-762.64-700.39s217.9-582.1,217.9-740.85-171.21-242.8-171.21-445.13c0-255.25,205.45-339.3,715.95-339.3s715.95,84.05,715.95,339.3c0,202.33-171.2,292.61-171.2,445.13s217.9,401.55,217.9,740.85S721-60.85,288.32-60.85"/>
    <path class="cls-3" d="M1455.78-2818.96c-324.81,0-716.24,74.96-1182.63,74.96s-857.82-74.96-1182.62-74.96c-916.12,0-1236.76,849.49-1236.76,1686.49S-1825.59,554.02-909.47,554.02c328.97,0,716.24-70.79,1182.62-70.79s853.66,70.79,1182.63,70.79c916.12,0,1236.76-849.49,1236.76-1686.49s-320.64-1686.49-1236.76-1686.49M277.32,358.3c-578.82,0-1020.22-474.72-1020.22-936.94s291.49-778.7,291.49-991.07-229.03-324.81-229.03-595.48c0-341.46,274.84-453.9,957.76-453.9s957.76,112.43,957.76,453.9c0,270.67-229.03,391.43-229.03,595.48s291.49,537.18,291.49,991.07S856.13,358.3,277.32,358.3"/>
  </g>
  <g class="cls-4">
    <path class="cls-5" d="M1315.08,260.08c0-181.5-41.88-400.23-41.88-660.85s41.88-479.35,41.88-660.84c0-511.92-474.69-691.1-942.4-691.1s-942.4,179.17-942.4,691.1c0,183.83,39.56,400.23,39.56,660.84s-39.56,477.02-39.56,660.85c0,511.92,474.69,691.09,942.4,691.09s942.4-179.17,942.4-691.09M-460.36-398.44c0-323.44,265.27-570.1,523.56-570.1s435.13,162.88,553.81,162.88,181.5-127.98,332.75-127.98c190.81,0,253.63,153.58,253.63,535.19s-62.83,535.19-253.63,535.19c-151.25,0-218.73-127.98-332.75-127.98S316.84,171.66,63.2,171.66-460.36-75-460.36-398.44"/>
  </g>
</svg>