<?xml version="1.0" encoding="UTF-8"?>
<svg id="Camada_1" xmlns="http://www.w3.org/2000/svg" xmlns:xlink="http://www.w3.org/1999/xlink" viewBox="0 0 1920 1080">
  <defs>
    <style>
      .cls-1 {
        fill: #ff90e8;
      }

      .cls-2 {
        fill: none;
      }

      .cls-3 {
        fill: #68fe7f;
      }

      .cls-4 {
        clip-path: url(#clippath-1);
      }

      .cls-5 {
        fill: #ffebe6;
      }

      .cls-6 {
        fill: #874fff;
      }

      .cls-7 {
        fill: #ff7051;
      }

      .cls-8 {
        clip-path: url(#clippath-2);
      }

      .cls-9 {
        clip-path: url(#clippath);
      }
    </style>
    <clipPath id="clippath">
      <rect class="cls-2" x="-84.82" y="-1776.57" width="1920" height="1080"/>
    </clipPath>
    <clipPath id="clippath-1">
      <rect class="cls-2" x="-84.82" y="-1776.57" width="1920" height="1080"/>
    </clipPath>
    <clipPath id="clippath-2">
      <rect class="cls-2" x=".62" y=".47" width="1919.17" height="1079.53"/>
    </clipPath>
  </defs>
  <g class="cls-9">
    <g class="cls-4">
      <path class="cls-5" d="M1825.58-535.94c-312.51,167.54-714.54,53.11-848.34-196.44-131.38-245.06-68.02-504.8-129.49-619.46-59.06-110.17-217.67-109.07-296.02-255.21-98.84-184.36,43.31-338.72,412.02-536.39,368.72-197.68,575.95-230.63,674.79-46.27,78.35,146.14-10.35,277.63,48.71,387.8,61.47,114.66,312.87,205.65,444.25,450.71,133.79,249.56,6.58,647.73-305.93,815.27M1542.16-2592.48c-195.16,5.77-497.87,69.98-749.68,204.98-251.81,135-442.6,332.03-527.34,479.66C-14.24-1421.1-156.7-1091.21,85.57-639.3,327.85-187.4,746.86,178.43,1241.48-86.74c177.61-95.22,454.82-60.64,706.63-195.64,251.81-135,392.78-393.77,570.39-489,494.62-265.18,421.84-816.64,179.57-1268.54-242.27-451.9-594.93-569.13-1155.9-552.56"/>
      <path class="cls-6" d="M1936.29-330.82c-392.27,210.3-896.91,66.67-1064.85-246.58-164.92-307.61-85.38-633.64-162.55-777.57-74.14-138.28-273.23-136.91-371.57-320.34-124.06-231.41,54.36-425.17,517.18-673.3,462.82-248.13,722.95-289.49,847.02-58.08,98.34,183.44-12.99,348.49,61.14,486.77,77.16,143.93,392.72,258.14,557.63,565.75,167.94,313.25,8.26,813.05-384.01,1023.35M1580.53-2912.25c-220.12,118.01-458.17,311.03-774.24,480.49-316.07,169.45-608.58,260.88-828.7,378.89-620.86,332.86-529.51,1025.06-225.4,1592.3C56.3,106.67,582.25,565.88,1203.1,233.02c222.95-119.53,459.68-308.21,775.75-477.67,316.07-169.46,604.25-262.19,827.19-381.71,620.86-332.86,529.51-1025.06,225.4-1592.3-304.11-567.24-830.06-1026.44-1450.92-693.59"/>
    </g>
  </g>
  <g class="cls-8">
    <path class="cls-7" d="M1621.06-236.64c-181.5,0-400.23,41.88-660.85,41.88s-479.35-41.88-660.84-41.88c-511.92,0-691.1,474.69-691.1,942.4s179.17,942.4,691.1,942.4c183.83,0,400.23-39.56,660.84-39.56s477.02,39.56,660.85,39.56c511.92,0,691.09-474.69,691.09-942.4s-179.17-942.4-691.09-942.4M962.54,1538.8c-323.44,0-570.1-265.27-570.1-523.56s162.88-435.13,162.88-553.81-127.98-181.5-127.98-332.75c0-190.81,153.58-253.63,535.19-253.63s535.19,62.83,535.19,253.63c0,151.25-127.98,218.73-127.98,332.75s162.88,300.17,162.88,553.81-246.65,523.56-570.1,523.56"/>
    <path class="cls-1" d="M1844.25-554.93c-242.8,0-535.41,56.03-884.04,56.03s-641.24-56.03-884.04-56.03c-684.82,0-924.51,635.02-924.51,1260.69S-608.65,1966.46,76.17,1966.46c245.91,0,535.41-52.92,884.04-52.92s638.13,52.92,884.04,52.92c684.82,0,924.51-635.02,924.51-1260.7s-239.69-1260.69-924.51-1260.69M963.32,1820.15c-432.68,0-762.64-354.86-762.64-700.39s217.9-582.1,217.9-740.85S247.37,136.11,247.37-66.22c0-255.25,205.45-339.3,715.95-339.3s715.95,84.05,715.95,339.3c0,202.33-171.2,292.61-171.2,445.13s217.9,401.55,217.9,740.85-329.96,700.39-762.64,700.39"/>
    <path class="cls-3" d="M2130.78-937.96c-324.81,0-716.24,74.96-1182.63,74.96s-857.82-74.96-1182.62-74.96c-916.12,0-1236.76,849.49-1236.76,1686.49s320.64,1686.49,1236.76,1686.49c328.97,0,716.24-70.79,1182.62-70.79s853.66,70.79,1182.63,70.79c916.12,0,1236.76-849.49,1236.76-1686.49s-320.64-1686.49-1236.76-1686.49M952.32,2239.3c-578.82,0-1020.22-474.72-1020.22-936.94S223.59,523.66,223.59,311.29-5.44-13.52-5.44-284.19c0-341.46,274.84-453.9,957.76-453.9s957.76,112.43,957.76,453.9c0,270.67-229.03,391.43-229.03,595.48s291.49,537.18,291.49,991.07-441.4,936.94-1020.22,936.94"/>
  </g>
</svg>